<?xml version="1.0" encoding="UTF-8"?><svg id="Layer_2" xmlns="http://www.w3.org/2000/svg" viewBox="0 0 631.59 790.71"><defs><style>.cls-1{fill:#fff;}.cls-2{fill:#ff7ee3;}</style></defs><g id="Layer_5"><g id="queens"><path class="cls-2" d="m508.68,55.99c1.58-.15,2.68.81,3.85,1.63,6.07,4.28,11.95,8.8,17.65,13.55,13.92,11.6,27.68,23.39,42.28,34.17,6.89,5.08,13.45,10.6,20.17,15.9,1.58,1.25,3.06,2.56,3.8,4.51-1.3.93-2.87,1.14-4.35,1.52-1.24.32-2.44.68-3.44,1.51-.43.35-.85.74-.75,1.39.13.83.84.68,1.32.66,3.34-.12,6.29-1.32,8.9-3.39,3.51,1.13,6.04,3.75,8.8,5.97,4.01,3.23,7.8,6.72,11.74,10.04,2.19,1.84,4.38,3.7,6.74,5.3,2.49,1.69,3.58,3.96,3.72,6.86.29,6,.81,11.97,1.04,17.98.16,4.25.25,8.57,1.17,12.79.56,2.6.23,5.12-.84,7.55-.29.65-.61,1.3-.93,1.93-4.72,9.16-9.49,18.29-14.15,27.48-1.57,3.1-3.69,5.45-7.16,6.25-1.81.42-3.65.76-5.5.87-5.04.29-9.87,1.55-14.65,3.02-6.15,1.9-12.09,4.4-18.04,6.85-1.98.82-3.97,1.62-5.93,2.5-2.79,1.26-4.06,3.47-3.94,6.52.05,1.29.21,2.55.56,3.8,1.87,6.6,3.35,13.3,4.39,20.08.52,3.39.64,6.84,1.27,10.2,1.04,5.51.8,11.11,1.33,16.66.6,6.25.38,12.58.45,18.88.05,4.29.11,8.59-.01,12.88-.25,8.6.49,17.16.82,25.73.11,2.85.42,5.72.98,8.51,1.3,6.46.6,12.81-.73,19.14-1.05,5.03-2.27,10.03-3.28,15.07-.75,3.78-1.17,7.61-1.46,11.47-.44,5.71-.62,11.41-.65,17.14-.03,5.67.96,11.07,3.22,16.27,1.88,4.34,3.22,8.86,4.01,13.54.34,2,.26,3.95-.1,5.96-.26,1.46-1.22,2.16-2.12,3.03-2.53.98-5.07,1.93-7.59,2.94-3.74,1.5-7.67,2.23-11.58,3.06-2.94.62-5.83,1.39-8.59,2.61-7.44,3.29-10.95,8.78-10.69,16.89.05,1.42.4,2.84.41,4.26.01,2.53-.52,4.88-3.13,6.08-.54.25-1.18.19-1.39-.51-.33-1.09-.54-2.22-.85-3.31-1.03-3.68-2.95-6.76-5.92-9.23-3.74-3.11-7.43-6.3-11.53-8.92-4.35-2.79-8.39-5.94-12.29-9.31-1.95-1.68-4.03-3.2-6.13-4.69-3.58-2.55-7.39-4.72-10.48-8.02-2.83-3.02-6.63-4.97-10.51-6.51-7.2-2.86-13.95-6.54-20.43-10.79-5.5-3.61-11.27-6.78-17.37-9.29-4.24-1.74-8.56-3.21-13.1-3.96-1.57-1.24-3.39-.85-5.15-.77h-.07c-.55-.48-1.19-.71-1.91-.73-2.5-.05-5-.08-7.51-.12-.28,0-.57-.02-.85-.05-2.17-1.27-4.55-.81-6.88-.82-1.11-.23-2.21-.45-3.32-.68-.45-.09-.83-.45-.72-.83.1-.34.52-.71.89-.84,1.24-.46,2.53-.29,3.78-.07,5.48.96,11,.78,16.52.66,3.75.2,7.49.38,11.15-.78.58-.03,1.16-.06,1.74-.1,3.18.2,6.33.16,9.41-.78.3-.02.61-.03.91-.05,3.49.33,6.97.07,10.45-.16.81-.06,1.6-.42,2.4-.64.3-.03.59-.05.89-.08,2.05.16,4.1.25,6.01-.74.57-.04,1.15-.07,1.72-.11,3.44,0,6.88.01,10.32.02,3.57.36,6.86,1.73,10.25,2.75.53.51,1.17.75,1.89.74,2.92-.02,5.84-.02,8.76-.1.5-.01.99-.42,1.48-.65,1.42-.11,2.86-.09,4.25-.35,2.5-.47,4.3-2.17,4.22-4.67-.22-7.14,1.42-14.17,1.15-21.29-.05-1.33-.23-2.65-.41-4.68-1.08,1.56-1.28,2.63-1.48,3.72-1.08,6.18-1.88,12.38-1.66,18.67.11,2.97-.96,5.25-3.57,6.75-2.29.02-4.57.04-6.86.06-3.14-.73-6.31-1.35-9.42-2.21-3.69-1.02-7.41-1.6-11.24-1.3-3.64.05-7.27.1-10.91.15-.72.01-1.38.2-1.93.69l-.07.06c-3.47-.31-6.93.1-10.39.23-.84.03-1.66.12-2.38.63l-.12-.03c-3.34.05-6.69.1-10.03.16-.71.01-1.37.22-1.93.7h-.07c-3.07.05-6.14.06-9.21.17-.65.02-1.29.44-1.93.67h-7.69c-3.05-.97-7.02-1.08-9.99-.27-.13.03-.22.17-.34.26l-.06.06c-2.26,0-4.53,0-6.79-.01-1.46-1.43-.99-3.2-.73-4.85.26-1.68.82-3.32,1.19-4.99.67-3.09.94-6.21.45-9.35-.28-1.8-.68-3.56-2.05-4.96-.27.28-.42.36-.41.43.26,8.06-1.62,15.86-2.83,23.74-.49,3.19-1.61,4.06-4.82,4.34-4.11.36-5.15,1.26-6.09,5.21-.36,1.52-.66,3.08-1.2,4.53-.73,1.93-1.95,3.49-4.1,4.02-.99-.03-1.99-.07-2.98-.07-.43,0-.94.2-.82.68.08.33.55.58.87.84.1.08.27.05.42.07.83.34,1.66.67,2.49,1.01,1.42,1.08,2.85,1.5,4.3.03,1.19-.98,1.52-2.35,1.76-3.78.28-1.69.5-3.39.89-5.05.43-1.83,1.11-3.56,3.18-4.19,7.79.03,15.57.07,23.36.1.32-.02.63-.05.95-.07,2.48.98,5.06.97,7.66.83,7.06.75,13.65,2.79,19.87,6.32,15.92,9.05,31.95,17.91,47.91,26.88,1.36.76,2.64,1.71,3.85,2.7,5.1,4.18,10.36,8.13,16.07,11.44.13.6.25,1.2.38,1.81-.73,2.55.35,4.47,2.22,6.05.98.83,2.08,1.52,3.13,2.26,3.69,2.62,6.6,5.91,8.59,9.98,4.73,9.68.81,21.59-8.8,26.47-4.08,2.07-8.31,3.85-12.4,5.9-3.71,1.86-7.37,3.81-10.96,5.89-2.22,1.28-4.37,2.74-6.38,4.34-5.06,4.01-8.25,9.05-8.31,15.75-.02,2.33-.21,4.64-2.71,5.84h-4.39c-.25-.06-.47-.17-.66-.34-.15-.25-.3-.5-.45-.75-.54-1.06-.45-2.16-.17-3.26.35-1.37.33-2.76.24-4.15.19-.47.06-.85-.36-1.14-.64-2.55-2.28-4.23-4.63-5.29-11.27-5.12-21.39-12.09-31.43-19.22-5.01-3.56-10.07-7.07-15.16-10.52-5.33-3.62-10.89-6.84-16.63-9.77-10.45-5.34-20.49-11.41-30.5-17.52-3.91-2.39-7.79-4.81-11.76-7.09-6.3-3.62-9.73-9.02-10.65-16.18-.39-2.99-.56-5.98-.78-8.97-.25-3.35.52-6.54,1.22-9.75.26-1.19.94-2.01,2.04-2.59,2.41-1.25,4.78-2.58,7.16-3.88,1.11.22,2.21.49,3.33.65,2.75.41,5.46.51,8.23-1.19-.79-.39-1.26-.73-1.79-.86-.82-.19-1.68-.31-2.52-.32-2.41-.03-4.83.02-7.24.04-.57-.04-1.15-.03-1.71-.12-6.79-1.07-13.61,5.8-13.59,12.44.02,6.4-.83,12.86.7,19.22.17.69.23,1.41.22,2.12,0,.94-.5,1.61-1.38,1.97-.91.38-2.19.16-2.72-.62-.47-.69-.93-1.49-1.09-2.29-.94-4.9-2.38-9.7-2.86-14.7-.46-4.73-2.06-9.17-3.89-13.53-1-2.37-2.03-4.72-3.07-7.07-.53-1.19-.9-2.4-.89-3.72.02-1.31.99-2.14,2.25-1.83.83.2,1.63.52,2.45.77,2.19.65,4.38,1.29,6.69,1.35,3.94,1.2,7.98.83,12,.79,2.68.21,5.24.92,7.77,1.78,2.82,1.59,5.64,1.29,8.44-.06.89-.28,1.78-.57,2.67-.85.28-.01.6.06.82-.05.35-.18.83-.45.9-.76.19-.79-.47-.81-1.02-.82-3.09-.02-6.18-.03-9.27-.04-.29-.01-.59-.02-.88-.03-2.46-1.17-5.08-.9-7.68-.81l-.06-.06c-2.47-1.24-5.11-.87-7.72-.81-.28,0-.55-.03-.83-.07-1.58-1.19-3.39-.87-5.16-.82-3.49-.69-6.92-1.57-10.24-2.88-.79-.31-1.62-.57-2.45-.68-2.23-.31-3.3.93-2.65,3.01.25.81.62,1.59.91,2.39,1.75,4.81,3.51,9.61,5.22,14.44,2.2,6.18,3.62,12.56,5.03,18.95.42,1.88.6,3.68-1.12,5.07-1.81.02-3.62.06-5.43.06-.86,0-1.68.02-2.23.81-1.42.9-2.84,1.81-4.26,2.71-1.42,0-2.84,0-4.26-.01-1.28-.82-1.95-2.07-2.04-3.51-.22-3.26-1.64-6.22-2.19-9.39.51-.64.36-1.2-.21-1.71-.22-1.15-.43-2.3-.65-3.44.51-.64.36-1.2-.21-1.71-.22-1.15-.43-2.3-.65-3.44.51-.64.36-1.2-.21-1.71-.38-3.41-1.55-6.71-1.43-10.19.41-.26.58-.61.43-1.09.05-.52.09-1.04.14-1.56.1-.56-.15-.84-.7-.89l-.07-.04c-1.52-1.04-1.75-1.03-3.32.02l-.09.04c-.52-.03-.81.21-.88.72l-.05.06c-1.78,1.54-1.62,3.31-.63,5.18.19.79.38,1.59.57,2.38-.35.71-.24,1.35.3,1.91.9,3.98,1.8,7.96,2.71,11.95-.17.47-.03.84.37,1.12,1.66,6.38,2.48,12.85,2.03,19.45-.15,2.15.44,4.24.87,6.34.6,2.96-.12,3.85-3.18,4.04-.99.06-2,.03-2.99.04-2.8-.34-5.59,0-8.38.11-.72.03-1.37.26-1.91.74-2,.3-4.01.59-6.01.89-2.29.02-4.58.04-6.87.05-1.84-1.03-2.94-2.63-3.69-4.57-.94-2.45-.82-4.77.63-6.96.79-1.19,1.69-2.31,2.48-3.51.55-.83,1.08-1.69,1.44-2.61.38-.96.36-2.01-.38-2.83-.76-.84-1.76-.86-2.77-.46-1.33.52-2.65,1.06-3.99,1.57-1.07.4-2.13.85-3.24,1.11-1.54.36-2.84-.16-3.74-1.48-.4-.59-.71-1.24-1.05-1.87-2.38-4.54-5.73-8.26-10.05-10.95-2.37-1.48-3.84-3.78-5.91-5.52-1.45-1.23-.87-3.77.87-4.75,1.62-.91,3.38-1.52,5.2-1.99,1.24-.32,2.48-.71,3.64-1.25,1.52-.71,2.08-1.86,1.87-3.5-.09-.7-.24-1.43-.52-2.07-.99-2.26-.07-3.86,1.69-5.2.68-.52,1.38-1.02,2.06-1.54.83-.63,1.39-1.43,1.51-2.5.19-.46.08-.84-.33-1.13-.86-3.59-1.73-7.18-2.57-10.77-.58-2.48-1.17-4.94-1.19-7.55-.02-3.39-1.01-4.68-4.37-5.27-2.35-.41-3.59-1.45-3.94-3.71-.73-4.77-1.45-9.55-2.13-14.33-.1-.69.06-1.41.1-2.12.23-.3.45-.6.68-.89l.19-.11c2.23.07,4.46.15,6.69.19.98.02,1.96-.07,2.74-.8,6.89-1.73,13.63-3.97,20.35-6.26,3.1-1.05,6.03-2.52,8.83-4.22.74-.13,1.36-.49,1.12-1.29-.07-.24-.96-.38-1.45-.32-.49.06-.93.44-1.39.68-7.21,2.76-14.43,5.51-21.9,7.51-3.73,1-7.44,2.04-11.36,2.13-3.06.07-5.99-.32-8.71-1.81-1.74-2.26-3.48-4.53-5.22-6.79-1.13-2.93-2.26-5.85-3.03-8.91-2.14-8.62-3.04-17.45-4.29-26.21-.36-2.54.5-3.69,3.01-4.38,3.03-.83,6.1-1.51,9.15-2.25,6.38-1.56,12.75-3.12,19.13-4.69,1.25.02,2.57.34,3.57-.78.31-.29.62-.59.93-.88.61-.55.93-1.32-.02-1.59-1.5-.43-3.07-.39-4.44.62-.98.17-1.97.27-2.93.53-5.06,1.36-10.11,2.78-15.18,4.15-2.74.74-5.47,1.52-8.24,2.1-2.55.53-5.11.62-7.14-1.5-.42-.94-.68-1.98-1.53-2.68.02-.8.05-1.59.07-2.39.39-.25.55-.6.45-1.06,1.06-2.17,2.09-4.36,3.19-6.51,2.11-4.13,5.26-7.02,9.86-8.14,2.28.02,4.56.05,6.84.07,2.11.51,4,1.51,5.65,2.86,2.15,1.76,4.3,1.85,6.71.67,2.41-1.18,4.82-2.35,7.54-2.79,1.86-.3,2.5-1.38,2.54-3.37.03-1.42-.18-2.85,0-4.25.4-3.36,1.48-6.37,5.06-7.67h4.36c1.17-.12,2.48.32,3.4-.83.24-.12.5-.17.77-.13,1,.18,1.96.22,2.67-.7.23-.13.48-.19.74-.18.75.17,1.38,0,1.83-.66,4.97-2.12,9.75-4.65,14.49-7.22.75-.41,1.47-.88,2.26-1.19,1.21-.48,2.49-.85,3.6.2,1,.95.58,2.09.28,3.19-.04.14-.1.27-.12.41-.07.62-.75,1.4.28,1.75.58.2,1.03-.35,1.43-.74,1.08-1.06,1.62-2.27,1.27-3.84-.22-.96-.28-1.97-.35-2.96-.16-2.53.94-4.42,3.12-5.62,1.11-.61,2.33-1.04,3.5-1.55,1.82-.79,3.65-1.57,5.48-2.35,1.68.03,3.36.07,5.03.09.99.01,1.97-.02,2.7-.84,2.38-1.35,2.3-3.45,1.49-5.57-.87-2.29-1.13-4.6-1.36-7.03-.67-6.98-2.14-13.79-6.93-19.34-.51-.92-1.11-2.3-2.23-1.66-.81.46.24,1.71.5,2.59.1.36.47.64.72.96,1.06,2.15,2.13,4.28,3.18,6.44,1.44,2.97,2.19,6.08,2.07,9.4-.07,1.85-.69,3.29-2.52,3.99-1.96-.06-3.92-.14-5.88-.16-.41,0-.73.31-.48.82.64,1.53,1.96,1.92,3.43,1.98,1.12.04,2.26-.11,3.37.01,1.16.12,2.18.66,2.65,1.82.45,1.13.37,2.21-.63,3.06-1.46.03-2.99-.21-4.24.85-.69.17-1.4.29-2.07.51-4.38,1.43-8.32,3.73-12.21,6.13-6.07,3.75-12.1,7.56-18.15,11.32-1.94,1.2-3.86,2.45-6.19,2.81-2.62.13-5.31-.54-7.84.65-3.79.31-6.96,1.97-8.91,5.15-2.74,4.49-6.44,8.35-8.54,13.25-.22.51-.57.99-.94,1.42-1.23,1.43-3.21,1.38-4.4-.11-.35-.44-.61-.95-.91-1.44-1.88-3.08-4.69-3.94-8.09-3.33-1.4.25-2.79.52-4.19.78-1.01-.25-1.92-.11-2.69.65-2.55.38-4.95,1.23-7.28,2.28-3.15,1.42-5.26,3.8-6.45,7.01-1.39,3.76-1.31,7.5.25,11.2.25.96.51,1.91.76,2.87-2.17,2.09-4.99,2.68-7.77,3.34-2.51.59-5.1,1.09-7.14,2.76-5.98,4.88-12.32,9.34-17.63,15-2.26,2.41-4.79,4.5-7.56,6.31-3.35,2.19-6.67,4.42-10.04,6.59-3.05,1.97-4.4,1.89-7.33-.27-1.62-1.2-2.33-1.15-3.59.29-.47.54-.8,1.18-1.25,1.73-1.77,2.16-2.83,2.2-4.84.07-2.38-2.53-4.15-5.44-5.32-8.73-.91-2.57-1.69-5.2-1.94-7.9-.45-4.9-2.43-8.65-6.77-11.23-2.55-1.52-3.79-3.86-2.54-6.96.57-1.4-.03-2.51-1.14-3.38-.67-.53-1.39-1.01-2.08-1.52-2.65-1.94-5.28-3.93-7.97-5.81-1.37-.96-2.09-2.12-2.42-3.81-1-5.14-3.29-9.71-6.68-13.73-3.83-4.54-8.45-8.08-13.71-10.82-1.51-1.14-3.01-2.28-4.52-3.41-.59-1.34-.57-2.77-.64-4.19-.24-4.69-1.63-8.95-4.87-12.44-1.61-1.73-2.08-3.56-1.37-5.86,1.28-4.13.52-8.19-.94-12.11-.99-2.66-2.3-5.19-3.5-7.77-.36-.77-.86-1.48-1.18-2.27-.72-1.8-.36-3.05,1.23-4.04.83-.52,1.8-.81,2.71-1.21,1.45.02,2.91.03,4.36.05,1.5.58,2.51,1.69,3.39,2.98,1.29,1.88,3,3.27,5.14,4.11,2.6,1.34,5.21,1.2,7.83.03,11.42-1.69,17.88-9.2,22.35-19.04l-.08.07c3.32-4.01,6.74-7.94,9.16-12.59,1.92-3.68,4.62-6.39,8.84-7.25,2.12-.02,4.24-.08,6.35-.04,2.82.05,5.69-.1,8.45.36,2.53.42,5.03.63,7.57.61,2.67-.17,4.33,1.19,5.07,3.62.9,2.96,2.25,5.79,2.06,9.05-.14,2.39.68,4.5,3.28,5.36,2.83,1.39,5.66,1.24,8.49,0,4.02-.97,8.06-1.9,11.57-4.26.85-.57,1.77-.94,2.82-.78,1.51.24,2.77-.3,4.02-1.09,3.88-2.44,8.1-4.17,12.34-5.86,4.1-1.64,8.29-3.11,12.24-5.07,5.13-2.54,10.46-4.49,15.85-6.35,7.27-2.51,14.59-4.93,21.48-8.41.63-.32,1.31-.59,1.99-.77,2.31-.6,3.61.25,3.85,2.6.13,1.27-.01,2.57.09,3.84.18,2.33.72,4.48,3.24,5.44-.48,1.02-.14,1.98.3,2.87,1.02,2.04,1.99,4.12,3.21,6.04,2.3,3.63,4.34,7.38,6.18,11.26,3.5,7.35,7.04,14.68,10.59,22.01.86,1.77,1.52,3.71,3.36,4.84.71-.93.14-1.68-.17-2.44-5.91-14.6-12.97-28.62-21.46-41.9-.6-.94-.98-2.08-2.09-2.63-.05-.86-.08-1.71-.14-2.57-.22-3.14-.38-6.28-.7-9.41-.33-3.13-.96-3.69-4.03-3.37-2.11.22-3.46-.57-4.77-2.14-3.17-3.77-5.59-7.94-7.2-12.58-.84-2.43-1.68-4.86-2.56-7.28-1.4-3.81-.54-6.96,2.58-9.45,5.02-3.99,5.48-7.33,1.69-12.45-.17-.23-.35-.46-.54-.67-.37-.41-.7-.97-1.33-.91-.7.07-.83.73-.9,1.28-.31,2.31-1.7,3.34-3.91,3.92-3.87,1.01-7.7,2.18-11.47,3.52-7.05,2.5-14.31,3.94-21.7,4.86-1.79-.1-3.61-.44-5.21.75-.28.04-.56.07-.84.08-2.32-.02-4.68-.47-6.83.84h-.08c-2.31,0-4.67-.5-6.81.83h-.09c-2.58,0-5.21-.44-7.63.88h-.08c-2.3,0-4.66-.48-6.8.86h-.08c-2.02-.02-4.1-.42-5.94.85h-.08c-1.76-.05-3.57-.4-5.13.83-3.65.7-7.3,1.4-10.95,2.1-.84.16-1.68.4-2.52.46-3.51.27-5.29-.72-6.84-3.93-1.24-2.57-2.41-5.19-3.51-7.83-2.65-6.33-5.04-12.75-6.54-19.49-.46-2.05-.45-3.92.32-5.86,1.32-3.33,2.76-6.59,4.48-9.74,4.82-8.8,12.12-13.89,22.17-14.85,2.9-.28,5.56-1.27,8.13-2.56s4.9-2.94,7.21-4.63c2.42-1.77,4.87-3.52,7.27-5.33,2.28-1.71,4.82-2.4,7.65-2.26,1.57.08,3.13.15,4.65.65,3.12,1.03,6.26,2.01,9.4,2.96,1.62.49,3.23,1.2,5.57.46-4.19-2.74-8.42-4.12-12.9-4.88-.49-.24-.97-.64-1.48-.69-3.33-.33-6.68-.32-10.01-.07-.49.04-.96.48-1.44.74-3.14,1.06-5.9,2.82-8.6,4.7-2.22,1.55-4.39,3.19-6.69,4.62-1.56.97-3.26,1.78-4.98,2.43-1.7.64-3.11.11-4.1-1.37-.55-.82-.95-1.75-1.33-2.67-.79-1.86-1.01-3.84-1.2-5.84-.28-2.89-.99-5.62-3.3-7.65l.12-.17,4.32-.11c.28.02.56.08.82.19,2.05,1.16,4.09,1.31,6.1-.08.83-.62,1.65-1.24,2.48-1.86.47-.13.71-.42.64-.93,0-.44,0-.89-.02-1.33.11-.52-.14-.84-.6-1.04-.6-2.96-.32-5.93-.13-8.91.18-2.72,1.59-4.54,4.1-5.42,2.14-.75,4.35-1.31,6.54-1.88,1.65-.42,3.33-.71,5-1.06,3.15,0,6.31-.03,9.46-.04,3.73.63,7.06,2.17,10.09,4.43,8.7,6.49,17.9,12.25,27,18.14.48.31.97.61,1.41.96,1.1.88,1.67,2.03,1.14,3.39-.93,2.39-1.88,4.78-3.02,7.07-.99,2-2.76,3.23-4.92,3.83-2.86.05-5.72.11-8.57.16-.63-.15-1.4.1-1.03.71,3.63,5.98,6.64,12.36,11.14,17.8,3.09,3.73,7.12,6.14,11.34,8.29.62.32,1.36.46,2.05.55,3.06.41,5.36,1.88,6.7,4.71.25.54.59.97,1.31,1.2,1.27-3.43,3.97-5.42,7.17-6.91,1.55-.72,3.07-1.52,4.6-2.28l.15-.08c.79,1,.13,2.53,1.22,3.42.33,4.04,1.71,7.77,3.41,11.4.76,1.62,1.92,2.81,3.71,3.31.82.23,1.61.58,2.4.91,1.11.47,2.12,1.26,2.22,2.43.23,2.41,1.79,2.6,3.62,2.56,1.43-.03,2.85-.04,4.28-.12.63-.04,1.11-1.03.88-1.67-.26-.71-.7-1.31-1.44-1.45-.98-.18-2-.13-2.98-.3-2.05-.35-2.43-1.3-1.36-3.26.2-.38.46-.72.67-1.1.29-.52.39-1.07-.02-1.58-.43-.54-1.03-.37-1.58-.29-.56.09-1.12.23-1.68.35-1.71,0-3.42-.02-5.12-.04-1.43-.83-2.2-2.15-2.58-3.68-.65-2.62-1.96-4.94-3.21-7.3.74-.94,1.48-1.87,2.21-2.81,1.57-1.64,3.47-2.46,5.69-2.47,1.25,0,2.51,0,3.76-.04.73-.02,1.34-.31,1.8-.89,1.31-.87,1.88-2.08,1.61-3.63-.19-1.11-.46-2.21-.7-3.31-.04-.87-.08-1.75-.12-2.62.41-2.27-.44-3.93-2.56-5-1.68-1.25-3.38-1.37-5.1-.08-3.95,1.12-3.96,1.14-6.94-.27-9-4.24-10.5-10.44-9.06-18.6.29-1.68.95-3.29,1.43-4.93.48-1.64,1.03-3.27,1.41-4.94.77-3.4.29-6.68-2.16-9.22-2.73-2.82-2.05-5.98-1.53-9.21.11-.69.53-1.33.64-2.02.25-1.47-1.08-2.82-2.57-2.69-1.32.12-2.42.82-3.55,1.42-2-.05-4-.09-6-.14-1.98-.84-3.96-1.68-5.64-3.06-1.7-1.41-3.01-3.07-3.25-5.36-.15-1.41.33-2.58,1.63-3.22,1.02-.5,2.11-.86,3.18-1.27,1.34-.5,2.74-.87,4.01-1.5,3.81-1.9,5.49-4.99,4.82-9.14-.34-2.11-1.03-4.16-1.63-6.21-.2-.68-.62-1.29-.88-1.96-.8-2.04-.61-3.29.63-4.28,1.33-1.06,2.68-.77,3.99.02.86.51,1.65,1.14,2.52,1.64.86.5,1.76.96,2.68,1.35.83.35,1.78.4,2.33-.42,2-2.98,4.99-3.6,8.26-3.64.86-.01,1.72-.04,2.57-.12,3.18-.32,5.81-1.51,7.16-4.66.11-.26.23-.53.39-.76.71-1.07,1.36-2.33,2.92-2.14,1.45.18,2.19,1.37,2.72,2.52,1.51,3.28,2.1,6.82,2.65,10.36.13.88-.15,1.69-.6,2.46-.46.78-.4,1.61-.29,2.49.68,5.41.86,5.63,6.24,7.1,1.99,1.17,4,1.42,6.02.07,1.51-.58,2.89-1.08,2.3-3.32-.45-1.68.51-2.98,2.12-3.77,1.02-.5,2.01-1.1,2.93-1.77,3.02-2.19,4.45-5.16,4.01-8.9-.17-1.41-.58-2.79-.84-4.19-.33-1.75.17-2.64,1.88-3.33.66-.26,1.36-.45,2.05-.58,3.84-.75,6.78-2.87,9.16-5.89.8-1.01,1.57-2.05,2.49-2.93,2.07-1.98,4.58-2.3,7.06-.87,1.1.63,2.09,1.48,3.07,2.32,6.15,5.29,13.31,8.2,21.33,9.11,1.39.92,2.99.79,4.52.8,4.8.02,9.59-.04,14.39-.07,2.49.59,5.02,1.02,7.45,1.8,5.3,1.69,6.81,4.51,5.53,10.06-.27,1.18.08,1.92,1.01,2.52,2.3,1.47,4.82,2.4,7.48,2.97.75.71,1.62.92,2.61.66.3.04.6.08.89.13.25.13.48.34.75.39,4.48.85,8.99.74,13.49.2.39-.05.76-.36,1.13-.55,1.87-.21,3.56-.94,5.23-1.76,1.03-.03,1.59-.57,1.72-1.58l.06-.08c.46-.16.69-.46.64-.96.55-3.38.77-6.75,0-10.13.14-.45.03-.82-.37-1.1-.15-.64-.02-1.22.37-1.75.44-.08.69-.34.76-.78l.14.03c.76.06,1.37-.17,1.78-.84h-.03c2,.04,4,.06,6,.09,2.2.96,3.5,2.89,4.86,4.7,2.07,2.76,3.64,5.82,4.98,8.98,1.39,3.29,2.76,6.59,4.01,9.93.59,1.57.1,2.38-1.42,3.02-1.18.5-2.42.88-3.53,1.51-1.25.71-1.61,2.1-.95,3.34.4.75.92,1.45,1.49,2.08,5.02,5.58,8.8,11.97,12.15,18.63,2.95,5.87,5.76,11.82,8.76,17.67,3.27,6.38,7.16,12.35,11.92,17.76,2.74,3.1,6.12,5.1,9.82,6.7,1.96.85,3.51-.33,3.15-2.49-.52-3.1-.96-6.2-1.39-9.32-.39-2.81.04-5.18,2.12-7.03,1.72-1.52,1.55-2.95.78-4.89-1.44-3.61-2.04-7.44-1.83-11.35.34-6.33,3.08-11.47,7.8-15.62h.06Zm-133.11,239.01l-.09.03c-.95-.09-1.74.22-2.41.88-.41.17-.83.33-1.24.5-1.12.18-2.26.32-3.12,1.19-.79.26-1.6.5-2.38.8-.65.25-1.31.5-1.9.85-.63.38-1.01.96-.8,1.76.19.7,1.23,1.1,2.11.81.26-.09.53-.19.77-.32,1.72-.94,3.43-1.88,5.15-2.83.65-.02,1.23-.19,1.61-.77,6.01-2.27,12-4.58,18.03-6.79,7.65-2.81,15.28-5.62,22.47-9.51,2.02-1.09,4.23-1.67,6.49-2.12,8.41-1.64,16.8-3.38,25.03-5.81,12.15-3.59,23.67-8.54,33.8-16.25,3.07-2.34,6.59-3.31,10.07-4.54.78-.28,1.37.03,1.67.84,1.1,2.96,2.42,5.85,4.4,8.3,2.55,3.16,4.26,6.74,5.78,10.44.54,1.32,1.12,2.63,1.75,3.91.24.49.62.98,1.06,1.3.81.59,1.27.1,1.54-.68-.77.13-.78.77-.89,1.35-1.22.53-.26.97.05,1.44,0,.51.02,1.02.46,1.37.18.6.35,1.2.53,1.81-.02.91.34,1.68.92,2.36,0,.3.12.51.39.63-.62.56-.2,1,.17,1.45.48,2.67,1.01,5.33,1.43,8,.6,3.85,1.88,7.43,3.47,10.99,4.2,9.4,7.47,19.15,10.72,28.91-.12.43,0,.77.35,1.03.4,1.43.46,2.85-.07,4.26l-.36.92c-.62,1.28-1.18,2.59-1.86,3.83-2.22,3.99-4.49,7.96-6.73,11.94-3.65,6.49-6.45,13.36-9.12,20.29-.28.74-.32,1.37.36,1.89.71.55,1.67.5,2.31-.2.38-.42.76-.87,1.02-1.37.46-.88.82-1.82,1.24-2.73,4.78-10.21,9.47-20.47,15.27-30.16,2.07-3.46,2.29-6.86.82-10.62-2.19-5.58-4.12-11.25-6.14-16.9-2.88-8.06-5.74-16.13-8.62-24.19.1-.66-.2-1.17-.64-1.62-.08-.32-.17-.64-.25-.97.1-.65-.19-1.14-.62-1.58-.09-.33-.18-.66-.27-1,.09-.46-.11-.78-.46-1.04.07-.25.02-.47-.17-.65.07-.74-.15-1.37-.71-1.87.07-.25.02-.48-.16-.67-.6-2.38-1.24-4.76-2.49-6.91-.11-.32-.22-.64-.34-.96-.16-.3-.32-.6-.48-.89.04-1.06-.45-1.98-.98-2.79-3.13-4.77-5.69-9.85-8.31-14.9-.85-1.63-2.06-3.08-3.18-4.55-.73-.96-.67-1.81.02-2.71.53-.67,1-1.4,1.61-2,1.72-1.71,3.51-3.35,5.25-5.04,1.23-1.19,2.46-2.38,3.25-3.95.53-1.04.38-1.95-.47-2.69-.42-.37-.97-.58-1.46-.86-1.06-.71-1.08-.7-1.39.37-.08,2.21-.77,4.18-2.29,5.84-4.95,5.41-10.63,10.02-17.03,13.46-7.89,4.24-16.19,7.73-24.29,11.59-8.67,4.13-17.66,7.2-27.22,8.45-1.26-.18-2.48-.21-3.52.71-6.81,1.07-13.32,3.02-19.37,6.42-4.61,2.58-9.46,4.66-14.36,6.61-4.23,1.68-8.47,3.35-12.71,5.02-.95-.04-1.79.19-2.46.91v-.02Zm137.46-72.91c-5.82,3.33-9.05,6.12-10.52,9.24,4.46-1.85,8.07-4.44,10.62-8.38,1.82-1.73,3.65-3.46,5.46-5.2.32-.31.48-.74,0-1.04-.15-.09-.54.03-.72.18-1.79,1.57-3.54,3.18-4.86,5.19h.02Zm-158.95,92.68c-.05.64-.09,1.28.45,1.77.51,1.63.89,3.32,1.56,4.89,1.46,3.42,3.1,6.76,4.6,10.16.86,1.96,1.68,3.95,2.37,5.97.68,2.01-.08,3.64-1.73,4.88-1.28.96-2.79,1.43-4.26,1.99-19.38,7.34-38.75,14.69-58.12,22.05-.53.2-1.05.46-1.53.76-.48.3-1,.67-.88,1.32.15.83.83.56,1.35.49,2.3-.28,4.42-1.18,6.55-2,18.55-7.11,37.08-14.25,55.62-21.38,1.72,0,3.43.02,5.15.02,2.23,1.4,3.01,3.74,3.8,6.03,4.05,11.76,9.63,22.88,14.19,34.42.84,2.12,2.01,4.07,3.94,5.5.63-1.2-.18-2.04-.48-2.94-7.16-21.41-16.47-41.96-25.12-62.77-1.42-3.42-3.11-6.74-5.7-9.49-.25-.94-.73-1.63-1.83-1.62.27-2.94-.22-5.93.85-8.82.43-1.17-.03-2.39-1.19-2.88-1.76-.75-2.54-2.13-3.11-3.78-.13-.38-.47-.69-.71-1.03-1.78-5.26-4.65-9.82-8.81-13.52-.79-2.59-2.62-4.2-5.34-5.51,1.16,2.65,3.23,4.24,4.55,6.34,2.09,5.33,4.7,10.35,8.69,14.54,2.09,2.2,3.38,4.74,3.3,7.86-.01.42.04.84.06,1.26.08,2,.55,3.87,1.76,5.5h.02Zm189.06-126.2c4.18-3.32,8.27-6.72,11.24-11.24.94-1.3,3.05-1.7,3.04-3.69,0-.89-1.34-.11-4.01,2.77-4.48,2.98-8.16,6.77-11.29,11.12-.97.84-2.18,1.56-1.51,3.39,1.03-.74,2.02-1.27,2.53-2.35h0Zm-193.44,6.87c1.39,1.04,3.01.7,4.54.7,9.38.03,18.76,0,28.14-.02,5.26,0,10.52.04,15.78,0,1.38,0,2.88.34,4.05-.8,7.21-1.32,14.06-3.86,20.93-6.3,8.08-2.87,16.13-5.85,24.57-7.57,1.22.2,2.39.14,3.41-.7.99-.14,1.98-.32,2.97-.42,3.31-.34,6.4-.93,8.68-3.86,1.25-1.6,3.37-1.48,5.16-.61,1.14.55,2.12,1.44,3.17,2.17,1.6,1.5,3.19,3,4.79,4.49,1.67,5.28,3.34,10.56,5.02,15.83.17.54.38,1.07.65,1.56.11.19.45.29.71.34.62.11.75-.46.69-.79-.65-3.77-1.21-7.57-2.09-11.29-.67-2.82-2.25-5.2-4.79-6.8-.76-1.39-2-2.3-3.23-3.23-.35-.78-.65-1.58-1.05-2.33-2.65-4.96-3.52-5.18-7.91-1.5-1.5,1.26-3.04,2.06-4.96,2.16-1.26-.19-2.48-.18-3.5.74-5.34.99-10.58,2.35-15.75,3.99-9.64,3.06-19.24,6.27-28.87,9.39-1.9.62-3.81,1.22-5.75,1.66-3.04.69-4.3-.22-4.65-3.25-.24-2.12-.38-4.25-.56-6.37.22-.37.43-.74.65-1.11,3.32-1.92,4.66-4.84,4.32-8.61-.16-1.7-.25-3.41-.39-5.12-.13-1.56-.32-3.12-.41-4.68-.31-5.84,1.28-10.94,5.61-15.12,2.3-2.22,2.14-3.63-.13-6.61-.73.35-.89,1.07-1.03,1.75-.25,1.18-.7,2.08-1.93,2.58-3.1,1.28-3.87,3.84-3.78,6.97.11,4.13.03,8.27.02,12.4-.02,5.58-.5,11.1-2.26,16.44l-1.64.96c-1.67,1.06-1.91,2.67-1.65,4.43.18,1.25.47,2.48.59,3.73.1,1.07-.35,1.91-1.42,2.32-5.86-.44-11.73-.2-17.6-.14-.51,0-1.02.41-1.54.64-6.86.02-13.72.03-20.58.05-2.24-1.13-4.62-.75-6.97-.67-4.28-.35-8.46-1.24-12.59-2.41-1.23-.35-2.46-.75-3.7-1.05-1.34-.33-2.53-.12-3.44,1.07-.52.67-1.01,1.53-1.73,1.86-2.33,1.07-4.72,2.02-7.15,2.83-1.71.57-2.82-.15-3.08-1.93-.37-2.54-.54-5.11-.84-7.66-.42-3.55-1.25-4.36-4.76-4.83-.42-.06-.86-.05-1.28-.13-3.58-.67-4.8-2.25-4.58-5.98.07-1.14.28-2.27.48-3.39.27-1.54.6-3.08.89-4.62.96-5.14.03-9.92-2.79-14.34-.07-1.04-.73-1.73-1.43-2.38-.29-.27-.64-.56-1-.18-.15.16-.25.53-.17.73.39,1,.61,2.1,1.5,2.84,2.24,6.43,2.3,12.91.4,19.41-.84,2.88-1.71,5.76-2.72,8.58-.75,2.1-1.01,4.07-.27,6.26,1.28,3.81,1.85,7.77,2.04,11.8.4,8.51,2.21,16.7,5.57,24.55,1.59,3.72,3.6,7.15,6.36,10.12.4.54.77,1.12,1.22,1.61.24.27.7.6,1,.18.16-.23.05-.78-.12-1.09-.33-.58-.79-1.09-1.2-1.62-3.03-5.38-5.26-11.08-6.95-17-2-7.02-3.15-14.21-4.25-21.4-.39-2.54-.74-5.08-1.03-7.64-.25-2.21.51-3.93,2.69-4.83,1.15.05,2.31.1,3.46.15.52.23,1.05.43,1.56.7,3.02,1.59,3.53,2.48,3.21,5.7-.06.56-.25,1.12-.25,1.69-.02,3.37,1.2,6.09,4.19,7.87,2.48,1.48,3.61,1.36,5.62-.7,1.29-1.32,2.63-2.6,3.81-4.02,1.25-1.5,2.65-1.8,4.53-1.4,4.17.88,8.38,1.54,12.57,2.3,1.29.86,2.81.69,4.23.93v.02Zm-104.09,72.91c.04.71.14,1.42.12,2.13-.13,4.58.29,9.11.91,13.64.21,1.54.4,3.07,1.48,4.62.26-3.46.62-6.58.7-9.71.1-3.73-.32-7.41-2.16-10.77-.29-.84-.95-1.34-1.63-1.84-.29-.21-.59-.2-.7.1-.08.22-.07.59.07.75.36.41.81.73,1.22,1.09h0Zm69.58,183.84c.1-.7.29-1.4.25-2.08-.02-.34-.38-.82-.7-.96-1.5-.64-3.59.68-3.26,2.16.59,2.66.34,5.36.63,8.02.29,2.68.76,5.33,2.48,7.55.21.67.46.85.81.08.77-1.45.57-2.95.42-4.51-.3-3.05-1.37-6.03-.96-9.16.36-.29.48-.65.34-1.1h-.01Zm-92.85-216.36c1.83,6.31,5.2,11.74,9.58,16.57,1.34,1.48,2.83,2.81,3.6,4.75.37.94,1.11,1.67,2.03,2.14.22.11.55.16.78.08.32-.1.35-.4.24-.73-.51-1.54-1.38-2.82-2.69-3.79-1.06-.78-1.8-1.79-2.46-2.93-3.32-5.68-6.7-11.33-10.06-16.99-.88-2.19-.89-2.19-2.42-3.43-.08,1.68.43,3.07,1.4,4.32h0Zm360.47-99.62c.35-.28.55-.62.4-1.09.08-.55.16-1.09.25-1.64-.93-1.26-.98-1.27-2.51-.05-1.8,1.12-2.03,3.07-2.3,4.85-.72,4.75-2.93,8.49-6.76,11.43-5.04,3.88-8.11,9.07-9.38,15.31-.83,1.09-.58,2.7-1.77,3.64-.32.25-.4.83.11.98.29.08.78-.19,1.05-.44.95-.87,1.37-2.03,1.61-3.27,2.08-4.23,4.93-7.92,7.91-11.54,2.25-2.73,4.51-5.47,6.58-8.34,2.17-2.98,4.02-6.17,4.82-9.85h0Zm-125.62-75.83c.34-.2.76-.34,1.01-.63.24-.27.48-.74.4-1.03-.14-.49-.69-.35-1.03-.21-.48.2-.9.52-1.35.79-1.84.52-3.61,1.27-4.36,3.15-.71,1.77-2.07,2.65-3.64,3.4-2.19,1.04-4.33,2.25-6.6,3.08-9.27,3.36-17.89,8.27-27.29,11.31-.27.09-.52.23-.79.34-2.59,1.07-4.07,2.93-4.57,5.74-.85,4.78-1.73,9.56-2.05,14.42-.62,9.15-.76,18.3.49,27.42.12.84.29,1.69.5,2.51.05.2.35.38.57.5.33.17.5,0,.51-.41.02-.71.09-1.42.1-2.14.08-11.88.15-23.75.23-35.63,0-1.28.02-2.57.15-3.85.33-3.3,2.07-5.49,5.2-6.7,4.26-1.66,8.47-3.41,12.78-4.96,5.24-1.88,10.37-4.09,15.51-6.24,2.64-1.11,5.23-2.41,7.22-4.54,2.16-2.31,4.63-4.25,7-6.32h0Zm-165.34,251.79c-1.16-.43-1.87.43-2.67.86-3.26,1.76-6.46,3.64-9.75,5.34-3.39,1.74-4.59,1.45-7-1.33-.47-.54-.92-1.1-1.44-1.57-1.1-.99-2.41-1.62-3.91-1.38-1.75.27-3.49.66-5.14,2.31,4.44.19,8.01,1.24,10.24,5,.62,1.04,1.81,1.27,3.03,1.25,1.32-.02,2.52-.45,3.71-.95,3.84-1.62,7.34-3.81,10.48-6.55.95-.83,2.01-1.61,2.48-2.98h-.03Zm201.17-82.16c-.38-1.54-1.45-2.66-2.66-3.56-1.25-.93-2.65-1.66-4.02-2.41-1.88-1.02-3.86-1.88-5.45-3.35-2.22-2.05-2.6-3.98-1.42-6.91.11-.26.29-.5.4-.75.26-.59.1-1.09-.33-1.54-.53-.56-1.17-.78-1.93-.64-.13.03-.26.11-.38.18-2.67,1.56-3.12,2.94-1.78,5.61,1.17,2.32,2.74,4.36,4.75,6.01,3.76,3.09,7.98,5.47,12.3,7.69.06.03.22-.12.53-.3v-.03Zm29.94-17.58c5.54-4.49,10.94-12.06,11.62-16.29-4.43,3.88-10.28,12.09-11.62,16.29h0Zm-222.78,90.4c.62,0,.58-.53.65-.9.53-2.66,1.59-5.1,2.87-7.47.47-.87.88-1.76,1.27-2.67.09-.21.04-.57-.08-.78-.3-.51-.76-.24-1.04-.02-3.9,3.02-5.04,6.75-3.67,11.84h0Zm-56.93-38.38c-.1-1.68-1.09-2.79-2.51-3.58-.19-.1-.57-.05-.75.08-.18.14-.34.48-.31.7.26,1.66,1.32,2.72,2.74,3.47.12.06.36.12.4.07.16-.21.27-.46.43-.74h0Zm8.57,33.06c-.22-.67-.5-1.22-1.12-1.19-.7.03-.76.63-.67,1.19.1.67.62.95,1.18.83.27-.06.45-.58.62-.83h0Z"/><path class="cls-2" d="m135.83,227.98c-.93-.41-1.23.43-1.66.89-2.93,3.12-5.84,6.27-8.75,9.41-2.17,2.34-4.67,4.19-7.76,5.14-2.85.03-5.7.06-8.55.09-2.56-.57-4.76-1.84-6.82-3.41-1.35-1.03-2.63-2.2-4.32-2.69-1.73-1.25-3.46-1.29-5.2-.04-.41.12-.83.23-1.24.35-3.67,1.03-4.45.8-5.96-2.7-1.97-4.55-5.41-7.29-10.03-8.66-2.19-.65-4.42-1.15-6.66-1.59-7.49-1.47-12.65-5.72-15.36-12.85-1.97-5.18-5.3-9.2-10.29-11.57-6.05-2.88-12.14-5.77-18.73-7.31-.69-.16-1.41-.24-2.11-.36-3.13-1.15-5.64-1.16-8.69-.03-2.73.54-5.07,1.83-7.28,3.49-1.8,1.36-3.74,2.57-6.27,2.59-.55-5.93.51-11.52,2.07-17.04,1.77-6.26,4.66-12.01,8.54-17.22,10.86-14.6,20.77-29.83,30.21-45.38,5.2-8.56,11.45-16.07,20-21.48,1.34-.85,2.54-1.87,3.48-3.16.79-1.08.79-2.05.05-3.18-.79-1.23-1.93-2.09-3.07-2.96-1.03-.77-2.09-1.52-3.01-2.4-1.4-1.35-1.62-3-.7-4.7.54-1,1.21-1.94,1.9-2.85,2.07-2.74,4.18-5.45,6.28-8.16,1.12-1.45,2.54-1.69,4.1-.74.88.54,1.45,1.34,2.03,2.17,2.92,4.21,4.79,4.66,9.3,2.13,4.65-2.61,8.79-5.9,12.52-9.71,6.72-6.86,12.84-14.24,18.76-21.79,3.57-4.55,7.52-8.63,12.85-11.13,1.4.03,2.81.07,4.21.1,2.81,1.51,4.65,4.16,7.13,6.06.41.31.58.94.82,1.45.3.64.47,1.36.86,1.95.46.7,1.01,1.38,1.65,1.91,1.13.92,2.55.88,3.5,0,.99-.94.09-1.83-.15-2.73.08-.45-.06-.81-.48-1.03-.3-.74-.27-1.5-.08-2.26,1.03-.07,2.07-.13,3.1-.2,3.28.95,5.77,3.05,7.99,5.53,1.06,1.18,1.89,2.5,2.49,3.97,1.33,3.31,1.07,4.33-1.76,6.54-.56.44-1.17.81-1.75,1.21-1.49.03-3.06-.38-4.37.73-4.74.72-7.31,3.49-7.86,8.23-.15,1.27-.5,2.52-.64,3.79-.14,1.25.9,2.08,2.21,1.92,1.46-.17,2.31-1.09,2.77-2.36.39-1.07.56-2.21.88-3.3.58-1.96,1.97-3.43,3.88-3.57,2.73-.19,4.81-1.43,6.68-3.07,1.66.82,2.53,2.17,3.59,3.31,2.54,2.71,5.04,5.46,7.51,8.22.56.63,1.07,1.35,1.38,2.13.28.7-.12,1.39-.74,1.85-.61.45-1.06.03-1.48-.33-.54-.46-.99-1.03-1.57-1.43-.88-.61-1.91-.31-2.53.71-.21.34-.37.8.1,1.14.11.08.21.22.34.25,2.55.74,3.92,2.4,4.59,5.02.53,2.08,2.04,3.74,3.86,4.98.94.64,1.93,1.22,2.9,1.82-.03.29-.05.59-.08.88l-.12.17c-2.99.17-5.89-.08-8.4-1.98-.13-.24-.22-.52-.4-.71-1.28-1.35-2.64-1.94-2.57-1.3.12,1.05.9,1.65,1.83,2.04.56,1.6,1.56,2.7,3.36,2.88.57.06,1.12.24,1.68.33,2.63.42,3.88,2.2,4.44,4.6.16.69.21,1.42.19,2.13-.05,1.76.5,3.38,1.08,4.99.29.81.68,1.58.94,2.39.88,2.72.17,4.36-2.51,5.44-1.44.58-3,.9-4.51,1.29-1.52.39-3.07.66-4.57,1.12-1.69.52-2.92,1.52-3.72,3.25-1.25,2.71-2.82,5.28-4.25,7.92-1.09,2.01-2.2,4-3.24,6.03-2,3.91-2.87,8.04-2.41,12.43.1.99.14,1.99.17,2.99.07,2.24-.97,3.84-2.99,4.76-2.48,1.14-5.06,1.93-7.83,1.95-2.28,0-4.57-.03-6.85.08-4.18.2-7.87,1.45-10.21,5.24-.69,1.11-1.42,1.5-2.82,1.09-2.8-.82-5.65-.59-8.43.34-1.89.63-3.78,1.27-5.68,1.9-2.4.15-4.67,1.27-7.12,1.05-2.83-1.89-5.87-3.29-9.26-3.85-2.69-1.04-4.13-1.04-6.86,0-4.52.73-8.69,2.43-12.72,4.53-2,1.05-3.97,2.18-6.2,2.69-1.71-.04-3.42-.07-5.13-.11-2.17-.8-4-2.16-5.84-3.5-3-2.19-6.09-4.22-9.53-5.65-.83-.34-1.67-.97-3.04-.43,5.88,5.41,12.9,8.69,19.21,12.99,2.02,1.33,4.06,1.3,6.11.08,1.99-.77,3.73-1.96,5.5-3.13,2.96-1.95,6.06-3.59,9.67-3.96,3.86,0,7.72.03,11.58.04,1.4.31,2.79.61,4.19.92,1.07.97,2.34,1.08,3.61.64,1.95-.68,3.94-.53,5.93-.59,2.28-.06,4.56-.05,6.85-.11,1.42-.04,2.87.04,4.14-.81,3.44-.55,6.41-2.05,8.94-4.43.72-.68,1.43-1.31,2.48-1.49,1.66-.27,3.31-.67,4.96-1.01,2.65,0,5.29,0,7.94-.02.86,0,1.65-.24,2.33-.77,1.16-.32,2.31-.64,3.47-.96,1.72.02,3.44.05,5.17.07,2.64,1.22,3.59,3.6,3.99,6.19.42,2.72,1.44,5.19,2.57,7.66,2.89,6.36,5.72,12.74,8.52,19.13,3.08,7.05,6.08,14.13,9.14,21.19.63,1.46,1.4,2.95.14,4.38-1.15,1.3-2.57.7-3.97.31-1.91-.54-3.8-1.23-5.83-1.24-4.39-1.45-8.8-1.28-13.23-.2-.13.03-.23.15-.35.23-3.92.78-7.04,2.9-9.71,5.77-2.45,2.63-4.18,5.72-5.67,8.96-.83,1.8-1.47,3.68-2.66,5.31-.46.64-.88,1.51-.13,2.32l.08-.07-.03-.05Zm-98.14-80.38c-.11-.25-.17-.55-.35-.74-1.38-1.49-3.29-2.04-5.08-2.79-.15-.06-.54.18-.67.38-.12.19-.15.65-.03.74,1.68,1.23,3.21,2.74,5.36,3.16.2.04.48-.19.69-.34.08-.06.06-.26.08-.4h0Z"/><path class="cls-2" d="m473.5,588.99c2.28,3.69,4.87,7.04,9.02,8.84,1.43.62,2.14,1.78,2.15,3.41,0,1.09-.33,2.26.41,3.26,1.12.12,1.41-.85,1.95-1.45,2.71-3.03,5.97-4.3,10.01-3.27,1.11.28,2.26.43,3.33.8,2.35.81,4.51.41,6.58-.83.98-.59,1.94-1.22,2.94-1.78,2.53-1.43,5.19-2.37,8.16-2.26,2.15.08,3.93.83,5.16,2.6.98,1.4,1.85,2.89,2.64,4.41,1.2,2.28,2.26,4.62,3.43,6.91,1.65,3.21,3.77,6.07,6.36,8.59,2.43,2.36,4.08,5.15,4.41,8.6.07.7.21,1.44.07,2.12-.84,4.11-.62,8.27-.6,12.42,0,1.15.08,2.3-.02,3.44-.28,3.49-1.33,4.23-5.06,3.68-6.75-1.11-13.08.19-19.1,3.31-2.8,1.45-5.5,3.08-7.97,5.04-1.93,1.53-4.05,2.68-6.39,3.42-8.25.06-16.49.11-24.74.17-.72,0-1.42.05-1.97.6-1.23.48-2.49.4-3.73.09-4.7-1.14-9.47-1.05-14.25-.87-2.04-.05-4.13-.5-5.98.81l-.1.02c-1.49-.08-3-.3-4.24.84-7.54,1.65-14.83,4.19-22.22,6.35-10.83,3.17-21.71,6.08-32.77,8.32-1.5-.1-3.02-.29-4.3.83-10.45,1.92-20.47,5.29-30.37,9.03-11.9,4.5-23.81,8.94-35.88,12.98-15.5,5.19-30.2,12.22-44.56,19.97-8.68,4.69-17.28,9.54-25.91,14.32-1.38.76-2.75,1.52-4.14,2.25-1.73.92-3.52,1.23-5.32.22-1.21-.68-2.17-.5-2.93.67-3.95.74-6.29,4.3-9.94,5.64-3.48,1.28-6.83,2.93-10.26,4.35-3.57,1.47-7.15,2.9-10.77,4.26-16.86,6.34-34.03,11.8-51.08,17.58-1.6.54-3.06.79-4.47-.25-1.2-.88-2.4-.63-3.68-.29-3.86,1.04-7.74,2.04-11.61,3.05-1.38,0-2.75-.01-4.13-.02-.86,0-1.64-.18-2.13-.99,0-6.92-.38-13.8-2.51-20.46.35-.34.7-.68,1.06-1.02,2.02.61,4.04,1.22,6.07,1.84.68.6,1.5.78,2.36.78,3.11,0,6.22.02,9.33-.06.66-.02,1.31-.44,1.96-.68,3.06-.26,5.6-1.77,8.14-3.33,2.02-1.24,3.92-2.83,6.49-2.81-.11.79.1,1.42.88,1.76,1.67,1.75,3.62,2.03,5.9,1.31,6.07-1.92,11.79-4.48,16.37-9.02,1.54-1.53,3.41-1.97,5.29-2.59,2.8-.03,5.59-.32,8.39.13,1.23.2,2.55.14,3.41-1.09,6.56-4.27,13.1-8.57,19.68-12.8,2.03-1.3,4.08-2.6,6.39-3.38,1.03,0,2.07,0,3.1.01-.18,1.71-.19,3.4.76,4.92.41.65.68,1.55,1.97,1.41-.54-3.19.92-5.41,3.61-6.96.24-.14.47-.3.7-.47,1.21-.87,1.37-2.05.96-3.38.3-1.02.59-2.03.89-3.05,0,0,.18-.16.18-.15,1.14-.16,1.91-.76,2.22-1.9l.02-.02c.48-.06.77-.34.88-.8,4.27-4.01,9.07-7.33,13.9-10.6,2.71-1.84,5.51-3.55,8.23-5.37,2.6-1.74,5.43-2.46,8.52-2.07,2.12.27,4.22.65,6.33.98.11.09.21.23.33.25,4.1.85,8.2.86,12.3-.03.12-.03.22-.17.32-.26v-.14c1.5.24,2.96.22,4.27-.72,7.37-1.22,14.23-3.92,20.85-7.28,2.79-1.41,5.45-3.07,8.2-4.56,1.99-1.08,3.87-2.41,6.18-2.79,1.54,0,3.08-.02,4.62-.02.86,0,1.68-.1,2.31-.78,3.78-1.05,7.09-2.97,10.26-5.22,6.3-4.47,12.63-8.89,18.96-13.32,2.15-1.51,2.2-1.54,4.36.24,1.9,1.57,3.85,2.98,6.39,3.26.46.05.86-.11.98-.57.06-.23-.01-.57-.16-.77-1.31-1.78-3.18-2.85-5.04-3.92-3.54-2.05-4.36-1.91-.96-6.32.08-.11.24-.16.36-.23.89-.05,1.78-.09,2.67-.14,1.53.77,2.2,2.13,2.66,3.7.32,1.09.75,2.16,1.25,3.17.39.79,1.12,1.26,2.01,1.46.99.22,2.14-.76,1.89-1.71-.18-.68-.47-1.34-.8-1.97-1.24-2.41-2.47-4.83-3.79-7.2-.91-1.63-.79-3.32-.47-5,.26-1.4.76-2.78,2.35-3.31,2.29,0,4.57.01,6.86.02h0c.5.53,1.14.79,1.85.79,2.22.02,4.43.02,6.65,0,.72,0,1.35-.26,1.86-.78,7.48-1.75,13.47-5.98,18.84-11.26.46-.11.75-.39.84-.86.28-.29.57-.59.85-.88.74.38.8,1.11.94,1.8-.29.87-.59,1.74-.88,2.61-.44.1-.7.36-.72.83,0,0-.11.14-.11.13-.42.07-.65.31-.67.74l-.18.22c-.37.05-.57.26-.57.64-.21.03-.3.14-.29.35l-.3.09-.03.31c-2.13,1.98-4.28,3.96-4.84,7.03l-.3.27.09.37c-1.28,2.92-.89,5.95-.48,8.96.07.49.57.92.87,1.38,1.68,1.33,2.16,1.33,3.97.08,0,0,.09-.21.08-.21.37,0,.56-.16.5-.55.73-1.87.25-3.84.51-5.76.41-.27.56-.65.49-1.13,1.25-2.17,2.5-4.34,3.73-6.52.68-1.2,1.58-2.31,1.7-3.77.39-.19.61-.5.61-.94l.17-.28.28-.13v-.3c1.17-1.42,2.4-2.8,3.51-4.27,1.76-2.32,2.83-4.99,2.91-7.88.08-3.01,1.22-5.54,2.97-7.82,2.07-2.68,3.91-5.57,6.65-7.68,3.17.02,6.33.03,9.5.05,1.41.09,2.36.93,3.07,2.04.63.98.74,2.13.67,3.29-.02.28-.03.58-.12.84-1.97,5.76-3.17,11.8-6.44,17.08-1.26,2.03-2.86,3.49-5.08,4.3-1.07.39-2.15.76-3.16,1.27-1,.51-2.02,1.08-2.86,1.82-1.65,1.47-1.87,3.03-.9,4.98.45.91,1.04,1.69,1.93,2.21,1.62,1.15,1.7,1.15,3.41-.01,3.65-1.88,5.62-5.11,7.17-8.73.31-.73.42-1.89,1.38-1.98,1.22-.11,1.5,1.08,1.89,1.97.22.52.43,1.06.58,1.61,1.05,3.84,3.39,6.52,7.12,7.96,1.95,1.27,3.93,1.25,5.92.09,2.91-1.32,3.19-1.69,2.42-4.35-1.06-3.68-1.96-7.38-2.59-11.16-1.11-6.7-.7-13.26,1.19-19.76.39-.28.57-.63.37-1.11.18-.9.06-1.75-.34-2.57,0-.75-.33-1.28-1.09-1.47-2.54-1.99-5.12-3.95-7.62-5.99-1.41-1.15-1.32-2.21.09-4.31.95-.02,1.9-.04,2.85-.05.83,0,1.63-.08,2.22-.77,3.32-1.4,6.81-.97,10.26-.92l.02-.07Z"/><path class="cls-2" d="m344.55,559.74c-.06,2.46.11,4.85,1.82,6.84.52.6,1.04.91,1.75.23.4-.39.82-.84,1.32-1.02,1.64-.58,3.31.02,4.11,1.35.85,1.42.75,3.17-.4,4.32-.69.69-1.54,1.24-2.37,1.79-2.02,1.34-2.75,3.26-2.31,5.55,1.19,6.28,1.92,12.65,3.68,18.81.12.41.42.88.31,1.22-.79,2.63.28,4.61,1.89,6.59,1.09,1.34,1.49,3.07.95,4.85-.36.26-.46.62-.36,1.04-.9,2.17-2.55,3.76-4.18,5.35-1.17,1.14-1.99,2.34-1.81,4.11.26,2.45-.4,4.82-1.06,7.15-.93,3.29-1.87,6.57-2.45,9.95-.48,2.82-1.91,5.06-4.67,6.19-1.21.49-2.28,1.14-3.24,2.02-1.18,1.08-2.66,1.63-4.13,2.19-4.79,0-9.58-.02-14.36.05-1.53.02-3.12-.12-4.52.76-1.02-.02-1.96-.22-2.65-1.08-.78-.98-.98-2.03-.44-3.17.82-1.73,2.2-2.93,3.88-3.77,4.9-2.46,10.01-3.87,15.55-3.02,1.42,1.13,2.84,1.2,4.25-.02.83-.55,1.71-1.04,2.49-1.66.88-.71,2.12-1.4,2.4-2.33.41-1.38-1.39-1.5-2.16-2.24-.83-.79-1.1-1.62-.59-2.68,1.52-3.17,1.75-6.62,2.07-10.03.31-3.33.98-6.48,2.95-9.28.94-1.34.89-2.03-.35-2.92-1.11-.8-1.74-1.84-2.41-2.93-.83-1.33-1.67-2.67-2.59-3.94-1.95-2.66-3.87-5.33-5.06-8.44-.45-1.17-1.15-2.04-2.53-1.82-2.46.39-4.47-.58-6.39-1.94-.47-.33-.96-.63-1.43-.95-1.84-1.25-3.8-2-6.06-1.42-1.54.39-2.44-.35-3.03-1.67-.23-.52-.52-1.02-.75-1.54-1.12-2.66-2.6-5.01-4.72-7.06-2.96-2.86-3.5-6.43-2.1-10.29.15-.4.22-.84.43-1.21,1.9-3.38,3.5-6.86,4.17-10.73.22-1.29.98-2.43,2.07-3.17,1.62-1.11,1.88-2.68,2.06-4.46.37-3.55.95-7.08,1.42-10.63.83-6.27,1.26-12.53-.52-18.73.17-.68.09-1.48.91-1.84,1.49,1.09,2.96,2.22,4.48,3.27,1.17.81,2.34,1.63,3.61,2.26,2.17,1.09,4.41,1.02,6.55-.13.87-.47,1.74-1,2.48-1.64,3.01-2.6,2.74-2.15,5.06.91,2.65,3.51,3.62,7.36,2.22,11.65-.09.27-.19.54-.25.82-.91,4.06.21,6.25,4.21,7.49,1.75.54,3.05,1.37,4.06,2.85.67.97,1.12,1.95,1.04,3.16-.06.99-.04,1.99-.06,2.99-.04,2.75.25,5.41,2.09,7.65.56.68.46,1.28-.26,1.78-1.71,0-3.43-.04-5.14,0-1.61.03-1.82.69-.92,2.6v-.03Z"/><path class="cls-2" d="m101.38,754.81c5.1-.97,9.79-2.96,14.19-5.68,1.33-.82,2.63-1.7,3.98-2.49,2.9-1.72,3.53-1.59,6.09,1.18.02.64.05,1.27.07,1.91-.4,6.96.25,13.79,2.48,20.43-.32.62-.64,1.23-.96,1.85-2.76,1.21-5.61,2.13-8.52,2.89-8.98,2.35-17.96,4.72-26.95,7.03-4.15,1.06-8.35,1.95-12.5,3-4.58,1.17-9.03,2.73-13.27,4.84-.51.26-1.03.51-1.56.71-1.42.52-2.53.16-3.33-1.07-.96-1.48-1.42-3.17-1.59-4.86-.53-5.16-.34-10.28,1.39-15.25.67-1.94,1.62-3.66,3.31-4.89,2.42-1.75,4.88-1.3,6.62,1.2.41.59.78,1.2,1.17,1.8.38.6.63,1.29,1.58,1.72.17-1.49-.51-2.66-.99-3.87-.91-2.3-.44-3.52,1.81-4.29,2.03-.69,4.1-1.23,6.16-1.84,3.55-1.05,7.1-2.1,10.52-3.51,2.38,0,4.75,0,7.13-.02,1.11-.01,2.26.04,3.17-.8h0Zm-23.29,25.57c.3-2.77-.59-4.76-2.07-6.55-.15-.19-.51-.32-.74-.29-.17.02-.42.36-.42.56-.03,2.5.59,4.68,3.23,6.28h0Z"/><path class="cls-2" d="m418.55,561.44c1.35,0,2.46.69,3.59,1.28,1.36.71,2.35,1.56,1.59,3.37-.37.89.25,1.68,1.02,2.15,1.31.8,1.92,2.06,2.55,3.35,2.36,4.77,5.03,9.32,9.12,12.87.21.19.39.42.57.64,1.16,1.52,1.18,2.88-.05,4.24-.67.74-1.42,1.42-2.22,2.01-2.64,1.96-5.27,3.94-7.99,5.79-4.73,3.23-9.51,6.37-13.42,10.64-.1.11-.2.21-.31.3-1.59,1.35-3.5.85-3.86-1.23-.68-3.95-3.19-6.31-6.56-7.87-2.58-1.2-5.32-2.08-7.99-3.08-1.07-.4-2.18-.7-3.24-1.12-.58-.23-.85-.77-.69-1.39.25-.97.55-1.92.87-2.87,1.42-4.21,3.27-8.24,5.37-12.15,2.3-4.28,4.7-8.51,7.05-12.77,1.15-2.08,2.6-3.76,5.12-4.15l9.48-.03v.02Z"/><path class="cls-2" d="m375.09,563.15c-.46-1.42-.49-2.84,0-4.27.14-.3.29-.6.43-.89,1.99-2.44,10.27-9.6,12.53-10.81.36-.19.81-.23,1.23-.33,2.24.03,4.48.06,6.72.08,1.23.45,1.72,1.42,1.81,2.64.09,1.29-.69,2.11-1.58,2.86-.98.82-2.02,1.58-2.91,2.48-.65.66-.86,1.52.07,2.18.5.36.98.79.79,1.36-.66,2.02-1.25,4.11-2.22,5.99-.79,1.52-2.02,2.83-4.15,1.71-.61-.32-1.11.23-1.02.87.35,2.53.76,5.06,1.17,7.58.64,3.98-.26,7.63-2.26,11.06-.29.49-.61.97-.97,1.4-.47.57-1.1.97-1.86.77-.74-.19-1.19-.76-1.27-1.54-.68-6.88-2.89-13.33-5.51-19.67-.32-.78-.45-1.63-.67-2.45.13-.42.03-.77-.34-1.03h0Z"/><path class="cls-2" d="m396.96,602.73c4.39,2.31,6.23,6.01,6.01,10.89-.13,2.89-1.42,4.94-4.15,5.86-3.98,1.34-8.02,1.65-12.2.73-4.74-1.05-6.35-5.02-5.48-9.12.92-4.33,3.53-7.38,8.06-8.43,2.59.02,5.17.05,7.76.07Z"/><path class="cls-2" d="m362.49,553.73c-.17,1.31-.46,3.57-.78,5.83-.08.6-.49.99-.99,1.31-.89.58-2.1.21-2.4-.87-.82-2.89-1.62-5.79-.66-8.83.3-.95.5-1.94.63-2.92.22-1.71.02-2.14-1.74-2.8-2.37-.88-3.77-2.42-4.13-4.95-.16-1.12-.63-2.19-.86-3.3-.31-1.5.09-2.55,1.01-2.99,1.34-.63,3.04-.35,3.87.78.5.67.93,1.46,1.14,2.26.36,1.37.67,2.79.72,4.2.06,1.88.3,3.33,2.08,4.66,2.04,1.52,2.35,4.13,2.12,7.61h-.01Z"/><path class="cls-2" d="m163.27,746.19c-.78-.35-.99-.98-.88-1.76-.34-3.56.84-6.28,4.32-7.69,4.69-.02,9.38-.03,14.07-.06.87,0,1.72,0,2.21.91-3.82,4.42-8.79,6.48-14.49,6.98-1.4.12-2.83.03-4.24.1-.97.05-.95.83-.99,1.53h0Z"/><path class="cls-2" d="m357.29,630.25c.19.12.29.3.28.53l-.32-.18.03-.35h.01Z"/><path class="cls-2" d="m350.66,195.16c6.53.57,13.06.09,19.6.13,10.65.06,21.31.04,31.96.06-1.17,1.14-2.67.79-4.05.8-5.26.03-10.52,0-15.78,0-9.38,0-18.76.04-28.14.02-1.53,0-3.15.34-4.54-.7.32-.1.64-.19.96-.29v-.02Z"/><path class="cls-2" d="m176.12,168.71c.31,0,.62-.03.93-.04,2.02.09,4.06.34,5.9-.82l.1-.07c2.03.15,4.05.16,5.93-.83.3-.03.6-.06.91-.09,1.78.2,3.52.17,5.13-.75,2.32-.3,4.64-.59,6.96-.89,2.02.1,4.06.32,5.91-.82,2.3-.33,4.61-.66,6.91-.99,1.78.21,3.52.16,5.13-.74.3-.03.59-.06.89-.09,1.78.19,3.53.19,5.14-.75,9.98-1.05,19.84-2.62,29.24-6.38,3.31-1.33,6.82-2.16,10.17-3.4,1.45-.53,2.7-.13,3.29,1.03.72,1.41.52,3.05-.57,3.93-.66.53-1.44.92-2.21,1.27-.91.42-1.9.64-2.79,1.1-2.41,1.24-3.28,3.02-2.66,5.68.29,1.24.8,2.46,1.43,3.57,1.62,2.89,2.73,5.98,3.74,9.12.48,1.5,1.03,2.97,1.58,4.45,1.23,3.27,3.14,6.07,5.77,8.41,1.29,1.14,1.11,2.26-.35,3.09-1.11.63-2.31,1.14-3.5,1.62-6.89,2.81-13.83,5.5-20.67,8.41-12.9,5.48-26.11,10.18-38.82,16.12-4.13,1.93-8.58,3.15-12.88,4.7-2.85.02-5.7.05-8.54.07-1.48-.46-2.43-1.33-2.68-2.96-1.6-10.1-5.8-19.27-9.98-28.48-2.76-6.08-5.22-12.3-7.81-18.45-.06-.13-.1-.27-.15-.4-1.16-3.11-.93-3.54,2.58-4.79,2.05.13,4.08.19,5.97-.82h0Z"/></g><path d="m255.88,164.49c.14-.83.23-1.67.23-2.54,0-8.09-6.56-14.65-14.65-14.65s-14.65,6.56-14.65,14.65c0,.87.09,1.71.23,2.54.74,6.51,3.69,24.06,14.42,34.79,10.73-10.73,13.67-28.29,14.42-34.79Z"/><circle class="cls-1" cx="241.46" cy="161.33" r="8.65"/></g></svg>