<?xml version="1.0" encoding="UTF-8"?><svg id="Layer_2" xmlns="http://www.w3.org/2000/svg" viewBox="0 0 368.97 421.12"><defs><style>.cls-1{fill:#00c57e;}.cls-2{fill:#fff;}</style></defs><g id="Layer_3"><path class="cls-1" d="m94.89,12.91c6.42,3.8,13.5,6.01,20.41,8.64,9.17,3.49,18.32,7.04,27.48,10.55,2.79,1.07,5.59,2.09,8.38,3.17,1.19.46,2.39.93,3.52,1.52,3.1,1.62,3.39,2.57,2.05,6.18,0,0,.04-.03.04-.03-1.89.09-3.38.89-4.42,2.49-1.91,1.67-4.54,2.27-6.22,4.31-.6.73-1.54,1.19-2.32,1.77-2.17,1.14-3.05,3.33-4.23,5.26-1.29,2.11-2.83,3.88-5.1,5.06-4.03,2.1-5.28,4.7-4.38,9.14.45,2.23,1.19,4.41,1.94,6.57.79,2.3,1.74,4.54,2.64,6.8.73,1.84.6,3.61-.19,5.41-1.24,2.8-3.17,5.09-5.23,7.28-.96,1.02-2.21,1.22-3.55,1.17-1.47-.05-2.77-.66-4.1-1.19-6.13-2.44-12.42-4.32-19-5.11-1.31-1.06-2.83-.83-4.33-.7-.85-.06-1.69-.12-2.54-.18-2.36-1.33-4.94-.63-7.42-.76-.13,0-.38.06-.39.12-.04.25-.11.58.01.75.44.64,1.13.76,1.86.72.95.31,1.89.66,2.85.93,4.55,1.28,9.21,1.98,13.89,2.62,1.83.25,3.67.61,5.43,1.17,1.51.48,2.16,2.03,1.53,3.5-.62,1.43-1.5,2.75-2.31,4.1-.95,1.58-2.31,2.93-2.66,4.84-1.01,1.01-1.51,2.37-2.28,3.54-1.72,2.6-3.67,5.04-5.29,7.73-1.97,3.27-4.56,6.15-5.95,9.78-.15.38-.53.66-.81.99-2.4,2.84-4.5,5.89-6.18,9.21-.66,1.31-1.54,2.36-2.68,3.22-.29-.02-.57.03-.83.17-1.42-.02-2.84-.05-4.26-.07l-.11-.03c-.41-.52-.94-.81-1.61-.79-1.79-1.54-3.2-3.47-3.2-5.82-.01-3.16-1.54-5.33-3.61-7.41-2.16-2.18-3.61-4.76-3.51-7.97.05-1.61-.78-2.7-2.04-3.5-.96-.61-1.97-1.16-3.15-1.22l.07.06c-.88-1.41-1.68-2.88-2.67-4.21-.88-1.18-2.11-1.34-3.32-.56-.81.52-1.6,1.13-1.82,2.18l.04-.02c-1.32.4-2.03,1.53-2.88,2.46-1.29,1.39-2.81,2.44-4.49,3.24-4.64,2.22-8.39,2.21-12.06-1.73-2.37-2.55-5.25-4.37-8.48-5.69-1.88-.77-1.95-.99-1.02-2.88,3.92-7.97,6.99-16.27,9.57-24.76,2.24-7.38,4.16-14.85,5.75-22.4,1.68-7.97,3.81-15.83,6.33-23.57,3.23-9.93,5.73-20.04,7.55-30.32.37-2.08.65-4.23,1.74-6.15.4-.7.36-1.65.51-2.49,5.14.54,9.78,2.66,14.44,4.67,5.58,2.41,11.18,4.72,17.24,5.65.02,2.16,1.09,4.09,1.08,6.31-.09,14.6.02,29.19-.09,43.79-.05,6.33-1.31,12.5-3.5,18.46-1.03,2.81-1.99,5.64-2.97,8.47-.09.26-.12.55-.15.83-.08.77.93,1.76,1.62,1.65.82-.13.75-.83.74-1.31-.04-1.9.29-3.62,1.34-5.29,3.74-5.97,5.41-12.55,5.42-19.58.01-9.16.04-18.32.04-27.47,0-6.58,0-13.17-.1-19.75-.02-1.62.53-2.74,1.92-3.5Z"/><path class="cls-1" d="m280.17,91.96c.85-.11,1.73-.1,2.53-.34,2.44-.74,2.93-1.45,2.97-3.98.02-1-.07-2,.02-2.99.12-1.26.97-2.05,2.25-2.17,1.29-.12,2.53.07,3.78.47,9.63,3.05,19.3,5.98,28.91,9.1,5.28,1.71,10.44,3.79,15.43,6.24,1.14.56,2.41.98,2.95,2.32-.62,1.59-1.1,3.26-2.45,4.46-1.68,1.48-2.51,3.45-3.03,5.56-.31,1.25-.57,2.51-.79,3.77-1.07,6.17-4.12,11.21-8.67,15.41-1.27,1.17-2.56,2.35-4.18,2.95-3.35,1.23-5.43,3.51-6.49,6.9-.44,1.42-.96,1.53-2.22.78-2.09-1.25-4.13-2.56-6.21-3.83-.72-.44-1.48-.81-2.53-1.37-.14,1.9.26,3.32,1.25,4.58.97,1.24,1.92,2.5,2.94,3.69,2.7,3.15,5.45,6.25,8.16,9.39,2.96,3.44,4.85,3.43,7.45-.16,1.6-2.21,2.81-4.64,3.87-7.15.94-2.24,1.94-4.46,3.03-6.63,1.64-3.28,3.98-5.96,7.39-7.48,1.57-.7,2.4-1.79,2.96-3.39,1.29-3.67,2.3-7.34,1.99-11.3-.12-1.55-.06-3.14.6-4.64.41-.94,1.06-1.27,2-1.22,2.77,1.35,5.72.72,8.61.76,1.42.1,2.85.13,4.19.74,1.11.51,2.05,1.23,2.29,2.39.49,2.39.82,4.86-.81,6.98-1.37,1.78-1.76,3.9-2.26,5.96-.65,2.65.31,4.39,2.77,5.6.89.44,1.89.64,2.81,1.03,1.82.78,2.14,2.11.9,3.76-1.5,1.98-3.42,3.47-5.69,4.43-1.97.83-3.98,1.54-6.06,2.1-3.51.95-5.24,3.09-4.76,6.6.56,4.14-.7,7.93-1.57,11.78-1.01,4.47-2.56,8.78-5.38,12.52-.41.55-.91,1.3-.85,1.9.25,2.37-1.29,3.65-2.76,5.01-1.89,1.75-3.67,3.58-5.78,5.1-1.93,1.4-2.09,2.56-1.32,4.89.44,1.34,1.26,2.54,1.28,4.05.05,3.8-1.74,6.49-4.8,8.58-2.36-1.4-3.75-3.59-5.26-5.64-2.92-3.95-5.05-8.26-5.94-13.16-.68-3.72-.8-7.37.43-11,.14-.41.28-.81.38-1.23.92-3.8-.52-5.4-4.48-4.89-.98.13-1.92.55-2.89.77-2.04.45-3.65-.27-4.84-1.95-.25-.35-.45-.73-.62-1.12-1.24-2.75-3.46-4.48-6.05-5.84-1.26-.67-2.56-1.3-3.69-2.15-3.78-2.85-4.55-6.33-2.24-10.53.54-.98,1.05-1.62-.05-2.49-.75-.6-.52-1.56-.6-2.4-.08-.85-.09-1.73-.34-2.53-.56-1.78-2.17-2.31-3.71-1.26-.47.32-.84.77-1.28,1.13-.62.51-1.19.43-1.93.06-1.68-.85-1.7-.77-2.76.51-1.26,1.51-1.55,1.52-3.08.5-2.16-1.43-3.62-3.19-3.27-6.02.22-1.76,1.07-2.93,2.76-3.42.96-.28,1.98-.34,2.91-.67,2.05-.72,2.78-2.57,1.82-4.46-.19-.38-.48-.71-.75-1.05-2.31-2.94-2.64-6.16-1.67-9.72.82-3.02,1.34-6.14,1.95-9.22,1.01-5.1.94-10.23.5-15.38Z"/><path class="cls-1" d="m135.14,390.9c-.55,2.7.67,5.41,1.02,8.22.13,1.04.86,1.78,1.43,2.59.57.82,1.05,1.69,1.17,2.72.13,1.11-.45,1.97-1.54,2.18-1.87.36-3.73.07-5.53-.28-5.18-1.01-10.32-2.21-15.49-3.26-1.97-.4-3.29-1.34-4.12-3.26-.67-1.55-1.8-2.9-2.71-4.34-.84-1.32-1.74-2.62-2.49-3.99-1.08-1.98-1.42-4.24-.45-6.2,1.28-2.59,1.28-5.23,1.24-7.93-.02-1.34.3-2.51,1.06-3.62,3.43-5,5.46-4.78,9.24-1.4.53.48,1.11.92,1.56,1.47,2.44,2.98,5.36,4.85,9.37,5.31,3.04.35,4.96,2.52,5.77,5.62.52,1.98.37,3.97.47,6.18Z"/><path class="cls-1" d="m367.26,215.04c.05,1.11-.2,2.17-.98,3.12-2.37,2.89-1.83,5.91-.06,8.77,1.24,2,1.97,4.12,2.45,6.36.51,2.43.38,4.84-.51,7.18-.42,1.11-1.1,2-2.15,2.57-1.24.68-2.58.37-3.4-.8-.16-.23-.31-.48-.44-.74-3.44-6.76-6.92-13.5-10.3-20.29-.58-1.16-1.01-2.39-2.02-3.23-2.77-2.32-2.56-5.21-1.57-8.21.26-.8.75-1.54,1.19-2.27,2.23-3.75,2.31-7.51.38-11.45-1.32-2.69-2.38-5.51-3.5-8.29-.7-1.75-.92-3.6-.76-5.48.08-.88.4-1.67,1.21-2.16.77-.46,1.6-.69,2.45-.34.81.34.75,1.13.71,1.84-.11,1.92-.02,3.73,1.69,5.06.32.25.58.68.68,1.07.9,3.66,3.31,6.65,4.54,10.17.61,1.75,1.65,3.06,3.65,3.13,1.41.05,2.03.85,2.4,2.03.59,1.9,1.73,3.62,1.87,5.68.09,1.34.77,2.45,1.67,3.41.75.81.86,1.77.81,2.86Z"/><path class="cls-1" d="m192.01,136.69c-.41.05-.88,0-1.24.16-5.62,2.61-11.64,3.47-17.7,4.2-3.74,0-7.47,0-11.21,0-1.03-.11-1.93-.51-2.72-1.17-2.46-2.04-5.28-3.32-8.31-4.34-3.86-1.29-4.25-2.66-1.74-5.82,4.25-5.36,5.55-11.85,7.16-18.21.45-1.77-.73-3.04-2.55-3.22-1.41-.14-2.86.15-4.23-.45-2.78-1.23-5.26-2.89-7.38-5.08-1.14-1.18-1.79-2.53-1.68-4.24.38-5.72-1.39-11.01-3.33-16.26-1.04-2.82-2.09-5.63-3.03-8.48-.4-1.21-.66-2.49-.81-3.76-.27-2.29.39-4.28,2.41-5.59,4.24-2.75,6.95-6.72,9-11.22,1.83-2.42,5.1-3.03,6.93-5.52.53-.72,1.94-.38,2.63-1.24,1.51-.69,2.11-2.05,2.55-3.52l-.04.03c.75.07,1.41-.12,1.94-.67,2.82-2.97,6-2.87,9.33-1.01,2.39,1.33,4.96,2.2,7.57,2.94,4.12,1.17,7.31-.07,9.47-3.78,1-1.72,1.8-3.58,2.56-5.42,2-4.85,5.6-7.79,10.59-9.16,6.23-1.72,11.57-.14,15.98,4.47,1.81,1.89,3.82,3.21,6.21,4.35,2.96,1.41,5.4,3.79,6.26,7.23.62,2.48,1.34,4.96,1.38,7.55.04,2.43.34,4.81.79,7.22,1.11,5.9,4.36,9.69,10.08,11.61,6.22,2.09,12.37,4.42,18.52,6.71,2.41.9,4.75,1.97,7.11,2.98,2.19.94,4.38,1.18,6.61.13,1.88-.9,3.9-.93,5.89-.71,3.87.43,7.01,4.17,6.87,8.04-.09,2.36-1.75,4.38-4.08,4.81-.96.18-2.03-.11-2.81.74-2.39.98-2.87,1.41-2.35,3.25,1.38,4.83.32,9.39-1.34,13.85-1.94,5.24-3.39,10.62-5.11,15.93-.63,1.94-.88,3.91-.86,5.92,0,1.13,0,2.4.47,3.37,1.31,2.73,2.05,5.62,2.9,8.5.58,1.94,1.6,3.68,3.12,5.07,1.12,1.02,1.81,2.23,1.67,3.78-.32,3.5.65,6.8,1.5,10.13.21.83.48,1.65.67,2.49.66,2.88-.26,4.53-3.23,5.49-1.62.53-3.33.78-4.99,1.23-2.34.63-4.67,1.32-7.01,1.98-.79-.03-1.59-.11-2.38-.08-.99.03-1.82-.25-2.48-.99-.11-.7-.06-1.48-.35-2.1-3.65-7.77-6.21-15.97-9.34-23.94-1.68-4.27-2.65-8.75-3.2-13.3-.52-4.32.01-8.56,1.38-12.68.63-1.9,1.3-3.78,1.93-5.68.45-1.36.9-2.72.48-4.19-.92-.11-1.15.64-1.48,1.21-4.55,8.06-5.73,16.64-3.96,25.68,1.19,6.06,3.32,11.82,5.51,17.56,1.21,3.19,2.4,6.39,3.56,9.46-.75,1.04-1.44.48-2.03.28-1.62-.54-3.13-1.4-4.86-1.58-.33-1.39-1.54-2.01-2.52-2.78-8.38-6.72-17.34-12.61-26.69-17.88-3.7-2.85-4.36-3.19-7.57-3.63,2.77,1.43,4.26,3.64,6.75,4.46,8.76,6.76,17.83,13.07,27.39,18.67.84.49,1.61,1.2,2.7,1.1,1.37,1.88,3.46,2.9,5.19,4.35.87.73,1.8,1.4,2.68,2.13.59.5.84,1.26.56,1.94-1.34,3.18-.67,6.48-.66,9.74.01,2.98.89,5.67,3.52,7.41,1.19.78,1.67,1.92,2.08,3.13,1.79,5.25,2.14,10.6.8,16-.38,1.54-.63,3.07-.63,4.65,0,2.17.71,3.91,2.91,4.74.78.92,1.93,1.22,2.98,1.56,3.8,1.23,8.22-1.71,8.85-5.79.02-.12-.05-.31-.14-.36-.22-.13-.49-.3-.7-.26-.88.17-1.46.83-2.08,1.41-.93.87-1.83,1.79-2.81,2.6-.9.74-1.98,1.03-3.19.94-1.25-.09-1.36-1.34-2.11-1.92-.22-3.44-.11-6.84.49-10.26.4-2.24.36-4.56.38-6.85.02-3.02-1.06-5.73-3.36-7.62-2.38-1.97-3.35-4.62-4.26-7.3-.96-2.82-.38-4.79,2.63-5.75,4.22-1.34,8.45-2.68,12.68-4,.88-.27,1.6.02,2.36.59,3.24,2.44,3.39,2.49,6.55-.13,1.3-1.08,2.8-1.39,4.25-1.93,1.57-.58,2.45-.11,3.14,1.32,1.01,2.09.79,3.88-.79,5.53-.58.61-1.34,1.06-2.04,1.56-.7.49-1.47.9-2.14,1.43-2.07,1.66-2.45,3.29-1.3,5.65.5,1.03,1.1,2.01,1.64,3.02,1.06,2.01,1.41,4.07.17,6.13-1.15,1.91-.62,3.55.69,5.1.46.54,1,1.03,1.42,1.61.81,1.12,1.15,2.3.15,3.52-.27.33-.51.69-.75,1.05-1.59,2.41-1.45,4.86-.08,7.29.56,1,1.22,1.94,1.83,2.91.68,1.09,1.41,2.16,2,3.3.99,1.92.65,2.56-1.46,2.81-.98.12-2.02-.07-2.89.58-.5.38-.79.9-.48,1.47.33.62.79,1.18,1.26,1.7,1.39,1.5,2.35,3.24,3.1,5.11.99,2.51,1.15,5.1-.14,7.49-1.87,3.47-2.24,7.03-1.4,10.81.12.56.24,1.14.2,1.7-.25,3.76.63,7.32,1.58,10.93.67,2.54,1.5,4.91,3.05,7.01.34.46.72.9,1,1.4,1.09,1.96,1.69,4.03.53,6.13-1.98,3.58-.18,6.96.41,10.39.17.96,1.18,1.23,2.05.79,2.55-1.28,5.05-2.66,7.66-3.79,3.19-1.38,5.13-.38,6.26,2.96.18.54.5,1.12.44,1.65-.34,3.07,1.29,5.82,1.35,8.82.01.69.15,1.5.54,2.03,1.43,1.94,2.96,3.82,4.54,5.64.56.64,1.4,1.13,2.28,1.06,2.62-.22,4.65,1.19,6.79,2.3,1.64.86,3.24,1.78,4.71,2.59.35,1.21-.58,1.36-1.01,1.84-1.35,1.48-2.75,2.91-4.05,4.43-.94,1.09-1.8,2.22-3.05,2.99-.7.43-1.32.51-1.83-.24-.72-1.07-1.39-2.17-2.13-3.22-2.09-2.97-4.81-5.21-8.35-7.14.08,2.4,1.27,4.06,1.88,5.88.59,1.76,1.34,3.47,2.09,5.17.81,1.82,1.72,3.6,2.58,5.4.22.26.44.53.66.8,0,0,.19.22.19.22.21.21.42.43.62.64,0,0,.24.24.24.24.22.21.43.41.65.62,0,0,.22.18.22.18.26.22.53.44.79.65,1.76.93,3.52,1.86,5.29,2.78.38.57.96.67,1.59.67,0,0,.09.03.09.03.6.96,1.56.82,2.47.83,0,0,.11.03.11.03.6.96,1.57.81,2.49.82,0,0,.09.03.09.03.58.96,1.55.82,2.45.84,2.76.58,5.1,1.93,7.09,3.91.12.17.28.29.47.38,0,0,.29.16.29.16.31.21.63.41.94.62,1.26.33,2.45.78,3.39,1.73.24.67.8.88,1.44.97,0,0,.21.23.21.23.07.14.15.27.25.4.46.7.45,1.39-.02,2.07-.09.15-.17.31-.22.48-.09.53-.37.89-.89,1.05-1.15.02-2.29.04-3.44.05-2.84-1.04-5.24-2.83-7.7-4.52-3.65-2.5-7.12-5.28-11.23-7.03-.38-.51-.94-.56-1.51-.55-.34-.07-.69-.14-1.03-.21-.38-.55-.96-.65-1.57-.65-2.85-.65-5.08-2.42-7.31-4.13-2.24-1.72-4.4-3.54-6.6-5.31-.11-.42-.37-.66-.81-.68,0,0-.19-.14-.19-.14-.07-.36-.27-.57-.66-.56-.05-.17-.16-.25-.34-.24-.26-.59-.71-.9-1.35-.92-.92-1.01-2.05-1.61-3.4-1.8-.44-.6-1.04-.81-1.76-.71,0,0-.19-.05-.19-.05-1.22-1.01-2.65-.95-4.1-.85,0,0,0-.21,0-.21-.49-.23-.98-.68-1.46-.66-2.98.12-6.06-.83-8.93.69-1.38.3-2.92-.04-4.13,1,0,0-.12.03-.12.03-1.18-.09-2.32-.01-3.24.86,0,0-.19.05-.19.05-.93-.12-1.75.09-2.4.8,0,0-.18.05-.18.05-.92-.1-1.72.11-2.34.83,0,0-.23.07-.23.07-.7-.09-1.27.12-1.7.69,0,0-.04.02-.04.02-.94-.05-1.81.12-2.45.89,0,0-.11.04-.11.04-.92-.07-1.75.13-2.38.86,0,0-.19.06-.19.06-.92-.1-1.73.11-2.37.81,0,0-.21.05-.21.05-.94-.11-1.79.06-2.48.76,0,0-.11.03-.11.03-1.21-.07-2.4-.02-3.41.8-.29,0-.57-.05-.86-.02-1.39.15-2.89-.25-4.15.69-1.38,1.02-.93,2.58-1.12,3.95-.04.28-.09.57-.19.83-.9,2.58-1.45,5.19-1.31,7.96.07,1.46-.64,2.12-2.08,2.17-1.71.06-3.44.06-5.12-.16-2.4-.33-4.23-1.63-5.3-3.87-2.66-5.6-4.65-11.32-4.15-17.7.29-3.69.13-7.42.13-11.13,0-1.73.19-3.32,1.04-4.93,2.75-5.21,2.91-10.63.93-16.15-1.35-3.78-3.11-7.35-5.43-10.63.03-.68-.29-1.16-.85-1.5,0,0-.08-.17-.08-.17-.02-.5-.27-.82-.72-1.01-.13-.61-.14-1.28-.82-1.61-.15-.79-.22-1.87-1.28-1.69-.71.12-.46,1.14-.49,1.77-.03.54.09,1.09.15,1.63-.49,2.37.59,4.48,1.17,6.66.77,2.89,1.75,5.71,2.39,8.65.87,4.03.82,7.91-.83,11.73-.17.39-.21.82-.31,1.24-.43.19-.67.51-.67.99,0,0-.08.15-.08.15-.59.33-.93.83-1,1.5-2.09,1.35-2.87,3.47-3.33,5.75-.48,2.39-1.29,4.67-2.21,6.91-.65,1.6-1.55,3.05-2.86,4.22-.65.58-1.36,1.07-2.26,1.09-1.15.03-1.75-.82-2.35-1.62.03-.48-.18-.82-.58-1.06-.37-1.96-2.29-2.24-3.54-3.24-.13-.43-.41-.68-.88-.66,0,0-.19-.1-.19-.1-.32-.61-.82-.87-1.51-.78,0,0-.22-.07-.22-.07-.63-.69-1.48-.83-2.35-.84-1.43-.02-2.86,0-4.29,0,0,0-.17-.04-.17-.04-.39-.52-.9-.83-1.56-.85-.63-.87-1.27-1.74-1.9-2.61-1.3-1.67-1.8-1.67-3.11,0-.52,1.43-.21,2.82.3,4.16.36.96.94,1.77,2.11,1.87,1.6,1.18,3.36.54,5.07.47,3.07.61,5.52,2.24,7.58,4.54,1.07,1.2,1.36,2.47.55,3.91-.49.87-1.04,1.72-1.47,2.62-1.24,2.61-.95,4.18,1.04,6.16.81.8,1.65,1.58,2.43,2.41.69.73,1.33,1.54,1.25,2.63-.14,2.02.97,3.52,2.2,5.25-5.38,4.03-11.21,6.19-17.95,5.46-2.14-.23-3.78-1.32-4.82-3.18-.69-1.24-1.32-2.56-1.72-3.91-.82-2.73-1.45-5.53-2.2-8.28-.42-1.55-.39-3.1-.18-4.68.09-.7.22-1.42.17-2.12-.11-1.61-1.12-2.55-2.76-2.71-2.75-.27-5.39.44-8.06.88-2.87-.01-5.74-.02-8.61-.03-2.54-.36-3.59-2.27-4.52-4.31.07-.49-.16-.82-.57-1.05-.93-2.88-2.76-5.05-5.28-6.67-.12-.43-.38-.66-.84-.66,0,0-.2-.12-.2-.12-.3-.62-.8-.91-1.48-.89-.47-.57-1.07-.86-1.81-.89-.39-.58-.93-.8-1.61-.69-.29-.07-.58-.14-.87-.21-.44-.56-1.01-.76-1.71-.64-.3-.07-.6-.14-.9-.21-.43-.56-.99-.78-1.69-.68-1.42-.64-2.84-1.29-4.26-1.93-.17-.43-.48-.66-.94-.65,0,0-.2-.13-.2-.13-.06-.33-.23-.53-.59-.49-1.03-1.01-2.06-2.03-3.09-3.04.03-.31-.12-.46-.44-.45,0,0-.28-.26-.28-.26-.51-.98-1.35-.98-2.26-.76-1.05-.13-2.37.35-2.54-1.45-.22-2.37-1.77-4.17-2.87-6.15-3.02-5.43-4.53-11.06-2.54-17.23.55-1.72.46-3.35-1.12-4.65-2.37-1.96-2.29-4.35-1.17-6.96,1.57-3.67,3.04-7.38,4.59-11.06.39-.92.84-1.82,1.38-2.65,1.08-1.69,2.16-3.37,2.8-5.28.59-1.76,1.78-2.47,3.58-2.33.71.05,1.43.06,2.14.09.65.58,1.44.81,2.27.77,1.93-.11,3.76.46,5.63.74.42.07.84.16,1.26.2,4.02.37,5.48-.71,6.2-4.58.05-.28.1-.57.08-.85-.11-2.29,1.18-3.37,3.26-3.74,5.78-1.03,11.13-3.38,16.61-5.33,3.62-1.29,7.28-2.42,11.11-2.86,2.87.02,5.74.04,8.61.06,1.89,1,2.22,2.91,2.56,4.7.94,5.03,2.31,9.98,2.73,15.13.3,3.69,2.5,5.61,6.17,5.89,2.13.16,4.26.01,6.39-.36,4.63-.81,9.28-1.51,13.92-2.25,2,.03,3.99.06,5.99.1.96.02,1.6.4,1.78,1.44.08.46-.25,1.21.65,1.32.45.05.85-.96.63-1.73-.19-.68-.45-1.35-.67-2.03.77-2.92,1.07-5.89,1.14-8.91.11-4.92,1.06-9.63,3.68-13.92,1.43-2.35,2.12-4.97,2.42-7.71.41-3.7.77-7.39.72-11.11-.05-3.73.24-7.42.84-11.1,1.05-6.46,3.06-12.48,7.7-17.35.2-.21.38-.43.55-.65.17-.23.36-.45.48-.71.17-.36.51-.8-.07-1.06-.19-.09-.57.05-.76.21-4.75,3.98-7.89,9-9.5,14.96-1.09,4.01-1.7,8.09-1.85,12.26-.15,4.42-.37,8.86-.87,13.25-.36,3.11-1.14,6.18-1.93,9.21-.55,2.12-1.84,2.72-3.92,2.06-1.49-.47-2.92-1.1-4.38-1.65.07-.75-.13-1.44-.7-1.93-.28-.25-.77-.48-1.1-.41-.61.13-.34.66-.18,1.02.43.93,1.17,1.6,1.96,2.22.15.93.88,1.43,1.49,2.03,2.17,2.15,2.99,4.76,2.92,7.79-.05,2.46-.66,4.81-1.05,7.21-.21,1.28-1.13,1.99-2.3,2.28-.81.2-1.73.34-2.53.18-2.06-.43-3.98.13-5.93.54-3.64.76-7.25,1.66-10.92,2.22-5.31.82-7.04-.35-8.3-5.56-1.04-4.31-1.87-8.66-2.66-13.02-.75-4.11.13-5.27,4.36-6.23.28-.06.57-.08.85-.12,2.59.1,5.23.6,7.67-.78.4-.12.84-.18,1.2-.38.34-.19.79-.49.85-.8.1-.53-.45-.61-.85-.61-.99,0-1.98.02-2.96.12-3.09.29-6.17.62-9.25.93-5.26-.02-10.53-.05-15.79-.07-.87,0-1.71.08-2.37.75-3.89.4-7.63,1.38-10.95,3.48-3.33,2.12-7.04,3.14-10.79,4.07-4.05,1.01-5.29-.1-4.77-4.35.36-2.98,1.13-5.89,2.04-8.76,1.63-5.18,3.13-10.41,4.76-15.59,1.14-3.64,1.22-7.35.75-11.05-.25-1.96-1.03-3.85-1.6-5.77-.12-.39-.41-.74-.9-.62-.49.12-.61.57-.63.99-.05.86-.05,1.72-.05,2.58,0,4.44.02,8.88,0,13.31,0,.99.07,2.11-.34,2.95-1.93,4.03-2.81,8.41-4.29,12.58-.78,2.18-1.84,4.2-3.44,5.89-.47.5-1.09,1-1.73,1.17-3.04.78-6.14-.56-7.55-3.41-1.43-2.88-3.4-5.28-5.72-7.45-.73-.68-1.5-1.33-2.23-2.02-3.04-2.84-4.47-6.22-3.55-10.42.37-1.68.63-3.37.95-5.06.86-4.5,1.48-9.03,1.77-13.6.25-1.22.41-2.43-.19-3.87-1.07,1.18-1.48,2.39-1.27,3.83-1.4,7.15-2.81,14.31-4.2,21.46-.41,2.09.05,3.98,1.41,5.63.63.77,1.22,1.59,1.93,2.3,3.53,3.55,7.05,7.03,9.18,11.76,1.38,3.06,4.94,3.99,8.1,2.81.8-.3,1.55-.73,2.35-1,.78-.26,1.73.52,1.78,1.38.02.28.06.58,0,.85-.74,4.08-1.51,8.16-2.77,12.12-.26.82-.75,1.54-1.54,1.99-2.34-.11-4.75.35-6.97-.82-1.18-.52-2.32-1.14-3.54-1.54-4.18-1.38-8.29-2.88-11.79-5.74,1.34,2.02,2.79,3.89,4.31,5.7.85,1.01,1.04,1.9.25,3.07-1.45,2.15-2.39,4.55-3.14,7.03-.63,2.06-1.64,3.93-2.93,5.69-1.43,1.96-2.73,4.03-3.95,6.12-1.86,3.18-1.49,6.3.53,9.28.48.71,1.04,1.36,1.57,2.04.19.35.39.7.58,1.04-.04.99.05,2.01-.14,2.97-1.49,7.49.79,14.01,5.08,20.02,1.23,1.72,2.6,3.34,3.9,5.01.59,1.76,1.57,3.28,2.88,4.59-.02.36.17.53.51.56,0,0,.18.22.18.22.03.42.26.64.67.68,0,0,.2.18.2.18.05.38.27.59.66.61.04.17.14.25.31.25,0,0,.1.3.1.3h.3c1.27,1.25,2.82,1.94,4.51,2.33,3.81.87,7.12,2.89,10.58,4.57.97.47,1.57,1.22,1.76,2.27.59,3.13,1.97,5.96,3.53,8.69,3.14,5.5,2.94,11.18,1.14,16.97-.77,2.46-1.92,4.75-3.44,6.86-.94,1.3-2.06,2.37-3.42,3.19-2.24,1.35-3.41,1.35-5.33-.61-3.37-3.45-7.43-4.62-12.07-4.23-1.7.14-3.4.37-5.09.59-1.13.14-2.25.38-3.39.47-4.34.33-5.32-.04-6.96-3.9-1.96-4.61-5.54-7.53-10.55-8.51-1.26-.25-2.52-.44-3.79-.65-.49-.23-.98-.66-1.47-.67-3.62-.07-7.23-.08-10.85-.04-.49,0-.98.43-1.47.67-1.66.29-3.39-.07-5,.83-.66.37-1.66.18-2.5.19-.62,0-1.05-.35-1.25-.95-.14-.4-.31-.81-.36-1.22-.78-6.91-2.26-13.74-2.13-20.76.06-3,.48-5.94.83-8.89,2.73-6.61,4.96-13.4,7.03-20.25,1.33-4.38,2.57-8.79,4.12-13.09,1.27-3.51,3.8-4.11,6.65-1.78,1.9,1.56,3.8,3.04,6.33,3.4,2.61,1.21,5.2,1.14,7.77-.09.14-.02.29-.02.42-.06,1.01-.34,2.65-.25,2.56-1.58-.07-.99-1.62-.89-2.6-.93-1.42-.07-2.86-.12-4.28-.03-5,.3-9.22-1.32-12.7-4.93-.49-.51-1.03-1-1.63-1.38-2.07-1.33-4.21-.64-4.54,1.76-.5,3.56-1.9,6.86-2.53,10.37-.02.14-.09.28-.1.42-.34,4.04-1.77,7.76-3.35,11.44-.9,2.1-1.88,4.28-1.89,6.54,0,2.85-1.09,5.26-2.1,7.76-.32.78-.51,1.61-.76,2.42-2.79,4.98-3.34,10.21-2.12,15.76,1.2,5.44,2.08,10.95,3.25,16.4.37,1.75.06,3.19-1.19,4.29-2.64,2.32-4.26,5.35-6.11,8.24-2.69,4.22-5.48,8.38-8.75,12.2-1.41,1.65-2.93,3.12-4.86,4.14-1.98-.02-3.97-.04-5.95-.06-2.12-.86-4.22-1.75-6.36-2.55-.31-.12-.92.07-1.13.33-.2.24-.21.85-.04,1.15.99,1.74,2.06,3.43,3.09,5.15,1.27,2.12,2.06,4.38,2.07,6.9,0,1.86-.65,3.34-2.18,4.41-.82.57-1.68,1.09-2.47,1.7-3.44,2.67-6.25,5.9-8.22,9.78-1.49,2.93-2.89,5.92-4.06,8.98-1.03,2.71-2.5,5.13-4.08,7.49-1.46,2.18-3.41,3.82-5.87,4.86-2.81,1.18-5.62,1.13-8.33-.12-2.74-1.26-5.57-2.2-8.5-2.91-1.38-.33-2.75-.79-3.92-1.68-1.7-1.28-2.29-2.85-1.71-4.89.19-.68.49-1.35.86-1.94,2.13-3.39,4.29-6.77,6.46-10.13,1.17-1.81,2.58-3.44,4.24-4.82,2.27-1.9,3.76-4.29,4.76-7.02.94-2.55,1.95-5.03,3.47-7.34,1.45-2.21,1.63-4.84,1.48-7.45-.07-1.28-.31-2.56-.33-3.84-.04-2.18.43-4.25,1.61-6.14,1.28-2.06,3.03-3.4,5.49-3.68.7-.08,1.41-.14,2.29-.22-.67-1.11-1.61-1.23-2.55-1.29-1.14-.07-2.29-.07-3.43-.13-1.83-.1-3.28-.88-4.29-2.44-2.88-4.44-5.8-8.86-8.65-13.32-1.25-1.95-1.95-4.13-2.11-6.46-.13-2-.34-3.99-.45-5.99-.17-3.14-.36-6.27-.73-9.41-.4-3.4-.6-6.87-.43-10.29.4-8.18-.61-16.29-.89-24.43-.1-2.85-.43-5.72-.92-8.53-.63-3.55-.73-7.11-.9-10.68-.25-5.34.49-10.51,2.22-15.61,3.22-9.49,6.82-18.83,10.32-28.2.35-.94.67-2.05,1.61-2.45,1.64-.7,1.69-2.08,1.98-3.49.46-2.25,1.14-4.43,2.36-6.41,5.33-8.65,9.83-17.78,15.4-26.29,5.01-7.67,10.15-15.25,15.6-22.61,3.65-4.93,5.95-10.38,7.54-16.23,1.05-3.85,2.29-7.65,3.44-11.46l-.02.03c1.83.25,3.59-.88,5.45-.21.73.26,1.27.57,1.32,1.41.03.57.03,1.13.09,1.7.56,5.76,4.76,10.59,10.45,12.02,1.54.39,2.84,0,3.69-1.34.44-.69.56-1.58.82-2.38,2.07-1.96,3.8-4.2,5.33-6.59,2.21-3.45,3.93-7.21,6.71-10.3.64-.72.97-1.72,1.43-2.6.4-.75.67-1.6,1.19-2.25,2.92-3.65,5.17-7.72,7.44-11.78,2.17-1.73,3.29-4.29,4.94-6.42,3.49-4.5,5.81-5.14,11.1-2.99.26.11.52.25.78.36,1.65.73,3.12.32,4.32-.88.8-.8,1.44-1.76,2.07-2.71,1.04-1.54,1.98-3.14,3.03-4.67.19-.28.73-.47,1.08-.44.72.06.77.73.84,1.29.03.27-.03.57-.1.85-1.18,4.45.42,8.18,3.18,11.5,1.46,1.75,3.21,3.25,4.87,4.81.75.71,1.69,1.04,2.76.95.71-.06,1.43-.13,2.14-.11,2.32.06,3.15,1.09,2.54,3.27-.35,1.23-.79,2.46-1.38,3.59-1.05,2.03-2.19,4.01-3.37,5.97-2.35,3.93-4.68,7.88-5.92,12.32-.35,1.27-1.48,2.98-.12,3.91,1.03.71,2.21-.88,3.33-1.41.13-.06.24-.15.37-.22,4.19-2.19,7.55-.88,9.09,3.65.92,2.71,1.45,5.51,1.56,8.4.15,4.32-.62,8.53-1.22,12.77-.54,3.81-1.6,7.56-1.3,11.47.02.91-.21,1.88.73,2.52.68,2.02,1.27,4.07,2.09,6.03.59,1.42.1,3.16,1.33,4.34.46.44.65.18,2.62-3.98.12-.26.23-.52.34-.79.77-1.87.5-2.97-1.18-3.99-.71-.43-1.59-.58-2.39-.86-1.02-.93-.96-2.23-1.15-3.44,1.21-7.64,1.75-15.31,1.2-23.05-.12-1.7-.04-3.44.19-5.13.24-1.77,1.04-3.29,3.09-3.63,7.96.05,15.93.11,23.89.16,1,0,2-.08,2.76-.86,2.71-1.1,4.12-3.12,4.3-6.02M49.3,280.73c-1.78.74-2.95,2.21-4.17,3.59-1.41,1.6-2.74,3.28-4.04,4.97-1.23,1.61-2.63,2.93-4.43,3.93-2.32,1.29-4.91,4.43-6.43,7.36,1.74-.88,2.59-2.82,4.54-3.22,1.91-.39,3.42-1.36,4.27-3.2.33-.72,1.01-.93,1.69-1.16,2.88-.96,4.77-3.05,6.12-5.64.92-1.76,1.68-3.6,2.52-5.41,2-2.01,4-4.01,6-6.02,2.18-1.56,3.43-3.74,4.42-6.18,3.93-9.67,7.93-19.31,11.9-28.96,1.8-4.36,3.57-8.73,5.4-13.08.71-1.68.95-1.88,2.53-1.6,2.33.4,4.53.05,6.75-.64,1.36-.42,2.76-.77,4.17-.98,2.75-.41,4.14.37,5.4,3,.94,1.96,2.02,3.82,3.73,5.17,3.62,2.86,7.65,5.04,11.95,6.65,3.04,1.14,5.92.44,8.44-1.62.56-.46.98-1.01,1.2-1.73.38-1.24-.57-2.42-1.82-2.11-1.66.41-3.27,1.06-4.95,1.36-6.77,1.21-12.44-1.17-14.74-6.69-.22-.52-.55-1-.85-1.49-.97-1.64-2.21-2.98-4.08-3.62-1.14-1.15-2.61-.87-3.99-.88-2.67-.02-5.34.03-8.02.05-2-1.56-2.21-3.42-1.19-5.68,2.76-6.1,5.41-12.24,8.11-18.37.75-.47.94-1.31,1.27-2.04.09-.21.1-.61-.03-.73-.37-.35-.76-.04-.99.22-.45.49-.8,1.07-1.19,1.61-2.55,3.08-4.53,6.49-5.89,10.24-1.26,3.45-2.37,6.95-3.55,10.43-2.56,0-5.11.02-7.67.02-6.68.01-13.36,0-20.03.05-1.39.01-2.87-.29-4.1.72-.57.05-1.13.09-1.7.14-4.58,0-9.16,0-13.73,0-2.9.05-5.75-1-9.43-.67,4.86,3.52,9.51,4.68,14.67,3.86,1.69-.27,3.39-.53,5.08-.8,5.58.04,11.16.09,16.74.1,4.15,0,8.3-.05,12.45-.07.42.09.87.12,1.25.29,3.34,1.47,3.73,2.63,2.23,5.97-2.11,4.69-4.26,9.37-6.24,14.11-4.62,11.07-8.76,22.35-14.5,32.93-1.69,1.93-3.39,3.87-5.08,5.8Zm6.9-105.42l.03-.03c.28,3.05,2.68,4.52,4.74,6.18,1.24.99,2.39.74,3.28-.59.79-1.18,1.41-2.47,2.1-3.72.49-.9,1.32-1.06,2.19-.87.69.15,1.33.48,1.99.75,4.79,1.96,5.73,1.62,8.06-2.87.33-.63.72-1.23,1.1-1.83,2.08-3.34,5.03-5.32,8.93-6.01,4.09-.73,7.93.33,11.74,1.52,1.33.41,1.81,1.66,1.55,3.14-.25,1.44-1.02,2.65-1.73,3.88-1.31,2.27-2.1,4.67-1.89,7.33-3.12,2.24-5.16,5.22-5.94,9-.12.57-.49,1.36.44,1.73,2.88-2.81,4.26-5.54,5.46-10.76,2.69-1.92,3.79-4.97,5.34-7.67,1.36-2.37,2.67-4.73,4.7-6.61.49-.45,1.12-.94.66-1.62-3.49-.63-6.86-1.23-10.23-1.86-3.94-.73-7.88-1.37-11.92-1.21-2.99.12-5.22,1.43-6.57,4.06-.78,1.52-1.34,3.15-1.99,4.73-1.31,3.17-3.65,4.15-6.91,2.85-1.06-.42-2.06-.99-3.11-1.43-.74-.31-1.41-.08-1.92.52-.27.32-.44.73-.69,1.07-1.83,2.44-3.14,2.84-5.85,1.75-1.18-.48-2.22-1.31-3.56-1.42Zm84.92-32.88c-2.74,1.02-4.21,2.76-5.76,4.35-2.92,2.98-6.15,5.16-10.6,4.5-.14-.02-.29,0-.43.01-.94.09-1.85,1.14-1.7,2.09.1.7.32,1.39.58,2.06,1.95,5.1,4.37,9.95,7.46,14.45.24.35.57.57,1.07.22.45-1.96-.67-3.53-1.47-5.17-.75-1.54-1.61-3.03-2.29-4.6-.98-2.23-.53-4.21,1.39-5.76.88-.72,1.85-1.34,2.75-2.04,3.49-2.69,6.61-5.71,9.02-10.11Zm127.71-47.58c-1.93-.25-3.45.63-4.75,1.58-2,1.46-4.19,2.38-6.5,3.09-1.39.43-2.62,1.11-3.69,2.07-.39.35-.65.89-.87,1.39-.09.21-.02.66.14.79.29.24.78.53,1.06.44.66-.21,1.26-.63,1.86-.99,3.03-1.84,5.91-3.91,9.31-5.1,1.48-.51,2.76-1.45,3.43-3.27ZM18.96,304.43c-.06-.27-.03-.61-.19-.79-1.32-1.56-4.59-2.45-6.2-1.67-.14.06-.24.58-.13.71,1.27,1.6,2.84,2.75,4.94,2.92.77.06,1.29-.46,1.59-1.17Zm203.7-77.89c-.24-.64-.45-1.47-.83-2.21-.74-1.43-1.86-2.49-3.4-3.05-.43-.16-.84-.06-1.13.31-.28.35-.37.79-.09,1.15,1.33,1.66,2.74,3.25,4.47,4.5.14.1.49-.05.72-.14.09-.04.12-.24.26-.56Z"/><path d="m142.92,149.61c.11-.63.18-1.28.18-1.95,0-6.21-5.03-11.24-11.24-11.24s-11.24,5.03-11.24,11.24c0,.67.07,1.32.18,1.95.57,4.99,2.83,18.45,11.06,26.69,8.23-8.23,10.49-21.69,11.06-26.69Z"/><circle class="cls-2" cx="131.86" cy="147.19" r="6.63"/></g></svg>