<?xml version="1.0" encoding="utf-8"?>
<!-- Generator: Adobe Illustrator 27.4.1, SVG Export Plug-In . SVG Version: 6.00 Build 0)  -->
<svg version="1.1" xmlns="http://www.w3.org/2000/svg" xmlns:xlink="http://www.w3.org/1999/xlink" x="0px" y="0px"
	 viewBox="0 0 130.2 184.3" style="enable-background:new 0 0 130.2 184.3;" xml:space="preserve">
<style type="text/css">
	.st0{fill:#FFAB6F;}
	.st1{fill:#FFFFFF;}
</style>
<g id="Layer_2_00000067222819918868403960000017343484409592242354_">
	<g id="lower">
		<path class="st0" d="M129,60c-0.9,6.9-2.1,13.8-4.1,20.5c-1.2,4.4-2.9,8.6-4.7,12.8c-1,2.4-2.7,3.8-5.1,4.8
			c-4.9,2-10,3.3-15.2,4.2c-5,0-9.9-0.1-14.9-0.1c-2.3,0-4.5,0-6.8,0.1c-0.9,0-1.7,0.2-2.3,0.8c-6.3,1.2-11.6,4.6-16.6,8.5
			c-2.2,1.8-4.4,3.7-6.5,5.6c-2.9,2.7-5.9,5.4-9.7,6.9c-1.2,0.5-2,1.5-2.9,2.5c-2.5,2.8-5.7,4.3-9.4,4.2c-4.5,0-7.8-3.3-8.1-7.8
			c-0.1-1.3,0.5-2.6-0.1-3.8c-0.4-0.7-1.1-0.8-1.8-0.6c-2.4-0.9-2.7-1.2-2.6-3.2c0.1-1.3,0.4-2.5,0.6-3.8c0.9-6.9,1.8-13.8,2.8-20.7
			c0.9-6.1,1.8-12.1,3.2-18.1c1-4.4,2-8.9,2-13.5c0-0.8,0.2-1.7,0.4-2.5c0.6-1.8,1.9-2.9,3.8-2.8c1.3,0,2.6,0.2,3.8,0.3
			c0.7,0.1,1.4,0.2,2-0.5c0.4-0.5,0.7-1.5,1.5-1.3c0.6,0.1,1.2,0.7,1.8,1.1c0.7,0.4,1.5,0.9,2.2,1.3c1.2,1.2,2.5,2.3,3.8,3.5
			c3.9,3.8,7.7,7.7,11.5,11.5c2.5,2.5,5.3,4.8,6.8,8.2c0.1,0.1,0.2,0.2,0.3,0.3c0.5,0.4,1.1,0.4,1.6,0c0.8-0.6,0.9-1.6,0.1-2.1
			c-3.7-2.6-6.5-6-9.7-9.1c-3.5-3.4-6.9-6.9-10.3-10.3c-0.9-0.9-1.6-2.1-3.1-2c-0.4-2.4-1.8-3.9-4.2-4.2c-1.5-0.2-1.9-1-2.1-2.2
			c-0.2-1.1-0.4-2.2-0.5-3.4c-0.2-1.8-0.9-3.3-2.7-4.1c-0.4-0.2-0.8-0.4-1.1-0.6c-0.8-0.6-0.9-2-0.1-2.6c0.7-0.5,1.5-0.7,2.3-1.2
			c2-1.1,3.2-2.8,3.4-5.1c0.1-1.7,0.2-3.4,0.4-5.1c0.1-1.1,0.1-2.3,0.4-3.4c1.2-4.2,1.4-8.4,1.3-12.7c0.1-0.5-0.1-0.8-0.6-0.9
			c-0.2-0.2-0.5-0.3-0.7-0.5c-0.4-0.2-0.7-0.6-0.8-0.9l0.6-1c1.7-1.3,2.7-3,3.2-5.1c0.1-0.4,0.4-0.6,0.8-0.8C44.4,0.7,44.7,0.5,44,0
			c1.8,1.2,7.6,5.2,11.8,6.7c0,0,0,0,0,0c-0.5-0.1-1.1-0.1-1.6,0c-0.1,0.9,0.6,1.1,1,1.3c8.2,4.4,16.3,9,24.6,13.2
			c6.1,3.1,7.5,5.5,5.8,12.3c-1.2,4.7-2.2,9.5-2.3,14.4c-0.4,0.3-0.5,0.7-0.5,1.2c-0.5,1.6-1.1,3.2-1.5,4.9
			c-2,7.4-3.9,14.8-5.9,22.3c-0.3,1.1-0.7,2.2-0.4,3.3c0.1,0.2,0.4,0.4,0.6,0.5c0.2,0.1,0.7,0.1,0.8-0.1c0.4-0.6,0.8-1.2,1-1.8
			c1.4-4.9,3-9.8,4.2-14.8c1.1-4.7,2.5-9.4,2.2-14.3c0.1-0.2,0.2-0.4,0.1-0.7c0.5-0.8,1.2-1.6,1.6-2.5c1.5-3.7,2.5-7.5,2.5-11.6
			c0-1.4-0.1-2.9,0.1-4.2c0.3-1.9,2.1-3,3.8-2.3c2.7,1.2,5.5,2.4,7.9,4.1c2.8,2,5.8,3.6,9,4.8c2.2,0.8,4.2,1.7,6,3.2
			c1.1,0.9,2.3,1.6,3.7,1.9c1,1.1,2.3,1.7,3.8,1.7c0.3,0.8,1,1.1,1.8,1.1c1.7,0.9,3.5,1.7,5.2,2.6c0.3,0.5,0.6,1,0.9,1.4
			C130.3,52.5,129.5,56.2,129,60L129,60z"/>
		<path class="st0" d="M24.4,156.2c4.3,1.9,7.1,6.4,6.8,10.9c-0.1,1.7-0.9,3-2,4.1c-1.3,1.2-2.8,1.9-4.5,2.5c-3.3,1-6.3,2.7-9.1,4.8
			c-2,1.4-4,2.8-6,4.1c-1.2,0.8-2.5,1.4-3.9,1.7c-3,0.7-5.8-1.5-5.7-4.6c0-1.3,0.5-2.5,1.2-3.6c1-1.4,2-2.8,3-4.2
			c3.2-4.2,6.4-8.4,9.6-12.6c1-1.3,2-2.4,3.6-2.9C19.7,156.2,22,156.2,24.4,156.2L24.4,156.2z"/>
	</g>
	<g>
		<path d="M50.3,104.4c0-0.3,0.1-0.6,0.1-0.8c0-2.7-2.2-4.8-4.8-4.8c-2.7,0-4.8,2.2-4.8,4.8c0,0.3,0,0.6,0.1,0.8
			c0.2,2.2,1.2,7.9,4.8,11.5C49,112.3,50,106.5,50.3,104.4z"/>
		<circle class="st1" cx="45.5" cy="103.3" r="2.9"/>
	</g>
</g>
<g id="Layer_3">
	<g id="lower_00000160887304841540349640000010069199928225701026_">
		<path class="st0" d="M129,60c-0.9,6.9-2.1,13.8-4.1,20.5c-1.2,4.4-2.9,8.6-4.7,12.8c-1,2.4-2.7,3.8-5.1,4.8
			c-4.9,2-10,3.3-15.2,4.2c-5,0-9.9-0.1-14.9-0.1c-2.3,0-4.5,0-6.8,0.1c-0.9,0-1.7,0.2-2.3,0.8c-6.3,1.2-11.6,4.6-16.6,8.5
			c-2.2,1.8-4.4,3.7-6.5,5.6c-2.9,2.7-5.9,5.4-9.7,6.9c-1.2,0.5-2,1.5-2.9,2.5c-2.5,2.8-5.7,4.3-9.4,4.2c-4.5,0-7.8-3.3-8.1-7.8
			c-0.1-1.3,0.5-2.6-0.1-3.8c-0.4-0.7-1.1-0.8-1.8-0.6c-2.4-0.9-2.7-1.2-2.6-3.2c0.1-1.3,0.4-2.5,0.6-3.8c0.9-6.9,1.8-13.8,2.8-20.7
			c0.9-6.1,1.8-12.1,3.2-18.1c1-4.4,2-8.9,2-13.5c0-0.8,0.2-1.7,0.4-2.5c0.6-1.8,1.9-2.9,3.8-2.8c1.3,0,2.6,0.2,3.8,0.3
			c0.7,0.1,1.4,0.2,2-0.5c0.4-0.5,0.7-1.5,1.5-1.3c0.6,0.1,1.2,0.7,1.8,1.1c0.7,0.4,1.5,0.9,2.2,1.3c1.2,1.2,2.5,2.3,3.8,3.5
			c3.9,3.8,7.7,7.7,11.5,11.5c2.5,2.5,5.3,4.8,6.8,8.2c0.1,0.1,0.2,0.2,0.3,0.3c0.5,0.4,1.1,0.4,1.6,0c0.8-0.6,0.9-1.6,0.1-2.1
			c-3.7-2.6-6.5-6-9.7-9.1c-3.5-3.4-6.9-6.9-10.3-10.3c-0.9-0.9-1.6-2.1-3.1-2c-0.4-2.4-1.8-3.9-4.2-4.2c-1.5-0.2-1.9-1-2.1-2.2
			c-0.2-1.1-0.4-2.2-0.5-3.4c-0.2-1.8-0.9-3.3-2.7-4.1c-0.4-0.2-0.8-0.4-1.1-0.6c-0.8-0.6-0.9-2-0.1-2.6c0.7-0.5,1.5-0.7,2.3-1.2
			c2-1.1,3.2-2.8,3.4-5.1c0.1-1.7,0.2-3.4,0.4-5.1c0.1-1.1,0.1-2.3,0.4-3.4c1.2-4.2,1.4-8.4,1.3-12.7c0.1-0.5-0.1-0.8-0.6-0.9
			c-0.2-0.2-0.5-0.3-0.7-0.5c-0.4-0.2-0.7-0.6-0.8-0.9l0.6-1c1.7-1.3,2.7-3,3.2-5.1c0.1-0.4,0.4-0.6,0.8-0.8C44.4,0.7,44.7,0.5,44,0
			c1.8,1.2,7.6,5.2,11.8,6.7c0,0,0,0,0,0c-0.5-0.1-1.1-0.1-1.6,0c-0.1,0.9,0.6,1.1,1,1.3c8.2,4.4,16.3,9,24.6,13.2
			c6.1,3.1,7.5,5.5,5.8,12.3c-1.2,4.7-2.2,9.5-2.3,14.4c-0.4,0.3-0.5,0.7-0.5,1.2c-0.5,1.6-1.1,3.2-1.5,4.9
			c-2,7.4-3.9,14.8-5.9,22.3c-0.3,1.1-0.7,2.2-0.4,3.3c0.1,0.2,0.4,0.4,0.6,0.5c0.2,0.1,0.7,0.1,0.8-0.1c0.4-0.6,0.8-1.2,1-1.8
			c1.4-4.9,3-9.8,4.2-14.8c1.1-4.7,2.5-9.4,2.2-14.3c0.1-0.2,0.2-0.4,0.1-0.7c0.5-0.8,1.2-1.6,1.6-2.5c1.5-3.7,2.5-7.5,2.5-11.6
			c0-1.4-0.1-2.9,0.1-4.2c0.3-1.9,2.1-3,3.8-2.3c2.7,1.2,5.5,2.4,7.9,4.1c2.8,2,5.8,3.6,9,4.8c2.2,0.8,4.2,1.7,6,3.2
			c1.1,0.9,2.3,1.6,3.7,1.9c1,1.1,2.3,1.7,3.8,1.7c0.3,0.8,1,1.1,1.8,1.1c1.7,0.9,3.5,1.7,5.2,2.6c0.3,0.5,0.6,1,0.9,1.4
			C130.3,52.5,129.5,56.2,129,60L129,60z"/>
		<path class="st0" d="M24.4,156.2c4.3,1.9,7.1,6.4,6.8,10.9c-0.1,1.7-0.9,3-2,4.1c-1.3,1.2-2.8,1.9-4.5,2.5c-3.3,1-6.3,2.7-9.1,4.8
			c-2,1.4-4,2.8-6,4.1c-1.2,0.8-2.5,1.4-3.9,1.7c-3,0.7-5.8-1.5-5.7-4.6c0-1.3,0.5-2.5,1.2-3.6c1-1.4,2-2.8,3-4.2
			c3.2-4.2,6.4-8.4,9.6-12.6c1-1.3,2-2.4,3.6-2.9C19.7,156.2,22,156.2,24.4,156.2L24.4,156.2z"/>
	</g>
	<g>
		<path d="M36,71.1c0-0.3,0.1-0.6,0.1-0.8c0-2.7-2.2-4.8-4.8-4.8s-4.8,2.2-4.8,4.8c0,0.3,0,0.6,0.1,0.8c0.2,2.2,1.2,7.9,4.8,11.5
			C34.8,79,35.7,73.2,36,71.1z"/>
		<circle class="st1" cx="31.2" cy="70" r="2.9"/>
	</g>
</g>
<g id="Layer_4">
	<g id="lower_00000090287499354378165060000014998892456188634754_">
		<path class="st0" d="M129,60c-0.9,6.9-2.1,13.8-4.1,20.5c-1.2,4.4-2.9,8.6-4.7,12.8c-1,2.4-2.7,3.8-5.1,4.8
			c-4.9,2-10,3.3-15.2,4.2c-5,0-9.9-0.1-14.9-0.1c-2.3,0-4.5,0-6.8,0.1c-0.9,0-1.7,0.2-2.3,0.8c-6.3,1.2-11.6,4.6-16.6,8.5
			c-2.2,1.8-4.4,3.7-6.5,5.6c-2.9,2.7-5.9,5.4-9.7,6.9c-1.2,0.5-2,1.5-2.9,2.5c-2.5,2.8-5.7,4.3-9.4,4.2c-4.5,0-7.8-3.3-8.1-7.8
			c-0.1-1.3,0.5-2.6-0.1-3.8c-0.4-0.7-1.1-0.8-1.8-0.6c-2.4-0.9-2.7-1.2-2.6-3.2c0.1-1.3,0.4-2.5,0.6-3.8c0.9-6.9,1.8-13.8,2.8-20.7
			c0.9-6.1,1.8-12.1,3.2-18.1c1-4.4,2-8.9,2-13.5c0-0.8,0.2-1.7,0.4-2.5c0.6-1.8,1.9-2.9,3.8-2.8c1.3,0,2.6,0.2,3.8,0.3
			c0.7,0.1,1.4,0.2,2-0.5c0.4-0.5,0.7-1.5,1.5-1.3c0.6,0.1,1.2,0.7,1.8,1.1c0.7,0.4,1.5,0.9,2.2,1.3c1.2,1.2,2.5,2.3,3.8,3.5
			c3.9,3.8,7.7,7.7,11.5,11.5c2.5,2.5,5.3,4.8,6.8,8.2c0.1,0.1,0.2,0.2,0.3,0.3c0.5,0.4,1.1,0.4,1.6,0c0.8-0.6,0.9-1.6,0.1-2.1
			c-3.7-2.6-6.5-6-9.7-9.1c-3.5-3.4-6.9-6.9-10.3-10.3c-0.9-0.9-1.6-2.1-3.1-2c-0.4-2.4-1.8-3.9-4.2-4.2c-1.5-0.2-1.9-1-2.1-2.2
			c-0.2-1.1-0.4-2.2-0.5-3.4c-0.2-1.8-0.9-3.3-2.7-4.1c-0.4-0.2-0.8-0.4-1.1-0.6c-0.8-0.6-0.9-2-0.1-2.6c0.7-0.5,1.5-0.7,2.3-1.2
			c2-1.1,3.2-2.8,3.4-5.1c0.1-1.7,0.2-3.4,0.4-5.1c0.1-1.1,0.1-2.3,0.4-3.4c1.2-4.2,1.4-8.4,1.3-12.7c0.1-0.5-0.1-0.8-0.6-0.9
			c-0.2-0.2-0.5-0.3-0.7-0.5c-0.4-0.2-0.7-0.6-0.8-0.9l0.6-1c1.7-1.3,2.7-3,3.2-5.1c0.1-0.4,0.4-0.6,0.8-0.8C44.4,0.7,44.7,0.5,44,0
			c1.8,1.2,7.6,5.2,11.8,6.7c0,0,0,0,0,0c-0.5-0.1-1.1-0.1-1.6,0c-0.1,0.9,0.6,1.1,1,1.3c8.2,4.4,16.3,9,24.6,13.2
			c6.1,3.1,7.5,5.5,5.8,12.3c-1.2,4.7-2.2,9.5-2.3,14.4c-0.4,0.3-0.5,0.7-0.5,1.2c-0.5,1.6-1.1,3.2-1.5,4.9
			c-2,7.4-3.9,14.8-5.9,22.3c-0.3,1.1-0.7,2.2-0.4,3.3c0.1,0.2,0.4,0.4,0.6,0.5c0.2,0.1,0.7,0.1,0.8-0.1c0.4-0.6,0.8-1.2,1-1.8
			c1.4-4.9,3-9.8,4.2-14.8c1.1-4.7,2.5-9.4,2.2-14.3c0.1-0.2,0.2-0.4,0.1-0.7c0.5-0.8,1.2-1.6,1.6-2.5c1.5-3.7,2.5-7.5,2.5-11.6
			c0-1.4-0.1-2.9,0.1-4.2c0.3-1.9,2.1-3,3.8-2.3c2.7,1.2,5.5,2.4,7.9,4.1c2.8,2,5.8,3.6,9,4.8c2.2,0.8,4.2,1.7,6,3.2
			c1.1,0.9,2.3,1.6,3.7,1.9c1,1.1,2.3,1.7,3.8,1.7c0.3,0.8,1,1.1,1.8,1.1c1.7,0.9,3.5,1.7,5.2,2.6c0.3,0.5,0.6,1,0.9,1.4
			C130.3,52.5,129.5,56.2,129,60L129,60z"/>
		<path class="st0" d="M24.4,156.2c4.3,1.9,7.1,6.4,6.8,10.9c-0.1,1.7-0.9,3-2,4.1c-1.3,1.2-2.8,1.9-4.5,2.5c-3.3,1-6.3,2.7-9.1,4.8
			c-2,1.4-4,2.8-6,4.1c-1.2,0.8-2.5,1.4-3.9,1.7c-3,0.7-5.8-1.5-5.7-4.6c0-1.3,0.5-2.5,1.2-3.6c1-1.4,2-2.8,3-4.2
			c3.2-4.2,6.4-8.4,9.6-12.6c1-1.3,2-2.4,3.6-2.9C19.7,156.2,22,156.2,24.4,156.2L24.4,156.2z"/>
	</g>
	<g>
		<path d="M69.9,26.9c0-0.3,0.1-0.6,0.1-0.8c0-2.7-2.2-4.8-4.8-4.8s-4.8,2.2-4.8,4.8c0,0.3,0,0.6,0.1,0.8c0.2,2.2,1.2,7.9,4.8,11.5
			C68.6,34.9,69.6,29.1,69.9,26.9z"/>
		<circle class="st1" cx="65.1" cy="25.9" r="2.9"/>
	</g>
</g>
<g id="Layer_5">
	<g id="lower_00000009560226597607400610000003464832208763025047_">
		<path class="st0" d="M129,60c-0.9,6.9-2.1,13.8-4.1,20.5c-1.2,4.4-2.9,8.6-4.7,12.8c-1,2.4-2.7,3.8-5.1,4.8
			c-4.9,2-10,3.3-15.2,4.2c-5,0-9.9-0.1-14.9-0.1c-2.3,0-4.5,0-6.8,0.1c-0.9,0-1.7,0.2-2.3,0.8c-6.3,1.2-11.6,4.6-16.6,8.5
			c-2.2,1.8-4.4,3.7-6.5,5.6c-2.9,2.7-5.9,5.4-9.7,6.9c-1.2,0.5-2,1.5-2.9,2.5c-2.5,2.8-5.7,4.3-9.4,4.2c-4.5,0-7.8-3.3-8.1-7.8
			c-0.1-1.3,0.5-2.6-0.1-3.8c-0.4-0.7-1.1-0.8-1.8-0.6c-2.4-0.9-2.7-1.2-2.6-3.2c0.1-1.3,0.4-2.5,0.6-3.8c0.9-6.9,1.8-13.8,2.8-20.7
			c0.9-6.1,1.8-12.1,3.2-18.1c1-4.4,2-8.9,2-13.5c0-0.8,0.2-1.7,0.4-2.5c0.6-1.8,1.9-2.9,3.8-2.8c1.3,0,2.6,0.2,3.8,0.3
			c0.7,0.1,1.4,0.2,2-0.5c0.4-0.5,0.7-1.5,1.5-1.3c0.6,0.1,1.2,0.7,1.8,1.1c0.7,0.4,1.5,0.9,2.2,1.3c1.2,1.2,2.5,2.3,3.8,3.5
			c3.9,3.8,7.7,7.7,11.5,11.5c2.5,2.5,5.3,4.8,6.8,8.2c0.1,0.1,0.2,0.2,0.3,0.3c0.5,0.4,1.1,0.4,1.6,0c0.8-0.6,0.9-1.6,0.1-2.1
			c-3.7-2.6-6.5-6-9.7-9.1c-3.5-3.4-6.9-6.9-10.3-10.3c-0.9-0.9-1.6-2.1-3.1-2c-0.4-2.4-1.8-3.9-4.2-4.2c-1.5-0.2-1.9-1-2.1-2.2
			c-0.2-1.1-0.4-2.2-0.5-3.4c-0.2-1.8-0.9-3.3-2.7-4.1c-0.4-0.2-0.8-0.4-1.1-0.6c-0.8-0.6-0.9-2-0.1-2.6c0.7-0.5,1.5-0.7,2.3-1.2
			c2-1.1,3.2-2.8,3.4-5.1c0.1-1.7,0.2-3.4,0.4-5.1c0.1-1.1,0.1-2.3,0.4-3.4c1.2-4.2,1.4-8.4,1.3-12.7c0.1-0.5-0.1-0.8-0.6-0.9
			c-0.2-0.2-0.5-0.3-0.7-0.5c-0.4-0.2-0.7-0.6-0.8-0.9l0.6-1c1.7-1.3,2.7-3,3.2-5.1c0.1-0.4,0.4-0.6,0.8-0.8C44.4,0.7,44.7,0.5,44,0
			c1.8,1.2,7.6,5.2,11.8,6.7c0,0,0,0,0,0c-0.5-0.1-1.1-0.1-1.6,0c-0.1,0.9,0.6,1.1,1,1.3c8.2,4.4,16.3,9,24.6,13.2
			c6.1,3.1,7.5,5.5,5.8,12.3c-1.2,4.7-2.2,9.5-2.3,14.4c-0.4,0.3-0.5,0.7-0.5,1.2c-0.5,1.6-1.1,3.2-1.5,4.9
			c-2,7.4-3.9,14.8-5.9,22.3c-0.3,1.1-0.7,2.2-0.4,3.3c0.1,0.2,0.4,0.4,0.6,0.5c0.2,0.1,0.7,0.1,0.8-0.1c0.4-0.6,0.8-1.2,1-1.8
			c1.4-4.9,3-9.8,4.2-14.8c1.1-4.7,2.5-9.4,2.2-14.3c0.1-0.2,0.2-0.4,0.1-0.7c0.5-0.8,1.2-1.6,1.6-2.5c1.5-3.7,2.5-7.5,2.5-11.6
			c0-1.4-0.1-2.9,0.1-4.2c0.3-1.9,2.1-3,3.8-2.3c2.7,1.2,5.5,2.4,7.9,4.1c2.8,2,5.8,3.6,9,4.8c2.2,0.8,4.2,1.7,6,3.2
			c1.1,0.9,2.3,1.6,3.7,1.9c1,1.1,2.3,1.7,3.8,1.7c0.3,0.8,1,1.1,1.8,1.1c1.7,0.9,3.5,1.7,5.2,2.6c0.3,0.5,0.6,1,0.9,1.4
			C130.3,52.5,129.5,56.2,129,60L129,60z"/>
		<path class="st0" d="M24.4,156.2c4.3,1.9,7.1,6.4,6.8,10.9c-0.1,1.7-0.9,3-2,4.1c-1.3,1.2-2.8,1.9-4.5,2.5c-3.3,1-6.3,2.7-9.1,4.8
			c-2,1.4-4,2.8-6,4.1c-1.2,0.8-2.5,1.4-3.9,1.7c-3,0.7-5.8-1.5-5.7-4.6c0-1.3,0.5-2.5,1.2-3.6c1-1.4,2-2.8,3-4.2
			c3.2-4.2,6.4-8.4,9.6-12.6c1-1.3,2-2.4,3.6-2.9C19.7,156.2,22,156.2,24.4,156.2L24.4,156.2z"/>
	</g>
	<g>
		<path d="M74.7,62.5c0-0.3,0.1-0.6,0.1-0.8c0-2.7-2.2-4.8-4.8-4.8s-4.8,2.2-4.8,4.8c0,0.3,0,0.6,0.1,0.8c0.2,2.2,1.2,7.9,4.8,11.5
			C73.5,70.4,74.5,64.6,74.7,62.5z"/>
		<circle class="st1" cx="69.9" cy="61.4" r="2.9"/>
	</g>
</g>
<g id="Layer_6">
	<g id="lower_00000003085997919059649090000007601352806404516009_">
		<path class="st0" d="M129,60c-0.9,6.9-2.1,13.8-4.1,20.5c-1.2,4.4-2.9,8.6-4.7,12.8c-1,2.4-2.7,3.8-5.1,4.8
			c-4.9,2-10,3.3-15.2,4.2c-5,0-9.9-0.1-14.9-0.1c-2.3,0-4.5,0-6.8,0.1c-0.9,0-1.7,0.2-2.3,0.8c-6.3,1.2-11.6,4.6-16.6,8.5
			c-2.2,1.8-4.4,3.7-6.5,5.6c-2.9,2.7-5.9,5.4-9.7,6.9c-1.2,0.5-2,1.5-2.9,2.5c-2.5,2.8-5.7,4.3-9.4,4.2c-4.5,0-7.8-3.3-8.1-7.8
			c-0.1-1.3,0.5-2.6-0.1-3.8c-0.4-0.7-1.1-0.8-1.8-0.6c-2.4-0.9-2.7-1.2-2.6-3.2c0.1-1.3,0.4-2.5,0.6-3.8c0.9-6.9,1.8-13.8,2.8-20.7
			c0.9-6.1,1.8-12.1,3.2-18.1c1-4.4,2-8.9,2-13.5c0-0.8,0.2-1.7,0.4-2.5c0.6-1.8,1.9-2.9,3.8-2.8c1.3,0,2.6,0.2,3.8,0.3
			c0.7,0.1,1.4,0.2,2-0.5c0.4-0.5,0.7-1.5,1.5-1.3c0.6,0.1,1.2,0.7,1.8,1.1c0.7,0.4,1.5,0.9,2.2,1.3c1.2,1.2,2.5,2.3,3.8,3.5
			c3.9,3.8,7.7,7.7,11.5,11.5c2.5,2.5,5.3,4.8,6.8,8.2c0.1,0.1,0.2,0.2,0.3,0.3c0.5,0.4,1.1,0.4,1.6,0c0.8-0.6,0.9-1.6,0.1-2.1
			c-3.7-2.6-6.5-6-9.7-9.1c-3.5-3.4-6.9-6.9-10.3-10.3c-0.9-0.9-1.6-2.1-3.1-2c-0.4-2.4-1.8-3.9-4.2-4.2c-1.5-0.2-1.9-1-2.1-2.2
			c-0.2-1.1-0.4-2.2-0.5-3.4c-0.2-1.8-0.9-3.3-2.7-4.1c-0.4-0.2-0.8-0.4-1.1-0.6c-0.8-0.6-0.9-2-0.1-2.6c0.7-0.5,1.5-0.7,2.3-1.2
			c2-1.1,3.2-2.8,3.4-5.1c0.1-1.7,0.2-3.4,0.4-5.1c0.1-1.1,0.1-2.3,0.4-3.4c1.2-4.2,1.4-8.4,1.3-12.7c0.1-0.5-0.1-0.8-0.6-0.9
			c-0.2-0.2-0.5-0.3-0.7-0.5c-0.4-0.2-0.7-0.6-0.8-0.9l0.6-1c1.7-1.3,2.7-3,3.2-5.1c0.1-0.4,0.4-0.6,0.8-0.8C44.4,0.7,44.7,0.5,44,0
			c1.8,1.2,7.6,5.2,11.8,6.7c0,0,0,0,0,0c-0.5-0.1-1.1-0.1-1.6,0c-0.1,0.9,0.6,1.1,1,1.3c8.2,4.4,16.3,9,24.6,13.2
			c6.1,3.1,7.5,5.5,5.8,12.3c-1.2,4.7-2.2,9.5-2.3,14.4c-0.4,0.3-0.5,0.7-0.5,1.2c-0.5,1.6-1.1,3.2-1.5,4.9
			c-2,7.4-3.9,14.8-5.9,22.3c-0.3,1.1-0.7,2.2-0.4,3.3c0.1,0.2,0.4,0.4,0.6,0.5c0.2,0.1,0.7,0.1,0.8-0.1c0.4-0.6,0.8-1.2,1-1.8
			c1.4-4.9,3-9.8,4.2-14.8c1.1-4.7,2.5-9.4,2.2-14.3c0.1-0.2,0.2-0.4,0.1-0.7c0.5-0.8,1.2-1.6,1.6-2.5c1.5-3.7,2.5-7.5,2.5-11.6
			c0-1.4-0.1-2.9,0.1-4.2c0.3-1.9,2.1-3,3.8-2.3c2.7,1.2,5.5,2.4,7.9,4.1c2.8,2,5.8,3.6,9,4.8c2.2,0.8,4.2,1.7,6,3.2
			c1.1,0.9,2.3,1.6,3.7,1.9c1,1.1,2.3,1.7,3.8,1.7c0.3,0.8,1,1.1,1.8,1.1c1.7,0.9,3.5,1.7,5.2,2.6c0.3,0.5,0.6,1,0.9,1.4
			C130.3,52.5,129.5,56.2,129,60L129,60z"/>
		<path class="st0" d="M24.4,156.2c4.3,1.9,7.1,6.4,6.8,10.9c-0.1,1.7-0.9,3-2,4.1c-1.3,1.2-2.8,1.9-4.5,2.5c-3.3,1-6.3,2.7-9.1,4.8
			c-2,1.4-4,2.8-6,4.1c-1.2,0.8-2.5,1.4-3.9,1.7c-3,0.7-5.8-1.5-5.7-4.6c0-1.3,0.5-2.5,1.2-3.6c1-1.4,2-2.8,3-4.2
			c3.2-4.2,6.4-8.4,9.6-12.6c1-1.3,2-2.4,3.6-2.9C19.7,156.2,22,156.2,24.4,156.2L24.4,156.2z"/>
	</g>
	<g>
		<path d="M107.6,84.8c0-0.3,0.1-0.6,0.1-0.8c0-2.7-2.2-4.8-4.8-4.8S98,81.3,98,84c0,0.3,0,0.6,0.1,0.8c0.2,2.2,1.2,7.9,4.8,11.5
			C106.4,92.7,107.4,86.9,107.6,84.8z"/>
		<circle class="st1" cx="102.9" cy="83.7" r="2.9"/>
	</g>
</g>
</svg>
