<?xml version="1.0" encoding="utf-8"?>
<!-- Generator: Adobe Illustrator 27.4.1, SVG Export Plug-In . SVG Version: 6.00 Build 0)  -->
<svg version="1.1" xmlns="http://www.w3.org/2000/svg" xmlns:xlink="http://www.w3.org/1999/xlink" x="0px" y="0px"
	 viewBox="0 0 124.3 145.6" style="enable-background:new 0 0 124.3 145.6;" xml:space="preserve">
<style type="text/css">
	.st0{fill:#C190FF;}
	.st1{fill:#FFFFFF;}
</style>
<g id="Layer_3">
	<g>
		<g id="mid_00000031173666751023006600000004795372439111068313_">
			<path class="st0" d="M0.4,108.1c-0.4,0.2-0.4,0.5-0.3,0.8l0.6-1C0.5,108,0.5,108.1,0.4,108.1z M42.5,0c-2.4,4.6-4.9,9.3-7.3,13.9
				c-0.5,1-1.1,2-1,3.2c0.2,5-1.9,9.1-5,12.9c-1.7,2.1-3.5,4.2-5.1,6.3C15.4,47.5,9.9,60.2,4.4,73c-1.5,3.3-1.5,6.7,0.3,9.9
				c1,1.8,1,3.5,0.2,5.3C3.6,91.5,4,95,4,98.4c0,1,0.5,1.5,1.3,2c0,0,0,0,0,0c0,0,0.1,0,0.1,0.1c0.1,0,0.1,0.1,0.2,0.1
				c0.1,0,0.1,0.1,0.2,0.2c1.8,1.2,7.6,5.2,11.8,6.7l0,0c1.4,0.2,2.7,0.7,4,1.3c1.5,0.7,3.1,1.6,4.6,2.3c2.5,1.3,5.1,2,7.9,1.5
				c1.5-1.1,2-2.8,2.4-4.4c0.6-2.2,1.8-3.9,3.9-4.9c-0.3-2.1,0.9-3.8,1.8-5.6c0.7-1.3,1.4-2.5,1.7-3.9c0.2-0.9-0.1-1.7-0.9-2.2
				c-1.9-1.1-3.8-2-5.7-3.1c-4.4-2.4-4.8-3.8-2.5-8.2c5.1-9.4,10.2-18.9,15.3-28.3c1-1.8,2-3.5,3.1-5.2c2-3,3.8-6,5-9.5
				c0.8-2.4,2.4-4.2,4.4-5.7c1.3-5.6,3.8-10.7,7-15.4L42.5,0z M62.5,15.2c-1.2,0.8-2.4,0.7-3.7,0.2c-1.7-0.8-3.2-1.9-3.9-4
				c2.5,0.9,5.1,1.7,7.6,2.6c0.2,0.1,0.5,0.4,0.4,0.6C63,14.8,62.7,15.1,62.5,15.2z M5.8,100.8c-0.1-0.1-0.1-0.1-0.2-0.2
				c-0.1-0.1-0.1-0.1-0.2-0.1c0,0-0.1,0-0.1-0.1c0,0,0,0,0,0l-4.6,7.5c1.7-1.3,2.7-3,3.2-5.1c0.1-0.4,0.4-0.6,0.8-0.8
				C6.2,101.5,6.4,101.3,5.8,100.8z M98.3,87.6c8.3-12.9,17-25.5,26-37.9l-4.1-2.5c-0.2,0.2-0.4,0.3-0.5,0.2c-0.7-0.1-1.4-0.3-2-0.6
				c-3.3-1.6-6.6-3.3-9.9-5c-0.5-0.3-1-0.7-1.5-0.9c-2.4-1.1-4.4-0.5-5.9,1.8c-0.8,1.2-1.2,2.6-1.8,3.9c-0.5,1.2-1,2.4-1.6,3.5
				c-0.6,0.9-1.6,1.1-2.6,0.7c-1-0.5-1.4-1.6-0.8-2.5c0.5-0.7,1.1-1.3,1.7-2c0.6-0.8,1.3-1.5,1.8-2.4c2.1-3.7,1.6-6.1-2.1-8.3
				c-6.5-3.8-13.2-7.5-19.8-11.2c-0.5-0.3-1-0.6-1.6-0.8c-3.3-1.1-5.3-0.4-6.7,2.6c-1.1,2.3-2.2,4.7-4.2,6.4c-1,3.5-2.3,6.8-4.8,9.5
				c-0.6,0.6-1,1.4-1.3,2.2c-5,11.3-11.3,21.9-17.7,32.3c-1,1.6-1.9,3.2-2.1,5.1c-0.3,2.6,0.7,4.5,2.9,5.7c0.5,0.3,1,0.5,1.6,0.6
				c2.1,0.6,3.5,1.8,4.2,3.9c0.8,2.3,0.7,4.5-0.6,6.6c-1.1,1.7-2.4,3.2-3.7,4.8c-1.5,3.4-2.9,6.8-5.3,9.6c0,1.7,0.7,2.9,2.3,3.8
				c7.6,4.5,15.2,9.1,22.8,13.7c1.3,0.8,2.8,1.5,4.2,2.1c3.6,1.5,7,3.1,10.1,5.6c0.9,0.8,2,1.2,3.1,1.4c1.6,0.3,3.1,0.7,4.3,1.8
				c2.3,0.7,4.3,1.9,6.2,3.3c1.2,0.4,2.3,0.7,3.5,1.1c0.5-0.3,0.8-0.4,1.3-0.7c0.4-1.6-0.2-3.1-0.7-4.6c-0.4-0.2-0.6-0.5-0.6-1
				c-0.1-0.3-0.2-0.5-0.3-0.7c-0.2-0.2-0.4-0.5-0.7-0.8c-0.9-1.2-2-2.3-2.5-3.8c-0.5-0.3-0.8-0.8-0.7-1.4c-1.6-3.8-1.3-7.9-1.9-11.9
				c-0.1-0.7,0.2-1.4,0.7-1.9c0-0.7,0.3-1.1,1-1.3c2.4-1.1,3.3-3,2.8-5.6c0-0.1,0-0.3,0-0.4c-0.4-5.3,0.8-10.2,3.1-14.9
				C94.8,93.4,96.5,90.5,98.3,87.6L98.3,87.6z M72.4,91.9c-0.9,3.1-2.3,5.9-3.9,8.6c-1.9,3.2-4,6.3-6,9.4c-0.5,0.8-1.2,1.2-2,1.5
				c-1,0.4-2.2,0.6-3.1,1.4c-0.4,0.4-1,0.7-1.4,0c-0.2-0.3-0.1-0.8,0.1-1.2c0.5-1.3,1.6-2,2.9-2.3c2.2-0.5,3.3-1.9,3.9-4
				c0.5-1.6,1.4-3.1,2.3-4.6c2.4-4.2,4.9-8.4,6.4-13c0.1-0.2,0.4-0.4,1-1C73,88.6,72.9,90.2,72.4,91.9z M86.6,66.5
				c-0.3,2.1-0.8,4.2-1.9,6c-0.6,1-1.4,1.8-2.5,2.1c-0.9,0.3-1.3,0.2-3.5-0.9c2.2-1.2,3.9-3,5.2-5.2c0.5-0.9,1-1.7,1.5-2.5
				c0.1-0.2,0.5-0.4,0.7-0.4C86.6,65.7,86.6,66.1,86.6,66.5z M71.1,72.4c-1.6,2-2.2,4.3-2.3,7.1c1.9-0.9,2.4-2.4,3.1-3.7
				c0.8-1.4,2.1-2.2,3.3-3.2C73,71.3,72,71.2,71.1,72.4z"/>
		</g>
		<g>
			<path d="M36.3,43.3c0-0.2,0.1-0.4,0.1-0.7c0-2.1-1.7-3.8-3.8-3.8c-2.1,0-3.8,1.7-3.8,3.8c0,0.2,0,0.4,0.1,0.7
				c0.2,1.7,1,6.3,3.8,9.1C35.4,49.6,36.1,45,36.3,43.3z"/>
			<circle class="st1" cx="32.6" cy="42.5" r="2.3"/>
		</g>
	</g>
</g>
<g id="Layer_4">
	<g>
		<g id="mid_00000066511262296954889320000011703053338925273758_">
			<path class="st0" d="M0.4,108.1c-0.4,0.2-0.4,0.5-0.3,0.8l0.6-1C0.5,108,0.5,108.1,0.4,108.1z M42.5,0c-2.4,4.6-4.9,9.3-7.3,13.9
				c-0.5,1-1.1,2-1,3.2c0.2,5-1.9,9.1-5,12.9c-1.7,2.1-3.5,4.2-5.1,6.3C15.4,47.5,9.9,60.2,4.4,73c-1.5,3.3-1.5,6.7,0.3,9.9
				c1,1.8,1,3.5,0.2,5.3C3.6,91.5,4,95,4,98.4c0,1,0.5,1.5,1.3,2c0,0,0,0,0,0c0,0,0.1,0,0.1,0.1c0.1,0,0.1,0.1,0.2,0.1
				c0.1,0,0.1,0.1,0.2,0.2c1.8,1.2,7.6,5.2,11.8,6.7l0,0c1.4,0.2,2.7,0.7,4,1.3c1.5,0.7,3.1,1.6,4.6,2.3c2.5,1.3,5.1,2,7.9,1.5
				c1.5-1.1,2-2.8,2.4-4.4c0.6-2.2,1.8-3.9,3.9-4.9c-0.3-2.1,0.9-3.8,1.8-5.6c0.7-1.3,1.4-2.5,1.7-3.9c0.2-0.9-0.1-1.7-0.9-2.2
				c-1.9-1.1-3.8-2-5.7-3.1c-4.4-2.4-4.8-3.8-2.5-8.2c5.1-9.4,10.2-18.9,15.3-28.3c1-1.8,2-3.5,3.1-5.2c2-3,3.8-6,5-9.5
				c0.8-2.4,2.4-4.2,4.4-5.7c1.3-5.6,3.8-10.7,7-15.4L42.5,0z M62.5,15.2c-1.2,0.8-2.4,0.7-3.7,0.2c-1.7-0.8-3.2-1.9-3.9-4
				c2.5,0.9,5.1,1.7,7.6,2.6c0.2,0.1,0.5,0.4,0.4,0.6C63,14.8,62.7,15.1,62.5,15.2z M5.8,100.8c-0.1-0.1-0.1-0.1-0.2-0.2
				c-0.1-0.1-0.1-0.1-0.2-0.1c0,0-0.1,0-0.1-0.1c0,0,0,0,0,0l-4.6,7.5c1.7-1.3,2.7-3,3.2-5.1c0.1-0.4,0.4-0.6,0.8-0.8
				C6.2,101.5,6.4,101.3,5.8,100.8z M98.3,87.6c8.3-12.9,17-25.5,26-37.9l-4.1-2.5c-0.2,0.2-0.4,0.3-0.5,0.2c-0.7-0.1-1.4-0.3-2-0.6
				c-3.3-1.6-6.6-3.3-9.9-5c-0.5-0.3-1-0.7-1.5-0.9c-2.4-1.1-4.4-0.5-5.9,1.8c-0.8,1.2-1.2,2.6-1.8,3.9c-0.5,1.2-1,2.4-1.6,3.5
				c-0.6,0.9-1.6,1.1-2.6,0.7c-1-0.5-1.4-1.6-0.8-2.5c0.5-0.7,1.1-1.3,1.7-2c0.6-0.8,1.3-1.5,1.8-2.4c2.1-3.7,1.6-6.1-2.1-8.3
				c-6.5-3.8-13.2-7.5-19.8-11.2c-0.5-0.3-1-0.6-1.6-0.8c-3.3-1.1-5.3-0.4-6.7,2.6c-1.1,2.3-2.2,4.7-4.2,6.4c-1,3.5-2.3,6.8-4.8,9.5
				c-0.6,0.6-1,1.4-1.3,2.2c-5,11.3-11.3,21.9-17.7,32.3c-1,1.6-1.9,3.2-2.1,5.1c-0.3,2.6,0.7,4.5,2.9,5.7c0.5,0.3,1,0.5,1.6,0.6
				c2.1,0.6,3.5,1.8,4.2,3.9c0.8,2.3,0.7,4.5-0.6,6.6c-1.1,1.7-2.4,3.2-3.7,4.8c-1.5,3.4-2.9,6.8-5.3,9.6c0,1.7,0.7,2.9,2.3,3.8
				c7.6,4.5,15.2,9.1,22.8,13.7c1.3,0.8,2.8,1.5,4.2,2.1c3.6,1.5,7,3.1,10.1,5.6c0.9,0.8,2,1.2,3.1,1.4c1.6,0.3,3.1,0.7,4.3,1.8
				c2.3,0.7,4.3,1.9,6.2,3.3c1.2,0.4,2.3,0.7,3.5,1.1c0.5-0.3,0.8-0.4,1.3-0.7c0.4-1.6-0.2-3.1-0.7-4.6c-0.4-0.2-0.6-0.5-0.6-1
				c-0.1-0.3-0.2-0.5-0.3-0.7c-0.2-0.2-0.4-0.5-0.7-0.8c-0.9-1.2-2-2.3-2.5-3.8c-0.5-0.3-0.8-0.8-0.7-1.4c-1.6-3.8-1.3-7.9-1.9-11.9
				c-0.1-0.7,0.2-1.4,0.7-1.9c0-0.7,0.3-1.1,1-1.3c2.4-1.1,3.3-3,2.8-5.6c0-0.1,0-0.3,0-0.4c-0.4-5.3,0.8-10.2,3.1-14.9
				C94.8,93.4,96.5,90.5,98.3,87.6L98.3,87.6z M72.4,91.9c-0.9,3.1-2.3,5.9-3.9,8.6c-1.9,3.2-4,6.3-6,9.4c-0.5,0.8-1.2,1.2-2,1.5
				c-1,0.4-2.2,0.6-3.1,1.4c-0.4,0.4-1,0.7-1.4,0c-0.2-0.3-0.1-0.8,0.1-1.2c0.5-1.3,1.6-2,2.9-2.3c2.2-0.5,3.3-1.9,3.9-4
				c0.5-1.6,1.4-3.1,2.3-4.6c2.4-4.2,4.9-8.4,6.4-13c0.1-0.2,0.4-0.4,1-1C73,88.6,72.9,90.2,72.4,91.9z M86.6,66.5
				c-0.3,2.1-0.8,4.2-1.9,6c-0.6,1-1.4,1.8-2.5,2.1c-0.9,0.3-1.3,0.2-3.5-0.9c2.2-1.2,3.9-3,5.2-5.2c0.5-0.9,1-1.7,1.5-2.5
				c0.1-0.2,0.5-0.4,0.7-0.4C86.6,65.7,86.6,66.1,86.6,66.5z M71.1,72.4c-1.6,2-2.2,4.3-2.3,7.1c1.9-0.9,2.4-2.4,3.1-3.7
				c0.8-1.4,2.1-2.2,3.3-3.2C73,71.3,72,71.2,71.1,72.4z"/>
		</g>
		<g>
			<path d="M109.5,42.4c0-0.2,0.1-0.4,0.1-0.7c0-2.1-1.7-3.8-3.8-3.8s-3.8,1.7-3.8,3.8c0,0.2,0,0.4,0.1,0.7c0.2,1.7,1,6.3,3.8,9.1
				C108.5,48.7,109.3,44.1,109.5,42.4z"/>
			<circle class="st1" cx="105.7" cy="41.6" r="2.3"/>
		</g>
	</g>
</g>
<g id="Layer_5">
	<g>
		<g id="mid_00000023266765291265809810000008246327964909450429_">
			<path class="st0" d="M0.4,108.1c-0.4,0.2-0.4,0.5-0.3,0.8l0.6-1C0.5,108,0.5,108.1,0.4,108.1z M42.5,0c-2.4,4.6-4.9,9.3-7.3,13.9
				c-0.5,1-1.1,2-1,3.2c0.2,5-1.9,9.1-5,12.9c-1.7,2.1-3.5,4.2-5.1,6.3C15.4,47.5,9.9,60.2,4.4,73c-1.5,3.3-1.5,6.7,0.3,9.9
				c1,1.8,1,3.5,0.2,5.3C3.6,91.5,4,95,4,98.4c0,1,0.5,1.5,1.3,2c0,0,0,0,0,0c0,0,0.1,0,0.1,0.1c0.1,0,0.1,0.1,0.2,0.1
				c0.1,0,0.1,0.1,0.2,0.2c1.8,1.2,7.6,5.2,11.8,6.7l0,0c1.4,0.2,2.7,0.7,4,1.3c1.5,0.7,3.1,1.6,4.6,2.3c2.5,1.3,5.1,2,7.9,1.5
				c1.5-1.1,2-2.8,2.4-4.4c0.6-2.2,1.8-3.9,3.9-4.9c-0.3-2.1,0.9-3.8,1.8-5.6c0.7-1.3,1.4-2.5,1.7-3.9c0.2-0.9-0.1-1.7-0.9-2.2
				c-1.9-1.1-3.8-2-5.7-3.1c-4.4-2.4-4.8-3.8-2.5-8.2c5.1-9.4,10.2-18.9,15.3-28.3c1-1.8,2-3.5,3.1-5.2c2-3,3.8-6,5-9.5
				c0.8-2.4,2.4-4.2,4.4-5.7c1.3-5.6,3.8-10.7,7-15.4L42.5,0z M62.5,15.2c-1.2,0.8-2.4,0.7-3.7,0.2c-1.7-0.8-3.2-1.9-3.9-4
				c2.5,0.9,5.1,1.7,7.6,2.6c0.2,0.1,0.5,0.4,0.4,0.6C63,14.8,62.7,15.1,62.5,15.2z M5.8,100.8c-0.1-0.1-0.1-0.1-0.2-0.2
				c-0.1-0.1-0.1-0.1-0.2-0.1c0,0-0.1,0-0.1-0.1c0,0,0,0,0,0l-4.6,7.5c1.7-1.3,2.7-3,3.2-5.1c0.1-0.4,0.4-0.6,0.8-0.8
				C6.2,101.5,6.4,101.3,5.8,100.8z M98.3,87.6c8.3-12.9,17-25.5,26-37.9l-4.1-2.5c-0.2,0.2-0.4,0.3-0.5,0.2c-0.7-0.1-1.4-0.3-2-0.6
				c-3.3-1.6-6.6-3.3-9.9-5c-0.5-0.3-1-0.7-1.5-0.9c-2.4-1.1-4.4-0.5-5.9,1.8c-0.8,1.2-1.2,2.6-1.8,3.9c-0.5,1.2-1,2.4-1.6,3.5
				c-0.6,0.9-1.6,1.1-2.6,0.7c-1-0.5-1.4-1.6-0.8-2.5c0.5-0.7,1.1-1.3,1.7-2c0.6-0.8,1.3-1.5,1.8-2.4c2.1-3.7,1.6-6.1-2.1-8.3
				c-6.5-3.8-13.2-7.5-19.8-11.2c-0.5-0.3-1-0.6-1.6-0.8c-3.3-1.1-5.3-0.4-6.7,2.6c-1.1,2.3-2.2,4.7-4.2,6.4c-1,3.5-2.3,6.8-4.8,9.5
				c-0.6,0.6-1,1.4-1.3,2.2c-5,11.3-11.3,21.9-17.7,32.3c-1,1.6-1.9,3.2-2.1,5.1c-0.3,2.6,0.7,4.5,2.9,5.7c0.5,0.3,1,0.5,1.6,0.6
				c2.1,0.6,3.5,1.8,4.2,3.9c0.8,2.3,0.7,4.5-0.6,6.6c-1.1,1.7-2.4,3.2-3.7,4.8c-1.5,3.4-2.9,6.8-5.3,9.6c0,1.7,0.7,2.9,2.3,3.8
				c7.6,4.5,15.2,9.1,22.8,13.7c1.3,0.8,2.8,1.5,4.2,2.1c3.6,1.5,7,3.1,10.1,5.6c0.9,0.8,2,1.2,3.1,1.4c1.6,0.3,3.1,0.7,4.3,1.8
				c2.3,0.7,4.3,1.9,6.2,3.3c1.2,0.4,2.3,0.7,3.5,1.1c0.5-0.3,0.8-0.4,1.3-0.7c0.4-1.6-0.2-3.1-0.7-4.6c-0.4-0.2-0.6-0.5-0.6-1
				c-0.1-0.3-0.2-0.5-0.3-0.7c-0.2-0.2-0.4-0.5-0.7-0.8c-0.9-1.2-2-2.3-2.5-3.8c-0.5-0.3-0.8-0.8-0.7-1.4c-1.6-3.8-1.3-7.9-1.9-11.9
				c-0.1-0.7,0.2-1.4,0.7-1.9c0-0.7,0.3-1.1,1-1.3c2.4-1.1,3.3-3,2.8-5.6c0-0.1,0-0.3,0-0.4c-0.4-5.3,0.8-10.2,3.1-14.9
				C94.8,93.4,96.5,90.5,98.3,87.6L98.3,87.6z M72.4,91.9c-0.9,3.1-2.3,5.9-3.9,8.6c-1.9,3.2-4,6.3-6,9.4c-0.5,0.8-1.2,1.2-2,1.5
				c-1,0.4-2.2,0.6-3.1,1.4c-0.4,0.4-1,0.7-1.4,0c-0.2-0.3-0.1-0.8,0.1-1.2c0.5-1.3,1.6-2,2.9-2.3c2.2-0.5,3.3-1.9,3.9-4
				c0.5-1.6,1.4-3.1,2.3-4.6c2.4-4.2,4.9-8.4,6.4-13c0.1-0.2,0.4-0.4,1-1C73,88.6,72.9,90.2,72.4,91.9z M86.6,66.5
				c-0.3,2.1-0.8,4.2-1.9,6c-0.6,1-1.4,1.8-2.5,2.1c-0.9,0.3-1.3,0.2-3.5-0.9c2.2-1.2,3.9-3,5.2-5.2c0.5-0.9,1-1.7,1.5-2.5
				c0.1-0.2,0.5-0.4,0.7-0.4C86.6,65.7,86.6,66.1,86.6,66.5z M71.1,72.4c-1.6,2-2.2,4.3-2.3,7.1c1.9-0.9,2.4-2.4,3.1-3.7
				c0.8-1.4,2.1-2.2,3.3-3.2C73,71.3,72,71.2,71.1,72.4z"/>
		</g>
		<g>
			<path d="M83.7,98.1c0-0.2,0.1-0.4,0.1-0.7c0-2.1-1.7-3.8-3.8-3.8c-2.1,0-3.8,1.7-3.8,3.8c0,0.2,0,0.4,0.1,0.7
				c0.2,1.7,1,6.3,3.8,9.1C82.7,104.4,83.5,99.8,83.7,98.1z"/>
			<circle class="st1" cx="79.9" cy="97.3" r="2.3"/>
		</g>
	</g>
</g>
<g id="Layer_6">
	<g>
		<g id="mid_00000065771902987608410160000011641283674011242143_">
			<path class="st0" d="M0.4,108.1c-0.4,0.2-0.4,0.5-0.3,0.8l0.6-1C0.5,108,0.5,108.1,0.4,108.1z M42.5,0c-2.4,4.6-4.9,9.3-7.3,13.9
				c-0.5,1-1.1,2-1,3.2c0.2,5-1.9,9.1-5,12.9c-1.7,2.1-3.5,4.2-5.1,6.3C15.4,47.5,9.9,60.2,4.4,73c-1.5,3.3-1.5,6.7,0.3,9.9
				c1,1.8,1,3.5,0.2,5.3C3.6,91.5,4,95,4,98.4c0,1,0.5,1.5,1.3,2c0,0,0,0,0,0c0,0,0.1,0,0.1,0.1c0.1,0,0.1,0.1,0.2,0.1
				c0.1,0,0.1,0.1,0.2,0.2c1.8,1.2,7.6,5.2,11.8,6.7l0,0c1.4,0.2,2.7,0.7,4,1.3c1.5,0.7,3.1,1.6,4.6,2.3c2.5,1.3,5.1,2,7.9,1.5
				c1.5-1.1,2-2.8,2.4-4.4c0.6-2.2,1.8-3.9,3.9-4.9c-0.3-2.1,0.9-3.8,1.8-5.6c0.7-1.3,1.4-2.5,1.7-3.9c0.2-0.9-0.1-1.7-0.9-2.2
				c-1.9-1.1-3.8-2-5.7-3.1c-4.4-2.4-4.8-3.8-2.5-8.2c5.1-9.4,10.2-18.9,15.3-28.3c1-1.8,2-3.5,3.1-5.2c2-3,3.8-6,5-9.5
				c0.8-2.4,2.4-4.2,4.4-5.7c1.3-5.6,3.8-10.7,7-15.4L42.5,0z M62.5,15.2c-1.2,0.8-2.4,0.7-3.7,0.2c-1.7-0.8-3.2-1.9-3.9-4
				c2.5,0.9,5.1,1.7,7.6,2.6c0.2,0.1,0.5,0.4,0.4,0.6C63,14.8,62.7,15.1,62.5,15.2z M5.8,100.8c-0.1-0.1-0.1-0.1-0.2-0.2
				c-0.1-0.1-0.1-0.1-0.2-0.1c0,0-0.1,0-0.1-0.1c0,0,0,0,0,0l-4.6,7.5c1.7-1.3,2.7-3,3.2-5.1c0.1-0.4,0.4-0.6,0.8-0.8
				C6.2,101.5,6.4,101.3,5.8,100.8z M98.3,87.6c8.3-12.9,17-25.5,26-37.9l-4.1-2.5c-0.2,0.2-0.4,0.3-0.5,0.2c-0.7-0.1-1.4-0.3-2-0.6
				c-3.3-1.6-6.6-3.3-9.9-5c-0.5-0.3-1-0.7-1.5-0.9c-2.4-1.1-4.4-0.5-5.9,1.8c-0.8,1.2-1.2,2.6-1.8,3.9c-0.5,1.2-1,2.4-1.6,3.5
				c-0.6,0.9-1.6,1.1-2.6,0.7c-1-0.5-1.4-1.6-0.8-2.5c0.5-0.7,1.1-1.3,1.7-2c0.6-0.8,1.3-1.5,1.8-2.4c2.1-3.7,1.6-6.1-2.1-8.3
				c-6.5-3.8-13.2-7.5-19.8-11.2c-0.5-0.3-1-0.6-1.6-0.8c-3.3-1.1-5.3-0.4-6.7,2.6c-1.1,2.3-2.2,4.7-4.2,6.4c-1,3.5-2.3,6.8-4.8,9.5
				c-0.6,0.6-1,1.4-1.3,2.2c-5,11.3-11.3,21.9-17.7,32.3c-1,1.6-1.9,3.2-2.1,5.1c-0.3,2.6,0.7,4.5,2.9,5.7c0.5,0.3,1,0.5,1.6,0.6
				c2.1,0.6,3.5,1.8,4.2,3.9c0.8,2.3,0.7,4.5-0.6,6.6c-1.1,1.7-2.4,3.2-3.7,4.8c-1.5,3.4-2.9,6.8-5.3,9.6c0,1.7,0.7,2.9,2.3,3.8
				c7.6,4.5,15.2,9.1,22.8,13.7c1.3,0.8,2.8,1.5,4.2,2.1c3.6,1.5,7,3.1,10.1,5.6c0.9,0.8,2,1.2,3.1,1.4c1.6,0.3,3.1,0.7,4.3,1.8
				c2.3,0.7,4.3,1.9,6.2,3.3c1.2,0.4,2.3,0.7,3.5,1.1c0.5-0.3,0.8-0.4,1.3-0.7c0.4-1.6-0.2-3.1-0.7-4.6c-0.4-0.2-0.6-0.5-0.6-1
				c-0.1-0.3-0.2-0.5-0.3-0.7c-0.2-0.2-0.4-0.5-0.7-0.8c-0.9-1.2-2-2.3-2.5-3.8c-0.5-0.3-0.8-0.8-0.7-1.4c-1.6-3.8-1.3-7.9-1.9-11.9
				c-0.1-0.7,0.2-1.4,0.7-1.9c0-0.7,0.3-1.1,1-1.3c2.4-1.1,3.3-3,2.8-5.6c0-0.1,0-0.3,0-0.4c-0.4-5.3,0.8-10.2,3.1-14.9
				C94.8,93.4,96.5,90.5,98.3,87.6L98.3,87.6z M72.4,91.9c-0.9,3.1-2.3,5.9-3.9,8.6c-1.9,3.2-4,6.3-6,9.4c-0.5,0.8-1.2,1.2-2,1.5
				c-1,0.4-2.2,0.6-3.1,1.4c-0.4,0.4-1,0.7-1.4,0c-0.2-0.3-0.1-0.8,0.1-1.2c0.5-1.3,1.6-2,2.9-2.3c2.2-0.5,3.3-1.9,3.9-4
				c0.5-1.6,1.4-3.1,2.3-4.6c2.4-4.2,4.9-8.4,6.4-13c0.1-0.2,0.4-0.4,1-1C73,88.6,72.9,90.2,72.4,91.9z M86.6,66.5
				c-0.3,2.1-0.8,4.2-1.9,6c-0.6,1-1.4,1.8-2.5,2.1c-0.9,0.3-1.3,0.2-3.5-0.9c2.2-1.2,3.9-3,5.2-5.2c0.5-0.9,1-1.7,1.5-2.5
				c0.1-0.2,0.5-0.4,0.7-0.4C86.6,65.7,86.6,66.1,86.6,66.5z M71.1,72.4c-1.6,2-2.2,4.3-2.3,7.1c1.9-0.9,2.4-2.4,3.1-3.7
				c0.8-1.4,2.1-2.2,3.3-3.2C73,71.3,72,71.2,71.1,72.4z"/>
		</g>
		<g>
			<path d="M32.5,86c0-0.2,0.1-0.4,0.1-0.7c0-2.1-1.7-3.8-3.8-3.8s-3.8,1.7-3.8,3.8c0,0.2,0,0.4,0.1,0.7c0.2,1.7,1,6.3,3.8,9.1
				C31.6,92.3,32.3,87.7,32.5,86z"/>
			<circle class="st1" cx="28.8" cy="85.2" r="2.3"/>
		</g>
	</g>
</g>
<g id="Layer_7">
	<g>
		<g id="mid_00000084521169386889242600000005745901430095091843_">
			<path class="st0" d="M0.4,108.1c-0.4,0.2-0.4,0.5-0.3,0.8l0.6-1C0.5,108,0.5,108.1,0.4,108.1z M42.5,0c-2.4,4.6-4.9,9.3-7.3,13.9
				c-0.5,1-1.1,2-1,3.2c0.2,5-1.9,9.1-5,12.9c-1.7,2.1-3.5,4.2-5.1,6.3C15.4,47.5,9.9,60.2,4.4,73c-1.5,3.3-1.5,6.7,0.3,9.9
				c1,1.8,1,3.5,0.2,5.3C3.6,91.5,4,95,4,98.4c0,1,0.5,1.5,1.3,2c0,0,0,0,0,0c0,0,0.1,0,0.1,0.1c0.1,0,0.1,0.1,0.2,0.1
				c0.1,0,0.1,0.1,0.2,0.2c1.8,1.2,7.6,5.2,11.8,6.7l0,0c1.4,0.2,2.7,0.7,4,1.3c1.5,0.7,3.1,1.6,4.6,2.3c2.5,1.3,5.1,2,7.9,1.5
				c1.5-1.1,2-2.8,2.4-4.4c0.6-2.2,1.8-3.9,3.9-4.9c-0.3-2.1,0.9-3.8,1.8-5.6c0.7-1.3,1.4-2.5,1.7-3.9c0.2-0.9-0.1-1.7-0.9-2.2
				c-1.9-1.1-3.8-2-5.7-3.1c-4.4-2.4-4.8-3.8-2.5-8.2c5.1-9.4,10.2-18.9,15.3-28.3c1-1.8,2-3.5,3.1-5.2c2-3,3.8-6,5-9.5
				c0.8-2.4,2.4-4.2,4.4-5.7c1.3-5.6,3.8-10.7,7-15.4L42.5,0z M62.5,15.2c-1.2,0.8-2.4,0.7-3.7,0.2c-1.7-0.8-3.2-1.9-3.9-4
				c2.5,0.9,5.1,1.7,7.6,2.6c0.2,0.1,0.5,0.4,0.4,0.6C63,14.8,62.7,15.1,62.5,15.2z M5.8,100.8c-0.1-0.1-0.1-0.1-0.2-0.2
				c-0.1-0.1-0.1-0.1-0.2-0.1c0,0-0.1,0-0.1-0.1c0,0,0,0,0,0l-4.6,7.5c1.7-1.3,2.7-3,3.2-5.1c0.1-0.4,0.4-0.6,0.8-0.8
				C6.2,101.5,6.4,101.3,5.8,100.8z M98.3,87.6c8.3-12.9,17-25.5,26-37.9l-4.1-2.5c-0.2,0.2-0.4,0.3-0.5,0.2c-0.7-0.1-1.4-0.3-2-0.6
				c-3.3-1.6-6.6-3.3-9.9-5c-0.5-0.3-1-0.7-1.5-0.9c-2.4-1.1-4.4-0.5-5.9,1.8c-0.8,1.2-1.2,2.6-1.8,3.9c-0.5,1.2-1,2.4-1.6,3.5
				c-0.6,0.9-1.6,1.1-2.6,0.7c-1-0.5-1.4-1.6-0.8-2.5c0.5-0.7,1.1-1.3,1.7-2c0.6-0.8,1.3-1.5,1.8-2.4c2.1-3.7,1.6-6.1-2.1-8.3
				c-6.5-3.8-13.2-7.5-19.8-11.2c-0.5-0.3-1-0.6-1.6-0.8c-3.3-1.1-5.3-0.4-6.7,2.6c-1.1,2.3-2.2,4.7-4.2,6.4c-1,3.5-2.3,6.8-4.8,9.5
				c-0.6,0.6-1,1.4-1.3,2.2c-5,11.3-11.3,21.9-17.7,32.3c-1,1.6-1.9,3.2-2.1,5.1c-0.3,2.6,0.7,4.5,2.9,5.7c0.5,0.3,1,0.5,1.6,0.6
				c2.1,0.6,3.5,1.8,4.2,3.9c0.8,2.3,0.7,4.5-0.6,6.6c-1.1,1.7-2.4,3.2-3.7,4.8c-1.5,3.4-2.9,6.8-5.3,9.6c0,1.7,0.7,2.9,2.3,3.8
				c7.6,4.5,15.2,9.1,22.8,13.7c1.3,0.8,2.8,1.5,4.2,2.1c3.6,1.5,7,3.1,10.1,5.6c0.9,0.8,2,1.2,3.1,1.4c1.6,0.3,3.1,0.7,4.3,1.8
				c2.3,0.7,4.3,1.9,6.2,3.3c1.2,0.4,2.3,0.7,3.5,1.1c0.5-0.3,0.8-0.4,1.3-0.7c0.4-1.6-0.2-3.1-0.7-4.6c-0.4-0.2-0.6-0.5-0.6-1
				c-0.1-0.3-0.2-0.5-0.3-0.7c-0.2-0.2-0.4-0.5-0.7-0.8c-0.9-1.2-2-2.3-2.5-3.8c-0.5-0.3-0.8-0.8-0.7-1.4c-1.6-3.8-1.3-7.9-1.9-11.9
				c-0.1-0.7,0.2-1.4,0.7-1.9c0-0.7,0.3-1.1,1-1.3c2.4-1.1,3.3-3,2.8-5.6c0-0.1,0-0.3,0-0.4c-0.4-5.3,0.8-10.2,3.1-14.9
				C94.8,93.4,96.5,90.5,98.3,87.6L98.3,87.6z M72.4,91.9c-0.9,3.1-2.3,5.9-3.9,8.6c-1.9,3.2-4,6.3-6,9.4c-0.5,0.8-1.2,1.2-2,1.5
				c-1,0.4-2.2,0.6-3.1,1.4c-0.4,0.4-1,0.7-1.4,0c-0.2-0.3-0.1-0.8,0.1-1.2c0.5-1.3,1.6-2,2.9-2.3c2.2-0.5,3.3-1.9,3.9-4
				c0.5-1.6,1.4-3.1,2.3-4.6c2.4-4.2,4.9-8.4,6.4-13c0.1-0.2,0.4-0.4,1-1C73,88.6,72.9,90.2,72.4,91.9z M86.6,66.5
				c-0.3,2.1-0.8,4.2-1.9,6c-0.6,1-1.4,1.8-2.5,2.1c-0.9,0.3-1.3,0.2-3.5-0.9c2.2-1.2,3.9-3,5.2-5.2c0.5-0.9,1-1.7,1.5-2.5
				c0.1-0.2,0.5-0.4,0.7-0.4C86.6,65.7,86.6,66.1,86.6,66.5z M71.1,72.4c-1.6,2-2.2,4.3-2.3,7.1c1.9-0.9,2.4-2.4,3.1-3.7
				c0.8-1.4,2.1-2.2,3.3-3.2C73,71.3,72,71.2,71.1,72.4z"/>
		</g>
		<g>
			<path d="M40.2,60.9c0-0.2,0.1-0.4,0.1-0.7c0-2.1-1.7-3.8-3.8-3.8c-2.1,0-3.8,1.7-3.8,3.8c0,0.2,0,0.4,0.1,0.7
				c0.2,1.7,1,6.3,3.8,9.1C39.2,67.2,40,62.6,40.2,60.9z"/>
			<circle class="st1" cx="36.4" cy="60.1" r="2.3"/>
		</g>
	</g>
</g>
</svg>
