<?xml version="1.0" encoding="utf-8"?>
<!-- Generator: Adobe Illustrator 27.4.1, SVG Export Plug-In . SVG Version: 6.00 Build 0)  -->
<svg version="1.1" xmlns="http://www.w3.org/2000/svg" xmlns:xlink="http://www.w3.org/1999/xlink" x="0px" y="0px"
	 viewBox="0 0 194.5 376.9" style="enable-background:new 0 0 194.5 376.9;" xml:space="preserve">
<style type="text/css">
	.st0{fill:#ECE200;}
	.st1{fill:#FFFFFF;}
</style>
<g id="Layer_2_00000056421500229014878070000003197973925151705238_">
	<g>
		<g id="upper_00000139992084531413268240000008446674038728090801_">
			<path class="st0" d="M117.4,326.6c-1.1,2-2.5,3.8-4,5.6c-2.5,3-4.8,6.1-6.7,9.4c-4.9,8.3-10.8,15.8-16.4,23.6
				c-2.8,3.9-5.7,7.8-8.5,11.8l-4.1-2.5c0.1-0.1,0.1-0.1,0.1-0.2c0.1-0.2,0.1-0.6-0.1-0.8c-0.5-0.5-1.1-0.9-1.7-1.2
				c-5.2-2.8-10.3-5.6-15.5-8.3l-0.1,0l-5.8-3.5c-2.8-1.7-3.7-5.3-2-8.1c0,0,0-0.1,0.1-0.1c0.5-0.8,1.1-1.7,1.6-2.5
				c1.7-3,3.4-5.9,4.5-9.2c0.4-1.2,1-2.3,1.5-3.5c0.9-1.1,1.8-2.2,2.6-3.4c2.4-3.6,4.3-7.4,6.2-11.3c1.5-3.2,3.2-6.4,5.2-9.4
				c2.9-4.6,5.6-9.3,7.6-14.4c0.3-0.8,0.7-1.6,1.2-2.2c1.2-1.3,1.9-2.8,2.6-4.4c1.5-3.5,3.6-4.5,7.2-3.2c2.3,0.8,4.5,1.9,6.6,3
				c1.8,0.9,3.6,1.8,5.4,2.6c0.3,0.1,0.6,0.3,0.9,0.4c0.8,0.3,1.6,0.6,2.4,0.9l9.2,4c-0.1,0.3-0.2,0.6-0.2,1
				c-0.1,2.1-0.7,4.3,0.6,6.3c0.9,1.5,1.6,3,2,4.7C121.2,316.8,120.1,321.8,117.4,326.6L117.4,326.6z"/>
			<path class="st0" d="M79.5,247.3c-0.2,0.8-0.4,1.6-0.7,2.5c-1,3-2.6,5.7-4.3,8.4c-4.9,8-9.5,16.3-13.6,24.8
				c-2.1,4.3-5.2,8.2-7,12.7c-0.1,0.2-0.3,0.5-0.5,0.7c-4.4,5.1-7,11.1-9.3,17.2c-1.7,3.3-3.5,6.5-5.2,9.8c-0.9,1.6-1.5,3.4-2.8,4.8
				c-2.8,3.3-4.6,7.2-5.7,11.4c-1.2,0.6-1.9,1.7-2.6,2.8c-0.3,0.4-0.6,0.9-0.9,1.3L0,327.2c3.6-6.8,7.1-13.5,10.7-20.3
				c8.1-15.3,16.1-30.7,24.2-46c4.2-7.8,8.4-15.6,12.6-23.4c0.3-0.5,0.8-1,0.8-1.5c0-2.9,2-4.9,2.9-7.4c0.5-0.2,0.6-0.2,1.2-0.4
				l2.8,1.9c0,0,0,0,0,0c0,0.1,0.1,0.2,0.2,0.2c0.1,0.1,0.1,0.1,0.2,0.2c0,0,0.1,0.1,0.1,0.1c0.1,0.1,0.1,0.1,0.2,0.1
				c0.5,0.3,1.1,0.5,1.6,0.8c5.6,2.9,11.2,5.8,16.8,8.7c1.1,0.6,2.2,1.2,3.3,1.9C79.2,243.6,79.9,245.2,79.5,247.3L79.5,247.3z"/>
			<path class="st0" d="M192.5,13.2c-4.9-1.6-9.8-3-14.8-4.4c-0.7-0.2-1.4,0.1-1.8,0.8c-0.2,0.4-0.2,0.8-0.4,1.2
				c-1,2.3-2.2,2.8-4.3,1.8c-3-1.5-4.5-3.7-4.4-7.2c0.1-4.1-2.3-6-6.3-5.4c-0.7,0.1-1.4,0.4-2,0.6c-3.1,1.1-5.4,3.2-7.1,6
				c-2.8,4.7-5.1,9.6-5.2,15.2c-0.1,4-1.1,7.9-2.6,11.7c-3.2,8-7,15.7-11.5,23c-4.3,7-8.9,13.6-13.9,20.1c-4.9,6.4-7.2,13.6-7,21.6
				c0,1.3-0.1,2.6,0.9,3.7c0.7,0.8,0.6,1.8,0.4,2.8c-1.9,7.9-4.1,15.8-7.8,23.1c-0.8,1.7-1.7,3.3-1.5,5.3c0.1,1.2-0.6,2.2-1.1,3.2
				c-4.2,8.8-8.3,17.6-11.7,26.7c-0.5,1.3-1.2,2.6-1.9,3.8c-4,6.5-8.1,12.8-12.4,19.1c-4.4,6.3-8.6,12.8-11.9,19.9
				c-0.4,0.8-0.8,1.5-1.2,2.2c-3.4,4.8-6.3,9.9-9,15.2c-0.6,1.2-0.3,2.7,0.9,3.5l3.6,2.5c0.2,0.1,0.5,0.1,0.7,0.2
				c0.1,0,0.2,0.1,0.2,0.1c0.2,0.1,0.5,0.2,0.7,0.3c0.2,0.1,0.4,0.1,0.6,0.2c0.4,0.1,0.7,0.3,1.1,0.5c2.6,1.3,5.1,2.7,7.6,4
				c2.5,1.4,5,2.7,7.7,3.8c2.2,0.9,3.7-0.3,4-2.4c0.4-2.4,0.6-4.8,1-7.2c0.1-0.6,0.3-1.2,1-1.2c0.7,0,0.8,0.7,1,1.2
				c0.8,1.9,0.7,3.9,0.2,5.9c-0.2,1-0.6,1.9-0.9,2.9c-0.8,2.2-0.2,4,1.6,5.3c1.5,1.1,3.1,2.1,4.8,2.9c3.9,1.8,7.9,3.4,11.8,5.1
				c1.6,0.7,2.7,0.4,3.8-1c1.6-2.2,2.9-4.6,4.4-6.9c1.3-2.2,2.7-4.4,4-6.6c0.3-0.5,0.6-1,1.3-1.1c0.7,0.6,0.3,1.2,0.1,1.8
				c-2,6.9-5.2,13.3-8.7,19.6c-3.5,6.4-7.3,12.6-11.7,18.5c-0.5,0.7-1,1.4-1.4,2.1c-2.4,4.7-0.9,7.3,2.6,9.4
				c0.8,0.5,1.8,0.9,2.7,1.3c4.9,2,9.5,4.6,14,7.4l6.1,2.5c0.4-0.3,0.7-0.6,1.1-0.8c2.8-2.2,5.6-4.5,8-7.1c1.7-1.8,3.3-3.7,4-6
				c0.8-2.6,2.1-4.9,3.2-7.4c1.8-4.1,4.6-7.3,8.4-9.8c2-1.3,3.9-2.9,5.8-4.5c0.9-0.8,2.1-1.4,2.3-2.7c0.7-4.8,2.3-9.5,1.7-14.4
				c-0.4-0.2-0.6-0.6-0.6-1.1c-0.1-4.4-1.7-8.4-4.2-12c-0.7-1.1-1.4-2.1-2.2-3.2c-3-4.1-4.9-8.7-5.8-13.7c-1.1-6-0.9-11.9-0.4-18
				c0.5-5.3,1.1-10.6,1-15.8c-0.1-7.1-0.8-14.3-1.9-21.4c-1.1-7.7-1.7-15.4-1.5-23.1c0.1-3.9,0.9-7.6,2.6-11.2
				c1.6-3.4,3.2-6.7,4.6-10.2c3.4-8.7,7.3-17.1,11.5-25.4c4.9-9.7,9.9-19.4,14.7-29.1c1.3-2.6,2.8-5,5.1-6.8c1.6-1.2,2.9-2.7,4-4.4
				c3.9-6.5,7.8-13,11.7-19.5c1.1-1.7,1.9-3.5,1.9-5.6c0.1-2.7,0.2-5.4,0.7-8.1C194.7,14.7,194.3,13.8,192.5,13.2L192.5,13.2z"/>
			<path class="st0" d="M30.4,340.4c2.1-1.4,3.3-3.4,4.4-5.6c1.5-3.2,3-6.3,5-9.3c2.1-3.2,3.5-6.7,5.3-10.1c3.7-5,6.2-10.6,8.8-16.2
				c0.7-1.5,1.3-3.1,2.6-4.4c0.8-0.8,1.4-1.8,1.8-2.9c2.2-5.5,5.4-10.4,8.4-15.4c4-6.8,7.8-13.6,11-20.9c1.3-3.1,3.8-5.3,6.5-7.2
				c1.2-0.9,2.6-1,4.1-0.5c4.2,1.4,8.1,3.5,12,5.7c1.6,0.9,2.1,2.2,1.6,4c-0.3,1-0.7,1.9-1.1,2.8c-1.5,2.8-3.2,5.4-4.5,8.3
				c-2.1,4.6-4.6,8.8-7.5,12.9c-1.2,1.8-2.3,3.6-3.1,5.6c-2.4,6.1-5.8,11.8-9.4,17.3c-0.8,1.3-1.7,2.7-2.2,4.1
				c-2.1,5.4-5.2,10.1-8.2,15c-2.2,3.5-3.8,7.4-5.7,11.1c-0.3,0.6-0.3,1.4-0.5,2.1c-3.3,3.6-5.8,7.8-7.7,12.2
				c-0.6,1.3-1.3,2.6-2.1,3.7c-1.5,2.3-3.5,3.1-5.9,2c-4-1.8-8-3.8-11.8-6c-1.9-1-2.6-3-2.3-5.2C29.8,342.6,30.1,341.5,30.4,340.4
				L30.4,340.4z"/>
		</g>
		<g>
			<path d="M115,162.1c0.1-0.6,0.2-1.3,0.2-1.9c0-6.2-5-11.2-11.2-11.2s-11.2,5-11.2,11.2c0,0.7,0.1,1.3,0.2,1.9
				c0.6,5,2.8,18.5,11.1,26.7C112.2,180.6,114.4,167.1,115,162.1z"/>
			<circle class="st1" cx="104" cy="159.7" r="6.6"/>
		</g>
	</g>
</g>
<g id="Layer_4">
	<g>
		<g id="upper_00000072255922495751499760000014152517126484764086_">
			<path class="st0" d="M117.4,326.6c-1.1,2-2.5,3.8-4,5.6c-2.5,3-4.8,6.1-6.7,9.4c-4.9,8.3-10.8,15.8-16.4,23.6
				c-2.8,3.9-5.7,7.8-8.5,11.8l-4.1-2.5c0.1-0.1,0.1-0.1,0.1-0.2c0.1-0.2,0.1-0.6-0.1-0.8c-0.5-0.5-1.1-0.9-1.7-1.2
				c-5.2-2.8-10.3-5.6-15.5-8.3l-0.1,0l-5.8-3.5c-2.8-1.7-3.7-5.3-2-8.1c0,0,0-0.1,0.1-0.1c0.5-0.8,1.1-1.7,1.6-2.5
				c1.7-3,3.4-5.9,4.5-9.2c0.4-1.2,1-2.3,1.5-3.5c0.9-1.1,1.8-2.2,2.6-3.4c2.4-3.6,4.3-7.4,6.2-11.3c1.5-3.2,3.2-6.4,5.2-9.4
				c2.9-4.6,5.6-9.3,7.6-14.4c0.3-0.8,0.7-1.6,1.2-2.2c1.2-1.3,1.9-2.8,2.6-4.4c1.5-3.5,3.6-4.5,7.2-3.2c2.3,0.8,4.5,1.9,6.6,3
				c1.8,0.9,3.6,1.8,5.4,2.6c0.3,0.1,0.6,0.3,0.9,0.4c0.8,0.3,1.6,0.6,2.4,0.9l9.2,4c-0.1,0.3-0.2,0.6-0.2,1
				c-0.1,2.1-0.7,4.3,0.6,6.3c0.9,1.5,1.6,3,2,4.7C121.2,316.8,120.1,321.8,117.4,326.6L117.4,326.6z"/>
			<path class="st0" d="M79.5,247.3c-0.2,0.8-0.4,1.6-0.7,2.5c-1,3-2.6,5.7-4.3,8.4c-4.9,8-9.5,16.3-13.6,24.8
				c-2.1,4.3-5.2,8.2-7,12.7c-0.1,0.2-0.3,0.5-0.5,0.7c-4.4,5.1-7,11.1-9.3,17.2c-1.7,3.3-3.5,6.5-5.2,9.8c-0.9,1.6-1.5,3.4-2.8,4.8
				c-2.8,3.3-4.6,7.2-5.7,11.4c-1.2,0.6-1.9,1.7-2.6,2.8c-0.3,0.4-0.6,0.9-0.9,1.3L0,327.2c3.6-6.8,7.1-13.5,10.7-20.3
				c8.1-15.3,16.1-30.7,24.2-46c4.2-7.8,8.4-15.6,12.6-23.4c0.3-0.5,0.8-1,0.8-1.5c0-2.9,2-4.9,2.9-7.4c0.5-0.2,0.6-0.2,1.2-0.4
				l2.8,1.9c0,0,0,0,0,0c0,0.1,0.1,0.2,0.2,0.2c0.1,0.1,0.1,0.1,0.2,0.2c0,0,0.1,0.1,0.1,0.1c0.1,0.1,0.1,0.1,0.2,0.1
				c0.5,0.3,1.1,0.5,1.6,0.8c5.6,2.9,11.2,5.8,16.8,8.7c1.1,0.6,2.2,1.2,3.3,1.9C79.2,243.6,79.9,245.2,79.5,247.3L79.5,247.3z"/>
			<path class="st0" d="M192.5,13.2c-4.9-1.6-9.8-3-14.8-4.4c-0.7-0.2-1.4,0.1-1.8,0.8c-0.2,0.4-0.2,0.8-0.4,1.2
				c-1,2.3-2.2,2.8-4.3,1.8c-3-1.5-4.5-3.7-4.4-7.2c0.1-4.1-2.3-6-6.3-5.4c-0.7,0.1-1.4,0.4-2,0.6c-3.1,1.1-5.4,3.2-7.1,6
				c-2.8,4.7-5.1,9.6-5.2,15.2c-0.1,4-1.1,7.9-2.6,11.7c-3.2,8-7,15.7-11.5,23c-4.3,7-8.9,13.6-13.9,20.1c-4.9,6.4-7.2,13.6-7,21.6
				c0,1.3-0.1,2.6,0.9,3.7c0.7,0.8,0.6,1.8,0.4,2.8c-1.9,7.9-4.1,15.8-7.8,23.1c-0.8,1.7-1.7,3.3-1.5,5.3c0.1,1.2-0.6,2.2-1.1,3.2
				c-4.2,8.8-8.3,17.6-11.7,26.7c-0.5,1.3-1.2,2.6-1.9,3.8c-4,6.5-8.1,12.8-12.4,19.1c-4.4,6.3-8.6,12.8-11.9,19.9
				c-0.4,0.8-0.8,1.5-1.2,2.2c-3.4,4.8-6.3,9.9-9,15.2c-0.6,1.2-0.3,2.7,0.9,3.5l3.6,2.5c0.2,0.1,0.5,0.1,0.7,0.2
				c0.1,0,0.2,0.1,0.2,0.1c0.2,0.1,0.5,0.2,0.7,0.3c0.2,0.1,0.4,0.1,0.6,0.2c0.4,0.1,0.7,0.3,1.1,0.5c2.6,1.3,5.1,2.7,7.6,4
				c2.5,1.4,5,2.7,7.7,3.8c2.2,0.9,3.7-0.3,4-2.4c0.4-2.4,0.6-4.8,1-7.2c0.1-0.6,0.3-1.2,1-1.2c0.7,0,0.8,0.7,1,1.2
				c0.8,1.9,0.7,3.9,0.2,5.9c-0.2,1-0.6,1.9-0.9,2.9c-0.8,2.2-0.2,4,1.6,5.3c1.5,1.1,3.1,2.1,4.8,2.9c3.9,1.8,7.9,3.4,11.8,5.1
				c1.6,0.7,2.7,0.4,3.8-1c1.6-2.2,2.9-4.6,4.4-6.9c1.3-2.2,2.7-4.4,4-6.6c0.3-0.5,0.6-1,1.3-1.1c0.7,0.6,0.3,1.2,0.1,1.8
				c-2,6.9-5.2,13.3-8.7,19.6c-3.5,6.4-7.3,12.6-11.7,18.5c-0.5,0.7-1,1.4-1.4,2.1c-2.4,4.7-0.9,7.3,2.6,9.4
				c0.8,0.5,1.8,0.9,2.7,1.3c4.9,2,9.5,4.6,14,7.4l6.1,2.5c0.4-0.3,0.7-0.6,1.1-0.8c2.8-2.2,5.6-4.5,8-7.1c1.7-1.8,3.3-3.7,4-6
				c0.8-2.6,2.1-4.9,3.2-7.4c1.8-4.1,4.6-7.3,8.4-9.8c2-1.3,3.9-2.9,5.8-4.5c0.9-0.8,2.1-1.4,2.3-2.7c0.7-4.8,2.3-9.5,1.7-14.4
				c-0.4-0.2-0.6-0.6-0.6-1.1c-0.1-4.4-1.7-8.4-4.2-12c-0.7-1.1-1.4-2.1-2.2-3.2c-3-4.1-4.9-8.7-5.8-13.7c-1.1-6-0.9-11.9-0.4-18
				c0.5-5.3,1.1-10.6,1-15.8c-0.1-7.1-0.8-14.3-1.9-21.4c-1.1-7.7-1.7-15.4-1.5-23.1c0.1-3.9,0.9-7.6,2.6-11.2
				c1.6-3.4,3.2-6.7,4.6-10.2c3.4-8.7,7.3-17.1,11.5-25.4c4.9-9.7,9.9-19.4,14.7-29.1c1.3-2.6,2.8-5,5.1-6.8c1.6-1.2,2.9-2.7,4-4.4
				c3.9-6.5,7.8-13,11.7-19.5c1.1-1.7,1.9-3.5,1.9-5.6c0.1-2.7,0.2-5.4,0.7-8.1C194.7,14.7,194.3,13.8,192.5,13.2L192.5,13.2z"/>
			<path class="st0" d="M30.4,340.4c2.1-1.4,3.3-3.4,4.4-5.6c1.5-3.2,3-6.3,5-9.3c2.1-3.2,3.5-6.7,5.3-10.1c3.7-5,6.2-10.6,8.8-16.2
				c0.7-1.5,1.3-3.1,2.6-4.4c0.8-0.8,1.4-1.8,1.8-2.9c2.2-5.5,5.4-10.4,8.4-15.4c4-6.8,7.8-13.6,11-20.9c1.3-3.1,3.8-5.3,6.5-7.2
				c1.2-0.9,2.6-1,4.1-0.5c4.2,1.4,8.1,3.5,12,5.7c1.6,0.9,2.1,2.2,1.6,4c-0.3,1-0.7,1.9-1.1,2.8c-1.5,2.8-3.2,5.4-4.5,8.3
				c-2.1,4.6-4.6,8.8-7.5,12.9c-1.2,1.8-2.3,3.6-3.1,5.6c-2.4,6.1-5.8,11.8-9.4,17.3c-0.8,1.3-1.7,2.7-2.2,4.1
				c-2.1,5.4-5.2,10.1-8.2,15c-2.2,3.5-3.8,7.4-5.7,11.1c-0.3,0.6-0.3,1.4-0.5,2.1c-3.3,3.6-5.8,7.8-7.7,12.2
				c-0.6,1.3-1.3,2.6-2.1,3.7c-1.5,2.3-3.5,3.1-5.9,2c-4-1.8-8-3.8-11.8-6c-1.9-1-2.6-3-2.3-5.2C29.8,342.6,30.1,341.5,30.4,340.4
				L30.4,340.4z"/>
		</g>
		<g>
			<path d="M40.6,289.9c0.1-0.6,0.2-1.3,0.2-1.9c0-6.2-5-11.2-11.2-11.2s-11.2,5-11.2,11.2c0,0.7,0.1,1.3,0.2,1.9
				c0.6,5,2.8,18.5,11.1,26.7C37.8,308.4,40.1,294.9,40.6,289.9z"/>
			<circle class="st1" cx="29.6" cy="287.5" r="6.6"/>
		</g>
	</g>
</g>
<g id="lga">
	<g>
		<g id="upper_00000134213381250401526670000017474118057656938942_">
			<path class="st0" d="M117.4,326.6c-1.1,2-2.5,3.8-4,5.6c-2.5,3-4.8,6.1-6.7,9.4c-4.9,8.3-10.8,15.8-16.4,23.6
				c-2.8,3.9-5.7,7.8-8.5,11.8l-4.1-2.5c0.1-0.1,0.1-0.1,0.1-0.2c0.1-0.2,0.1-0.6-0.1-0.8c-0.5-0.5-1.1-0.9-1.7-1.2
				c-5.2-2.8-10.3-5.6-15.5-8.3l-0.1,0l-5.8-3.5c-2.8-1.7-3.7-5.3-2-8.1c0,0,0-0.1,0.1-0.1c0.5-0.8,1.1-1.7,1.6-2.5
				c1.7-3,3.4-5.9,4.5-9.2c0.4-1.2,1-2.3,1.5-3.5c0.9-1.1,1.8-2.2,2.6-3.4c2.4-3.6,4.3-7.4,6.2-11.3c1.5-3.2,3.2-6.4,5.2-9.4
				c2.9-4.6,5.6-9.3,7.6-14.4c0.3-0.8,0.7-1.6,1.2-2.2c1.2-1.3,1.9-2.8,2.6-4.4c1.5-3.5,3.6-4.5,7.2-3.2c2.3,0.8,4.5,1.9,6.6,3
				c1.8,0.9,3.6,1.8,5.4,2.6c0.3,0.1,0.6,0.3,0.9,0.4c0.8,0.3,1.6,0.6,2.4,0.9l9.2,4c-0.1,0.3-0.2,0.6-0.2,1
				c-0.1,2.1-0.7,4.3,0.6,6.3c0.9,1.5,1.6,3,2,4.7C121.2,316.8,120.1,321.8,117.4,326.6L117.4,326.6z"/>
			<path class="st0" d="M79.5,247.3c-0.2,0.8-0.4,1.6-0.7,2.5c-1,3-2.6,5.7-4.3,8.4c-4.9,8-9.5,16.3-13.6,24.8
				c-2.1,4.3-5.2,8.2-7,12.7c-0.1,0.2-0.3,0.5-0.5,0.7c-4.4,5.1-7,11.1-9.3,17.2c-1.7,3.3-3.5,6.5-5.2,9.8c-0.9,1.6-1.5,3.4-2.8,4.8
				c-2.8,3.3-4.6,7.2-5.7,11.4c-1.2,0.6-1.9,1.7-2.6,2.8c-0.3,0.4-0.6,0.9-0.9,1.3L0,327.2c3.6-6.8,7.1-13.5,10.7-20.3
				c8.1-15.3,16.1-30.7,24.2-46c4.2-7.8,8.4-15.6,12.6-23.4c0.3-0.5,0.8-1,0.8-1.5c0-2.9,2-4.9,2.9-7.4c0.5-0.2,0.6-0.2,1.2-0.4
				l2.8,1.9c0,0,0,0,0,0c0,0.1,0.1,0.2,0.2,0.2c0.1,0.1,0.1,0.1,0.2,0.2c0,0,0.1,0.1,0.1,0.1c0.1,0.1,0.1,0.1,0.2,0.1
				c0.5,0.3,1.1,0.5,1.6,0.8c5.6,2.9,11.2,5.8,16.8,8.7c1.1,0.6,2.2,1.2,3.3,1.9C79.2,243.6,79.9,245.2,79.5,247.3L79.5,247.3z"/>
			<path class="st0" d="M192.5,13.2c-4.9-1.6-9.8-3-14.8-4.4c-0.7-0.2-1.4,0.1-1.8,0.8c-0.2,0.4-0.2,0.8-0.4,1.2
				c-1,2.3-2.2,2.8-4.3,1.8c-3-1.5-4.5-3.7-4.4-7.2c0.1-4.1-2.3-6-6.3-5.4c-0.7,0.1-1.4,0.4-2,0.6c-3.1,1.1-5.4,3.2-7.1,6
				c-2.8,4.7-5.1,9.6-5.2,15.2c-0.1,4-1.1,7.9-2.6,11.7c-3.2,8-7,15.7-11.5,23c-4.3,7-8.9,13.6-13.9,20.1c-4.9,6.4-7.2,13.6-7,21.6
				c0,1.3-0.1,2.6,0.9,3.7c0.7,0.8,0.6,1.8,0.4,2.8c-1.9,7.9-4.1,15.8-7.8,23.1c-0.8,1.7-1.7,3.3-1.5,5.3c0.1,1.2-0.6,2.2-1.1,3.2
				c-4.2,8.8-8.3,17.6-11.7,26.7c-0.5,1.3-1.2,2.6-1.9,3.8c-4,6.5-8.1,12.8-12.4,19.1c-4.4,6.3-8.6,12.8-11.9,19.9
				c-0.4,0.8-0.8,1.5-1.2,2.2c-3.4,4.8-6.3,9.9-9,15.2c-0.6,1.2-0.3,2.7,0.9,3.5l3.6,2.5c0.2,0.1,0.5,0.1,0.7,0.2
				c0.1,0,0.2,0.1,0.2,0.1c0.2,0.1,0.5,0.2,0.7,0.3c0.2,0.1,0.4,0.1,0.6,0.2c0.4,0.1,0.7,0.3,1.1,0.5c2.6,1.3,5.1,2.7,7.6,4
				c2.5,1.4,5,2.7,7.7,3.8c2.2,0.9,3.7-0.3,4-2.4c0.4-2.4,0.6-4.8,1-7.2c0.1-0.6,0.3-1.2,1-1.2c0.7,0,0.8,0.7,1,1.2
				c0.8,1.9,0.7,3.9,0.2,5.9c-0.2,1-0.6,1.9-0.9,2.9c-0.8,2.2-0.2,4,1.6,5.3c1.5,1.1,3.1,2.1,4.8,2.9c3.9,1.8,7.9,3.4,11.8,5.1
				c1.6,0.7,2.7,0.4,3.8-1c1.6-2.2,2.9-4.6,4.4-6.9c1.3-2.2,2.7-4.4,4-6.6c0.3-0.5,0.6-1,1.3-1.1c0.7,0.6,0.3,1.2,0.1,1.8
				c-2,6.9-5.2,13.3-8.7,19.6c-3.5,6.4-7.3,12.6-11.7,18.5c-0.5,0.7-1,1.4-1.4,2.1c-2.4,4.7-0.9,7.3,2.6,9.4
				c0.8,0.5,1.8,0.9,2.7,1.3c4.9,2,9.5,4.6,14,7.4l6.1,2.5c0.4-0.3,0.7-0.6,1.1-0.8c2.8-2.2,5.6-4.5,8-7.1c1.7-1.8,3.3-3.7,4-6
				c0.8-2.6,2.1-4.9,3.2-7.4c1.8-4.1,4.6-7.3,8.4-9.8c2-1.3,3.9-2.9,5.8-4.5c0.9-0.8,2.1-1.4,2.3-2.7c0.7-4.8,2.3-9.5,1.7-14.4
				c-0.4-0.2-0.6-0.6-0.6-1.1c-0.1-4.4-1.7-8.4-4.2-12c-0.7-1.1-1.4-2.1-2.2-3.2c-3-4.1-4.9-8.7-5.8-13.7c-1.1-6-0.9-11.9-0.4-18
				c0.5-5.3,1.1-10.6,1-15.8c-0.1-7.1-0.8-14.3-1.9-21.4c-1.1-7.7-1.7-15.4-1.5-23.1c0.1-3.9,0.9-7.6,2.6-11.2
				c1.6-3.4,3.2-6.7,4.6-10.2c3.4-8.7,7.3-17.1,11.5-25.4c4.9-9.7,9.9-19.4,14.7-29.1c1.3-2.6,2.8-5,5.1-6.8c1.6-1.2,2.9-2.7,4-4.4
				c3.9-6.5,7.8-13,11.7-19.5c1.1-1.7,1.9-3.5,1.9-5.6c0.1-2.7,0.2-5.4,0.7-8.1C194.7,14.7,194.3,13.8,192.5,13.2L192.5,13.2z"/>
			<path class="st0" d="M30.4,340.4c2.1-1.4,3.3-3.4,4.4-5.6c1.5-3.2,3-6.3,5-9.3c2.1-3.2,3.5-6.7,5.3-10.1c3.7-5,6.2-10.6,8.8-16.2
				c0.7-1.5,1.3-3.1,2.6-4.4c0.8-0.8,1.4-1.8,1.8-2.9c2.2-5.5,5.4-10.4,8.4-15.4c4-6.8,7.8-13.6,11-20.9c1.3-3.1,3.8-5.3,6.5-7.2
				c1.2-0.9,2.6-1,4.1-0.5c4.2,1.4,8.1,3.5,12,5.7c1.6,0.9,2.1,2.2,1.6,4c-0.3,1-0.7,1.9-1.1,2.8c-1.5,2.8-3.2,5.4-4.5,8.3
				c-2.1,4.6-4.6,8.8-7.5,12.9c-1.2,1.8-2.3,3.6-3.1,5.6c-2.4,6.1-5.8,11.8-9.4,17.3c-0.8,1.3-1.7,2.7-2.2,4.1
				c-2.1,5.4-5.2,10.1-8.2,15c-2.2,3.5-3.8,7.4-5.7,11.1c-0.3,0.6-0.3,1.4-0.5,2.1c-3.3,3.6-5.8,7.8-7.7,12.2
				c-0.6,1.3-1.3,2.6-2.1,3.7c-1.5,2.3-3.5,3.1-5.9,2c-4-1.8-8-3.8-11.8-6c-1.9-1-2.6-3-2.3-5.2C29.8,342.6,30.1,341.5,30.4,340.4
				L30.4,340.4z"/>
		</g>
		<g>
			<path d="M103.8,316.9c0.1-0.6,0.2-1.3,0.2-1.9c0-6.2-5-11.2-11.2-11.2s-11.2,5-11.2,11.2c0,0.7,0.1,1.3,0.2,1.9
				c0.6,5,2.8,18.5,11.1,26.7C100.9,335.4,103.2,321.9,103.8,316.9z"/>
			<circle class="st1" cx="92.7" cy="314.5" r="6.6"/>
		</g>
	</g>
</g>
<g id="Layer_6">
	<g>
		<g id="upper_00000034781571476773127350000009554079671275218877_">
			<path class="st0" d="M117.4,326.6c-1.1,2-2.5,3.8-4,5.6c-2.5,3-4.8,6.1-6.7,9.4c-4.9,8.3-10.8,15.8-16.4,23.6
				c-2.8,3.9-5.7,7.8-8.5,11.8l-4.1-2.5c0.1-0.1,0.1-0.1,0.1-0.2c0.1-0.2,0.1-0.6-0.1-0.8c-0.5-0.5-1.1-0.9-1.7-1.2
				c-5.2-2.8-10.3-5.6-15.5-8.3l-0.1,0l-5.8-3.5c-2.8-1.7-3.7-5.3-2-8.1c0,0,0-0.1,0.1-0.1c0.5-0.8,1.1-1.7,1.6-2.5
				c1.7-3,3.4-5.9,4.5-9.2c0.4-1.2,1-2.3,1.5-3.5c0.9-1.1,1.8-2.2,2.6-3.4c2.4-3.6,4.3-7.4,6.2-11.3c1.5-3.2,3.2-6.4,5.2-9.4
				c2.9-4.6,5.6-9.3,7.6-14.4c0.3-0.8,0.7-1.6,1.2-2.2c1.2-1.3,1.9-2.8,2.6-4.4c1.5-3.5,3.6-4.5,7.2-3.2c2.3,0.8,4.5,1.9,6.6,3
				c1.8,0.9,3.6,1.8,5.4,2.6c0.3,0.1,0.6,0.3,0.9,0.4c0.8,0.3,1.6,0.6,2.4,0.9l9.2,4c-0.1,0.3-0.2,0.6-0.2,1
				c-0.1,2.1-0.7,4.3,0.6,6.3c0.9,1.5,1.6,3,2,4.7C121.2,316.8,120.1,321.8,117.4,326.6L117.4,326.6z"/>
			<path class="st0" d="M79.5,247.3c-0.2,0.8-0.4,1.6-0.7,2.5c-1,3-2.6,5.7-4.3,8.4c-4.9,8-9.5,16.3-13.6,24.8
				c-2.1,4.3-5.2,8.2-7,12.7c-0.1,0.2-0.3,0.5-0.5,0.7c-4.4,5.1-7,11.1-9.3,17.2c-1.7,3.3-3.5,6.5-5.2,9.8c-0.9,1.6-1.5,3.4-2.8,4.8
				c-2.8,3.3-4.6,7.2-5.7,11.4c-1.2,0.6-1.9,1.7-2.6,2.8c-0.3,0.4-0.6,0.9-0.9,1.3L0,327.2c3.6-6.8,7.1-13.5,10.7-20.3
				c8.1-15.3,16.1-30.7,24.2-46c4.2-7.8,8.4-15.6,12.6-23.4c0.3-0.5,0.8-1,0.8-1.5c0-2.9,2-4.9,2.9-7.4c0.5-0.2,0.6-0.2,1.2-0.4
				l2.8,1.9c0,0,0,0,0,0c0,0.1,0.1,0.2,0.2,0.2c0.1,0.1,0.1,0.1,0.2,0.2c0,0,0.1,0.1,0.1,0.1c0.1,0.1,0.1,0.1,0.2,0.1
				c0.5,0.3,1.1,0.5,1.6,0.8c5.6,2.9,11.2,5.8,16.8,8.7c1.1,0.6,2.2,1.2,3.3,1.9C79.2,243.6,79.9,245.2,79.5,247.3L79.5,247.3z"/>
			<path class="st0" d="M192.5,13.2c-4.9-1.6-9.8-3-14.8-4.4c-0.7-0.2-1.4,0.1-1.8,0.8c-0.2,0.4-0.2,0.8-0.4,1.2
				c-1,2.3-2.2,2.8-4.3,1.8c-3-1.5-4.5-3.7-4.4-7.2c0.1-4.1-2.3-6-6.3-5.4c-0.7,0.1-1.4,0.4-2,0.6c-3.1,1.1-5.4,3.2-7.1,6
				c-2.8,4.7-5.1,9.6-5.2,15.2c-0.1,4-1.1,7.9-2.6,11.7c-3.2,8-7,15.7-11.5,23c-4.3,7-8.9,13.6-13.9,20.1c-4.9,6.4-7.2,13.6-7,21.6
				c0,1.3-0.1,2.6,0.9,3.7c0.7,0.8,0.6,1.8,0.4,2.8c-1.9,7.9-4.1,15.8-7.8,23.1c-0.8,1.7-1.7,3.3-1.5,5.3c0.1,1.2-0.6,2.2-1.1,3.2
				c-4.2,8.8-8.3,17.6-11.7,26.7c-0.5,1.3-1.2,2.6-1.9,3.8c-4,6.5-8.1,12.8-12.4,19.1c-4.4,6.3-8.6,12.8-11.9,19.9
				c-0.4,0.8-0.8,1.5-1.2,2.2c-3.4,4.8-6.3,9.9-9,15.2c-0.6,1.2-0.3,2.7,0.9,3.5l3.6,2.5c0.2,0.1,0.5,0.1,0.7,0.2
				c0.1,0,0.2,0.1,0.2,0.1c0.2,0.1,0.5,0.2,0.7,0.3c0.2,0.1,0.4,0.1,0.6,0.2c0.4,0.1,0.7,0.3,1.1,0.5c2.6,1.3,5.1,2.7,7.6,4
				c2.5,1.4,5,2.7,7.7,3.8c2.2,0.9,3.7-0.3,4-2.4c0.4-2.4,0.6-4.8,1-7.2c0.1-0.6,0.3-1.2,1-1.2c0.7,0,0.8,0.7,1,1.2
				c0.8,1.9,0.7,3.9,0.2,5.9c-0.2,1-0.6,1.9-0.9,2.9c-0.8,2.2-0.2,4,1.6,5.3c1.5,1.1,3.1,2.1,4.8,2.9c3.9,1.8,7.9,3.4,11.8,5.1
				c1.6,0.7,2.7,0.4,3.8-1c1.6-2.2,2.9-4.6,4.4-6.9c1.3-2.2,2.7-4.4,4-6.6c0.3-0.5,0.6-1,1.3-1.1c0.7,0.6,0.3,1.2,0.1,1.8
				c-2,6.9-5.2,13.3-8.7,19.6c-3.5,6.4-7.3,12.6-11.7,18.5c-0.5,0.7-1,1.4-1.4,2.1c-2.4,4.7-0.9,7.3,2.6,9.4
				c0.8,0.5,1.8,0.9,2.7,1.3c4.9,2,9.5,4.6,14,7.4l6.1,2.5c0.4-0.3,0.7-0.6,1.1-0.8c2.8-2.2,5.6-4.5,8-7.1c1.7-1.8,3.3-3.7,4-6
				c0.8-2.6,2.1-4.9,3.2-7.4c1.8-4.1,4.6-7.3,8.4-9.8c2-1.3,3.9-2.9,5.8-4.5c0.9-0.8,2.1-1.4,2.3-2.7c0.7-4.8,2.3-9.5,1.7-14.4
				c-0.4-0.2-0.6-0.6-0.6-1.1c-0.1-4.4-1.7-8.4-4.2-12c-0.7-1.1-1.4-2.1-2.2-3.2c-3-4.1-4.9-8.7-5.8-13.7c-1.1-6-0.9-11.9-0.4-18
				c0.5-5.3,1.1-10.6,1-15.8c-0.1-7.1-0.8-14.3-1.9-21.4c-1.1-7.7-1.7-15.4-1.5-23.1c0.1-3.9,0.9-7.6,2.6-11.2
				c1.6-3.4,3.2-6.7,4.6-10.2c3.4-8.7,7.3-17.1,11.5-25.4c4.9-9.7,9.9-19.4,14.7-29.1c1.3-2.6,2.8-5,5.1-6.8c1.6-1.2,2.9-2.7,4-4.4
				c3.9-6.5,7.8-13,11.7-19.5c1.1-1.7,1.9-3.5,1.9-5.6c0.1-2.7,0.2-5.4,0.7-8.1C194.7,14.7,194.3,13.8,192.5,13.2L192.5,13.2z"/>
			<path class="st0" d="M30.4,340.4c2.1-1.4,3.3-3.4,4.4-5.6c1.5-3.2,3-6.3,5-9.3c2.1-3.2,3.5-6.7,5.3-10.1c3.7-5,6.2-10.6,8.8-16.2
				c0.7-1.5,1.3-3.1,2.6-4.4c0.8-0.8,1.4-1.8,1.8-2.9c2.2-5.5,5.4-10.4,8.4-15.4c4-6.8,7.8-13.6,11-20.9c1.3-3.1,3.8-5.3,6.5-7.2
				c1.2-0.9,2.6-1,4.1-0.5c4.2,1.4,8.1,3.5,12,5.7c1.6,0.9,2.1,2.2,1.6,4c-0.3,1-0.7,1.9-1.1,2.8c-1.5,2.8-3.2,5.4-4.5,8.3
				c-2.1,4.6-4.6,8.8-7.5,12.9c-1.2,1.8-2.3,3.6-3.1,5.6c-2.4,6.1-5.8,11.8-9.4,17.3c-0.8,1.3-1.7,2.7-2.2,4.1
				c-2.1,5.4-5.2,10.1-8.2,15c-2.2,3.5-3.8,7.4-5.7,11.1c-0.3,0.6-0.3,1.4-0.5,2.1c-3.3,3.6-5.8,7.8-7.7,12.2
				c-0.6,1.3-1.3,2.6-2.1,3.7c-1.5,2.3-3.5,3.1-5.9,2c-4-1.8-8-3.8-11.8-6c-1.9-1-2.6-3-2.3-5.2C29.8,342.6,30.1,341.5,30.4,340.4
				L30.4,340.4z"/>
		</g>
		<g>
			<path d="M97.1,287.4c0.1-0.6,0.2-1.3,0.2-1.9c0-6.2-5-11.2-11.2-11.2s-11.2,5-11.2,11.2c0,0.7,0.1,1.3,0.2,1.9
				c0.6,5,2.8,18.5,11.1,26.7C94.3,305.9,96.6,292.4,97.1,287.4z"/>
			<circle class="st1" cx="86.1" cy="285" r="6.6"/>
		</g>
	</g>
</g>
<g id="Layer_3">
	<g>
		<g id="upper">
			<path class="st0" d="M117.4,326.6c-1.1,2-2.5,3.8-4,5.6c-2.5,3-4.8,6.1-6.7,9.4c-4.9,8.3-10.8,15.8-16.4,23.6
				c-2.8,3.9-5.7,7.8-8.5,11.8l-4.1-2.5c0.1-0.1,0.1-0.1,0.1-0.2c0.1-0.2,0.1-0.6-0.1-0.8c-0.5-0.5-1.1-0.9-1.7-1.2
				c-5.2-2.8-10.3-5.6-15.5-8.3l-0.1,0l-5.8-3.5c-2.8-1.7-3.7-5.3-2-8.1c0,0,0-0.1,0.1-0.1c0.5-0.8,1.1-1.7,1.6-2.5
				c1.7-3,3.4-5.9,4.5-9.2c0.4-1.2,1-2.3,1.5-3.5c0.9-1.1,1.8-2.2,2.6-3.4c2.4-3.6,4.3-7.4,6.2-11.3c1.5-3.2,3.2-6.4,5.2-9.4
				c2.9-4.6,5.6-9.3,7.6-14.4c0.3-0.8,0.7-1.6,1.2-2.2c1.2-1.3,1.9-2.8,2.6-4.4c1.5-3.5,3.6-4.5,7.2-3.2c2.3,0.8,4.5,1.9,6.6,3
				c1.8,0.9,3.6,1.8,5.4,2.6c0.3,0.1,0.6,0.3,0.9,0.4c0.8,0.3,1.6,0.6,2.4,0.9l9.2,4c-0.1,0.3-0.2,0.6-0.2,1
				c-0.1,2.1-0.7,4.3,0.6,6.3c0.9,1.5,1.6,3,2,4.7C121.2,316.8,120.1,321.8,117.4,326.6L117.4,326.6z"/>
			<path class="st0" d="M79.5,247.3c-0.2,0.8-0.4,1.6-0.7,2.5c-1,3-2.6,5.7-4.3,8.4c-4.9,8-9.5,16.3-13.6,24.8
				c-2.1,4.3-5.2,8.2-7,12.7c-0.1,0.2-0.3,0.5-0.5,0.7c-4.4,5.1-7,11.1-9.3,17.2c-1.7,3.3-3.5,6.5-5.2,9.8c-0.9,1.6-1.5,3.4-2.8,4.8
				c-2.8,3.3-4.6,7.2-5.7,11.4c-1.2,0.6-1.9,1.7-2.6,2.8c-0.3,0.4-0.6,0.9-0.9,1.3L0,327.2c3.6-6.8,7.1-13.5,10.7-20.3
				c8.1-15.3,16.1-30.7,24.2-46c4.2-7.8,8.4-15.6,12.6-23.4c0.3-0.5,0.8-1,0.8-1.5c0-2.9,2-4.9,2.9-7.4c0.5-0.2,0.6-0.2,1.2-0.4
				l2.8,1.9c0,0,0,0,0,0c0,0.1,0.1,0.2,0.2,0.2c0.1,0.1,0.1,0.1,0.2,0.2c0,0,0.1,0.1,0.1,0.1c0.1,0.1,0.1,0.1,0.2,0.1
				c0.5,0.3,1.1,0.5,1.6,0.8c5.6,2.9,11.2,5.8,16.8,8.7c1.1,0.6,2.2,1.2,3.3,1.9C79.2,243.6,79.9,245.2,79.5,247.3L79.5,247.3z"/>
			<path class="st0" d="M192.5,13.2c-4.9-1.6-9.8-3-14.8-4.4c-0.7-0.2-1.4,0.1-1.8,0.8c-0.2,0.4-0.2,0.8-0.4,1.2
				c-1,2.3-2.2,2.8-4.3,1.8c-3-1.5-4.5-3.7-4.4-7.2c0.1-4.1-2.3-6-6.3-5.4c-0.7,0.1-1.4,0.4-2,0.6c-3.1,1.1-5.4,3.2-7.1,6
				c-2.8,4.7-5.1,9.6-5.2,15.2c-0.1,4-1.1,7.9-2.6,11.7c-3.2,8-7,15.7-11.5,23c-4.3,7-8.9,13.6-13.9,20.1c-4.9,6.4-7.2,13.6-7,21.6
				c0,1.3-0.1,2.6,0.9,3.7c0.7,0.8,0.6,1.8,0.4,2.8c-1.9,7.9-4.1,15.8-7.8,23.1c-0.8,1.7-1.7,3.3-1.5,5.3c0.1,1.2-0.6,2.2-1.1,3.2
				c-4.2,8.8-8.3,17.6-11.7,26.7c-0.5,1.3-1.2,2.6-1.9,3.8c-4,6.5-8.1,12.8-12.4,19.1c-4.4,6.3-8.6,12.8-11.9,19.9
				c-0.4,0.8-0.8,1.5-1.2,2.2c-3.4,4.8-6.3,9.9-9,15.2c-0.6,1.2-0.3,2.7,0.9,3.5l3.6,2.5c0.2,0.1,0.5,0.1,0.7,0.2
				c0.1,0,0.2,0.1,0.2,0.1c0.2,0.1,0.5,0.2,0.7,0.3c0.2,0.1,0.4,0.1,0.6,0.2c0.4,0.1,0.7,0.3,1.1,0.5c2.6,1.3,5.1,2.7,7.6,4
				c2.5,1.4,5,2.7,7.7,3.8c2.2,0.9,3.7-0.3,4-2.4c0.4-2.4,0.6-4.8,1-7.2c0.1-0.6,0.3-1.2,1-1.2c0.7,0,0.8,0.7,1,1.2
				c0.8,1.9,0.7,3.9,0.2,5.9c-0.2,1-0.6,1.9-0.9,2.9c-0.8,2.2-0.2,4,1.6,5.3c1.5,1.1,3.1,2.1,4.8,2.9c3.9,1.8,7.9,3.4,11.8,5.1
				c1.6,0.7,2.7,0.4,3.8-1c1.6-2.2,2.9-4.6,4.4-6.9c1.3-2.2,2.7-4.4,4-6.6c0.3-0.5,0.6-1,1.3-1.1c0.7,0.6,0.3,1.2,0.1,1.8
				c-2,6.9-5.2,13.3-8.7,19.6c-3.5,6.4-7.3,12.6-11.7,18.5c-0.5,0.7-1,1.4-1.4,2.1c-2.4,4.7-0.9,7.3,2.6,9.4
				c0.8,0.5,1.8,0.9,2.7,1.3c4.9,2,9.5,4.6,14,7.4l6.1,2.5c0.4-0.3,0.7-0.6,1.1-0.8c2.8-2.2,5.6-4.5,8-7.1c1.7-1.8,3.3-3.7,4-6
				c0.8-2.6,2.1-4.9,3.2-7.4c1.8-4.1,4.6-7.3,8.4-9.8c2-1.3,3.9-2.9,5.8-4.5c0.9-0.8,2.1-1.4,2.3-2.7c0.7-4.8,2.3-9.5,1.7-14.4
				c-0.4-0.2-0.6-0.6-0.6-1.1c-0.1-4.4-1.7-8.4-4.2-12c-0.7-1.1-1.4-2.1-2.2-3.2c-3-4.1-4.9-8.7-5.8-13.7c-1.1-6-0.9-11.9-0.4-18
				c0.5-5.3,1.1-10.6,1-15.8c-0.1-7.1-0.8-14.3-1.9-21.4c-1.1-7.7-1.7-15.4-1.5-23.1c0.1-3.9,0.9-7.6,2.6-11.2
				c1.6-3.4,3.2-6.7,4.6-10.2c3.4-8.7,7.3-17.1,11.5-25.4c4.9-9.7,9.9-19.4,14.7-29.1c1.3-2.6,2.8-5,5.1-6.8c1.6-1.2,2.9-2.7,4-4.4
				c3.9-6.5,7.8-13,11.7-19.5c1.1-1.7,1.9-3.5,1.9-5.6c0.1-2.7,0.2-5.4,0.7-8.1C194.7,14.7,194.3,13.8,192.5,13.2L192.5,13.2z"/>
			<path class="st0" d="M30.4,340.4c2.1-1.4,3.3-3.4,4.4-5.6c1.5-3.2,3-6.3,5-9.3c2.1-3.2,3.5-6.7,5.3-10.1c3.7-5,6.2-10.6,8.8-16.2
				c0.7-1.5,1.3-3.1,2.6-4.4c0.8-0.8,1.4-1.8,1.8-2.9c2.2-5.5,5.4-10.4,8.4-15.4c4-6.8,7.8-13.6,11-20.9c1.3-3.1,3.8-5.3,6.5-7.2
				c1.2-0.9,2.6-1,4.1-0.5c4.2,1.4,8.1,3.5,12,5.7c1.6,0.9,2.1,2.2,1.6,4c-0.3,1-0.7,1.9-1.1,2.8c-1.5,2.8-3.2,5.4-4.5,8.3
				c-2.1,4.6-4.6,8.8-7.5,12.9c-1.2,1.8-2.3,3.6-3.1,5.6c-2.4,6.1-5.8,11.8-9.4,17.3c-0.8,1.3-1.7,2.7-2.2,4.1
				c-2.1,5.4-5.2,10.1-8.2,15c-2.2,3.5-3.8,7.4-5.7,11.1c-0.3,0.6-0.3,1.4-0.5,2.1c-3.3,3.6-5.8,7.8-7.7,12.2
				c-0.6,1.3-1.3,2.6-2.1,3.7c-1.5,2.3-3.5,3.1-5.9,2c-4-1.8-8-3.8-11.8-6c-1.9-1-2.6-3-2.3-5.2C29.8,342.6,30.1,341.5,30.4,340.4
				L30.4,340.4z"/>
		</g>
		<g>
			<path d="M135.1,250.1c0.1-0.6,0.2-1.3,0.2-1.9c0-6.2-5-11.2-11.2-11.2c-6.2,0-11.2,5-11.2,11.2c0,0.7,0.1,1.3,0.2,1.9
				c0.6,5,2.8,18.5,11.1,26.7C132.3,268.5,134.6,255.1,135.1,250.1z"/>
			<circle class="st1" cx="124.1" cy="247.6" r="6.6"/>
		</g>
	</g>
</g>
</svg>
