<?xml version="1.0" encoding="UTF-8"?><svg id="Layer_2" xmlns="http://www.w3.org/2000/svg" viewBox="0 0 510.14 530.46"><defs><style>.cls-1{fill:#fff;}.cls-2{fill:#6cd1f1;}</style></defs><g id="Layer_4"><g id="brooklyn"><path class="cls-2" d="m379.91,428.2c.19,1.47.63,2.84,1.53,4.04-.22.74.15,1.26.63,1.75l.02.06c-.24.78.07,1.35.67,1.82.06.25.12.5.18.74-.24.78.06,1.37.68,1.84.06.25.12.5.18.74-.24.78.06,1.37.68,1.84.06.25.12.5.18.74-.24.78.06,1.37.68,1.84.06.25.12.5.18.74-.25.79.09,1.36.69,1.82.07.24.12.49.14.75-.27.8-.01,1.4.68,1.84.1.24.17.48.18.74-.27.8-.01,1.4.68,1.84.1.24.17.48.18.74-.27.8-.01,1.4.68,1.84.1.24.17.48.18.74-.27.8-.01,1.4.68,1.84.1.24.17.48.18.74-.27.8,0,1.39.69,1.83.11.23.17.47.19.73-.28.8.03,1.38.68,1.85.1.23.16.48.18.73-.28.8.03,1.39.68,1.85.1.23.16.48.18.73-.28.8.03,1.39.68,1.85.1.23.16.48.18.73-.29.81.05,1.38.69,1.84,1.66,4.84,3.38,9.67,4.97,14.54.71,2.16,1.26,4.37,1.27,6.69,0,2.83-1.16,4.92-3.54,6.38-1.84,1.13-3.85,1.81-5.9,2.43-1.13-.23-2.13,0-2.97.83-1.03.28-2.06.57-3.1.85-1.12-.2-2.16-.11-2.96.82-.14.03-.28.06-.43.08-1.13-.23-2.15-.05-2.97.82-1.03.29-2.06.57-3.09.86-1.12-.2-2.15-.1-2.95.83l-.42.08c-1.09-.23-2.04-.02-2.81.83h.05c-1.03-.2-1.98-.14-2.67.8h.05c-1.08-.16-2.09-.1-2.83.85-1.01.31-2.01.62-3.02.92-2.89.16-5.78.31-8.66-.09h.04c-.31-.77-.93-.96-1.68-.91-.09-.58-.48-.79-1.01-.81-3.19-2.52-6.38-5.04-9.56-7.56-.17-.61-.46-1.07-1.2-1-.16-.06-.27-.17-.34-.33.1-.49-.11-.62-.56-.5l-.26-.25c-.14-.36-.24-.74-.41-1.09-.46-.91-.04-1.17.81-1.15.4,0,.79-.05,1.19-.07,1.57.44,2.57,1.69,3.79,2.64,1.22.96,2.5,1.84,3.77,2.72,1.11.77,2.33.97,3.64.57.73.2,1.09-.24,1.39-.79l.26-.26.33-.14-.06-.34c.64-.64.67-1.46.65-2.27-.04-1.49-.12-2.98-.19-4.47.38-.81.13-1.43-.55-1.93l-.02-.08c.24-1.02,0-1.87-.89-2.47-2.16-4.26-4.32-8.53-6.48-12.79-1.65-1.46-2.36-1.49-4.71-.18,0,0-.16.05-.15.05-.73-.11-1.37-.01-1.74.72-.21,0-.41.04-.6.12-.81-.13-1.52-.02-1.94.79h.04c-.6.05-1.19.1-1.79.15-.81,0-1.61-.02-2.42-.03-.77-.62-1.53-1.23-2.3-1.85-1.37-1.06-1.79-1.04-2.94.11l-.05.05c-.6.13-.74.54-.7,1.09.04.5.04,1,.05,1.51-1.65,1.36-3.45,2.48-5.4,3.38-1.57.72-3.07,1.57-4.5-.41-.53-.74-1.58-.52-2.33.01-.57.4-1.06.93-1.59,1.4-1.19.64-1.22,1.69-.85,2.76.31.88.79,1.7,1.71,2.12l.09.11c-.06.52.23.78.69.91.75,1.61,1.49,3.23,2.26,4.84.31.65.42,1.29.22,1.99-4.93.52-9.83-.01-14.72-.47-1.39-.13-2.75-.64-4.18-.4-2.09-.62-4.14-1.36-6.02-2.5-.24-.47-.44-.98-1.02-1.15-.22-.46-.45-.93-.67-1.39-.2-.59-.64-.89-1.24-.9-1.25-.01-2.5,0-3.75.02l-.03-.06c-3.76-1.32-7.73-1.28-11.61-1.79-1.76-.23-1.84,0-2.3,2.58-2.05,3-5.28,4.12-8.48,5.29-1.73-.03-3.46-.06-5.19-.09-2.84-.57-5.69-1.28-8.55-.1-.64.2-1.45.09-1.72.96-1.59,1.4-1.13,2.89-.19,4.4.18.68.62.92,1.29.75.43.01.86.03,1.29.04,2.21.32,4.37.22,6.4-.81.24-.03.49-.04.73-.04,2.51.27,5.03-.6,7.54.02.32.31.65.61.97.92-.11.46-.04.83.51.92.41,3.09.5,6.18-.2,9.24-.48.05-.52.34-.39.72l-.15.17c-.73-.11-1.08.37-1.41.89l-.05.04c-1.54-.18-3,.1-4.37.84h.06c-1.78-.3-3.54-.08-5.31.15-1.44-.13-2.85-.09-4.17.61-1.58.1-3.16.2-4.74.3-3.69-.21-7.29.52-10.91,1.05-.25.04-.48.29-.72.44h.05c-1.55-.2-3.07-.28-4.36.84h.05c-1.27-.13-2.54-.26-3.49.86h.05c-.93-.23-1.8.03-2.66.32-2.26-.03-4.53-.06-6.79-.09l-.38-.04c0-1.15,0-2.3.02-3.45.31-.44.24-.84-.16-1.19.02-2.52.17-5.04-.44-7.52.14-.88.07-1.75-.29-2.58.21-.46.07-.83-.31-1.14-.39-4.32-2.69-7.07-6.83-8.3-.41-.12-.81-.26-1.22-.4-3.09-1.08-4.96-3.25-5.66-6.42-.18-.83-.24-1.69-.36-2.54.25-.44.22-.82-.19-1.15-.42-2.19-.77-4.4-1.28-6.57-.44-1.87-1.42-3.34-3.53-3.68-1.44-1.02-2.86-.73-4.27.06-.23.04-.46.07-.7.09-1.65-.24-3.25-.16-4.71.78-.16.01-.32.03-.48.06-1.38-.26-2.67-.09-3.81.81-1.36.32-2.72.63-4.08.95-2.29,0-4.57,0-6.86-.01-2.15-.67-3.81-2.2-5.96-3.7-.09,2.4-.27,4.32.94,6.05.46.8,1.19,1.09,2.07,1.12,1.68.06,3.3-.16,4.83-.92.15,0,.3-.02.44-.06,1.63.36,3.07-.33,4.55-.82h-.06c1.89.32,3.64-.22,5.38-.84.15,0,.3-.01.45-.04,2.21.32,4.31-.27,6.41-.82,1.27,0,2.54-.04,3.81.03,1.89.11,3.13,1.11,3.74,2.91.59,1.76.74,3.57.86,5.41.16,2.67-.26,5.36.42,8-.23.66.05,1.18.48,1.65.25,1.49,1.3,2.22,2.59,2.73.64.65,1.45.73,2.31.71,1.52-.05,3.05-.07,4.57-.11,1.77.49,2.64,1.91,3.29,3.44.48,1.13.73,2.35,1.08,3.53-.28,1.03.26,1.82.76,2.62.51,1.46.74,2.96.75,4.52,0,2.24.12,4.47.18,6.7l-.06.16c-.84.19-1.68.39-2.52.58-2.38-.07-4.78-.2-7,.93h.06c-2.37-.21-4.72-.22-6.93.86h.06c-2.37-.21-4.72-.22-6.93.86h.06c-2.37-.2-4.73-.26-6.94.86h.06c-1.8-.08-3.67-.58-5.23.84l.04-.02c-.81-.17-1.33.25-1.77.85h.06c-2.16-.22-4.27,0-6.3.82-2.69.36-5.38.72-8.06,1.09-1.05-.16-2.03,0-2.86.7h.05c-2.09-.2-4.16-.2-6.06.89h.06c-2.1-.25-4.15-.12-6.06.89h.06c-1.82-.2-3.61-.26-5.23.82h.05c-1.32.01-2.65,0-3.97.05-.56.02-.98.35-1.23.86l.04-.03c-.77-.1-1.31.3-1.78.84h.05c-.7,0-1.44-.14-2.11,0-4.91,1.02-9.88.89-14.84.89-5.81,0-11.62-.02-17.43-.03h.05c-1.29-.96-2.77-1.05-4.29-.93h.04c-.63-.96-1.59-.98-2.58-.9h.02c-.36-.84-1.08-.92-1.86-.86-2.22-1.39-4.43-2.78-6.65-4.18-.47-.28-.92-.72-1.43-.8-2.2-.38-4.41-.65-6.62-.96-1.87-.97-3.3-2.37-4.11-4.35.16-.7.12-1.32-.63-1.68-.2-1.27-.39-2.54-.59-3.8-.59-3.78,1.03-6.35,4.37-7.95,2.57-1.23,5.16-2.41,7.75-3.61,1.34.24,2.49-.32,3.63-.89l.05-.09c2.53,0,5.06,0,7.59-.01l.06.09c1.48.47,2.92,1.14,4.54.82,2.45.59,4.91,1.17,7.36,1.76,1.18.67,2.39,1.21,3.8.83.15.02.31.04.47.06,1.76.81,3.58,1.19,5.51.85.15.02.3.04.45.04,1.4.83,2.95.88,4.51.96,2.49.49,5.01.6,7.53.56.71-.01,1.4-.06,1.86-.72.66-2.54-.4-4.39-2.41-5.83-1.38-.99-2.86-1.84-4.19-2.88-1.36-1.06-1.46-1.51-.64-3.25.61-1.29.93-2.37-.39-3.36-1.67-1.32-2.02-1.34-3.71-.2-.2.07-.4.14-.6.2-3.42.46-6.82-.17-10.24-.09-1.89-.44-3.47-1.47-4.42-3.09-.79-1.35-1.89-2.3-3.05-3.16.55-1.62,1.85-2.33,2.87-3.29,1.05.07,2.06.02,2.69-1.02.85-.66,1.69-1.32,2.67-2.09-.62-.4-1.19-.77-1.75-1.15-.22-.47-.43-.94-1.04-1.03-.81-1.27-.69-2.65-.44-4.04.71-.42.85-1.04.65-1.79,1.1-2.26,1.88-4.67,3.53-6.65.95-1.14.68-2.03-.92-2.44-1.58-.39-2.31-1.15-2.73-2.67-.45-1.59-1.78-2.45-3.36-2.87-1.53-.9-3.19-1.03-4.91-.88h-.14c-.68-.79-1.54-1.11-2.57-.95,0,0,.05.01.04.01-.33-.77-.96-.97-1.73-.9l.03.02c-.17-.59-.58-.8-1.17-.73-3.01-1.91-5.6-4.34-8.16-6.79-2.78-2.65-5.64-5.19-8.84-7.32-3.68-2.46-7.6-4.39-11.85-5.66-1.07-.9-2.28-1.19-3.64-.89h.06c-1.28-1-2.79-.96-4.29-.95l-.05-.08c-.06-.54-.12-1.08-.19-1.63,1.64-1.72,3.29-3.43,4.91-5.16.74-.78,1.99-1.11,2.16-2.41l.08-.03c.94-.83,1.1-1.78.4-2.84-.15-1.12-.35-2.24-.44-3.36-.1-1.33.3-2.48,1.34-3.41,4.7-4.2,8.12-9.4,11.4-14.71,1.24-.59,1.77-1.83,2.51-2.85.29-.41.81-1,0-1.36-.27-.12-.84.17-1.13.43-1,.87-1.51,2.05-1.96,3.27-4.21,4.06-8.1,8.38-10.95,13.53-.58,1.06-1.37,1.73-2.35,2.34-1.18.73-1.71,1.87-1.59,3.27.06.71.17,1.41.25,2.12-.28.76-.09,1.4.5,1.94-.02.81-.05,1.63-.07,2.44-1.54,1.2-2.76,2.76-4.55,3.72-1.11.59-1.97,1.67-1.24,3.17-1.1.01-2.2.03-3.3.04-1.52-.17-2.89-1.07-4.47-.92-1.78-1.18-3.81-.7-5.74-.85-2.34-.41-4.65-1.13-7.07-.89h.05c-.72-.81-1.62-1.03-2.65-.81h.06c-.69-.74-1.52-1.15-2.57-.96h.05c-.36-.8-1.05-.97-1.85-.89-5.6-3.08-10-7.46-13.62-12.66-4.08-5.86-7.3-12.17-9.8-18.85.2-.53-.02-.86-.49-1.08-.07-.24-.13-.48-.2-.73,0-.3,0-.59.01-.89.01-.48-.18-.81-.66-.94-.11-.24-.17-.49-.18-.76.24-.77.11-1.41-.64-1.83-.11-.26-.17-.52-.17-.8.28-1.02.11-1.92-.74-2.62-.09-.26-.14-.52-.14-.8.26-1,.24-1.94-.65-2.66-.13-.8-.26-1.6-.39-2.4.26-.46.22-.85-.24-1.16-.93-7.34-1.05-14.67.18-21.99.42-.3.44-.67.16-1.08.12-.79.24-1.57.36-2.36.5-.27.61-.65.35-1.15.09-.52.19-1.04.28-1.56.49-.53.84-1.11.56-1.87.12-.51.23-1.03.35-1.54.61-.48.9-1.07.65-1.85.13-.49.26-.99.4-1.48.53-.21.64-.59.47-1.1.07-.24.14-.49.2-.73.63-.44.94-1.01.72-1.79v-.05c.52-.47.96-.98.74-1.75,1.21-2.83,2.42-5.66,3.63-8.49.58-.44.99-.95.77-1.75l.02-.05c.52-.47.95-.97.73-1.75.16-.48.31-.96.46-1.45.54-.19.65-.57.48-1.08l.02-.05c.48-.48.88-1,.67-1.75.11-.25.18-.51.23-.78.64-.74,1.14-1.52.84-2.57.06-.25.12-.5.16-.75.65-.48.88-1.1.61-1.88.1-.51.2-1.03.3-1.54.71-.49.81-1.16.53-1.92.08-.52.17-1.04.25-1.56.56-.44.92-.97.79-1.73.77-1.24,1.86-2.14,3.04-2.97,1.38-.97,2.9-1.63,4.22-2.8,1.46-1.29,3.59-1.7,5.64-.89.93.37,1.84.76,2.89.63.8-.1,1.57-1.19,1.21-1.92-.31-.62-.71-1.24-1.2-1.73-.81-.81-1.8-1.44-2.57-2.27-1.52-1.66-1.87-3.48-.35-5.37,1.42-.04,2.84-.08,4.26-.12l.27.11c.36.57.81.96,1.54.83.99.54,1.97,1.13,2.99,1.6.92.43,1.94.5,2.92.22,1.23-.35,1.96-1.1,1.71-2.49.13-.54-.07-.87-.6-1-.54-1.18-.88-2.41-.94-3.71-.15-2.98,1.22-4.57,4.17-4.77.99-.07,2,.05,2.99-.03,1.37-.11,2.08-1.67,1.42-2.89-.51-.93-1.4-1.39-2.18-2-4.03-3.17-4.22-5.59-.43-8.99,2.03-1.82,3.82-3.78,5.45-5.96,2.89-3.88,6.91-5.86,11.77-5.95,1.85-.04,3.7.11,5.55.18.74.83,1.72.82,2.7.79.62,0,1.02-.34,1.14-.97.7-1.22.13-2.2-.72-3.01-1.02-.97-2.16-1.8-3.2-2.76-.82-.76-.95-1.92-.2-2.65,2.01-1.95,3.74-4.25,6.42-5.41,1.25,0,2.51,0,3.76-.02h-.04c.52.49,1.03,1.03,1.85.96,2.76,2.04,5.85,3.36,9.16,4.24.87.54,1.81.83,2.83.91.75.06,1.42-.06,1.77-.84,1.23-1.13.33-2.71.89-4.11,1.03-.88,2.4.27,3.53-.39,1-.58,1.78-1.36,2.3-2.4,1.33-1.79,1.25-2.22-.61-3.52l-.24-.2c.04-.56-.28-.69-.75-.64-.72-.61-1.44-1.22-2.16-1.82-.82-.68-1.11-1.49-.66-2.5,1.07-.8,2.27-1.08,3.59-.94,2.62.82,4.79.26,6.35-2.12.53-.81.55-1.61-.05-2.37-.96-1.22-2.34-2.15-2.67-3.81.44-.57,1.01-.73,1.75-.81.64-.06.86-.59.1-1.02-.78-1.64-1.52-3.29-2.35-4.9-.3-.59-1.35-.56-1.83-.06-.78.84-1.19,1.86-1.48,2.95-.58,2.16-1.89,3.7-3.98,4.56-.82-.15-1.53,0-2,.76h.05c-1.01-.13-2.01-.23-2.66.8l-.03.09c-.83.09-1.66.17-2.48.26-.08-1.18-.15-2.37-.23-3.55.06-.32.12-.64.18-.95h.11c.11-.06.26-.11.33-.21.2-.28.15-.53-.12-.7.11-1.06.01-2.02-1.19-2.42-1-.34-2-.29-2.8.45-.52.47-1,1.03-1.35,1.64-1.88,3.23-4.79,5.61-7.01,8.56-.41.55-1.09.9-1.64,1.35-1.17-.17-.85-1.18-1.06-1.89.38-1.65.44-3.3.15-4.97.27-.81-.09-1.35-.75-1.77-1.37-2.58-3.64-4.27-5.98-5.86-2.8-1.91-5.59-3.82-8.1-6.09-1.78-1.61-3.51-3.27-4.87-5.26.07-.51-.11-.84-.64-.92l-.08-.13c.1-.73-.12-1.29-.82-1.61-.09-.24-.16-.48-.21-.73.2-.74.16-1.41-.52-1.91v-2.27c.66-.49.73-1.15.52-1.89v-.04c.5-.46.91-.95.77-1.7l.05-.11c.56-.36,1.05-.75.95-1.53,1.34-1.88,2.97-3.49,4.75-4.93,7.92-6.36,15.77-12.81,23.85-18.95,4.59-3.48,8.07-7.64,10.31-12.88.62-1.44,1.17-2.91,1.75-4.37.54-.19.65-.57.48-1.08l.02-.05c.65-.7,1.16-1.46.91-2.49,2.61-6.01,5.21-12.01,7.82-18.02.64-.41.99-.95.77-1.74v-.04c.59-.45,1.02-.96.79-1.76.04-.25.12-.49.24-.71.51-.19.73-.52.56-1.07,1.07-2.17,2.05-4.39,3.22-6.51,1.26-2.27,2.94-4.21,5.34-5.41,1.07.14,1.9-.42,2.77-.91h-.05c2.66.02,5.32.04,7.98.06,3.89.22,7.77.25,11.66,0,1.94.37,3.77.09,5.51-.85,1.29-.32,2.57-.64,3.86-.96.9.25,1.54-.23,2.16-.76,2.5-1.17,5.01-2.35,7.51-3.52.52.11.82-.1.9-.62l.22-.11c.77.16,1.13-.31,1.38-.92,1.11-.88,2.21-1.75,3.32-2.63,1.2.07,2.41.15,3.61.22.55.56,1.05,1.19,1.66,1.65.56.42.95.89,1.13,1.56-.31,1.04.12,1.87.72,2.66.12.8.25,1.61.37,2.41-.32.5-.17.87.32,1.14.22.56.45,1.12.67,1.69-.2.4.02.58.36.69.2.36.39.72.59,1.07l-.03.32.32.12-.03.22.22.05c-.03.45.19.68.64.69.53,1,1.54,1.36,2.44,1.88.83.78,1.77,1.2,2.92.86h2.36c-.12.61.19.87.74.96.99,1.2,1.89,2.48,2.98,3.59,2.44,2.49,4.03,5.41,5,8.74,1.39,4.75,2.87,9.47,4.31,14.2-.02.28-.04.57-.06.85-.18.7-.05,1.33.46,1.87l.29-.09c-.62,3.98-.13,7.95.26,11.91-.25.47-.2.87.25,1.18.54,3.03,1.08,6.06,1.63,9.08-.29.48-.13.85.3,1.14.11.79.23,1.58.34,2.37-.26.75-.2,1.43.45,1.97.26,1.97.53,3.94.77,5.92.2,1.7.39,3.41-.6,4.97-1.74,1.1-3.52-.03-5.28.12l-.42-.09c-.82-.89-1.84-1.03-2.96-.82-1.32-.28-2.64-.57-3.96-.85-1.47-.88-3.06-1.08-4.73-.79-.15,0-.3-.02-.45-.04-2.05-.87-4.19-1.13-6.39-.84-.16,0-.32-.03-.47-.04-1.51-.73-3.08-1.08-4.75-.77-.41-.05-.81-.09-1.22-.14-1.1-.88-2.35-1.03-3.69-.8h.06c-.83-.64-1.73-1.06-2.81-.83-1.09-.16-2.01-1.03-3.2-.79l-.31-.07c-2.38-1.14-4.77-1.49-7.14,0l-.26-.05-.15.22c-.48-.09-.71.16-.78.6l-.06.05c-.89.23-1.41.83-1.65,1.69l-.05.07c-.45.09-.69.33-.65.81l-.15.25c-.82.48-1.61.58-2.17-.36-1.55-2.59-4.03-3.91-6.69-5.02-2.1-.87-4.23-1.67-6.02-3.13-.08-.51-.38-.83-.86-.99-.25-.26-.51-.53-.76-.79l.03-.2-.18.09c-.2-.09-.4-.17-.61-.24-.37-.44-.85-.68-1.43-.68-2.06,0-4.12,0-6.19.02-1.66-.44-2.69-1.64-3.13-3.16-.34-1.19-.23-2.51-.31-3.77.37-.54.7-1.1.47-1.8.38-1.11.43-2.22.02-3.34.18-.51-.09-.75-.53-.9-.67-1.21-1.83-1.66-3.08-1.98-1.89-.48-3.79-.97-5.68-1.46-2.24-1.54-4.65-2.71-7.29-3.36-.57-.14-1.38-.52-1.8.43,1.06,1.72,2.8,2.55,4.57,2.78,1.78.24,3.11,1.26,4.69,1.79.76.69,1.76.81,2.67,1.18,1.28.52,2.7.86,3.47,2.21-.1.49.09.84.54,1.05,0,.51-.02,1.01-.02,1.52-.47.21-.65.57-.5,1.07-.27.66-.59,1.3-.8,1.97-.73,2.31-.13,4.22,1.87,5.6.93.65,1.94,1.17,2.92,1.76.34.43.75.76,1.34.74l.36.13c1.28,1.24,2.89,1.02,4.45.98,1.71-.04,3.4-.53,5.12-.18l.33,1.7c-.2.51,0,.84.46,1.06.33.49.67.99,1,1.48.97,1.26,2.31,1.13,3.66.97,3.22,1.38,6.5,2.66,9.1,5.15,1.52,1.39,1.97,1.38,3.61-.13,1.58-1.21,2.87-2.85,4.94-3.31,1.29,0,2.58-.02,3.86-.03.6.17,1.13.44,1.47.99-.07.44,0,.8.53.89-.09,4.64,1.3,8.88,3.37,12.98,1.2,2.39,2.14,4.92,3.19,7.39,1.53,3.6,2,7.34,1.4,11.21-.6.48-.84,1.08-.66,1.84-.88,2.15-2.31,3.89-3.96,5.48-.73.7-1.35,1.48-1.33,2.57,0,.83-.21,1.99.54,2.33,1.1.51,1.21-.83,1.65-1.46,1.15-1.62,2.25-3.28,3.39-4.91s2.35-3.21,3-5.12c.53-.72,1-1.45.69-2.41.28-1.12.25-2.23-.1-3.33.27-.72-.08-1.26-.5-1.79,0-.28,0-.56,0-.84.02-.96.51-1.62,1.44-1.79.96-.17,1.6.39,1.95,1.24.37.91.66,1.85,1.01,2.76.46,1.2,1.04,2.31,2.24,2.94,1.33,1.28,2.96.97,4.55.84h-.05c.87.49,1.75.99,2.82.82,4.33,1.88,6.2,5.44,6.7,9.9.14,1.25.17,2.52.24,3.78-.3.46-.25.86.2,1.19l.77,4.79c-.31.47-.18.85.26,1.15.03.28.05.57.1.84.59,2.84.27,5.34-2.44,7.07-.43.27-.61.92-.91,1.4-.59.45-.94.99-.69,1.77-.29,1.41-.22,2.81.15,4.19-.24.49-.1.86.33,1.15.12.76.25,1.53.37,2.29.39,2.61.78,5.22,1.16,7.82-.02.83-.04,1.66-.06,2.48-.06.33-.12.65-.18.98-.3.79-.53,1.62-.91,2.37-1.02,1.96-2.74,3.27-4.6,4.31-3.83,2.14-7.73,4.16-11.6,6.23-1.31-.01-2.62-.03-3.93-.04-.83-.67-1.3-1.57-1.6-2.57.19-.75.03-1.39-.6-1.89-.34-2.5-.66-5.01-1.04-7.51-.38-2.51-1.04-4.94-2.51-7.07-.15-1.09-.7-1.72-1.88-1.64-.11-.21-.38-.52-.32-.63.65-1.05.16-1.88-.45-2.71-.94-1.56-2.36-.56-3.56-.67-.81-1.14-1.74-2.1-3.27-2.14-.72-.24-1.44-.49-2.15-.73-.22-1.37-.44-2.74-.66-4.1-.3-.77-.9-1.03-1.67-1.03-1.14,0-2.28-.03-3.41-.05-1.3-.28-2.51-1.35-4.07-.42,2.07,2.63,4.93,4.1,7.75,5.6.86.87,1.91,1.12,3.09.92-.11,1.03.64,1.43,1.37,1.8.97.49,1.96,1.07,3.1.45.22.11.45.21.67.31-.22,1.63,1.13,1.92,2.15,2.47.51.28,1.41-.14,1.52.85-.03.65-.19,1.33.46,1.8l1.56,7.61c-.27.5-.13.87.34,1.15.48,3.34.95,6.68,1.43,10.02-.3.48-.17.86.28,1.17.39,2.53.82,5.06,1.17,7.61.25,1.85-.63,2.98-2.45,3.4-1.65-.23-3.18.16-4.66.84-.16,0-.31.02-.47.04-1.93-.3-3.78,0-5.55.82l-1.23.11c-3.05.04-6.14-.45-9.1.73-1.99.29-3.68,1.14-4.98,2.7-1.24.66-2.5,1.31-3.73,2-.53.3-.88.75-.43,1.35.32.43.81.25,1.14.03,1.3-.84,2.57-1.74,3.84-2.62.5-.03,1-.06,1.5-.1,1.36.3,2.55-.19,3.72-.78h-.05c1.62.33,3.05-.29,4.49-.88.15,0,.3-.02.44-.06,1.67.31,3.19-.31,4.73-.78.15,0,.31,0,.46-.04,3.88-.01,7.76-.02,11.63-.03,2.39.39,3.18,2.08,3.39,4.22-.25.47-.18.86.29,1.14.17,1.13.31,2.27.53,3.39.04.22.36.53.57.56.4.05.8-.05.95-.58.89-3.01.38-5.95-.37-8.89-.5-1.94-1.09-3.85-1.45-5.82-.63-3.34.63-5.91,3.61-7.54,1.75-.96,3.57-1.79,5.39-2.63,5.32-2.45,10.63-4.94,15.53-8.19.77-.51,1.79-.83,2.05-2.02-1.81-1.43-3.14-3.27-4.12-5.38.17-.77-.17-1.32-.76-1.77-.03-.25-.11-.49-.23-.71-.38-1.8-.76-3.6-1.14-5.39-.18-3.58.5-6.88,3.08-9.58.37-.39.56-.95.83-1.43.65-.46,1-1.03.68-1.85.55-4.01-.29-7.93-.83-11.86.24-.76.17-1.43-.52-1.93-.31-1.35-.71-2.7-.91-4.07-.22-1.48-.68-3.04.61-4.33,1.52-.03,3.05-.06,4.57-.09,1.03.29,2.06.57,3.08.86.91.55,1.81,1.11,2.95.83l.42.08c.91.61,1.85,1.11,3,.8,1.31.29,2.63.58,3.94.87,1.77.71,3.58,1.21,5.52.84.16.03.31.04.47.04,2.88.87,5.81,1.19,8.81.83l.06.04c3.31.69,6.66.93,10.04.64,4.36.12,8.71.23,13.07.35,3.68.19,7.35.38,11.03.57,1.49.16,2.98.49,4.48.11h-.05c1.22.33,2.39.91,3.71.79,1.03.31,1.78.99,2.45,1.79.12.59.33,1.15,1.07.97.46-.11.52-.59.51-1.01,0-.28-.09-.55-.14-.83.18-1.51.02-2.85-1.68-3.43-1.02-1.1-2.36-.79-3.61-.81-4.98-.06-9.96-.08-14.94-.11-4.41-.72-8.84-1.05-13.31-.78-.17,0-.33-.02-.5-.03-2.64-.92-5.36-1.06-8.12-.81-.16,0-.32-.02-.48-.03-2.07-.87-4.22-1.07-6.42-.81-.15,0-.31-.02-.46-.03-2.04-.88-4.16-1.13-6.36-.86-.16-.02-.32-.03-.48-.04-1.77-.89-3.65-1.05-5.59-.78-.15,0-.31-.03-.46-.04-1.78-.79-3.62-1.12-5.56-.82-.15,0-.3-.03-.46-.04-1.45-.79-2.99-1.13-4.64-.86-.15-.02-.31-.05-.46-.07-.87-.78-1.89-1-3.02-.76-1.24-.35-2.5-.64-3.71-1.05-5.89-2-11.32-4.81-15.84-9.17-1.55-1.49-3.06-2.93-5.17-3.71-1.62-.61-2.78-2.01-3.72-3.46-.85-1.32-1.56-2.72-2.33-4.09.19-.77-.13-1.34-.72-1.8-.09-.5-.18-1-.27-1.51.23-.48.13-.86-.35-1.12-.36-2.07-.57-4.14.28-6.16.69-.31,1.37-.11,2.07,0,.82.15,1.67.14,2.51.19h-.05c1.4.5,2.77,1.21,4.34.86h-.05c1.4.5,2.77,1.21,4.34.86h-.05c1.47.49,2.89,1.2,4.51.86.15.04.29.06.44.06,1.21.63,2.45,1.12,3.85.8.15.04.29.06.44.06,1.21.63,2.45,1.13,3.86.79.15.03.3.05.45.06,1.21.6,2.44,1.13,3.85.8.15.04.3.06.45.06,1.21.6,2.44,1.13,3.85.8.15.04.3.06.45.06,1.22.59,2.46,1.1,3.86.78,4.17,1.16,8.33,2.33,12.5,3.49,1.39.72,2.88.98,4.43,1.03,1.66.32,3.3.77,5.02.56,3.52.41,7.05.36,10.58.07.32-.03.8-.13.2-.69-.2-.19-.11.45-.48,0-1.39-.97-2.98-1.03-4.59-.96l-.26.11c-.28-.04-.56-.08-.84-.1-1.75-.83-3.57-1.15-5.5-.87-.16-.02-.31-.04-.47-.05-1.4-.92-2.94-1.05-4.54-.82h.06c-1.39-.87-2.9-1.09-4.49-.85-.16-.02-.31-.05-.47-.06-1.14-.92-2.45-1.01-3.82-.8-.15-.03-.31-.05-.46-.07-1.12-.94-2.43-1.02-3.8-.83-2-.38-3.25-1.7-4.19-3.39.14-.74-.04-1.37-.67-1.84-.13-1.06-.27-2.13-.4-3.19.26-.47.2-.87-.27-1.17-.75-4.78-1.5-9.55-2.25-14.33.24-.46.19-.86-.26-1.17-1.03-5.94-2.05-11.87-3.08-17.81.24-.89.21-1.77-.07-2.64.16-1.43.2-2.85-.23-4.25.27-.69-.08-1.22-.46-1.74-.03-.56-.03-1.13-.09-1.69-.29-2.63.8-4.36,3.33-5.16,1.87.19,3.59-.47,5.36-.9h-.05c2.16.39,4.16-.27,6.17-.89,1.32-.27,2.65-.54,3.97-.82,1.16.28,2.12-.15,3.02-.81.35-.09.7-.18,1.05-.27.14.02.34.11.42.05.32-.26.77-.52.87-.86.14-.48-.35-.67-.77-.68-3.27-.04-6.59-.62-9.72.86-.15.01-.3.03-.45.05-1.36-.3-2.58,0-3.7.81h.06c-1.34-.24-2.59-.08-3.69.8-.16.02-.32.04-.48.07-1.91-.23-3.74.03-5.49.84-1.76.13-2.35-.98-2.58-2.46.28-.77.02-1.37-.59-1.87-.54-1.79-1.68-3.19-2.99-4.45-1.71-1.65-3.64-3-5.69-4.2-.34-.73-1.08-.59-1.67-.77-.18-.64-.16-1.38-.87-1.76.02-1.04-.64-1.76-1.2-2.53.09-.63-.25-1.08-.62-1.52.02-1.51.41-3.04-.32-4.5.18-.46-.06-.69-.46-.82l-.02-.04c.11-.7-.31-1.04-.89-1.28.02-.27-.11-.4-.38-.38-.21-.56-.55-.95-1.22-.86-.37-.28-.74-.57-1.11-.85-.44-.63-.89-1.27-1.33-1.9.59-4.48,1.17-8.96,1.76-13.44.5-.27.61-.65.35-1.15.1-.52.19-1.04.29-1.56.49-.53.84-1.11.56-1.87.12-.51.24-1.02.36-1.53.62-.47.9-1.07.66-1.85.07-.25.13-.49.18-.74.61-.45.94-1.01.71-1.79v-.05c.51-.48.94-.98.74-1.75,1.14-2.29,2.24-4.61,3.43-6.88,2.3-4.43,4.74-8.78,6.47-13.48.54-.18.66-.56.51-1.07l.02-.06c.49-.48.89-.99.67-1.74.11-.25.18-.51.23-.78.48-.51.87-1.04.63-1.8.12-.51.24-1.02.36-1.53.61-.5.88-1.1.59-1.88l.26-1.56c.67-.81.96-1.7.58-2.74.45-4.51.63-9.01-.24-13.49.34-.48.17-.83-.27-1.12-.49-2.2-.97-4.41-1.46-6.61.4-.44.33-.83-.14-1.18.05-1.03.11-2.05.16-3.08.41-.36.45-.76.12-1.2.1-1.11.2-2.22.3-3.34.27-.27.54-.54.81-.8,1.95-1.17,3.9-2.34,5.86-3.5,1.08.17,1.92-.37,2.75-.92h-.04c1.3.29,2.4-.32,3.54-.78h-.05,12.11-.05c1.42.49,2.82,1.12,4.39.79h-.05c1.14.4,2.17,1.2,3.48.87h-.05c1.65.97,3.4,1.63,5.31,1.82,3.79,1.69,7.37,3.7,10.19,6.84-.04.52.2.83.7.96.1.22.2.44.31.66-.14.52.11.84.56,1.05.07.24.14.48.2.73-.25.79.13,1.34.71,1.81,2.66,7.04,7.57,11.81,14.56,14.5.87.62,1.74,1.21,2.89.89.14.03.29.06.44.07,1.12.77,2.33,1.16,3.69.78h-.05c1.21.35,2.34,1.07,3.68.85,2.42.83,4.34,2.31,5.8,4.4-.1.76.37,1.19.92,1.57l.04.09c-.17.76.26,1.25.78,1.69l.02.05c-.23.79.18,1.31.77,1.75,1.15,2.58,2.31,5.16,3.46,7.75.11,1.61.59,3.08,1.62,4.34.12.51.24,1.02.36,1.52-.29.77.1,1.32.6,1.84.29.95.56,1.9.89,2.84,1.14,3.28,1.53,6.62.83,10.06-.46.51-.9,1.03-.62,1.8,0,.81-.01,1.62-.02,2.44-.28.76.07,1.3.62,1.76.34,1.22,1.11,2.18,1.9,3.12.98,1.15,1.82,2.38,2.43,3.77-.18.76-.01,1.39.66,1.84.45,2.86.14,5.63-.91,8.33-.13.33-.46.69.02,1.12.6.53,1.03-.03,1.54-.09.14-.01.27-.09.4-.14,1.18-.15,2.14.15,3.02,1.07,1.05,1.1,2.02,2.38,3.58,2.86,2.82,2.35,5.55,4.82,8.48,7.03,4.42,3.32,7.28,7.46,7.67,13.08-.31.47-.15.83.26,1.13.34,2.43,1.5,4.22,3.79,5.33,1.14.55,2.11,1.46,3.11,2.27,2.9,2.33,5.78,4.68,8.67,7.03.09.84.19,1.68.29,2.52-.13.23-.23.48-.29.74-.64.47-.96,1.04-.6,1.84.12.5.24,1.01.36,1.51-.15.41-.04.68.4.79,1.45,1.75,3.52,2.72,5.21,4.17,1.17,1,2.45,1.89,2.72,3.56-.28.51-.12.89.37,1.15.93,3.12,1.87,6.24,2.8,9.35-.18.78.09,1.37.73,1.81,1.78,5.29,4.87,9.87,7.92,14.46-.14.47-.05.84.44,1.04.2.8.19,1.59-.18,2.35-.48.19-.51.53-.34.95-.56,1.34-1.34,2.51-2.53,3.38-1.21,0-2.42.03-3.62.04-1.02-.59-2.04-1.17-3.06-1.76-1.77-1.16-2.1-1.14-3.71.18-.36.44-.71.89-1.07,1.33-2.13,1.5-4.11.96-5.67-.77-1.29-1.42-2.76-2.41-4.49-3.11-1.63-1.95-3.5-3.59-5.92-4.52-.75-.71-1.54-1.29-2.64-.71.58-1.54-.64-2.03-1.57-2.68-1.29-1.47-2.81-2.69-4.64-3.36-.97-.35-1.53-1.15-2.37-1.59-3.23-3.61-6.61-5.81-10.51-6.72.19,1.6.36,3.11.54,4.63-.29.49-.17.88.31,1.17l.5,3.21c-.26.49-.15.87.31,1.16.49,3.02.97,6.04,1.46,9.07-.29.49-.17.88.31,1.17.16,1.07.33,2.14.49,3.21-.25.48-.14.87.31,1.17.13.78.26,1.57.39,2.35-.24,1.18-.19,2.36.04,3.54-.24,1.04-.67,1.97-1.65,2.54-1.91.24-3.81.44-5.74.03-.78-.16-1.64,0-2.46,0-.43-.03-.85-.06-1.28-.09-2.63-1.04-5.35-1.05-8.11-.82-.17,0-.33-.02-.5-.02-3.81-1-7.68-1.08-11.57-.8-1.29-.03-2.58-.06-3.87-.09-.27-.1-.53-.27-.8-.3-7.42-.61-14.86-.61-22.3-.46-.14,0-.27.39-.42.62,1.05.41,2.04,1.03,3.25.79.62.08,1.23.17,1.85.25,2.28.92,4.64,1.18,7.08.84l.07.05c2.16.69,4.37.87,6.62.68,2.41.19,4.81.5,7.23.11.16.02.33.03.49.02,2.97.46,5.92,1.2,8.97.84.15.03.31.04.46.03,1.82.52,3.64,1.11,5.58.8,2.26.32,4.21,1.24,4.66,3.65.61,3.34.91,6.8-.04,10.08-.84,2.92-1.11,5.78-.87,8.77.16,1.96.44,3.94-.21,5.88-.68-.1-.92.39-1.18.87-.89.58-1.78,1.17-2.67,1.75-.51-.05-.81.17-.87.68l-.07.05c-2.8,1.72-5.6,3.44-8.4,5.17l-.14.05c-.74-.1-1.36.05-1.73.77-2.5.97-4.36,2.56-5.17,5.21-.67.49-.84,1.13-.56,1.9-.08,1.71-.22,3.43-.24,5.14-.03,2.43.06,4.86.03,7.3-.03,2.35-.88,4.18-3.39,4.8-2.3-.07-4.58.02-6.8.69-.31.04-.62.08-.92.13-2.85-.35-5.69-.06-8.53.17-1.5-.35-2.95-.23-4.31.55-.49.04-.99.09-1.48.13-1.67-.31-3.26-.05-4.74.78-1.87.31-3.74.62-5.6.92-3.33-.26-6.64-.17-9.88.77-.99.04-1.98.07-2.98.11-3.34-.21-6.68-.31-9.92.74-.73.16-1.46.47-1.48,1.28-.04,1.27.05,2.55.2,3.81.77,6.62,1.58,13.24,2.38,19.86-.28,1.13-.16,2.21.33,3.27.66-.28.67-.91.8-1.44.18-.69.31-1.39-.1-2.06.98-4.77.13-9.48-.38-14.21.24-.47.17-.85-.32-1.12-.33-1.35-.31-2.71-.18-4.08.62-.43.81-1.03.68-1.75.54-1.05,1.41-1.66,2.56-1.89,2.24-.02,4.48-.05,6.72-.07,1.53.11,3.05.28,4.58.3,1.8.02,3.64.08,5.26-.97.72-.28,1.45-.57,2.17-.85,4.14-.16,8.33.23,12.4-.89.16,0,.31,0,.46-.03,2.44.35,4.79-.13,7.11-.83h-.05c1.92.21,3.82.31,5.58-.71,1.52-.05,3.05-.1,4.57-.15,1.92.35,3.78.34,5.39-.99.65-.47,1.37-.87,1.64-1.7.53-.43.89-.91.62-1.64,0-.83.02-1.65.02-2.48.23-.48.18-.9-.24-1.26-.21-2.72-.56-5.44.13-8.14.47-.26.5-.63.25-1.07.67-4.04,3.04-6.99,6.14-9.45,2.64-1.3,5.44-2.34,7.64-4.4.96.18,1.93.37,2.65-.57.61-.88,1.21-1.75,1.82-2.63.83-.3,1.47-.77,1.64-1.7,1.36-1.9,1.98-4.04,1.79-6.35-.37-4.52,0-8.97.96-13.38.56-.36.48-.7-.03-1.02.02-1.09.03-2.18.05-3.26.47-.25.64-.62.42-1.13.41-1.3,1.34-2.04,2.59-2.44,2.39-.19,4.89.45,7.11-.97.86-.53,1.16-1.37,1.27-2.32.57-.47.42-.81-.18-1.09-.13-.52-.26-1.03-.38-1.55-.04-1.47-.08-2.94-.12-4.41.35-1.69.27-3.37-.11-5.04.27-.47.14-.86-.27-1.17l-1.18-9.13c.17-.49.05-.86-.45-1.05-.05-.79-.1-1.58-.15-2.38.45-.15.66-.48.65-.95.73-.88,1.6-.91,2.54-.39.71.39,1.4.82,2.1,1.23,1.27.98,2.74,1.65,3.71,3.06.69,1.01,1.83,1.64,2.97,2.14.93.93,2.2,1.19,3.35,1.68.35.78.83,1.43,1.67,1.73,1.78,1.79,3.64,3.46,6.08,4.32,1.75,2.39,4.56,3.38,6.78,5.14.93,1.1,2.17,1.97,2.7,3.39-.18.76.11,1.34.67,1.82-.02,1.42.05,2.86-.07,4.27-.37,4.29-.13,8.55.49,12.8-.23.47-.16.88.28,1.2l.55,3.89c-.31.76,0,1.37.5,1.92l.25,1.56c-.25.76-.09,1.41.55,1.92.67,2.81,1.34,5.62,2.01,8.44.09,2.17.4,4.3,1.38,6.28.69,3.62,1.38,7.25,2.07,10.87-.25.76-.15,1.42.52,1.93.17,1.03.34,2.06.5,3.09-.3.49-.19.88.28,1.18.22,1.36.24,2.72-.07,4.07-.48.24-.58.62-.37,1.1-.11.46-.22.93-.33,1.39-.83.86-1.66,1.71-2.49,2.57-2.47,1.48-4.1,3.79-5.84,5.98-1.83,2.32-3.67,4.62-6.21,6.23-1.07.04-2.15.08-3.22.11-1.72-.85-2.79-2.37-3.93-3.82-1.68-2.11-3.42-4.17-5.61-5.78-.12-.54-.44-.86-1-.91-1.2-2.36-2.48-4.65-4.95-5.96-3.15-3.76-6.35-7.48-9.45-11.28-1.78-2.18-3.66-4.22-5.94-5.87-.59-3.21-3.04-5-5.29-6.95-.26-.31-.48-.68-.79-.93-.18-.14-.57-.22-.75-.11-.19.11-.32.47-.31.71.02.6.37,1.03.89,1.33,1.47,2.29,3.32,4.22,5.4,5.96,1.69,2.41,4.22,4.15,5.35,7.03.28.71,1.22,1.14,1.81,1.74,1.29,1.3,2.93,2.42,3.75,3.98,1.05,2,2.58,3.28,4.32,4.48.39,2.81,2.35,4.46,4.43,6.02.51.6,1.01,1.19,1.52,1.79.93,2.45,2.91,4.17,4.41,6.22,2.55,3.5,2.58,4.97.01,8.34-1.29,1.69-2.6,3.36-3.9,5.04-.35.23-.74.41-1.04.69-4.36,4.3-8.71,8.6-13.04,12.92-.6.6-1.07,1.31-1.59,1.99-.19.25-.1.51.24.67.1.05.28.05.36,0,.68-.5,1.41-.96,2.01-1.55,4.82-4.83,9.61-9.69,14.42-14.54,2.91-2,5.91-3.88,8.72-6.02,6.1-4.66,11.59-9.95,15.76-16.47.87-.59,1.31-2.02,2.79-1.45,1.27,3.75,3.18,6.94,7.13,8.42,1.67,1.16,3.34,1.01,5-.02l.06-.05c1.09.27,1.9-.27,2.65-.95l1.58-.57c2.01,5.08,2.03,5.11,4.68,6.68-.29-3.45-1.9-5.95-4.42-7.96-.02-.14,0-.29-.06-.41-1.11-2.24-1.53-2.4-3.31-1.26-.93.6-1.85,1.21-2.77,1.82-1.45.08-2.89.43-4.34,0-1.11-1.2-1.48-2.69-1.79-4.24-1.16-5.69-2.36-11.37-3.54-17.06.23-.47.17-.87-.29-1.17-.15-1.12-.24-2.25-.46-3.36-.58-2.89-.89-5.87-2.47-8.48-.09-1.38-1.03-2.33-1.71-3.4.57-2.59.13-5.14-.24-7.7.29-1-.12-1.84-.63-2.65-.32-1.41-.64-2.82-.96-4.23.22-.75.18-1.42-.51-1.93-.72-5.05-1.25-10.12-.98-15.23.42-.32.55-.65.05-1.02.07-1.64.04-3.29.24-4.91.13-1.04.15-2.23,1.22-2.92,1.17.02,2.34.05,3.51.07.21.04.42.08.63.12,1.83,1.37,3.6,1.35,5.32-.21,2.14-1.51,3.26-3.76,4.39-6.03,1.31-2.61,2.3-5.4,4.26-7.65.84.03,1.68.06,2.51.09.63.29,1.26.58,1.89.87,1.65,1.16,3.3,1.19,4.95,0,1.31-.85,2.71-1.6,3.91-2.57,6.76-5.46,13.44-11.01,19.8-16.94,3.33-3.1,6.88-5.98,10.47-8.78,3.15-2.47,6.61-4.45,10.59-5.31,1.73,0,3.45.02,5.18.04,1.62.96,1.97,2.69,2.47,4.27,1.43,4.46,1.81,9.1,2.09,13.75-.29.44-.26.84.15,1.19.29,2.47.58,4.93.87,7.4-.29.47-.13.82.27,1.13.8,4.4,2.22,8.52,5.26,11.94,1.76,2.22,3.51,4.45,5.27,6.67.64,1.45,1.27,2.9,1.91,4.34-.19.75.21,1.27.68,1.77.06.25.1.5.14.75-.24.52-.09.89.43,1.13.14.77.29,1.55.43,2.32-.33.76-.28,1.44.45,1.97.08,1.96.2,3.93.24,5.89.03,1.68-.13,3.38.38,5.02-.22.51.04.8.45,1.03.73,1.47,2.01,2.18,3.52,2.59,1.34.31,2.68.63,4.01.94l1.14,3.33c.05.31.1.61.15.92-.02,1.39-.04,2.77-.05,4.16-.36,1.05.13,1.84.77,2.59v.05c-.26,1.03.24,1.8.85,2.54v.04c-.23.76-.1,1.41.59,1.87.19,1.37.33,2.73-.03,4.1-.71.32-.86.89-.73,1.59l-.09.15c-.53.02-.74.31-.71.82-.29.33-.58.65-.87.98-.5-.04-.82.14-.86.68l-.12.08c-.75-.02-1.23.26-1.24,1.08-.02.51-.05,1.01-.07,1.52-.26.75.17,1.26.62,1.76.6,2.92-.39,4.98-3.26,6.02-.82-.14-1.54-.05-1.99.76h.05c-1.08-.16-2.06-.02-2.77.92-.74.35-1.51.64-2.21,1.06-1.54.9-2.39,2.21-2.15,4.08-.59.5-.19.74.26.97.31.57.63,1.14.94,1.71-.04,1.1-.09,2.19-.13,3.29l.07.14c-1.15,1.76-1.15,1.87.04,3.3,2.6,1.95,5.21,3.89,7.4,6.32,2.63,2.92,4,6.16,2.83,10.13-.78.61-1.11,1.4-.92,2.39l-.05.14c-.5.12-.69.45-.64.95-.15,1.25-.36,2.5.71,3.5.3,2.17.78,4.38-1.45,5.92-.57-.05-.99.13-1.16.72h.03c-1.3-.1-2.48.24-3.54.99-2.35.26-3.73-.95-4.54-3.01-.73-1.84-1.44-3.68-2.16-5.52.13-.51,0-.88-.54-1.03-.13-.49-.27-.99-.4-1.48.17-.53,0-.88-.55-1.01,0,0-.08-.14-.08-.13.15-.25.12-.47-.09-.68-.34-.53-.67-1.07-1.45-.91l-.32-.19c-.2-.81-.76-.86-1.43-.68l-.29-.08c-.25-.45-.5-.9-.75-1.34,1.42-1.51,2.84-3.01,4.26-4.52.8-.33,1.39-.86,1.66-1.7.04-.12.08-.34.02-.38-.2-.13-.5-.34-.65-.27-.74.33-1.54.6-2,1.36-1.99.77-3.71,1.98-5.17,3.5-1.27,1.31-2.49,2.62-4.26,3.27-.34.13-.63.54-.83.89-.11.18-.07.57.06.74.13.19.45.31.7.33,1.32.1,1.89-1.03,2.72-1.74.96-.06,1.93-.42,2.87.09v1.42c-.3.53-.13.9.38,1.17.1.23.18.46.24.7-.11.56.15.87.67.99.18.82.37,1.65.55,2.47-.23.66.1,1.16.5,1.63l.02.12c-.02.11-.09.24-.06.34.05.21.15.41.23.62-.14.78-.28,1.55-.42,2.33-.7.06-1.03.58-1.37,1.08l-.24.1c-.7-.15-1.13.3-1.56.73,0,0-.19.04-.18.04-1.69-.02-3.37-.05-5.06-.07-2.23-1.15-4.46-2.31-6.69-3.46-1.36-1.21-1.74-1.22-3.02-.03-.91.71-1.17,1.6-.55,2.59.67,1.08,1.48,2.07,2.15,3.14,3.29,5.27,6.55,10.55,9.81,15.82-.18.76.11,1.33.73,1.77,0,.54,0,1.07-.01,1.61-.59.33-.94.8-.82,1.52l-.17.19c-.49-.08-.73.11-.65.62,0,0-.27.23-.26.23-.45-.12-.68,0-.59.51-.08.16-.21.28-.38.34-.44-.13-.61.02-.5.47-.08.18-.21.31-.39.39-.44-.13-.59.03-.47.47-.06.16-.17.28-.33.36-.74-.07-1.04.38-1.2,1-.29.25-.58.51-.87.76-.55-.02-.97.16-1.11.75h.02c-2.02.27-4.05.38-6.09.17-2.15-1.29-3.23-3.53-4.78-5.35-.73-.86-1.32-1.87-2.13-2.64-1.28-1.21-3.24-.57-3.71,1.12-.08.27-.18.56-.15.83.34,3.06-1.22,5.41-2.8,7.77-.67.4-1.01.95-.77,1.75-.07.25-.12.5-.16.76-1.55,1.71-.71,3.41.02,5.11-3.62,5.27-7.19,10.57-11.69,15.15-2.3,2.34-4.68,4.57-7.44,6.35-2.54,1.63-4.36,3.51-3.97,6.9.23,1.98-.83,3.54-2.65,4.47-1.69-.02-3.39-.04-5.08-.06-1.92-.13-2.49-1.68-3.2-3.07l-.08-.19c.3.2.55.13.75-.16l2.37-2.93c1.95-1.18,3.37-2.93,4.92-4.54.26-.27.26-.82-.23-1.03-.22-.09-.66-.1-.77.04-1.4,1.74-3.34,3.02-4.41,5.05-1,.76-2,1.53-3,2.29-.46.13-.77.38-.73.91l-.07.09c-.55.06-.77.38-.73.92-.45.33-.87.72-1.35.99-3.35,1.82-4.07,3.59-2.53,7.2.52,1.21.59,2.46.99,3.66-.48.76-.39,1.63-.4,2.47-.06,5.36-.14,10.71-.16,16.07-.01,2.24.07,4.48-.74,6.63-.11.23-.19.46-.25.71-.74.44-.88,1.08-.63,1.86-.1.51-.2,1.02-.29,1.54-.5.26-.63.64-.35,1.14-.62,4.18-1.24,8.36-1.86,12.54-.59.55-1.03,1.17-.84,2.04-.12.26-.1.51.07.75-.44,1.41-.43,2.82-.03,4.24-.2,1.39-1.28,2.15-2.15,3.08-1.27,1.35-2.57,2.67-3.75,4.08-.92,1.11-3.03,3.03-4.21,3.64-.63.32-1.26.68-1.8,1.13-2.02,1.73-3.55,4.07-6.37,4.81-.61.16-.8,1.13-.42,1.87.3.57,1.31.78,1.87.42.12-.08.29-.11.36-.21,1.44-2.05,3.84-2.83,5.7-4.29,3.23-2.53,6.23-5.38,9.24-8.19,1.15-1.07,1.9-2.52,2.22-4.08.27-1.36,1.32-1.27,2.26-1.48,2.16.2,4.22-.29,6.29-.78h-.05c1.41.05,2.82.15,4.23.14,6.38-.04,12.77-.44,19.15-.07.67.42,1.31.87,1.61,1.65-.15.47-.08.85.47.99l.03-.02Zm-297.82-96.44l.09.04c-1.38-1.72-3.14-3.13-4.19-5.12.13-.23.23-.64.4-.67,2.56-.46,3.93-2.06,4.48-4.5,1.56-1.62,3.77-2.67,4.36-5.14.12-.49.6-1.01,1.05-1.3,2.48-1.57,3.22-4.64,5.62-6.35.93-.66,1.27-2.17,1.88-3.3.16-.3.1-.55-.18-.75-1.69,1.11-2.88,2.23-3.57,3.36-.51.85-.82,1.81-1.67,2.45-2.42,1.79-3.39,4.89-5.87,6.65-.32.23-.58.7-.63,1.09-.24,1.61-1.7,2.22-2.57,3.31-1.41.86-1.96,2.32-2.44,3.76-.3.9-.73.94-1.51.76-.66-.16-1.37-.14-2.05-.2l-.04-.1c-.81-.78-1.78-1-2.86-.76-.15-.03-.29-.05-.44-.07-.89-.66-1.85-1.07-3-.79-3.28-.91-6.55-1.81-9.83-2.72-.53-.72-1.25-.93-2.11-.79-2.82-1.18-5.13-2.91-6.72-5.62-1.32-2.26-3.24-3.94-5.84-4.69-2.41-1.59-5.11-.51-7.66-.83-.02.24-.16.58-.05.71.25.3.62.51.95.75,1.04,1.12,2.34,1.72,3.84,1.94,1.23.42,2.43,1,3.78.9.6.6,1.32,1.12,1.76,1.81,2.18,3.39,5.31,5.53,8.99,6.96,1.59.62,3.22,1.15,4.84,1.68,6.66,2.14,13.25,4.42,19.49,7.64.37.54.85.92,1.53,1,1.22,1.05,2.44,2.11,3.65,3.16,2.18,1.81,4.5,3.48,6.5,5.47,2.33,2.32,4.88,4.31,7.64,6.07,2.67,1.7,4.95,3.8,6.48,6.62.24,1.19.03,2.14-.96,3.04-2.21,2.02-4.21,4.23-5.3,7.11-.8.79-1.59,1.58-2.41,2.35-.4.38-.86.69-.74,1.38.1.55.96.44,1.71-.31.79-.8,1.5-1.67,2.24-2.51,2.75-2.51,4.94-5.45,6.78-8.67,1.33.05,2.66.1,3.99.15,1.35.96,2.7,1.92,4.05,2.88,2.02,1.45,3.91,3.09,6.28,3.96,2.43,1.92,4.96,3.74,7.28,5.78,3.12,2.75,6.3,5.36,10.1,7.13.89.89,1.82,1.74,2.67,2.67.68.75,1.48,1.29,2.44,1.54.23.06.59-.06.76-.23.1-.1.03-.57-.11-.68-1.4-1.13-2.83-2.23-4.25-3.33-2.67-3.4-6.22-5.73-9.75-8.08-2.81-1.88-5.64-3.73-8.46-5.6-.6-.6-1.15-1.24-1.79-1.78-10.93-9.28-22.42-17.83-34.34-25.8-1.08-1.19-2.14-2.4-3.57-3.19-.2-.23-.44-.3-.73-.22v-.02Zm95.31,79.09c1.1.27,2-.22,2.87-.78l.41-.05c1.62.33,3.07-.28,4.52-.86h-.05c1.62.33,3.09-.17,4.54-.83.15,0,.29-.02.44-.05,1.68.34,3.23-.13,4.74-.79.15,0,.29-.01.43-.04,1.94.33,3.74-.19,5.52-.86.15,0,.3-.02.45-.05,1.63.36,3.09-.22,4.55-.81h-.05c1.37.34,2.58-.09,3.73-.8l.4-.06c1.17.29,2.15-.12,3.06-.79l.38-.06c1.15.28,2.08-.22,2.97-.85.33-.1.67-.21,1-.31.53.1.79-.22.82-.66,0-.2-.24-.58-.4-.59-2.64-.26-5.31-.68-7.81.67-.16.01-.31.03-.47.06-1.13-.25-2.14-.02-3,.78-1.04.29-2.08.57-3.12.86-2.04-.02-4.08-.04-6.12-.06-.56-.55-1.12-1.11-1.68-1.66.11-.74-.24-1.28-.79-1.72-.13-.77-.27-1.53-.4-2.3.32-.49.21-.88-.28-1.18-.18-1.36-.36-2.71-.54-4.07.27-.48.17-.87-.29-1.17-.15-1.05-.3-2.11-.44-3.16.31-1.03.06-1.93-.61-2.73-.08-.53-.15-1.05-.23-1.58.29-1.03.05-1.92-.63-2.72-.08-.52-.17-1.05-.25-1.57.22-.47.16-.87-.32-1.15-.19-1.04-.38-2.09-.56-3.13.28-.76.13-1.41-.51-1.93-.1-.78-.2-1.56-.31-2.35.28-.75.22-1.42-.46-1.93-.17-1.65-.35-3.29-.52-4.94.26-.48.17-.87-.3-1.17-.42-2.21-.84-4.42-1.25-6.63.24-.75.18-1.42-.5-1.93-.17-1.05-.33-2.11-.5-3.16.35-.78.06-1.38-.54-1.89-.38-1.25-1.06-2.24-2.36-2.68-1.63-1.32-3.24-.91-4.84.07-.16.02-.32.04-.48.06-1.6-.26-3.1,0-4.48.87h.06c-1.56-.28-3.01.02-4.36.86h.06c-1.34-.23-2.61-.14-3.7.78-.22.01-.43.07-.62.17-1.4-.04-2.8-.09-4.2-.13-.64-.79-.94-1.67-.92-2.7.05-3.07.06-6.14.09-9.21.55-.47.85-1.04.69-1.78.54-1.1,1.62-1.42,2.64-1.84.84-.01,1.68-.02,2.52-.03,1.69.4,3.06.04,3.87-1.64.43-.63.73-1.48-.3-1.56-2.25-.17-4.53-.07-6.8-.09-1.12-.22-2.18-.19-2.97.81-2.01,1.07-2.52,2.93-2.51,4.99,0,3.66.09,7.32.14,10.98.02,1.49.58,2.73,1.73,3.7,2.04,1.76,4.13,1.2,6.23.15.15,0,.29-.02.43-.05,2.49.33,4.89-.12,7.26-.83.15,0,.31-.01.45-.05,1.42.36,2.68-.07,3.89-.78l.42-.06c1.29,0,2.58.01,3.87.02,1.22.48,1.94,1.42,2.41,2.59-.16.75-.02,1.4.62,1.88.38,2.8.76,5.6,1.14,8.4-.28,1.03-.12,1.95.64,2.73,1.19,3.57,1.79,7.25,1.98,11.01.03.55.19,1.09.29,1.64-.31.47-.17.84.25,1.14l1.22,7.5c-.27.76-.17,1.42.5,1.95.59,3.22,1.25,6.44,1.75,9.67.67,4.31.82,6.77-4.86,8.19-1.63-.21-3.16.09-4.6.88-.16.01-.31.03-.47.05-1.39-.23-2.73-.2-3.89.74-1.09.27-2.18.56-3.28.79-2.31.49-4.18-.23-5.5-2.2-.78-1.17-1.5-2.38-2.25-3.57-.06-.78-.64-1.35-1.24-1.07-.72.34-.36,1.12.05,1.67.07.1.21.16.31.23.39,1.94.78,3.88,1.16,5.81-.26.46-.19.85.28,1.13.23,2.78.45,5.56.68,8.35.04.37.07.75.11,1.12-.05,3.68-.09,7.36-.14,11.03-.55,2.81-.33,5.66-.49,8.49-.99,1.38-.59,2.79-.33,4.43,1.01-.93,1.47-1.76,1.2-2.85.21-1.3.41-2.6.62-3.91.43-.29.5-.67.28-1.13.04-1.11.07-2.23.11-3.34.41-5.09.81-10.18,1.22-15.27.46-.28.57-.66.35-1.15.42-2.22,1.63-3.87,3.61-4.96,1.04.1,1.84-.44,2.64-.99h-.08Zm-29.42,40.42h.21c1.1.26,1.97-.23,2.8-.85.22-.04.44-.08.67-.1,2.04.18,4.03.06,5.94-.76,1.36-.51,2.96-.68,3.7-2.51h-5.08c-1.67-.3-3.28-.16-4.77.74-.41.04-.82.08-1.23.13-1.41-.31-2.69.05-3.91.76-.4.04-.81.08-1.21.12-1.68-.3-3.25.15-4.79.76-3.03-.11-4.68,1.49-5.33,4.31-2.59,2.43-5.27,4.77-7.47,7.59-4,2.77-7.33,6.26-10.56,9.85-.28.31-.55.67-.7,1.05-.08.21.04.58.2.77.14.16.56.3.7.21,4.68-3.05,9.05-6.41,11.37-11.74,2.92-2.19,5.4-4.83,7.69-7.66.58-.34,1.15-.67,1.73-1.01h5.07c.94.59,1.89,1.17,2.83,1.75,1.11,1.27,1.79,3.04,3.4,3.72,2.48,1.04,4.09,3,5.83,4.84.99,1.04,2,2.01,3.27,2.69,1.08.58,2.18.65,2.2.11.02-.76-.29-1.4-.87-1.86-.55-.43-1.14-.91-1.79-1.11-2-.63-3.47-2.01-4.69-3.54-1.82-2.29-4.14-3.74-6.78-4.81.09-.8.19-1.59.28-2.39.43-.35.85-.71,1.28-1.06h0Zm-39.26-165.73c-.57.08-.85.28-.39.84,0,.54-.02,1.09.01,1.63.03.48.4.78.8.72,1.12-.17,2.03-.75,2.75-1.64.39-.49.31-1.02.16-1.56-1.5-1.44-1.72-1.44-3.27-.01h-.05v.02Zm-16.39,88.79c-.71.52-1.5.98-1.72,1.94-2.44,1.99-4.64,4.19-6.12,7.01-.89,1.34-1.95,2.6-2.26,4.25,2.23.33,2.06-2.27,3.55-2.94.67-.3,1.04-1.24,1.55-1.89,1.49-1.51,2.75-3.17,3.42-5.21.54-.61,1.08-1.23,1.61-1.84.39-.39.83-.76,1.16-1.2.23-.3.42-.81-.05-1.03-.41-.19-.8.13-1.04.51-.07.11-.07.27-.1.41h0Zm181.45,68.36c.44.58.84,1.29,1.69.53.1-.4.31-.8.29-1.19-.07-1.26-.76-2.09-1.96-2.45-.22-.07-.64,0-.74.15-.76,1.21-.06,2.1.72,2.96h0ZM120.77,225.09c-.8-.67-1.8-.55-2.73-.68.18-.64-.25-1.04-.61-1.43-1.64-1.77-3.59-3.07-5.9-3.79-.6-.6-1.34-.92-2.18-.82-.43.05-.63.37-.37.81,2.09,2.84,5.09,4.26,8.31,5.33.66.6,1.47.79,2.33.81.4,1.89,1.87,2.3,3.48,2.49.25.03.66-.1.76-.28.09-.18-.06-.56-.21-.78-.7-.98-1.67-1.52-2.87-1.65h0Zm32.76,160.78l-.11-.08c-1.39-1.3-2.82-2.61-4.83-2.68-.8-.03.21,1.18,3.9,3.61,3.47,3.11,6.95,6.23,10.43,9.34.1.09.27.15.39.13.11-.02.2-.17.29-.25-.7-2.99-1.23-3.98-3.25-5.66-1.63-1.36-3.4-2.52-5.32-3.45-.39-.5-.8-.96-1.51-.95h.01ZM247.83,124.77c1.1,1.6,3.11,1.88,4.49,3.07,4.9,4.93,10.45,8.98,16.52,12.32.75.96,1.94,1.21,2.92,1.81,2.2,3.24,5.45,5.15,8.82,6.89.49.41,1.03,1.12,1.59.28.3-.43-.1-1-.66-1.24-2.28-2.78-5.04-4.91-8.43-6.17-.96-.76-1.93-1.52-2.89-2.28-5.07-4.93-10.79-8.97-17.05-12.24-1.46-1.16-2.37-2.98-4.3-3.58-.4-.63-.95-.86-1.68-.63-.31-.58-.7-1.14-.91-1.76-.33-.95-.22-1.84.74-2.44,1.08.06,1.98-.41,2.87-.93.4-.04.8-.09,1.21-.13,1.41.34,2.65-.19,3.87-.79,3.95-1.13,7.83-2.43,10.99-5.22,1.49-.75,2.96-1.53,4.46-2.24,1.74-.81,3.45-1.63,4.68-3.8-2.63.14-4.62.89-6.18,2.27-1.39,1.23-3.03,1.96-4.52,2.98-4.84,1.74-9.68,3.47-14.52,5.21-1.66-.26-3.26-.09-4.74.76-.42.04-.83.08-1.25.12-1.14-.27-2.19-.09-3.09.69-2.67.43-5.23,1.25-7.73,2.26-.62-.04-1.33.28-1.39.73-.11.8.71.56,1.16.55,2.54-.02,5.08-.08,7.62-.13,2.05.21,3.9,1.01,5.73,1.89.32.79.92,1.31,1.65,1.7l.02.05Zm32.65-25.12l-.1.11c-1.4,1.61-2.05,3.08-1.95,4.41,1.75-.91,3.4-1.89,4.55-3.51.62-.57,1.27-1.11,1.86-1.71s1.16-1.24,1.68-1.91c.45-.59,1.28-1.03.95-2.08-1.72.39-3.18,1.12-4.43,2.27-1.2.44-2.16,1.14-2.56,2.42h0Zm-18.85,328.38c-2.16-.43-3.88-1.55-5.29-3.25-.62-.75-1.4-1.37-2.1-2.06-.13-.49-.25-.97-.38-1.46.16-.48.05-.84-.44-1.05-.97-3.04-2.23-5.13-3.77-6.28-.3,1.8.17,3.41.57,5.03.53,2.18,1.57,3.93,3.69,4.89,1.1,1.7,2.57,3.03,4.17,4.24,1.02,2.77,3.29,2.75,5.63,2.45.55-.07.45-.65.28-1-.46-.97-1.27-1.49-2.36-1.53v.02Zm109.67-145.01c.31-.19.98,0,.84-.67-.59-2.87-2.37-4.71-5.53-5.74,1.61,2.17,3.18,4.29,4.75,6.4.36.2.79.33,1.05.61,1.42,1.53,3.11,2.84,3.96,4.84.14.34.66.53,1.06.28.42-.27.42-.81.21-1.12-1.51-2.19-3.37-4.05-5.61-5.5-.04-.03-.49.59-.74.9h.01Zm-246.2,12.53c-.9-1.23-2.01-2.22-3.44-2.8-1.03-.42-1.95-.96-2.61-1.89-.25-.8-.81-1.1-1.41-.52-.45.44-.05.99.42,1.31.32.22.69.37,1.04.55,1.51,2.09,3.28,3.86,5.72,4.89.63.27,1.14.82,1.71,1.24,1.47,1.08,1.54,1.08,3.04,0,.68-.44,1.4-.83,1.64-1.7.12.56-.26-.64.23-.34,0-.1.07-.26.03-.28-1.04-.62-2.14-.28-3.19-.1-1.12.19-2.16.2-3.17-.37h0Zm50.93,18.35c.31,1.9.63,3.79.94,5.69-.34.48-.21.87.25,1.18.16,1.06.32,2.12.48,3.18-.07.92.49,1.14,1.25,1.06.64-.06.91-.46.79-1.09.05-5.32-.63-10.48-3.2-15.25.11-.6-.22-1.03-.61-1.42-.18-.18-.42-.39-.65-.4-.13,0-.36.35-.39.56-.1.81-.12,1.63.61,2.22.11,1.07.23,2.14.34,3.21-.06.12-.19.27-.16.37.08.24.23.46.36.69h0Zm107.11,147.78c.16.22.27.48.47.63.32.24.74.42,1.07.08.32-.33.19-.75-.07-1.08-.16-.21-.39-.37-.59-.55-2.09-3.58-4.41-6.96-7.84-9.43-.84-1.29-1.65-2.6-2.56-3.84-.19-.26-.76-.33-1.15-.34-.39-.01-.71,1.06-.41,1.45,1.11,1.45,2.25,2.87,3.37,4.31,1.68,3.7,4.39,6.51,7.7,8.78h0Zm40.44-13.87c-.8.23-1.09.86-1.09,1.59,0,1.97.08,3.93.09,5.9.02,4.07.38,8.15-.29,12.2-.47.29-.53.67-.27,1.13-.08.81-.16,1.62-.25,2.43-.69.24-.83.69-.33,1.18.09.09.69-.23.97-.46.17-.14.16-.49.23-.74.62-1.12,1.24-2.25,1.86-3.37.66-.47.94-1.07.63-1.87.61-4.23.25-8.45-.1-12.67.35-1.01.4-1.98-.32-2.87-.07-.79.15-1.63-.35-2.36.34-.02.4-.21.1-.39-.35-.21-.69-.11-.87.3h-.01Zm-41.34-132.35c-4.98,3.5-9.97,7-14.95,10.5-.23.16-.44.36-.65.55-1.28,1.15-2.6,2.18-4.2,2.9-1.28.57-2.53,1.36-2.89,3.1,1.93.28,3.32-.71,4.52-1.9,1.04-1.03,2.2-1.78,3.51-2.39,6.09-2.84,10.62-7.54,14.84-12.58.95-.11,1.33-.88,1.79-1.55.04-.05-.02-.23-.09-.28-.09-.07-.28-.16-.34-.11-.67.45-1.46.8-1.53,1.77h0Zm-46.2,65.3c-.34-1.12-.69-2.24-1.03-3.36.12-.59-.08-1.19-.67-1.16-.95.05-.87.74-.53,1.41-.38,3.86-.76,7.73-1.13,11.59-.23.62,0,.94.65.97,1.96.82,1.91,2.63,2.13,4.3-.03.33-.07.66-.1.99.02,1.1.04,2.2.06,3.31-.27.47-.09.81.33,1.08.18,1.17.9,1.91,1.9,2.44,1.16,1.79,2.88,3.04,4.37,4.52.1.1.2.22.32.27.36.13.87.42,1.06.28.56-.41.31-1.04,0-1.49-.39-.58-.87-1.1-1.37-1.58-1.1-1.07-2.24-2.1-3.36-3.15-.12-2.11-.32-4.2-.84-6.27-.64-2.6-1.01-5.25-1.09-7.95-.05-1.69-.31-3.36-.48-5.05.35-.47.18-.84-.22-1.16h0Zm-17.13-66.15c-.9-.55-1.84-.97-2.93-.85-1.89-1.03-2.51-2.85-2.93-4.78.09-.54.24-1.08.26-1.63,0-.2-.26-.51-.47-.58-.46-.15-.83.11-.94.57-.09.4-.08.82-.11,1.23l-.81,2.66c-.56.79-1.01,1.6-.63,2.61-.21,1.17.31,1.97,1.31,2.51.93.76,2.03.87,3.16.87,2.51,0,5.03-.03,7.54-.04,2.69.7,3.92,2.57,4.22,5.21.06.56.16,1.12.22,1.69.31,2.93,1.53,5.31,3.73,7.38,3.29,3.09,3.9,7.14,2.16,11.61-.82-.02-1.61.03-2.21.7-1.95.48-2.3,1.88-2.06,3.61.55,3.94,1.1,7.88,1.66,11.82-.33.76-.26,1.44.44,1.96.17,1.07.34,2.14.51,3.21-.33.76,0,1.36.48,1.92.33,1.4.67,2.79,1,4.19-.25,1.24.35,2.06,1.42,3.2.39-1.99.63-3.47.02-4.97-.11-3.69-.45-7.36-1.02-11.01.27-.47.13-.84-.28-1.14-.07-.78-.14-1.57-.21-2.35.28-1.01.21-1.94-.63-2.68-.19-1.09-.24-2.17.08-3.24.49-.17.63-.52.52-1,1.94-3.14,5.01-4.43,8.42-5.18,1.15.29,2.09-.19,2.99-.8,1.48-.47,2.9-1.07,4.03-2.17.25-.24.3-.72.33-1.1,0-.08-.47-.25-.73-.3-1.63-.31-2.96.7-4.45,1.02-1.79-.06-3.58-.13-5.37-.19-1.58-1.12-2.39-2.78-3.16-4.46-1.24-2.7-2.46-5.42-3.67-8.14-1.15-2.59-2.19-5.22-2.7-8.04-.48-2.66-1.29-3.25-4.06-3.32-1.7-.05-3.41,0-5.11.02l-.02-.02Zm-76.62-75.49c-4.55-5.03-11.18-9.12-16.41-10.31,3.08,4.09,8.82,7.77,16.41,10.31Zm147.17,227.76c-.21.48-.54.85-.5,1.19.12,1.05.87,1.74,1.62,2.4,2.13,1.86,4.35,3.64,5.76,6.18.21.38.72.45,1.11.24.43-.24.52-.84.27-1.1-2.4-2.57-5.13-4.85-6.71-8.12-.19-.39-.96-.5-1.56-.79h.01Zm5.05-163.09c-.1-.09-.2-.26-.32-.26-.25-.02-.6-.05-.75.09-2.76,2.7-5.49,5.41-8.23,8.13-.29.29-.57.66-.31,1.08.35.56.81.16,1.05-.08,2.75-2.7,5.48-5.43,8.19-8.17.18-.19.23-.51.36-.79h.01Zm-.49-146.4c-.29-1.49-2.53-3.23-4.38-3.4-.11,0-.3.13-.33.23-.07.23-.18.54-.08.73.91,1.73,2.41,2.66,4.31,2.96.13.02.32-.34.49-.52h-.01Zm-136.27,78.04c-.18-.2-.39-.58-.71-.74-.56-.28-1.1-.02-1.49.4-.58.63-.97,1.37-.52,2.23.1.19.45.38.67.36,1.31-.08,2.13-.95,2.05-2.26h0Zm-51.75,57.48c-.25-.2-.5-.39-.75-.59-1.34,1.24-2.68,2.49-3.66,4.08-.14.23-.19.52-.22.79,0,.09.16.22.27.28.11.07.34.14.38.1,1.33-1.54,2.65-3.1,3.97-4.66h.01Z"/><path class="cls-2" d="m436.17,379.97c.07-.81.14-1.62.2-2.42.45-.35.52-.73.12-1.16.25-2.77.49-5.53.74-8.3.49-.27.61-.65.35-1.15.12-.51.25-1.02.37-1.53.67-.43.91-1.03.67-1.8v-.03c.74-.61,1.22-1.33,1.02-2.34,2.08-3.58,4.35-6.98,8.33-8.75,1.79,0,3.58-.02,5.37-.03h-.05c.63.31,1.22.74,1.88.92.76.2,1.38-.09,1.42-1.03h0c.28-.29.57-.57.85-.86h.03c2.74-.58,5.38-.04,8,.69-.37,1.02-.79,2.03-1.1,3.06-.39,1.29-.09,1.51,1.81,1.45,2-.4,3.99,0,5.99.05,2.16.73,3.6,2.26,4.62,4.21.79,1.49.99,2.98-.3,4.35-.51.03-.89.21-.99.76h0c-1.48.04-2.97-.02-4.21,1.01h.06c-1.28-.19-2.52-.19-3.5.85h.05c-1.09-.22-2.08-.08-2.83.83-.36.07-.72.15-1.08.22-.6-.14-1.07,0-1.35.59h.04c-1.01-.12-1.97-.07-2.59.91h.05c-1.11-.25-1.97.22-2.72.98-6.49,2.74-12.76,5.9-18.89,9.37-.87-.04-1.75-.03-2.37-.8v-.05Z"/><path class="cls-2" d="m425.69,355.13c.52,3.87.11,7.66-1.09,11.37-.88,2.72-1.6,5.47-1.52,8.35.05,1.64-.71,2.72-2.1,3.39-1.79.86-3.62,1.64-5.43,2.46-1.06-.15-1.99.05-2.69.94h.05c-1.09-.23-2.03.03-2.8.86-1.02.29-2.04.58-3.07.88-1.07-.19-2.06-.13-2.8.81h.05c-1.35-.25-2.55.08-3.61.95-2.64-.04-3.17-.47-2.95-2.67.17-1.67.53-3.32.8-4.98.76-.44.8-1.11.56-1.86,0-.26.06-.52.16-.76.43-.17.63-.49.62-.95,0-.29,0-.59.01-.88l.02-.07c.63-.69,1.16-1.41.96-2.43,3.81-8.09,10.15-13.67,17.82-17.93.62-.35,1.25-.72,1.93-.91,1.82-.5,3.41-.24,4.36,1.64-.16.76.08,1.36.71,1.81v-.02Z"/><path class="cls-2" d="m448.92,332.62c.03-.26.1-.5.23-.72.5-.18.73-.52.57-1.06.05-.24.14-.46.28-.66.5-.13.73-.44.64-.96l.04-.06c.8-.3,1.31-.86,1.51-1.7l.2-.18c.47.06.71-.18.8-.62,5.01-3.34,10.13-6.51,15.4-9.44,1.55.02,3.1.03,4.65.05.13.05.27.1.4.17,3.41,1.7,4.55,3.71,3.04,8.08-2.1,6.08-5.44,10.96-11.23,13.99-.81-.11-1.5.05-1.91.84h.05c-1.27-.16-2.44.07-3.45.92l-.05.1c-3.1-.03-6.2-.05-9.3-.08-4.12-1.65-4.28-1.98-2.87-6.06.09-.26.19-.52.29-.78.6-.46.97-1.01.72-1.81v-.02Z"/><path class="cls-2" d="m469.35,407.33c.3-1.34.25-2.69.06-4.03.35-.79.06-1.39-.56-1.89-.05-.25-.11-.5-.18-.74.25-.8-.15-1.33-.74-1.78-.58-1.6-1.6-3.02-1.82-4.76-.27-2.18.72-3.56,2.91-3.93,2.53-.43,4.42.58,5.81,2.65-.07.51.14.83.65.95.15.21.24.44.29.69-.2.79.23,1.3.8,1.75v.04c-.23.79.15,1.32.75,1.75h.06c-.24,1.02.28,1.77.91,2.47l.02.05c.03.3.05.6.08.9l.62.92c.05.25.12.49.19.73-.17.51-.06.89.47,1.09.12.5.24.99.36,1.49-.27.8,0,1.39.69,1.83.11.23.17.47.19.73-.28.79-.01,1.4.65,1.86.43,2.22.71,4.44,1.91,6.5,1.64,2.81,1.29,3.68-1.36,5.68-.34.26-.72.46-1.08.68-.59-.08-1,.15-1.19.73l.04-.02c-.78-.1-1.41.09-1.75.87h.05c-2.54.29-5.07.92-7.6-.03l.04.02c-.13-.56-.51-.79-1.06-.78-1.35-1.22-2.69-2.45-4.05-3.67-.74-.66-1.44-1.35-1.73-2.33-.16-.55-.26-1.4.2-1.56,2.83-1.03,2.94-3.87,4.15-5.96.21-.36.4-.73.61-1.1.53-.48.93-1.01.63-1.79h-.02Z"/><path class="cls-2" d="m348.76,415.17c.68-4.88,1.37-9.75,2.05-14.63.72-3.64.57-7.34.78-11.02.04-.35.08-.7.12-1.04.09-3.39.17-6.78.26-10.16.02-.7.02-1.42.76-1.82,5.15,8.19,10.3,16.38,15.43,24.58.75,1.2,1.41,2.47,2.1,3.71.44.78.56,1.6.22,2.46-1.64.4-3.29.17-4.95.11-1.19-.04-2.52-.37-3.42.86,0,0,.04-.01.03-.01-.85-.14-1.52.1-1.89.93-3.36,2.32-6.72,4.64-10.08,6.96-.47-.3-.95-.6-1.42-.9v-.03Z"/><path class="cls-2" d="m417.98,499.38c-.3-.53-.61-1.06-.91-1.59.2-.49.12-.88-.39-1.12-.2-.83-.23-1.75-.64-2.46-1.22-2.11-.86-4.12.18-6.08,1-1.88,2.17-3.66,3.22-5.5.98-1.72,1.95-3.45,2.82-5.23.29-.6.44-1.37-.24-1.95-.67-.58-1.31-.32-1.92.09-.82.56-1.58,1.21-2.44,1.7-2.51,1.42-4.77.44-5.57-2.37-.44-1.54-.34-3.09.03-4.64.58-.45.94-.99.72-1.76l.02-.05c.57-.36,1.06-.76.93-1.54.61-.6,1.23-1.21,1.84-1.81,1.67-.36,3.35-.24,5.03-.14,3.97,1.64,7.34,4,9.46,7.86-.18.78.17,1.32.76,1.77.18,1.39.35,2.78.53,4.17-.05.34-.1.69-.15,1.03-.48,3.43-1.96,6.48-3.64,9.44-1.95,3.43-3.97,6.82-5.97,10.23-1.23.39-2.46.3-3.68-.04h.01Z"/><path class="cls-2" d="m476.21,458.99c2.19-3.8,5.58-6.12,9.53-7.75,1.08.16,1.9-.38,2.72-.95h-.03c.37-.02.73-.05,1.1-.07,1.09,0,2.19.02,3.28.03,0,0,.22.13.22.12.32.71.53,1.51,1.35,1.85,1.02,3.55,3.59,5.53,6.88,6.79.57.51,1.17.94,2,.71,0,0,.09.08.08.08.37.53.83.86,1.52.76l.19.14c.04.45.29.7.73.77l.05.09c-.12.5.06.83.54,1.01.21,1.09.17,2.17-.17,3.24-.51.24-.58.62-.35,1.1-.27,1.97-1.03,3.69-2.6,4.98-2.1.55-4.19.74-6.34.2-.81-.2-1.7-.11-2.55-.16-2.74-.88-3.67-2.98-3.63-5.6.02-1.7.32-3.39.46-5.08.13-1.55-.28-2.44-1.31-2.83-1.26-.48-2.55-.55-3.57.48-1.09,1.1-2.06,2.32-3.08,3.49-1.95.03-3.9.07-5.85.1-.29-.29-.58-.57-.87-.86-.1-.87-.2-1.75-.3-2.62v-.02Z"/><path class="cls-2" d="m442.09,446.89c-3.37-2.31-5.92-5.6-9.39-7.8-1.04-.66-1.17-1.89-.65-3.03.79-1.76,2.16-2.9,3.91-3.64,1.31-.07,2.62-.14,3.92-.21,4.66,2.06,9.33,4.12,13.98,6.19,1.41.63,2.96,1.05,3.83,2.51-.11.5.06.85.54,1.04-.04.5-.07,1.01-.11,1.51-.52.16-.61.53-.48,1-.73,1.48-1.93,2.52-3.25,3.45-.58-.06-.98.18-1.19.73l.05-.02c-2.84.61-5.67.57-8.51,0h.05c-.32-.73-.92-.97-1.68-.92h.01c-.11-.59-.5-.8-1.05-.8h.02Z"/><path class="cls-2" d="m450.84,417.58c-3.31-4.59-4.49-9.79-4.58-15.35-.04-2.14,1.09-3.46,2.62-4.63.77-.58,1.57-.44,2.24.37.18.22.35.46.45.72.64,1.57,1.92,1.84,3.46,1.98,3.28.28,4.91,1.86,5.26,5.08.54,4.93-.95,9.03-5.28,11.82-1.39.09-2.78.35-4.16,0h-.01Z"/><path class="cls-2" d="m493.87,335.26c.98.91,1.17,2.07,1.01,3.33-.09.34-.18.68-.27,1.01-2.46,4.94-4.92,9.89-7.4,14.82-.73,1.46-.77,1.44-2.13-.25-.09-1.12-.58-2-1.53-2.62l-.06-.12c.12-.73-.09-1.3-.82-1.59l-.05-.1c.13-.75-.08-1.33-.81-1.66-.09-.24-.16-.48-.24-.72.21-.77-.07-1.36-.69-1.82-.69-5.55-.08-6.66,4.92-8.94.51-.23,1.07-.38,1.61-.56,1.09.22,1.96-.28,2.79-.87,0,0-.04.01-.04,0,1.23.04,2.48-.39,3.7.09h0Z"/><path class="cls-2" d="m506.62,408.2c1.76.95,2.38,2.77,3.12,4.41.59,1.3.51,2.8-.11,4.13-.78,1.68-2.23,2.49-4.02,2.74-1.06-.03-2.11-.05-3.17-.08.23-2.92.41-5.85.73-8.76.09-.8.59-1.55.9-2.32.85-.04,1.7-.09,2.55-.13h0Z"/></g><path d="m193.68,246.84c.11-.63.18-1.28.18-1.95,0-6.21-5.03-11.24-11.24-11.24s-11.24,5.03-11.24,11.24c0,.67.07,1.32.18,1.95.57,4.99,2.83,18.45,11.06,26.69,8.23-8.23,10.49-21.69,11.06-26.69Z"/><circle class="cls-1" cx="182.62" cy="244.42" r="6.63"/><g id="brooklyn-2"><path class="cls-2" d="m379.91,428.2c.19,1.47.63,2.84,1.53,4.04-.22.74.15,1.26.63,1.75l.02.06c-.24.78.07,1.35.67,1.82.06.25.12.5.18.74-.24.78.06,1.37.68,1.84.06.25.12.5.18.74-.24.78.06,1.37.68,1.84.06.25.12.5.18.74-.24.78.06,1.37.68,1.84.06.25.12.5.18.74-.25.79.09,1.36.69,1.82.07.24.12.49.14.75-.27.8-.01,1.4.68,1.84.1.24.17.48.18.74-.27.8-.01,1.4.68,1.84.1.24.17.48.18.74-.27.8-.01,1.4.68,1.84.1.24.17.48.18.74-.27.8-.01,1.4.68,1.84.1.24.17.48.18.74-.27.8,0,1.39.69,1.83.11.23.17.47.19.73-.28.8.03,1.38.68,1.85.1.23.16.48.18.73-.28.8.03,1.39.68,1.85.1.23.16.48.18.73-.28.8.03,1.39.68,1.85.1.23.16.48.18.73-.29.81.05,1.38.69,1.84,1.66,4.84,3.38,9.67,4.97,14.54.71,2.16,1.26,4.37,1.27,6.69,0,2.83-1.16,4.92-3.54,6.38-1.84,1.13-3.85,1.81-5.9,2.43-1.13-.23-2.13,0-2.97.83-1.03.28-2.06.57-3.1.85-1.12-.2-2.16-.11-2.96.82-.14.03-.28.06-.43.08-1.13-.23-2.15-.05-2.97.82-1.03.29-2.06.57-3.09.86-1.12-.2-2.15-.1-2.95.83l-.42.08c-1.09-.23-2.04-.02-2.81.83h.05c-1.03-.2-1.98-.14-2.67.8h.05c-1.08-.16-2.09-.1-2.83.85-1.01.31-2.01.62-3.02.92-2.89.16-5.78.31-8.66-.09h.04c-.31-.77-.93-.96-1.68-.91-.09-.58-.48-.79-1.01-.81-3.19-2.52-6.38-5.04-9.56-7.56-.17-.61-.46-1.07-1.2-1-.16-.06-.27-.17-.34-.33.1-.49-.11-.62-.56-.5l-.26-.25c-.14-.36-.24-.74-.41-1.09-.46-.91-.04-1.17.81-1.15.4,0,.79-.05,1.19-.07,1.57.44,2.57,1.69,3.79,2.64,1.22.96,2.5,1.84,3.77,2.72,1.11.77,2.33.97,3.64.57.73.2,1.09-.24,1.39-.79l.26-.26.33-.14-.06-.34c.64-.64.67-1.46.65-2.27-.04-1.49-.12-2.98-.19-4.47.38-.81.13-1.43-.55-1.93l-.02-.08c.24-1.02,0-1.87-.89-2.47-2.16-4.26-4.32-8.53-6.48-12.79-1.65-1.46-2.36-1.49-4.71-.18,0,0-.16.05-.15.05-.73-.11-1.37-.01-1.74.72-.21,0-.41.04-.6.12-.81-.13-1.52-.02-1.94.79h.04c-.6.05-1.19.1-1.79.15-.81,0-1.61-.02-2.42-.03-.77-.62-1.53-1.23-2.3-1.85-1.37-1.06-1.79-1.04-2.94.11l-.05.05c-.6.13-.74.54-.7,1.09.04.5.04,1,.05,1.51-1.65,1.36-3.45,2.48-5.4,3.38-1.57.72-3.07,1.57-4.5-.41-.53-.74-1.58-.52-2.33.01-.57.4-1.06.93-1.59,1.4-1.19.64-1.22,1.69-.85,2.76.31.88.79,1.7,1.71,2.12l.09.11c-.06.52.23.78.69.91.75,1.61,1.49,3.23,2.26,4.84.31.65.42,1.29.22,1.99-4.93.52-9.83-.01-14.72-.47-1.39-.13-2.75-.64-4.18-.4-2.09-.62-4.14-1.36-6.02-2.5-.24-.47-.44-.98-1.02-1.15-.22-.46-.45-.93-.67-1.39-.2-.59-.64-.89-1.24-.9-1.25-.01-2.5,0-3.75.02l-.03-.06c-3.76-1.32-7.73-1.28-11.61-1.79-1.76-.23-1.84,0-2.3,2.58-2.05,3-5.28,4.12-8.48,5.29-1.73-.03-3.46-.06-5.19-.09-2.84-.57-5.69-1.28-8.55-.1-.64.2-1.45.09-1.72.96-1.59,1.4-1.13,2.89-.19,4.4.18.68.62.92,1.29.75.43.01.86.03,1.29.04,2.21.32,4.37.22,6.4-.81.24-.03.49-.04.73-.04,2.51.27,5.03-.6,7.54.02.32.31.65.61.97.92-.11.46-.04.83.51.92.41,3.09.5,6.18-.2,9.24-.48.05-.52.34-.39.72l-.15.17c-.73-.11-1.08.37-1.41.89l-.05.04c-1.54-.18-3,.1-4.37.84h.06c-1.78-.3-3.54-.08-5.31.15-1.44-.13-2.85-.09-4.17.61-1.58.1-3.16.2-4.74.3-3.69-.21-7.29.52-10.91,1.05-.25.04-.48.29-.72.44h.05c-1.55-.2-3.07-.28-4.36.84h.05c-1.27-.13-2.54-.26-3.49.86h.05c-.93-.23-1.8.03-2.66.32-2.26-.03-4.53-.06-6.79-.09l-.38-.04c0-1.15,0-2.3.02-3.45.31-.44.24-.84-.16-1.19.02-2.52.17-5.04-.44-7.52.14-.88.07-1.75-.29-2.58.21-.46.07-.83-.31-1.14-.39-4.32-2.69-7.07-6.83-8.3-.41-.12-.81-.26-1.22-.4-3.09-1.08-4.96-3.25-5.66-6.42-.18-.83-.24-1.69-.36-2.54.25-.44.22-.82-.19-1.15-.42-2.19-.77-4.4-1.28-6.57-.44-1.87-1.42-3.34-3.53-3.68-1.44-1.02-2.86-.73-4.27.06-.23.04-.46.07-.7.09-1.65-.24-3.25-.16-4.71.78-.16.01-.32.03-.48.06-1.38-.26-2.67-.09-3.81.81-1.36.32-2.72.63-4.08.95-2.29,0-4.57,0-6.86-.01-2.15-.67-3.81-2.2-5.96-3.7-.09,2.4-.27,4.32.94,6.05.46.8,1.19,1.09,2.07,1.12,1.68.06,3.3-.16,4.83-.92.15,0,.3-.02.44-.06,1.63.36,3.07-.33,4.55-.82h-.06c1.89.32,3.64-.22,5.38-.84.15,0,.3-.01.45-.04,2.21.32,4.31-.27,6.41-.82,1.27,0,2.54-.04,3.81.03,1.89.11,3.13,1.11,3.74,2.91.59,1.76.74,3.57.86,5.41.16,2.67-.26,5.36.42,8-.23.66.05,1.18.48,1.65.25,1.49,1.3,2.22,2.59,2.73.64.65,1.45.73,2.31.71,1.52-.05,3.05-.07,4.57-.11,1.77.49,2.64,1.91,3.29,3.44.48,1.13.73,2.35,1.08,3.53-.28,1.03.26,1.82.76,2.62.51,1.46.74,2.96.75,4.52,0,2.24.12,4.47.18,6.7l-.06.16c-.84.19-1.68.39-2.52.58-2.38-.07-4.78-.2-7,.93h.06c-2.37-.21-4.72-.22-6.93.86h.06c-2.37-.21-4.72-.22-6.93.86h.06c-2.37-.2-4.73-.26-6.94.86h.06c-1.8-.08-3.67-.58-5.23.84l.04-.02c-.81-.17-1.33.25-1.77.85h.06c-2.16-.22-4.27,0-6.3.82-2.69.36-5.38.72-8.06,1.09-1.05-.16-2.03,0-2.86.7h.05c-2.09-.2-4.16-.2-6.06.89h.06c-2.1-.25-4.15-.12-6.06.89h.06c-1.82-.2-3.61-.26-5.23.82h.05c-1.32.01-2.65,0-3.97.05-.56.02-.98.35-1.23.86l.04-.03c-.77-.1-1.31.3-1.78.84h.05c-.7,0-1.44-.14-2.11,0-4.91,1.02-9.88.89-14.84.89-5.81,0-11.62-.02-17.43-.03h.05c-1.29-.96-2.77-1.05-4.29-.93h.04c-.63-.96-1.59-.98-2.58-.9h.02c-.36-.84-1.08-.92-1.86-.86-2.22-1.39-4.43-2.78-6.65-4.18-.47-.28-.92-.72-1.43-.8-2.2-.38-4.41-.65-6.62-.96-1.87-.97-3.3-2.37-4.11-4.35.16-.7.12-1.32-.63-1.68-.2-1.27-.39-2.54-.59-3.8-.59-3.78,1.03-6.35,4.37-7.95,2.57-1.23,5.16-2.41,7.75-3.61,1.34.24,2.49-.32,3.63-.89l.05-.09c2.53,0,5.06,0,7.59-.01l.06.09c1.48.47,2.92,1.14,4.54.82,2.45.59,4.91,1.17,7.36,1.76,1.18.67,2.39,1.21,3.8.83.15.02.31.04.47.06,1.76.81,3.58,1.19,5.51.85.15.02.3.04.45.04,1.4.83,2.95.88,4.51.96,2.49.49,5.01.6,7.53.56.71-.01,1.4-.06,1.86-.72.66-2.54-.4-4.39-2.41-5.83-1.38-.99-2.86-1.84-4.19-2.88-1.36-1.06-1.46-1.51-.64-3.25.61-1.29.93-2.37-.39-3.36-1.67-1.32-2.02-1.34-3.71-.2-.2.07-.4.14-.6.2-3.42.46-6.82-.17-10.24-.09-1.89-.44-3.47-1.47-4.42-3.09-.79-1.35-1.89-2.3-3.05-3.16.55-1.62,1.85-2.33,2.87-3.29,1.05.07,2.06.02,2.69-1.02.85-.66,1.69-1.32,2.67-2.09-.62-.4-1.19-.77-1.75-1.15-.22-.47-.43-.94-1.04-1.03-.81-1.27-.69-2.65-.44-4.04.71-.42.85-1.04.65-1.79,1.1-2.26,1.88-4.67,3.53-6.65.95-1.14.68-2.03-.92-2.44-1.58-.39-2.31-1.15-2.73-2.67-.45-1.59-1.78-2.45-3.36-2.87-1.53-.9-3.19-1.03-4.91-.88h-.14c-.68-.79-1.54-1.11-2.57-.95,0,0,.05.01.04.01-.33-.77-.96-.97-1.73-.9l.03.02c-.17-.59-.58-.8-1.17-.73-3.01-1.91-5.6-4.34-8.16-6.79-2.78-2.65-5.64-5.19-8.84-7.32-3.68-2.46-7.6-4.39-11.85-5.66-1.07-.9-2.28-1.19-3.64-.89h.06c-1.28-1-2.79-.96-4.29-.95l-.05-.08c-.06-.54-.12-1.08-.19-1.63,1.64-1.72,3.29-3.43,4.91-5.16.74-.78,1.99-1.11,2.16-2.41l.08-.03c.94-.83,1.1-1.78.4-2.84-.15-1.12-.35-2.24-.44-3.36-.1-1.33.3-2.48,1.34-3.41,4.7-4.2,8.12-9.4,11.4-14.71,1.24-.59,1.77-1.83,2.51-2.85.29-.41.81-1,0-1.36-.27-.12-.84.17-1.13.43-1,.87-1.51,2.05-1.96,3.27-4.21,4.06-8.1,8.38-10.95,13.53-.58,1.06-1.37,1.73-2.35,2.34-1.18.73-1.71,1.87-1.59,3.27.06.71.17,1.41.25,2.12-.28.76-.09,1.4.5,1.94-.02.81-.05,1.63-.07,2.44-1.54,1.2-2.76,2.76-4.55,3.72-1.11.59-1.97,1.67-1.24,3.17-1.1.01-2.2.03-3.3.04-1.52-.17-2.89-1.07-4.47-.92-1.78-1.18-3.81-.7-5.74-.85-2.34-.41-4.65-1.13-7.07-.89h.05c-.72-.81-1.62-1.03-2.65-.81h.06c-.69-.74-1.52-1.15-2.57-.96h.05c-.36-.8-1.05-.97-1.85-.89-5.6-3.08-10-7.46-13.62-12.66-4.08-5.86-7.3-12.17-9.8-18.85.2-.53-.02-.86-.49-1.08-.07-.24-.13-.48-.2-.73,0-.3,0-.59.01-.89.01-.48-.18-.81-.66-.94-.11-.24-.17-.49-.18-.76.24-.77.11-1.41-.64-1.83-.11-.26-.17-.52-.17-.8.28-1.02.11-1.92-.74-2.62-.09-.26-.14-.52-.14-.8.26-1,.24-1.94-.65-2.66-.13-.8-.26-1.6-.39-2.4.26-.46.22-.85-.24-1.16-.93-7.34-1.05-14.67.18-21.99.42-.3.44-.67.16-1.08.12-.79.24-1.57.36-2.36.5-.27.61-.65.35-1.15.09-.52.19-1.04.28-1.56.49-.53.84-1.11.56-1.87.12-.51.23-1.03.35-1.54.61-.48.9-1.07.65-1.85.13-.49.26-.99.4-1.48.53-.21.64-.59.47-1.1.07-.24.14-.49.2-.73.63-.44.94-1.01.72-1.79v-.05c.52-.47.96-.98.74-1.75,1.21-2.83,2.42-5.66,3.63-8.49.58-.44.99-.95.77-1.75l.02-.05c.52-.47.95-.97.73-1.75.16-.48.31-.96.46-1.45.54-.19.65-.57.48-1.08l.02-.05c.48-.48.88-1,.67-1.75.11-.25.18-.51.23-.78.64-.74,1.14-1.52.84-2.57.06-.25.12-.5.16-.75.65-.48.88-1.1.61-1.88.1-.51.2-1.03.3-1.54.71-.49.81-1.16.53-1.92.08-.52.17-1.04.25-1.56.56-.44.92-.97.79-1.73.77-1.24,1.86-2.14,3.04-2.97,1.38-.97,2.9-1.63,4.22-2.8,1.46-1.29,3.59-1.7,5.64-.89.93.37,1.84.76,2.89.63.8-.1,1.57-1.19,1.21-1.92-.31-.62-.71-1.24-1.2-1.73-.81-.81-1.8-1.44-2.57-2.27-1.52-1.66-1.87-3.48-.35-5.37,1.42-.04,2.84-.08,4.26-.12l.27.11c.36.57.81.96,1.54.83.99.54,1.97,1.13,2.99,1.6.92.43,1.94.5,2.92.22,1.23-.35,1.96-1.1,1.71-2.49.13-.54-.07-.87-.6-1-.54-1.18-.88-2.41-.94-3.71-.15-2.98,1.22-4.57,4.17-4.77.99-.07,2,.05,2.99-.03,1.37-.11,2.08-1.67,1.42-2.89-.51-.93-1.4-1.39-2.18-2-4.03-3.17-4.22-5.59-.43-8.99,2.03-1.82,3.82-3.78,5.45-5.96,2.89-3.88,6.91-5.86,11.77-5.95,1.85-.04,3.7.11,5.55.18.74.83,1.72.82,2.7.79.62,0,1.02-.34,1.14-.97.7-1.22.13-2.2-.72-3.01-1.02-.97-2.16-1.8-3.2-2.76-.82-.76-.95-1.92-.2-2.65,2.01-1.95,3.74-4.25,6.42-5.41,1.25,0,2.51,0,3.76-.02h-.04c.52.49,1.03,1.03,1.85.96,2.76,2.04,5.85,3.36,9.16,4.24.87.54,1.81.83,2.83.91.75.06,1.42-.06,1.77-.84,1.23-1.13.33-2.71.89-4.11,1.03-.88,2.4.27,3.53-.39,1-.58,1.78-1.36,2.3-2.4,1.33-1.79,1.25-2.22-.61-3.52l-.24-.2c.04-.56-.28-.69-.75-.64-.72-.61-1.44-1.22-2.16-1.82-.82-.68-1.11-1.49-.66-2.5,1.07-.8,2.27-1.08,3.59-.94,2.62.82,4.79.26,6.35-2.12.53-.81.55-1.61-.05-2.37-.96-1.22-2.34-2.15-2.67-3.81.44-.57,1.01-.73,1.75-.81.64-.06.86-.59.1-1.02-.78-1.64-1.52-3.29-2.35-4.9-.3-.59-1.35-.56-1.83-.06-.78.84-1.19,1.86-1.48,2.95-.58,2.16-1.89,3.7-3.98,4.56-.82-.15-1.53,0-2,.76h.05c-1.01-.13-2.01-.23-2.66.8l-.03.09c-.83.09-1.66.17-2.48.26-.08-1.18-.15-2.37-.23-3.55.06-.32.12-.64.18-.95h.11c.11-.06.26-.11.33-.21.2-.28.15-.53-.12-.7.11-1.06.01-2.02-1.19-2.42-1-.34-2-.29-2.8.45-.52.47-1,1.03-1.35,1.64-1.88,3.23-4.79,5.61-7.01,8.56-.41.55-1.09.9-1.64,1.35-1.17-.17-.85-1.18-1.06-1.89.38-1.65.44-3.3.15-4.97.27-.81-.09-1.35-.75-1.77-1.37-2.58-3.64-4.27-5.98-5.86-2.8-1.91-5.59-3.82-8.1-6.09-1.78-1.61-3.51-3.27-4.87-5.26.07-.51-.11-.84-.64-.92l-.08-.13c.1-.73-.12-1.29-.82-1.61-.09-.24-.16-.48-.21-.73.2-.74.16-1.41-.52-1.91v-2.27c.66-.49.73-1.15.52-1.89v-.04c.5-.46.91-.95.77-1.7l.05-.11c.56-.36,1.05-.75.95-1.53,1.34-1.88,2.97-3.49,4.75-4.93,7.92-6.36,15.77-12.81,23.85-18.95,4.59-3.48,8.07-7.64,10.31-12.88.62-1.44,1.17-2.91,1.75-4.37.54-.19.65-.57.48-1.08l.02-.05c.65-.7,1.16-1.46.91-2.49,2.61-6.01,5.21-12.01,7.82-18.02.64-.41.99-.95.77-1.74v-.04c.59-.45,1.02-.96.79-1.76.04-.25.12-.49.24-.71.51-.19.73-.52.56-1.07,1.07-2.17,2.05-4.39,3.22-6.51,1.26-2.27,2.94-4.21,5.34-5.41,1.07.14,1.9-.42,2.77-.91h-.05c2.66.02,5.32.04,7.98.06,3.89.22,7.77.25,11.66,0,1.94.37,3.77.09,5.51-.85,1.29-.32,2.57-.64,3.86-.96.9.25,1.54-.23,2.16-.76,2.5-1.17,5.01-2.35,7.51-3.52.52.11.82-.1.9-.62l.22-.11c.77.16,1.13-.31,1.38-.92,1.11-.88,2.21-1.75,3.32-2.63,1.2.07,2.41.15,3.61.22.55.56,1.05,1.19,1.66,1.65.56.42.95.89,1.13,1.56-.31,1.04.12,1.87.72,2.66.12.8.25,1.61.37,2.41-.32.5-.17.87.32,1.14.22.56.45,1.12.67,1.69-.2.4.02.58.36.69.2.36.39.72.59,1.07l-.03.32.32.12-.03.22.22.05c-.03.45.19.68.64.69.53,1,1.54,1.36,2.44,1.88.83.78,1.77,1.2,2.92.86h2.36c-.12.61.19.87.74.96.99,1.2,1.89,2.48,2.98,3.59,2.44,2.49,4.03,5.41,5,8.74,1.39,4.75,2.87,9.47,4.31,14.2-.02.28-.04.57-.06.85-.18.7-.05,1.33.46,1.87l.29-.09c-.62,3.98-.13,7.95.26,11.91-.25.47-.2.87.25,1.18.54,3.03,1.08,6.06,1.63,9.08-.29.48-.13.85.3,1.14.11.79.23,1.58.34,2.37-.26.75-.2,1.43.45,1.97.26,1.97.53,3.94.77,5.92.2,1.7.39,3.41-.6,4.97-1.74,1.1-3.52-.03-5.28.12l-.42-.09c-.82-.89-1.84-1.03-2.96-.82-1.32-.28-2.64-.57-3.96-.85-1.47-.88-3.06-1.08-4.73-.79-.15,0-.3-.02-.45-.04-2.05-.87-4.19-1.13-6.39-.84-.16,0-.32-.03-.47-.04-1.51-.73-3.08-1.08-4.75-.77-.41-.05-.81-.09-1.22-.14-1.1-.88-2.35-1.03-3.69-.8h.06c-.83-.64-1.73-1.06-2.81-.83-1.09-.16-2.01-1.03-3.2-.79l-.31-.07c-2.38-1.14-4.77-1.49-7.14,0l-.26-.05-.15.22c-.48-.09-.71.16-.78.6l-.06.05c-.89.23-1.41.83-1.65,1.69l-.05.07c-.45.09-.69.33-.65.81l-.15.25c-.82.48-1.61.58-2.17-.36-1.55-2.59-4.03-3.91-6.69-5.02-2.1-.87-4.23-1.67-6.02-3.13-.08-.51-.38-.83-.86-.99-.25-.26-.51-.53-.76-.79l.03-.2-.18.09c-.2-.09-.4-.17-.61-.24-.37-.44-.85-.68-1.43-.68-2.06,0-4.12,0-6.19.02-1.66-.44-2.69-1.64-3.13-3.16-.34-1.19-.23-2.51-.31-3.77.37-.54.7-1.1.47-1.8.38-1.11.43-2.22.02-3.34.18-.51-.09-.75-.53-.9-.67-1.21-1.83-1.66-3.08-1.98-1.89-.48-3.79-.97-5.68-1.46-2.24-1.54-4.65-2.71-7.29-3.36-.57-.14-1.38-.52-1.8.43,1.06,1.72,2.8,2.55,4.57,2.78,1.78.24,3.11,1.26,4.69,1.79.76.69,1.76.81,2.67,1.18,1.28.52,2.7.86,3.47,2.21-.1.49.09.84.54,1.05,0,.51-.02,1.01-.02,1.52-.47.21-.65.57-.5,1.07-.27.66-.59,1.3-.8,1.97-.73,2.31-.13,4.22,1.87,5.6.93.65,1.94,1.17,2.92,1.76.34.43.75.76,1.34.74l.36.13c1.28,1.24,2.89,1.02,4.45.98,1.71-.04,3.4-.53,5.12-.18l.33,1.7c-.2.51,0,.84.46,1.06.33.49.67.99,1,1.48.97,1.26,2.31,1.13,3.66.97,3.22,1.38,6.5,2.66,9.1,5.15,1.52,1.39,1.97,1.38,3.61-.13,1.58-1.21,2.87-2.85,4.94-3.31,1.29,0,2.58-.02,3.86-.03.6.17,1.13.44,1.47.99-.07.44,0,.8.53.89-.09,4.64,1.3,8.88,3.37,12.98,1.2,2.39,2.14,4.92,3.19,7.39,1.53,3.6,2,7.34,1.4,11.21-.6.48-.84,1.08-.66,1.84-.88,2.15-2.31,3.89-3.96,5.48-.73.7-1.35,1.48-1.33,2.57,0,.83-.21,1.99.54,2.33,1.1.51,1.21-.83,1.65-1.46,1.15-1.62,2.25-3.28,3.39-4.91s2.35-3.21,3-5.12c.53-.72,1-1.45.69-2.41.28-1.12.25-2.23-.1-3.33.27-.72-.08-1.26-.5-1.79,0-.28,0-.56,0-.84.02-.96.51-1.62,1.44-1.79.96-.17,1.6.39,1.95,1.24.37.91.66,1.85,1.01,2.76.46,1.2,1.04,2.31,2.24,2.94,1.33,1.28,2.96.97,4.55.84h-.05c.87.49,1.75.99,2.82.82,4.33,1.88,6.2,5.44,6.7,9.9.14,1.25.17,2.52.24,3.78-.3.46-.25.86.2,1.19l.77,4.79c-.31.47-.18.85.26,1.15.03.28.05.57.1.84.59,2.84.27,5.34-2.44,7.07-.43.27-.61.92-.91,1.4-.59.45-.94.99-.69,1.77-.29,1.41-.22,2.81.15,4.19-.24.49-.1.86.33,1.15.12.76.25,1.53.37,2.29.39,2.61.78,5.22,1.16,7.82-.02.83-.04,1.66-.06,2.48-.06.33-.12.65-.18.98-.3.79-.53,1.62-.91,2.37-1.02,1.96-2.74,3.27-4.6,4.31-3.83,2.14-7.73,4.16-11.6,6.23-1.31-.01-2.62-.03-3.93-.04-.83-.67-1.3-1.57-1.6-2.57.19-.75.03-1.39-.6-1.89-.34-2.5-.66-5.01-1.04-7.51-.38-2.51-1.04-4.94-2.51-7.07-.15-1.09-.7-1.72-1.88-1.64-.11-.21-.38-.52-.32-.63.65-1.05.16-1.88-.45-2.71-.94-1.56-2.36-.56-3.56-.67-.81-1.14-1.74-2.1-3.27-2.14-.72-.24-1.44-.49-2.15-.73-.22-1.37-.44-2.74-.66-4.1-.3-.77-.9-1.03-1.67-1.03-1.14,0-2.28-.03-3.41-.05-1.3-.28-2.51-1.35-4.07-.42,2.07,2.63,4.93,4.1,7.75,5.6.86.87,1.91,1.12,3.09.92-.11,1.03.64,1.43,1.37,1.8.97.49,1.96,1.07,3.1.45.22.11.45.21.67.31-.22,1.63,1.13,1.92,2.15,2.47.51.28,1.41-.14,1.52.85-.03.65-.19,1.33.46,1.8l1.56,7.61c-.27.5-.13.87.34,1.15.48,3.34.95,6.68,1.43,10.02-.3.48-.17.86.28,1.17.39,2.53.82,5.06,1.17,7.61.25,1.85-.63,2.98-2.45,3.4-1.65-.23-3.18.16-4.66.84-.16,0-.31.02-.47.04-1.93-.3-3.78,0-5.55.82l-1.23.11c-3.05.04-6.14-.45-9.1.73-1.99.29-3.68,1.14-4.98,2.7-1.24.66-2.5,1.31-3.73,2-.53.3-.88.75-.43,1.35.32.43.81.25,1.14.03,1.3-.84,2.57-1.74,3.84-2.62.5-.03,1-.06,1.5-.1,1.36.3,2.55-.19,3.72-.78h-.05c1.62.33,3.05-.29,4.49-.88.15,0,.3-.02.44-.06,1.67.31,3.19-.31,4.73-.78.15,0,.31,0,.46-.04,3.88-.01,7.76-.02,11.63-.03,2.39.39,3.18,2.08,3.39,4.22-.25.47-.18.86.29,1.14.17,1.13.31,2.27.53,3.39.04.22.36.53.57.56.4.05.8-.05.95-.58.89-3.01.38-5.95-.37-8.89-.5-1.94-1.09-3.85-1.45-5.82-.63-3.34.63-5.91,3.61-7.54,1.75-.96,3.57-1.79,5.39-2.63,5.32-2.45,10.63-4.94,15.53-8.19.77-.51,1.79-.83,2.05-2.02-1.81-1.43-3.14-3.27-4.12-5.38.17-.77-.17-1.32-.76-1.77-.03-.25-.11-.49-.23-.71-.38-1.8-.76-3.6-1.14-5.39-.18-3.58.5-6.88,3.08-9.58.37-.39.56-.95.83-1.43.65-.46,1-1.03.68-1.85.55-4.01-.29-7.93-.83-11.86.24-.76.17-1.43-.52-1.93-.31-1.35-.71-2.7-.91-4.07-.22-1.48-.68-3.04.61-4.33,1.52-.03,3.05-.06,4.57-.09,1.03.29,2.06.57,3.08.86.91.55,1.81,1.11,2.95.83l.42.08c.91.61,1.85,1.11,3,.8,1.31.29,2.63.58,3.94.87,1.77.71,3.58,1.21,5.52.84.16.03.31.04.47.04,2.88.87,5.81,1.19,8.81.83l.06.04c3.31.69,6.66.93,10.04.64,4.36.12,8.71.23,13.07.35,3.68.19,7.35.38,11.03.57,1.49.16,2.98.49,4.48.11h-.05c1.22.33,2.39.91,3.71.79,1.03.31,1.78.99,2.45,1.79.12.59.33,1.15,1.07.97.46-.11.52-.59.51-1.01,0-.28-.09-.55-.14-.83.18-1.51.02-2.85-1.68-3.43-1.02-1.1-2.36-.79-3.61-.81-4.98-.06-9.96-.08-14.94-.11-4.41-.72-8.84-1.05-13.31-.78-.17,0-.33-.02-.5-.03-2.64-.92-5.36-1.06-8.12-.81-.16,0-.32-.02-.48-.03-2.07-.87-4.22-1.07-6.42-.81-.15,0-.31-.02-.46-.03-2.04-.88-4.16-1.13-6.36-.86-.16-.02-.32-.03-.48-.04-1.77-.89-3.65-1.05-5.59-.78-.15,0-.31-.03-.46-.04-1.78-.79-3.62-1.12-5.56-.82-.15,0-.3-.03-.46-.04-1.45-.79-2.99-1.13-4.64-.86-.15-.02-.31-.05-.46-.07-.87-.78-1.89-1-3.02-.76-1.24-.35-2.5-.64-3.71-1.05-5.89-2-11.32-4.81-15.84-9.17-1.55-1.49-3.06-2.93-5.17-3.71-1.62-.61-2.78-2.01-3.72-3.46-.85-1.32-1.56-2.72-2.33-4.09.19-.77-.13-1.34-.72-1.8-.09-.5-.18-1-.27-1.51.23-.48.13-.86-.35-1.12-.36-2.07-.57-4.14.28-6.16.69-.31,1.37-.11,2.07,0,.82.15,1.67.14,2.51.19h-.05c1.4.5,2.77,1.21,4.34.86h-.05c1.4.5,2.77,1.21,4.34.86h-.05c1.47.49,2.89,1.2,4.51.86.15.04.29.06.44.06,1.21.63,2.45,1.12,3.85.8.15.04.29.06.44.06,1.21.63,2.45,1.13,3.86.79.15.03.3.05.45.06,1.21.6,2.44,1.13,3.85.8.15.04.3.06.45.06,1.21.6,2.44,1.13,3.85.8.15.04.3.06.45.06,1.22.59,2.46,1.1,3.86.78,4.17,1.16,8.33,2.33,12.5,3.49,1.39.72,2.88.98,4.43,1.03,1.66.32,3.3.77,5.02.56,3.52.41,7.05.36,10.58.07.32-.03.8-.13.2-.69-.2-.19-.11.45-.48,0-1.39-.97-2.98-1.03-4.59-.96l-.26.11c-.28-.04-.56-.08-.84-.1-1.75-.83-3.57-1.15-5.5-.87-.16-.02-.31-.04-.47-.05-1.4-.92-2.94-1.05-4.54-.82h.06c-1.39-.87-2.9-1.09-4.49-.85-.16-.02-.31-.05-.47-.06-1.14-.92-2.45-1.01-3.82-.8-.15-.03-.31-.05-.46-.07-1.12-.94-2.43-1.02-3.8-.83-2-.38-3.25-1.7-4.19-3.39.14-.74-.04-1.37-.67-1.84-.13-1.06-.27-2.13-.4-3.19.26-.47.2-.87-.27-1.17-.75-4.78-1.5-9.55-2.25-14.33.24-.46.19-.86-.26-1.17-1.03-5.94-2.05-11.87-3.08-17.81.24-.89.21-1.77-.07-2.64.16-1.43.2-2.85-.23-4.25.27-.69-.08-1.22-.46-1.74-.03-.56-.03-1.13-.09-1.69-.29-2.63.8-4.36,3.33-5.16,1.87.19,3.59-.47,5.36-.9h-.05c2.16.39,4.16-.27,6.17-.89,1.32-.27,2.65-.54,3.97-.82,1.16.28,2.12-.15,3.02-.81.35-.09.7-.18,1.05-.27.14.02.34.11.42.05.32-.26.77-.52.87-.86.14-.48-.35-.67-.77-.68-3.27-.04-6.59-.62-9.72.86-.15.01-.3.03-.45.05-1.36-.3-2.58,0-3.7.81h.06c-1.34-.24-2.59-.08-3.69.8-.16.02-.32.04-.48.07-1.91-.23-3.74.03-5.49.84-1.76.13-2.35-.98-2.58-2.46.28-.77.02-1.37-.59-1.87-.54-1.79-1.68-3.19-2.99-4.45-1.71-1.65-3.64-3-5.69-4.2-.34-.73-1.08-.59-1.67-.77-.18-.64-.16-1.38-.87-1.76.02-1.04-.64-1.76-1.2-2.53.09-.63-.25-1.08-.62-1.52.02-1.51.41-3.04-.32-4.5.18-.46-.06-.69-.46-.82l-.02-.04c.11-.7-.31-1.04-.89-1.28.02-.27-.11-.4-.38-.38-.21-.56-.55-.95-1.22-.86-.37-.28-.74-.57-1.11-.85-.44-.63-.89-1.27-1.33-1.9.59-4.48,1.17-8.96,1.76-13.44.5-.27.61-.65.35-1.15.1-.52.19-1.04.29-1.56.49-.53.84-1.11.56-1.87.12-.51.24-1.02.36-1.53.62-.47.9-1.07.66-1.85.07-.25.13-.49.18-.74.61-.45.94-1.01.71-1.79v-.05c.51-.48.94-.98.74-1.75,1.14-2.29,2.24-4.61,3.43-6.88,2.3-4.43,4.74-8.78,6.47-13.48.54-.18.66-.56.51-1.07l.02-.06c.49-.48.89-.99.67-1.74.11-.25.18-.51.23-.78.48-.51.87-1.04.63-1.8.12-.51.24-1.02.36-1.53.61-.5.88-1.1.59-1.88l.26-1.56c.67-.81.96-1.7.58-2.74.45-4.51.63-9.01-.24-13.49.34-.48.17-.83-.27-1.12-.49-2.2-.97-4.41-1.46-6.61.4-.44.33-.83-.14-1.18.05-1.03.11-2.05.16-3.08.41-.36.45-.76.12-1.2.1-1.11.2-2.22.3-3.34.27-.27.54-.54.81-.8,1.95-1.17,3.9-2.34,5.86-3.5,1.08.17,1.92-.37,2.75-.92h-.04c1.3.29,2.4-.32,3.54-.78h-.05,12.11-.05c1.42.49,2.82,1.12,4.39.79h-.05c1.14.4,2.17,1.2,3.48.87h-.05c1.65.97,3.4,1.63,5.31,1.82,3.79,1.69,7.37,3.7,10.19,6.84-.04.52.2.83.7.96.1.22.2.44.31.66-.14.52.11.84.56,1.05.07.24.14.48.2.73-.25.79.13,1.34.71,1.81,2.66,7.04,7.57,11.81,14.56,14.5.87.62,1.74,1.21,2.89.89.14.03.29.06.44.07,1.12.77,2.33,1.16,3.69.78h-.05c1.21.35,2.34,1.07,3.68.85,2.42.83,4.34,2.31,5.8,4.4-.1.76.37,1.19.92,1.57l.04.09c-.17.76.26,1.25.78,1.69l.02.05c-.23.79.18,1.31.77,1.75,1.15,2.58,2.31,5.16,3.46,7.75.11,1.61.59,3.08,1.62,4.34.12.51.24,1.02.36,1.52-.29.77.1,1.32.6,1.84.29.95.56,1.9.89,2.84,1.14,3.28,1.53,6.62.83,10.06-.46.51-.9,1.03-.62,1.8,0,.81-.01,1.62-.02,2.44-.28.76.07,1.3.62,1.76.34,1.22,1.11,2.18,1.9,3.12.98,1.15,1.82,2.38,2.43,3.77-.18.76-.01,1.39.66,1.84.45,2.86.14,5.63-.91,8.33-.13.33-.46.69.02,1.12.6.53,1.03-.03,1.54-.09.14-.01.27-.09.4-.14,1.18-.15,2.14.15,3.02,1.07,1.05,1.1,2.02,2.38,3.58,2.86,2.82,2.35,5.55,4.82,8.48,7.03,4.42,3.32,7.28,7.46,7.67,13.08-.31.47-.15.83.26,1.13.34,2.43,1.5,4.22,3.79,5.33,1.14.55,2.11,1.46,3.11,2.27,2.9,2.33,5.78,4.68,8.67,7.03.09.84.19,1.68.29,2.52-.13.23-.23.48-.29.74-.64.47-.96,1.04-.6,1.84.12.5.24,1.01.36,1.51-.15.41-.04.68.4.79,1.45,1.75,3.52,2.72,5.21,4.17,1.17,1,2.45,1.89,2.72,3.56-.28.51-.12.89.37,1.15.93,3.12,1.87,6.24,2.8,9.35-.18.78.09,1.37.73,1.81,1.78,5.29,4.87,9.87,7.92,14.46-.14.47-.05.84.44,1.04.2.8.19,1.59-.18,2.35-.48.19-.51.53-.34.95-.56,1.34-1.34,2.51-2.53,3.38-1.21,0-2.42.03-3.62.04-1.02-.59-2.04-1.17-3.06-1.76-1.77-1.16-2.1-1.14-3.71.18-.36.44-.71.89-1.07,1.33-2.13,1.5-4.11.96-5.67-.77-1.29-1.42-2.76-2.41-4.49-3.11-1.63-1.95-3.5-3.59-5.92-4.52-.75-.71-1.54-1.29-2.64-.71.58-1.54-.64-2.03-1.57-2.68-1.29-1.47-2.81-2.69-4.64-3.36-.97-.35-1.53-1.15-2.37-1.59-3.23-3.61-6.61-5.81-10.51-6.72.19,1.6.36,3.11.54,4.63-.29.49-.17.88.31,1.17l.5,3.21c-.26.49-.15.87.31,1.16.49,3.02.97,6.04,1.46,9.07-.29.49-.17.88.31,1.17.16,1.07.33,2.14.49,3.21-.25.48-.14.87.31,1.17.13.78.26,1.57.39,2.35-.24,1.18-.19,2.36.04,3.54-.24,1.04-.67,1.97-1.65,2.54-1.91.24-3.81.44-5.74.03-.78-.16-1.64,0-2.46,0-.43-.03-.85-.06-1.28-.09-2.63-1.04-5.35-1.05-8.11-.82-.17,0-.33-.02-.5-.02-3.81-1-7.68-1.08-11.57-.8-1.29-.03-2.58-.06-3.87-.09-.27-.1-.53-.27-.8-.3-7.42-.61-14.86-.61-22.3-.46-.14,0-.27.39-.42.62,1.05.41,2.04,1.03,3.25.79.62.08,1.23.17,1.85.25,2.28.92,4.64,1.18,7.08.84l.07.05c2.16.69,4.37.87,6.62.68,2.41.19,4.81.5,7.23.11.16.02.33.03.49.02,2.97.46,5.92,1.2,8.97.84.15.03.31.04.46.03,1.82.52,3.64,1.11,5.58.8,2.26.32,4.21,1.24,4.66,3.65.61,3.34.91,6.8-.04,10.08-.84,2.92-1.11,5.78-.87,8.77.16,1.96.44,3.94-.21,5.88-.68-.1-.92.39-1.18.87-.89.58-1.78,1.17-2.67,1.75-.51-.05-.81.17-.87.68l-.07.05c-2.8,1.72-5.6,3.44-8.4,5.17l-.14.05c-.74-.1-1.36.05-1.73.77-2.5.97-4.36,2.56-5.17,5.21-.67.49-.84,1.13-.56,1.9-.08,1.71-.22,3.43-.24,5.14-.03,2.43.06,4.86.03,7.3-.03,2.35-.88,4.18-3.39,4.8-2.3-.07-4.58.02-6.8.69-.31.04-.62.08-.92.13-2.85-.35-5.69-.06-8.53.17-1.5-.35-2.95-.23-4.31.55-.49.04-.99.09-1.48.13-1.67-.31-3.26-.05-4.74.78-1.87.31-3.74.62-5.6.92-3.33-.26-6.64-.17-9.88.77-.99.04-1.98.07-2.98.11-3.34-.21-6.68-.31-9.92.74-.73.16-1.46.47-1.48,1.28-.04,1.27.05,2.55.2,3.81.77,6.62,1.58,13.24,2.38,19.86-.28,1.13-.16,2.21.33,3.27.66-.28.67-.91.8-1.44.18-.69.31-1.39-.1-2.06.98-4.77.13-9.48-.38-14.21.24-.47.17-.85-.32-1.12-.33-1.35-.31-2.71-.18-4.08.62-.43.81-1.03.68-1.75.54-1.05,1.41-1.66,2.56-1.89,2.24-.02,4.48-.05,6.72-.07,1.53.11,3.05.28,4.58.3,1.8.02,3.64.08,5.26-.97.72-.28,1.45-.57,2.17-.85,4.14-.16,8.33.23,12.4-.89.16,0,.31,0,.46-.03,2.44.35,4.79-.13,7.11-.83h-.05c1.92.21,3.82.31,5.58-.71,1.52-.05,3.05-.1,4.57-.15,1.92.35,3.78.34,5.39-.99.65-.47,1.37-.87,1.64-1.7.53-.43.89-.91.62-1.64,0-.83.02-1.65.02-2.48.23-.48.18-.9-.24-1.26-.21-2.72-.56-5.44.13-8.14.47-.26.5-.63.25-1.07.67-4.04,3.04-6.99,6.14-9.45,2.64-1.3,5.44-2.34,7.64-4.4.96.18,1.93.37,2.65-.57.61-.88,1.21-1.75,1.82-2.63.83-.3,1.47-.77,1.64-1.7,1.36-1.9,1.98-4.04,1.79-6.35-.37-4.52,0-8.97.96-13.38.56-.36.48-.7-.03-1.02.02-1.09.03-2.18.05-3.26.47-.25.64-.62.42-1.13.41-1.3,1.34-2.04,2.59-2.44,2.39-.19,4.89.45,7.11-.97.86-.53,1.16-1.37,1.27-2.32.57-.47.42-.81-.18-1.09-.13-.52-.26-1.03-.38-1.55-.04-1.47-.08-2.94-.12-4.41.35-1.69.27-3.37-.11-5.04.27-.47.14-.86-.27-1.17l-1.18-9.13c.17-.49.05-.86-.45-1.05-.05-.79-.1-1.58-.15-2.38.45-.15.66-.48.65-.95.73-.88,1.6-.91,2.54-.39.71.39,1.4.82,2.1,1.23,1.27.98,2.74,1.65,3.71,3.06.69,1.01,1.83,1.64,2.97,2.14.93.93,2.2,1.19,3.35,1.68.35.78.83,1.43,1.67,1.73,1.78,1.79,3.64,3.46,6.08,4.32,1.75,2.39,4.56,3.38,6.78,5.14.93,1.1,2.17,1.97,2.7,3.39-.18.76.11,1.34.67,1.82-.02,1.42.05,2.86-.07,4.27-.37,4.29-.13,8.55.49,12.8-.23.47-.16.88.28,1.2l.55,3.89c-.31.76,0,1.37.5,1.92l.25,1.56c-.25.76-.09,1.41.55,1.92.67,2.81,1.34,5.62,2.01,8.44.09,2.17.4,4.3,1.38,6.28.69,3.62,1.38,7.25,2.07,10.87-.25.76-.15,1.42.52,1.93.17,1.03.34,2.06.5,3.09-.3.49-.19.88.28,1.18.22,1.36.24,2.72-.07,4.07-.48.24-.58.62-.37,1.1-.11.46-.22.93-.33,1.39-.83.86-1.66,1.71-2.49,2.57-2.47,1.48-4.1,3.79-5.84,5.98-1.83,2.32-3.67,4.62-6.21,6.23-1.07.04-2.15.08-3.22.11-1.72-.85-2.79-2.37-3.93-3.82-1.68-2.11-3.42-4.17-5.61-5.78-.12-.54-.44-.86-1-.91-1.2-2.36-2.48-4.65-4.95-5.96-3.15-3.76-6.35-7.48-9.45-11.28-1.78-2.18-3.66-4.22-5.94-5.87-.59-3.21-3.04-5-5.29-6.95-.26-.31-.48-.68-.79-.93-.18-.14-.57-.22-.75-.11-.19.11-.32.47-.31.71.02.6.37,1.03.89,1.33,1.47,2.29,3.32,4.22,5.4,5.96,1.69,2.41,4.22,4.15,5.35,7.03.28.71,1.22,1.14,1.81,1.74,1.29,1.3,2.93,2.42,3.75,3.98,1.05,2,2.58,3.28,4.32,4.48.39,2.81,2.35,4.46,4.43,6.02.51.6,1.01,1.19,1.52,1.79.93,2.45,2.91,4.17,4.41,6.22,2.55,3.5,2.58,4.97.01,8.34-1.29,1.69-2.6,3.36-3.9,5.04-.35.23-.74.41-1.04.69-4.36,4.3-8.71,8.6-13.04,12.92-.6.6-1.07,1.31-1.59,1.99-.19.25-.1.51.24.67.1.05.28.05.36,0,.68-.5,1.41-.96,2.01-1.55,4.82-4.83,9.61-9.69,14.42-14.54,2.91-2,5.91-3.88,8.72-6.02,6.1-4.66,11.59-9.95,15.76-16.47.87-.59,1.31-2.02,2.79-1.45,1.27,3.75,3.18,6.94,7.13,8.42,1.67,1.16,3.34,1.01,5-.02l.06-.05c1.09.27,1.9-.27,2.65-.95l1.58-.57c2.01,5.08,2.03,5.11,4.68,6.68-.29-3.45-1.9-5.95-4.42-7.96-.02-.14,0-.29-.06-.41-1.11-2.24-1.53-2.4-3.31-1.26-.93.6-1.85,1.21-2.77,1.82-1.45.08-2.89.43-4.34,0-1.11-1.2-1.48-2.69-1.79-4.24-1.16-5.69-2.36-11.37-3.54-17.06.23-.47.17-.87-.29-1.17-.15-1.12-.24-2.25-.46-3.36-.58-2.89-.89-5.87-2.47-8.48-.09-1.38-1.03-2.33-1.71-3.4.57-2.59.13-5.14-.24-7.7.29-1-.12-1.84-.63-2.65-.32-1.41-.64-2.82-.96-4.23.22-.75.18-1.42-.51-1.93-.72-5.05-1.25-10.12-.98-15.23.42-.32.55-.65.05-1.02.07-1.64.04-3.29.24-4.91.13-1.04.15-2.23,1.22-2.92,1.17.02,2.34.05,3.51.07.21.04.42.08.63.12,1.83,1.37,3.6,1.35,5.32-.21,2.14-1.51,3.26-3.76,4.39-6.03,1.31-2.61,2.3-5.4,4.26-7.65.84.03,1.68.06,2.51.09.63.29,1.26.58,1.89.87,1.65,1.16,3.3,1.19,4.95,0,1.31-.85,2.71-1.6,3.91-2.57,6.76-5.46,13.44-11.01,19.8-16.94,3.33-3.1,6.88-5.98,10.47-8.78,3.15-2.47,6.61-4.45,10.59-5.31,1.73,0,3.45.02,5.18.04,1.62.96,1.97,2.69,2.47,4.27,1.43,4.46,1.81,9.1,2.09,13.75-.29.44-.26.84.15,1.19.29,2.47.58,4.93.87,7.4-.29.47-.13.82.27,1.13.8,4.4,2.22,8.52,5.26,11.94,1.76,2.22,3.51,4.45,5.27,6.67.64,1.45,1.27,2.9,1.91,4.34-.19.75.21,1.27.68,1.77.06.25.1.5.14.75-.24.52-.09.89.43,1.13.14.77.29,1.55.43,2.32-.33.76-.28,1.44.45,1.97.08,1.96.2,3.93.24,5.89.03,1.68-.13,3.38.38,5.02-.22.51.04.8.45,1.03.73,1.47,2.01,2.18,3.52,2.59,1.34.31,2.68.63,4.01.94l1.14,3.33c.05.31.1.61.15.92-.02,1.39-.04,2.77-.05,4.16-.36,1.05.13,1.84.77,2.59v.05c-.26,1.03.24,1.8.85,2.54v.04c-.23.76-.1,1.41.59,1.87.19,1.37.33,2.73-.03,4.1-.71.32-.86.89-.73,1.59l-.09.15c-.53.02-.74.31-.71.82-.29.33-.58.65-.87.98-.5-.04-.82.14-.86.68l-.12.08c-.75-.02-1.23.26-1.24,1.08-.02.51-.05,1.01-.07,1.52-.26.75.17,1.26.62,1.76.6,2.92-.39,4.98-3.26,6.02-.82-.14-1.54-.05-1.99.76h.05c-1.08-.16-2.06-.02-2.77.92-.74.35-1.51.64-2.21,1.06-1.54.9-2.39,2.21-2.15,4.08-.59.5-.19.74.26.97.31.57.63,1.14.94,1.71-.04,1.1-.09,2.19-.13,3.29l.07.14c-1.15,1.76-1.15,1.87.04,3.3,2.6,1.95,5.21,3.89,7.4,6.32,2.63,2.92,4,6.16,2.83,10.13-.78.61-1.11,1.4-.92,2.39l-.05.14c-.5.12-.69.45-.64.95-.15,1.25-.36,2.5.71,3.5.3,2.17.78,4.38-1.45,5.92-.57-.05-.99.13-1.16.72h.03c-1.3-.1-2.48.24-3.54.99-2.35.26-3.73-.95-4.54-3.01-.73-1.84-1.44-3.68-2.16-5.52.13-.51,0-.88-.54-1.03-.13-.49-.27-.99-.4-1.48.17-.53,0-.88-.55-1.01,0,0-.08-.14-.08-.13.15-.25.12-.47-.09-.68-.34-.53-.67-1.07-1.45-.91l-.32-.19c-.2-.81-.76-.86-1.43-.68l-.29-.08c-.25-.45-.5-.9-.75-1.34,1.42-1.51,2.84-3.01,4.26-4.52.8-.33,1.39-.86,1.66-1.7.04-.12.08-.34.02-.38-.2-.13-.5-.34-.65-.27-.74.33-1.54.6-2,1.36-1.99.77-3.71,1.98-5.17,3.5-1.27,1.31-2.49,2.62-4.26,3.27-.34.13-.63.54-.83.89-.11.18-.07.57.06.74.13.19.45.31.7.33,1.32.1,1.89-1.03,2.72-1.74.96-.06,1.93-.42,2.87.09v1.42c-.3.53-.13.9.38,1.17.1.23.18.46.24.7-.11.56.15.87.67.99.18.82.37,1.65.55,2.47-.23.66.1,1.16.5,1.63l.02.12c-.02.11-.09.24-.06.34.05.21.15.41.23.62-.14.78-.28,1.55-.42,2.33-.7.06-1.03.58-1.37,1.08l-.24.1c-.7-.15-1.13.3-1.56.73,0,0-.19.04-.18.04-1.69-.02-3.37-.05-5.06-.07-2.23-1.15-4.46-2.31-6.69-3.46-1.36-1.21-1.74-1.22-3.02-.03-.91.71-1.17,1.6-.55,2.59.67,1.08,1.48,2.07,2.15,3.14,3.29,5.27,6.55,10.55,9.81,15.82-.18.76.11,1.33.73,1.77,0,.54,0,1.07-.01,1.61-.59.33-.94.8-.82,1.52l-.17.19c-.49-.08-.73.11-.65.62,0,0-.27.23-.26.23-.45-.12-.68,0-.59.51-.08.16-.21.28-.38.34-.44-.13-.61.02-.5.47-.08.18-.21.31-.39.39-.44-.13-.59.03-.47.47-.06.16-.17.28-.33.36-.74-.07-1.04.38-1.2,1-.29.25-.58.51-.87.76-.55-.02-.97.16-1.11.75h.02c-2.02.27-4.05.38-6.09.17-2.15-1.29-3.23-3.53-4.78-5.35-.73-.86-1.32-1.87-2.13-2.64-1.28-1.21-3.24-.57-3.71,1.12-.08.27-.18.56-.15.83.34,3.06-1.22,5.41-2.8,7.77-.67.4-1.01.95-.77,1.75-.07.25-.12.5-.16.76-1.55,1.71-.71,3.41.02,5.11-3.62,5.27-7.19,10.57-11.69,15.15-2.3,2.34-4.68,4.57-7.44,6.35-2.54,1.63-4.36,3.51-3.97,6.9.23,1.98-.83,3.54-2.65,4.47-1.69-.02-3.39-.04-5.08-.06-1.92-.13-2.49-1.68-3.2-3.07l-.08-.19c.3.2.55.13.75-.16l2.37-2.93c1.95-1.18,3.37-2.93,4.92-4.54.26-.27.26-.82-.23-1.03-.22-.09-.66-.1-.77.04-1.4,1.74-3.34,3.02-4.41,5.05-1,.76-2,1.53-3,2.29-.46.13-.77.38-.73.91l-.07.09c-.55.06-.77.38-.73.92-.45.33-.87.72-1.35.99-3.35,1.82-4.07,3.59-2.53,7.2.52,1.21.59,2.46.99,3.66-.48.76-.39,1.63-.4,2.47-.06,5.36-.14,10.71-.16,16.07-.01,2.24.07,4.48-.74,6.63-.11.23-.19.46-.25.71-.74.44-.88,1.08-.63,1.86-.1.51-.2,1.02-.29,1.54-.5.26-.63.64-.35,1.14-.62,4.18-1.24,8.36-1.86,12.54-.59.55-1.03,1.17-.84,2.04-.12.26-.1.51.07.75-.44,1.41-.43,2.82-.03,4.24-.2,1.39-1.28,2.15-2.15,3.08-1.27,1.35-2.57,2.67-3.75,4.08-.92,1.11-3.03,3.03-4.21,3.64-.63.32-1.26.68-1.8,1.13-2.02,1.73-3.55,4.07-6.37,4.81-.61.16-.8,1.13-.42,1.87.3.57,1.31.78,1.87.42.12-.08.29-.11.36-.21,1.44-2.05,3.84-2.83,5.7-4.29,3.23-2.53,6.23-5.38,9.24-8.19,1.15-1.07,1.9-2.52,2.22-4.08.27-1.36,1.32-1.27,2.26-1.48,2.16.2,4.22-.29,6.29-.78h-.05c1.41.05,2.82.15,4.23.14,6.38-.04,12.77-.44,19.15-.07.67.42,1.31.87,1.61,1.65-.15.47-.08.85.47.99l.03-.02Zm-297.82-96.44l.09.04c-1.38-1.72-3.14-3.13-4.19-5.12.13-.23.23-.64.4-.67,2.56-.46,3.93-2.06,4.48-4.5,1.56-1.62,3.77-2.67,4.36-5.14.12-.49.6-1.01,1.05-1.3,2.48-1.57,3.22-4.64,5.62-6.35.93-.66,1.27-2.17,1.88-3.3.16-.3.1-.55-.18-.75-1.69,1.11-2.88,2.23-3.57,3.36-.51.85-.82,1.81-1.67,2.45-2.42,1.79-3.39,4.89-5.87,6.65-.32.23-.58.7-.63,1.09-.24,1.61-1.7,2.22-2.57,3.31-1.41.86-1.96,2.32-2.44,3.76-.3.9-.73.94-1.51.76-.66-.16-1.37-.14-2.05-.2l-.04-.1c-.81-.78-1.78-1-2.86-.76-.15-.03-.29-.05-.44-.07-.89-.66-1.85-1.07-3-.79-3.28-.91-6.55-1.81-9.83-2.72-.53-.72-1.25-.93-2.11-.79-2.82-1.18-5.13-2.91-6.72-5.62-1.32-2.26-3.24-3.94-5.84-4.69-2.41-1.59-5.11-.51-7.66-.83-.02.24-.16.58-.05.71.25.3.62.51.95.75,1.04,1.12,2.34,1.72,3.84,1.94,1.23.42,2.43,1,3.78.9.6.6,1.32,1.12,1.76,1.81,2.18,3.39,5.31,5.53,8.99,6.96,1.59.62,3.22,1.15,4.84,1.68,6.66,2.14,13.25,4.42,19.49,7.64.37.54.85.92,1.53,1,1.22,1.05,2.44,2.11,3.65,3.16,2.18,1.81,4.5,3.48,6.5,5.47,2.33,2.32,4.88,4.31,7.64,6.07,2.67,1.7,4.95,3.8,6.48,6.62.24,1.19.03,2.14-.96,3.04-2.21,2.02-4.21,4.23-5.3,7.11-.8.79-1.59,1.58-2.41,2.35-.4.38-.86.69-.74,1.38.1.55.96.44,1.71-.31.79-.8,1.5-1.67,2.24-2.51,2.75-2.51,4.94-5.45,6.78-8.67,1.33.05,2.66.1,3.99.15,1.35.96,2.7,1.92,4.05,2.88,2.02,1.45,3.91,3.09,6.28,3.96,2.43,1.92,4.96,3.74,7.28,5.78,3.12,2.75,6.3,5.36,10.1,7.13.89.89,1.82,1.74,2.67,2.67.68.75,1.48,1.29,2.44,1.54.23.06.59-.06.76-.23.1-.1.03-.57-.11-.68-1.4-1.13-2.83-2.23-4.25-3.33-2.67-3.4-6.22-5.73-9.75-8.08-2.81-1.88-5.64-3.73-8.46-5.6-.6-.6-1.15-1.24-1.79-1.78-10.93-9.28-22.42-17.83-34.34-25.8-1.08-1.19-2.14-2.4-3.57-3.19-.2-.23-.44-.3-.73-.22v-.02Zm95.31,79.09c1.1.27,2-.22,2.87-.78l.41-.05c1.62.33,3.07-.28,4.52-.86h-.05c1.62.33,3.09-.17,4.54-.83.15,0,.29-.02.44-.05,1.68.34,3.23-.13,4.74-.79.15,0,.29-.01.43-.04,1.94.33,3.74-.19,5.52-.86.15,0,.3-.02.45-.05,1.63.36,3.09-.22,4.55-.81h-.05c1.37.34,2.58-.09,3.73-.8l.4-.06c1.17.29,2.15-.12,3.06-.79l.38-.06c1.15.28,2.08-.22,2.97-.85.33-.1.67-.21,1-.31.53.1.79-.22.82-.66,0-.2-.24-.58-.4-.59-2.64-.26-5.31-.68-7.81.67-.16.01-.31.03-.47.06-1.13-.25-2.14-.02-3,.78-1.04.29-2.08.57-3.12.86-2.04-.02-4.08-.04-6.12-.06-.56-.55-1.12-1.11-1.68-1.66.11-.74-.24-1.28-.79-1.72-.13-.77-.27-1.53-.4-2.3.32-.49.21-.88-.28-1.18-.18-1.36-.36-2.71-.54-4.07.27-.48.17-.87-.29-1.17-.15-1.05-.3-2.11-.44-3.16.31-1.03.06-1.93-.61-2.73-.08-.53-.15-1.05-.23-1.58.29-1.03.05-1.92-.63-2.72-.08-.52-.17-1.05-.25-1.57.22-.47.16-.87-.32-1.15-.19-1.04-.38-2.09-.56-3.13.28-.76.13-1.41-.51-1.93-.1-.78-.2-1.56-.31-2.35.28-.75.22-1.42-.46-1.93-.17-1.65-.35-3.29-.52-4.94.26-.48.17-.87-.3-1.17-.42-2.21-.84-4.42-1.25-6.63.24-.75.18-1.42-.5-1.93-.17-1.05-.33-2.11-.5-3.16.35-.78.06-1.38-.54-1.89-.38-1.25-1.06-2.24-2.36-2.68-1.63-1.32-3.24-.91-4.84.07-.16.02-.32.04-.48.06-1.6-.26-3.1,0-4.48.87h.06c-1.56-.28-3.01.02-4.36.86h.06c-1.34-.23-2.61-.14-3.7.78-.22.01-.43.07-.62.17-1.4-.04-2.8-.09-4.2-.13-.64-.79-.94-1.67-.92-2.7.05-3.07.06-6.14.09-9.21.55-.47.85-1.04.69-1.78.54-1.1,1.62-1.42,2.64-1.84.84-.01,1.68-.02,2.52-.03,1.69.4,3.06.04,3.87-1.64.43-.63.73-1.48-.3-1.56-2.25-.17-4.53-.07-6.8-.09-1.12-.22-2.18-.19-2.97.81-2.01,1.07-2.52,2.93-2.51,4.99,0,3.66.09,7.32.14,10.98.02,1.49.58,2.73,1.73,3.7,2.04,1.76,4.13,1.2,6.23.15.15,0,.29-.02.43-.05,2.49.33,4.89-.12,7.26-.83.15,0,.31-.01.45-.05,1.42.36,2.68-.07,3.89-.78l.42-.06c1.29,0,2.58.01,3.87.02,1.22.48,1.94,1.42,2.41,2.59-.16.75-.02,1.4.62,1.88.38,2.8.76,5.6,1.14,8.4-.28,1.03-.12,1.95.64,2.73,1.19,3.57,1.79,7.25,1.98,11.01.03.55.19,1.09.29,1.64-.31.47-.17.84.25,1.14l1.22,7.5c-.27.76-.17,1.42.5,1.95.59,3.22,1.25,6.44,1.75,9.67.67,4.31.82,6.77-4.86,8.19-1.63-.21-3.16.09-4.6.88-.16.01-.31.03-.47.05-1.39-.23-2.73-.2-3.89.74-1.09.27-2.18.56-3.28.79-2.31.49-4.18-.23-5.5-2.2-.78-1.17-1.5-2.38-2.25-3.57-.06-.78-.64-1.35-1.24-1.07-.72.34-.36,1.12.05,1.67.07.1.21.16.31.23.39,1.94.78,3.88,1.16,5.81-.26.46-.19.85.28,1.13.23,2.78.45,5.56.68,8.35.04.37.07.75.11,1.12-.05,3.68-.09,7.36-.14,11.03-.55,2.81-.33,5.66-.49,8.49-.99,1.38-.59,2.79-.33,4.43,1.01-.93,1.47-1.76,1.2-2.85.21-1.3.41-2.6.62-3.91.43-.29.5-.67.28-1.13.04-1.11.07-2.23.11-3.34.41-5.09.81-10.18,1.22-15.27.46-.28.57-.66.35-1.15.42-2.22,1.63-3.87,3.61-4.96,1.04.1,1.84-.44,2.64-.99h-.08Zm-29.42,40.42h.21c1.1.26,1.97-.23,2.8-.85.22-.04.44-.08.67-.1,2.04.18,4.03.06,5.94-.76,1.36-.51,2.96-.68,3.7-2.51h-5.08c-1.67-.3-3.28-.16-4.77.74-.41.04-.82.08-1.23.13-1.41-.31-2.69.05-3.91.76-.4.04-.81.08-1.21.12-1.68-.3-3.25.15-4.79.76-3.03-.11-4.68,1.49-5.33,4.31-2.59,2.43-5.27,4.77-7.47,7.59-4,2.77-7.33,6.26-10.56,9.85-.28.31-.55.67-.7,1.05-.08.21.04.58.2.77.14.16.56.3.7.21,4.68-3.05,9.05-6.41,11.37-11.74,2.92-2.19,5.4-4.83,7.69-7.66.58-.34,1.15-.67,1.73-1.01h5.07c.94.59,1.89,1.17,2.83,1.75,1.11,1.27,1.79,3.04,3.4,3.72,2.48,1.04,4.09,3,5.83,4.84.99,1.04,2,2.01,3.27,2.69,1.08.58,2.18.65,2.2.11.02-.76-.29-1.4-.87-1.86-.55-.43-1.14-.91-1.79-1.11-2-.63-3.47-2.01-4.69-3.54-1.82-2.29-4.14-3.74-6.78-4.81.09-.8.19-1.59.28-2.39.43-.35.85-.71,1.28-1.06h0Zm-39.26-165.73c-.57.08-.85.28-.39.84,0,.54-.02,1.09.01,1.63.03.48.4.78.8.72,1.12-.17,2.03-.75,2.75-1.64.39-.49.31-1.02.16-1.56-1.5-1.44-1.72-1.44-3.27-.01h-.05v.02Zm-16.39,88.79c-.71.52-1.5.98-1.72,1.94-2.44,1.99-4.64,4.19-6.12,7.01-.89,1.34-1.95,2.6-2.26,4.25,2.23.33,2.06-2.27,3.55-2.94.67-.3,1.04-1.24,1.55-1.89,1.49-1.51,2.75-3.17,3.42-5.21.54-.61,1.08-1.23,1.61-1.84.39-.39.83-.76,1.16-1.2.23-.3.42-.81-.05-1.03-.41-.19-.8.13-1.04.51-.07.11-.07.27-.1.41h0Zm181.45,68.36c.44.58.84,1.29,1.69.53.1-.4.31-.8.29-1.19-.07-1.26-.76-2.09-1.96-2.45-.22-.07-.64,0-.74.15-.76,1.21-.06,2.1.72,2.96h0ZM120.77,225.09c-.8-.67-1.8-.55-2.73-.68.18-.64-.25-1.04-.61-1.43-1.64-1.77-3.59-3.07-5.9-3.79-.6-.6-1.34-.92-2.18-.82-.43.05-.63.37-.37.81,2.09,2.84,5.09,4.26,8.31,5.33.66.6,1.47.79,2.33.81.4,1.89,1.87,2.3,3.48,2.49.25.03.66-.1.76-.28.09-.18-.06-.56-.21-.78-.7-.98-1.67-1.52-2.87-1.65h0Zm32.76,160.78l-.11-.08c-1.39-1.3-2.82-2.61-4.83-2.68-.8-.03.21,1.18,3.9,3.61,3.47,3.11,6.95,6.23,10.43,9.34.1.09.27.15.39.13.11-.02.2-.17.29-.25-.7-2.99-1.23-3.98-3.25-5.66-1.63-1.36-3.4-2.52-5.32-3.45-.39-.5-.8-.96-1.51-.95h.01ZM247.83,124.77c1.1,1.6,3.11,1.88,4.49,3.07,4.9,4.93,10.45,8.98,16.52,12.32.75.96,1.94,1.21,2.92,1.81,2.2,3.24,5.45,5.15,8.82,6.89.49.41,1.03,1.12,1.59.28.3-.43-.1-1-.66-1.24-2.28-2.78-5.04-4.91-8.43-6.17-.96-.76-1.93-1.52-2.89-2.28-5.07-4.93-10.79-8.97-17.05-12.24-1.46-1.16-2.37-2.98-4.3-3.58-.4-.63-.95-.86-1.68-.63-.31-.58-.7-1.14-.91-1.76-.33-.95-.22-1.84.74-2.44,1.08.06,1.98-.41,2.87-.93.4-.04.8-.09,1.21-.13,1.41.34,2.65-.19,3.87-.79,3.95-1.13,7.83-2.43,10.99-5.22,1.49-.75,2.96-1.53,4.46-2.24,1.74-.81,3.45-1.63,4.68-3.8-2.63.14-4.62.89-6.18,2.27-1.39,1.23-3.03,1.96-4.52,2.98-4.84,1.74-9.68,3.47-14.52,5.21-1.66-.26-3.26-.09-4.74.76-.42.04-.83.08-1.25.12-1.14-.27-2.19-.09-3.09.69-2.67.43-5.23,1.25-7.73,2.26-.62-.04-1.33.28-1.39.73-.11.8.71.56,1.16.55,2.54-.02,5.08-.08,7.62-.13,2.05.21,3.9,1.01,5.73,1.89.32.79.92,1.31,1.65,1.7l.02.05Zm32.65-25.12l-.1.11c-1.4,1.61-2.05,3.08-1.95,4.41,1.75-.91,3.4-1.89,4.55-3.51.62-.57,1.27-1.11,1.86-1.71s1.16-1.24,1.68-1.91c.45-.59,1.28-1.03.95-2.08-1.72.39-3.18,1.12-4.43,2.27-1.2.44-2.16,1.14-2.56,2.42h0Zm-18.85,328.38c-2.16-.43-3.88-1.55-5.29-3.25-.62-.75-1.4-1.37-2.1-2.06-.13-.49-.25-.97-.38-1.46.16-.48.05-.84-.44-1.05-.97-3.04-2.23-5.13-3.77-6.28-.3,1.8.17,3.41.57,5.03.53,2.18,1.57,3.93,3.69,4.89,1.1,1.7,2.57,3.03,4.17,4.24,1.02,2.77,3.29,2.75,5.63,2.45.55-.07.45-.65.28-1-.46-.97-1.27-1.49-2.36-1.53v.02Zm109.67-145.01c.31-.19.98,0,.84-.67-.59-2.87-2.37-4.71-5.53-5.74,1.61,2.17,3.18,4.29,4.75,6.4.36.2.79.33,1.05.61,1.42,1.53,3.11,2.84,3.96,4.84.14.34.66.53,1.06.28.42-.27.42-.81.21-1.12-1.51-2.19-3.37-4.05-5.61-5.5-.04-.03-.49.59-.74.9h.01Zm-246.2,12.53c-.9-1.23-2.01-2.22-3.44-2.8-1.03-.42-1.95-.96-2.61-1.89-.25-.8-.81-1.1-1.41-.52-.45.44-.05.99.42,1.31.32.22.69.37,1.04.55,1.51,2.09,3.28,3.86,5.72,4.89.63.27,1.14.82,1.71,1.24,1.47,1.08,1.54,1.08,3.04,0,.68-.44,1.4-.83,1.64-1.7.12.56-.26-.64.23-.34,0-.1.07-.26.03-.28-1.04-.62-2.14-.28-3.19-.1-1.12.19-2.16.2-3.17-.37h0Zm50.93,18.35c.31,1.9.63,3.79.94,5.69-.34.48-.21.87.25,1.18.16,1.06.32,2.12.48,3.18-.07.92.49,1.14,1.25,1.06.64-.06.91-.46.79-1.09.05-5.32-.63-10.48-3.2-15.25.11-.6-.22-1.03-.61-1.42-.18-.18-.42-.39-.65-.4-.13,0-.36.35-.39.56-.1.81-.12,1.63.61,2.22.11,1.07.23,2.14.34,3.21-.06.12-.19.27-.16.37.08.24.23.46.36.69h0Zm107.11,147.78c.16.22.27.48.47.63.32.24.74.42,1.07.08.32-.33.19-.75-.07-1.08-.16-.21-.39-.37-.59-.55-2.09-3.58-4.41-6.96-7.84-9.43-.84-1.29-1.65-2.6-2.56-3.84-.19-.26-.76-.33-1.15-.34-.39-.01-.71,1.06-.41,1.45,1.11,1.45,2.25,2.87,3.37,4.31,1.68,3.7,4.39,6.51,7.7,8.78h0Zm40.44-13.87c-.8.23-1.09.86-1.09,1.59,0,1.97.08,3.93.09,5.9.02,4.07.38,8.15-.29,12.2-.47.29-.53.67-.27,1.13-.08.81-.16,1.62-.25,2.43-.69.24-.83.69-.33,1.18.09.09.69-.23.97-.46.17-.14.16-.49.23-.74.62-1.12,1.24-2.25,1.86-3.37.66-.47.94-1.07.63-1.87.61-4.23.25-8.45-.1-12.67.35-1.01.4-1.98-.32-2.87-.07-.79.15-1.63-.35-2.36.34-.02.4-.21.1-.39-.35-.21-.69-.11-.87.3h-.01Zm-41.34-132.35c-4.98,3.5-9.97,7-14.95,10.5-.23.16-.44.36-.65.55-1.28,1.15-2.6,2.18-4.2,2.9-1.28.57-2.53,1.36-2.89,3.1,1.93.28,3.32-.71,4.52-1.9,1.04-1.03,2.2-1.78,3.51-2.39,6.09-2.84,10.62-7.54,14.84-12.58.95-.11,1.33-.88,1.79-1.55.04-.05-.02-.23-.09-.28-.09-.07-.28-.16-.34-.11-.67.45-1.46.8-1.53,1.77h0Zm-46.2,65.3c-.34-1.12-.69-2.24-1.03-3.36.12-.59-.08-1.19-.67-1.16-.95.05-.87.74-.53,1.41-.38,3.86-.76,7.73-1.13,11.59-.23.62,0,.94.65.97,1.96.82,1.91,2.63,2.13,4.3-.03.33-.07.66-.1.99.02,1.1.04,2.2.06,3.31-.27.47-.09.81.33,1.08.18,1.17.9,1.91,1.9,2.44,1.16,1.79,2.88,3.04,4.37,4.52.1.1.2.22.32.27.36.13.87.42,1.06.28.56-.41.31-1.04,0-1.49-.39-.58-.87-1.1-1.37-1.58-1.1-1.07-2.24-2.1-3.36-3.15-.12-2.11-.32-4.2-.84-6.27-.64-2.6-1.01-5.25-1.09-7.95-.05-1.69-.31-3.36-.48-5.05.35-.47.18-.84-.22-1.16h0Zm-17.13-66.15c-.9-.55-1.84-.97-2.93-.85-1.89-1.03-2.51-2.85-2.93-4.78.09-.54.24-1.08.26-1.63,0-.2-.26-.51-.47-.58-.46-.15-.83.11-.94.57-.09.4-.08.82-.11,1.23l-.81,2.66c-.56.79-1.01,1.6-.63,2.61-.21,1.17.31,1.97,1.31,2.51.93.76,2.03.87,3.16.87,2.51,0,5.03-.03,7.54-.04,2.69.7,3.92,2.57,4.22,5.21.06.56.16,1.12.22,1.69.31,2.93,1.53,5.31,3.73,7.38,3.29,3.09,3.9,7.14,2.16,11.61-.82-.02-1.61.03-2.21.7-1.95.48-2.3,1.88-2.06,3.61.55,3.94,1.1,7.88,1.66,11.82-.33.76-.26,1.44.44,1.96.17,1.07.34,2.14.51,3.21-.33.76,0,1.36.48,1.92.33,1.4.67,2.79,1,4.19-.25,1.24.35,2.06,1.42,3.2.39-1.99.63-3.47.02-4.97-.11-3.69-.45-7.36-1.02-11.01.27-.47.13-.84-.28-1.14-.07-.78-.14-1.57-.21-2.35.28-1.01.21-1.94-.63-2.68-.19-1.09-.24-2.17.08-3.24.49-.17.63-.52.52-1,1.94-3.14,5.01-4.43,8.42-5.18,1.15.29,2.09-.19,2.99-.8,1.48-.47,2.9-1.07,4.03-2.17.25-.24.3-.72.33-1.1,0-.08-.47-.25-.73-.3-1.63-.31-2.96.7-4.45,1.02-1.79-.06-3.58-.13-5.37-.19-1.58-1.12-2.39-2.78-3.16-4.46-1.24-2.7-2.46-5.42-3.67-8.14-1.15-2.59-2.19-5.22-2.7-8.04-.48-2.66-1.29-3.25-4.06-3.32-1.7-.05-3.41,0-5.11.02l-.02-.02Zm-76.62-75.49c-4.55-5.03-11.18-9.12-16.41-10.31,3.08,4.09,8.82,7.77,16.41,10.31Zm147.17,227.76c-.21.48-.54.85-.5,1.19.12,1.05.87,1.74,1.62,2.4,2.13,1.86,4.35,3.64,5.76,6.18.21.38.72.45,1.11.24.43-.24.52-.84.27-1.1-2.4-2.57-5.13-4.85-6.71-8.12-.19-.39-.96-.5-1.56-.79h.01Zm5.05-163.09c-.1-.09-.2-.26-.32-.26-.25-.02-.6-.05-.75.09-2.76,2.7-5.49,5.41-8.23,8.13-.29.29-.57.66-.31,1.08.35.56.81.16,1.05-.08,2.75-2.7,5.48-5.43,8.19-8.17.18-.19.23-.51.36-.79h.01Zm-.49-146.4c-.29-1.49-2.53-3.23-4.38-3.4-.11,0-.3.13-.33.23-.07.23-.18.54-.08.73.91,1.73,2.41,2.66,4.31,2.96.13.02.32-.34.49-.52h-.01Zm-136.27,78.04c-.18-.2-.39-.58-.71-.74-.56-.28-1.1-.02-1.49.4-.58.63-.97,1.37-.52,2.23.1.19.45.38.67.36,1.31-.08,2.13-.95,2.05-2.26h0Zm-51.75,57.48c-.25-.2-.5-.39-.75-.59-1.34,1.24-2.68,2.49-3.66,4.08-.14.23-.19.52-.22.79,0,.09.16.22.27.28.11.07.34.14.38.1,1.33-1.54,2.65-3.1,3.97-4.66h.01Z"/><path class="cls-2" d="m436.17,379.97c.07-.81.14-1.62.2-2.42.45-.35.52-.73.12-1.16.25-2.77.49-5.53.74-8.3.49-.27.61-.65.35-1.15.12-.51.25-1.02.37-1.53.67-.43.91-1.03.67-1.8v-.03c.74-.61,1.22-1.33,1.02-2.34,2.08-3.58,4.35-6.98,8.33-8.75,1.79,0,3.58-.02,5.37-.03h-.05c.63.31,1.22.74,1.88.92.76.2,1.38-.09,1.42-1.03h0c.28-.29.57-.57.85-.86h.03c2.74-.58,5.38-.04,8,.69-.37,1.02-.79,2.03-1.1,3.06-.39,1.29-.09,1.51,1.81,1.45,2-.4,3.99,0,5.99.05,2.16.73,3.6,2.26,4.62,4.21.79,1.49.99,2.98-.3,4.35-.51.03-.89.21-.99.76h0c-1.48.04-2.97-.02-4.21,1.01h.06c-1.28-.19-2.52-.19-3.5.85h.05c-1.09-.22-2.08-.08-2.83.83-.36.07-.72.15-1.08.22-.6-.14-1.07,0-1.35.59h.04c-1.01-.12-1.97-.07-2.59.91h.05c-1.11-.25-1.97.22-2.72.98-6.49,2.74-12.76,5.9-18.89,9.37-.87-.04-1.75-.03-2.37-.8v-.05Z"/><path class="cls-2" d="m425.69,355.13c.52,3.87.11,7.66-1.09,11.37-.88,2.72-1.6,5.47-1.52,8.35.05,1.64-.71,2.72-2.1,3.39-1.79.86-3.62,1.64-5.43,2.46-1.06-.15-1.99.05-2.69.94h.05c-1.09-.23-2.03.03-2.8.86-1.02.29-2.04.58-3.07.88-1.07-.19-2.06-.13-2.8.81h.05c-1.35-.25-2.55.08-3.61.95-2.64-.04-3.17-.47-2.95-2.67.17-1.67.53-3.32.8-4.98.76-.44.8-1.11.56-1.86,0-.26.06-.52.16-.76.43-.17.63-.49.62-.95,0-.29,0-.59.01-.88l.02-.07c.63-.69,1.16-1.41.96-2.43,3.81-8.09,10.15-13.67,17.82-17.93.62-.35,1.25-.72,1.93-.91,1.82-.5,3.41-.24,4.36,1.64-.16.76.08,1.36.71,1.81v-.02Z"/><path class="cls-2" d="m448.92,332.62c.03-.26.1-.5.23-.72.5-.18.73-.52.57-1.06.05-.24.14-.46.28-.66.5-.13.73-.44.64-.96l.04-.06c.8-.3,1.31-.86,1.51-1.7l.2-.18c.47.06.71-.18.8-.62,5.01-3.34,10.13-6.51,15.4-9.44,1.55.02,3.1.03,4.65.05.13.05.27.1.4.17,3.41,1.7,4.55,3.71,3.04,8.08-2.1,6.08-5.44,10.96-11.23,13.99-.81-.11-1.5.05-1.91.84h.05c-1.27-.16-2.44.07-3.45.92l-.05.1c-3.1-.03-6.2-.05-9.3-.08-4.12-1.65-4.28-1.98-2.87-6.06.09-.26.19-.52.29-.78.6-.46.97-1.01.72-1.81v-.02Z"/><path class="cls-2" d="m469.35,407.33c.3-1.34.25-2.69.06-4.03.35-.79.06-1.39-.56-1.89-.05-.25-.11-.5-.18-.74.25-.8-.15-1.33-.74-1.78-.58-1.6-1.6-3.02-1.82-4.76-.27-2.18.72-3.56,2.91-3.93,2.53-.43,4.42.58,5.81,2.65-.07.51.14.83.65.95.15.21.24.44.29.69-.2.79.23,1.3.8,1.75v.04c-.23.79.15,1.32.75,1.75h.06c-.24,1.02.28,1.77.91,2.47l.02.05c.03.3.05.6.08.9l.62.92c.05.25.12.49.19.73-.17.51-.06.89.47,1.09.12.5.24.99.36,1.49-.27.8,0,1.39.69,1.83.11.23.17.47.19.73-.28.79-.01,1.4.65,1.86.43,2.22.71,4.44,1.91,6.5,1.64,2.81,1.29,3.68-1.36,5.68-.34.26-.72.46-1.08.68-.59-.08-1,.15-1.19.73l.04-.02c-.78-.1-1.41.09-1.75.87h.05c-2.54.29-5.07.92-7.6-.03l.04.02c-.13-.56-.51-.79-1.06-.78-1.35-1.22-2.69-2.45-4.05-3.67-.74-.66-1.44-1.35-1.73-2.33-.16-.55-.26-1.4.2-1.56,2.83-1.03,2.94-3.87,4.15-5.96.21-.36.4-.73.61-1.1.53-.48.93-1.01.63-1.79h-.02Z"/><path class="cls-2" d="m348.76,415.17c.68-4.88,1.37-9.75,2.05-14.63.72-3.64.57-7.34.78-11.02.04-.35.08-.7.12-1.04.09-3.39.17-6.78.26-10.16.02-.7.02-1.42.76-1.82,5.15,8.19,10.3,16.38,15.43,24.58.75,1.2,1.41,2.47,2.1,3.71.44.78.56,1.6.22,2.46-1.64.4-3.29.17-4.95.11-1.19-.04-2.52-.37-3.42.86,0,0,.04-.01.03-.01-.85-.14-1.52.1-1.89.93-3.36,2.32-6.72,4.64-10.08,6.96-.47-.3-.95-.6-1.42-.9v-.03Z"/><path class="cls-2" d="m417.98,499.38c-.3-.53-.61-1.06-.91-1.59.2-.49.12-.88-.39-1.12-.2-.83-.23-1.75-.64-2.46-1.22-2.11-.86-4.12.18-6.08,1-1.88,2.17-3.66,3.22-5.5.98-1.72,1.95-3.45,2.82-5.23.29-.6.44-1.37-.24-1.95-.67-.58-1.31-.32-1.92.09-.82.56-1.58,1.21-2.44,1.7-2.51,1.42-4.77.44-5.57-2.37-.44-1.54-.34-3.09.03-4.64.58-.45.94-.99.72-1.76l.02-.05c.57-.36,1.06-.76.93-1.54.61-.6,1.23-1.21,1.84-1.81,1.67-.36,3.35-.24,5.03-.14,3.97,1.64,7.34,4,9.46,7.86-.18.78.17,1.32.76,1.77.18,1.39.35,2.78.53,4.17-.05.34-.1.69-.15,1.03-.48,3.43-1.96,6.48-3.64,9.44-1.95,3.43-3.97,6.82-5.97,10.23-1.23.39-2.46.3-3.68-.04h.01Z"/><path class="cls-2" d="m476.21,458.99c2.19-3.8,5.58-6.12,9.53-7.75,1.08.16,1.9-.38,2.72-.95h-.03c.37-.02.73-.05,1.1-.07,1.09,0,2.19.02,3.28.03,0,0,.22.13.22.12.32.71.53,1.51,1.35,1.85,1.02,3.55,3.59,5.53,6.88,6.79.57.51,1.17.94,2,.71,0,0,.09.08.08.08.37.53.83.86,1.52.76l.19.14c.04.45.29.7.73.77l.05.09c-.12.5.06.83.54,1.01.21,1.09.17,2.17-.17,3.24-.51.24-.58.62-.35,1.1-.27,1.97-1.03,3.69-2.6,4.98-2.1.55-4.19.74-6.34.2-.81-.2-1.7-.11-2.55-.16-2.74-.88-3.67-2.98-3.63-5.6.02-1.7.32-3.39.46-5.08.13-1.55-.28-2.44-1.31-2.83-1.26-.48-2.55-.55-3.57.48-1.09,1.1-2.06,2.32-3.08,3.49-1.95.03-3.9.07-5.85.1-.29-.29-.58-.57-.87-.86-.1-.87-.2-1.75-.3-2.62v-.02Z"/><path class="cls-2" d="m442.09,446.89c-3.37-2.31-5.92-5.6-9.39-7.8-1.04-.66-1.17-1.89-.65-3.03.79-1.76,2.16-2.9,3.91-3.64,1.31-.07,2.62-.14,3.92-.21,4.66,2.06,9.33,4.12,13.98,6.19,1.41.63,2.96,1.05,3.83,2.51-.11.5.06.85.54,1.04-.04.5-.07,1.01-.11,1.51-.52.16-.61.53-.48,1-.73,1.48-1.93,2.52-3.25,3.45-.58-.06-.98.18-1.19.73l.05-.02c-2.84.61-5.67.57-8.51,0h.05c-.32-.73-.92-.97-1.68-.92h.01c-.11-.59-.5-.8-1.05-.8h.02Z"/><path class="cls-2" d="m450.84,417.58c-3.31-4.59-4.49-9.79-4.58-15.35-.04-2.14,1.09-3.46,2.62-4.63.77-.58,1.57-.44,2.24.37.18.22.35.46.45.72.64,1.57,1.92,1.84,3.46,1.98,3.28.28,4.91,1.86,5.26,5.08.54,4.93-.95,9.03-5.28,11.82-1.39.09-2.78.35-4.16,0h-.01Z"/><path class="cls-2" d="m493.87,335.26c.98.91,1.17,2.07,1.01,3.33-.09.34-.18.68-.27,1.01-2.46,4.94-4.92,9.89-7.4,14.82-.73,1.46-.77,1.44-2.13-.25-.09-1.12-.58-2-1.53-2.62l-.06-.12c.12-.73-.09-1.3-.82-1.59l-.05-.1c.13-.75-.08-1.33-.81-1.66-.09-.24-.16-.48-.24-.72.21-.77-.07-1.36-.69-1.82-.69-5.55-.08-6.66,4.92-8.94.51-.23,1.07-.38,1.61-.56,1.09.22,1.96-.28,2.79-.87,0,0-.04.01-.04,0,1.23.04,2.48-.39,3.7.09h0Z"/><path class="cls-2" d="m506.62,408.2c1.76.95,2.38,2.77,3.12,4.41.59,1.3.51,2.8-.11,4.13-.78,1.68-2.23,2.49-4.02,2.74-1.06-.03-2.11-.05-3.17-.08.23-2.92.41-5.85.73-8.76.09-.8.59-1.55.9-2.32.85-.04,1.7-.09,2.55-.13h0Z"/></g><path d="m286.82,292.39c.11-.63.18-1.28.18-1.95,0-6.21-5.03-11.24-11.24-11.24s-11.24,5.03-11.24,11.24c0,.67.07,1.32.18,1.95.57,4.99,2.83,18.45,11.06,26.69,8.23-8.23,10.49-21.69,11.06-26.69Z"/><circle class="cls-1" cx="275.76" cy="289.97" r="6.63"/></g></svg>