<?xml version="1.0" encoding="UTF-8"?><svg id="Layer_2" xmlns="http://www.w3.org/2000/svg" viewBox="0 0 194.5 376.87"><defs><style>.cls-1{fill:#ece200;}.cls-2{fill:#fff;}</style></defs><g id="Layer_2-2"><g id="upper"><path class="cls-1" d="m117.38,326.56c-1.14,1.97-2.5,3.84-3.96,5.59-2.48,2.97-4.77,6.07-6.73,9.39-4.89,8.27-10.8,15.82-16.43,23.57-2.84,3.91-5.67,7.83-8.48,11.76l-4.11-2.49c.06-.06.11-.12.14-.18.11-.2.08-.64-.07-.77-.53-.45-1.11-.87-1.74-1.2-5.17-2.76-10.32-5.56-15.52-8.28l-.08-.05-5.79-3.52c-2.79-1.69-3.71-5.34-1.98-8.11l.06-.09c.54-.84,1.09-1.68,1.59-2.55,1.68-2.98,3.42-5.94,4.52-9.22.41-1.21,1.02-2.34,1.53-3.52.86-1.13,1.78-2.23,2.56-3.41,2.38-3.59,4.31-7.42,6.16-11.29,1.54-3.24,3.25-6.37,5.17-9.39,2.92-4.59,5.6-9.31,7.61-14.39.32-.79.65-1.63,1.21-2.24,1.19-1.3,1.9-2.79,2.57-4.41,1.48-3.53,3.6-4.49,7.2-3.24,2.28.8,4.47,1.88,6.64,2.97,1.79.89,3.6,1.78,5.44,2.57.31.13.62.27.93.39.81.33,1.62.65,2.44.94l9.16,3.96c-.13.29-.21.62-.23.98-.08,2.13-.7,4.33.56,6.29.94,1.47,1.56,3.02,2.01,4.7,1.48,5.44.38,10.49-2.37,15.24h0Z"/><path class="cls-1" d="m79.46,247.28c-.17.83-.44,1.65-.7,2.46-.97,3.03-2.64,5.7-4.29,8.38-4.94,8.05-9.46,16.32-13.56,24.84-2.09,4.34-5.21,8.17-6.99,12.72-.1.25-.34.45-.53.67-4.39,5.06-7,11.08-9.32,17.25-1.74,3.27-3.49,6.53-5.23,9.79-.86,1.63-1.52,3.37-2.75,4.81-2.83,3.3-4.56,7.19-5.7,11.36-1.19.6-1.85,1.71-2.57,2.75-.3.42-.59.85-.87,1.28L0,327.24c3.56-6.75,7.12-13.51,10.68-20.26,8.07-15.32,16.11-30.66,24.21-45.95,4.15-7.84,8.41-15.62,12.62-23.43.27-.5.79-1,.78-1.49,0-2.87,2.04-4.9,2.9-7.37.53-.18.63-.22,1.16-.39l2.77,1.89s0,.03.02.04c.05.09.1.17.17.24.06.08.13.15.2.22.05.04.09.09.14.12.07.06.13.1.19.15.49.33,1.06.53,1.57.79,5.58,2.92,11.18,5.8,16.76,8.71,1.13.59,2.24,1.25,3.32,1.95,1.76,1.13,2.37,2.79,1.97,4.82h0Z"/><path class="cls-1" d="m192.53,13.25c-4.9-1.57-9.84-3.01-14.79-4.45-.73-.21-1.42.09-1.76.83-.18.39-.22.83-.39,1.23-.97,2.3-2.19,2.83-4.31,1.79-2.96-1.46-4.47-3.67-4.37-7.18.13-4.08-2.27-5.96-6.29-5.36-.69.1-1.37.37-2.04.6-3.12,1.1-5.43,3.25-7.07,6-2.79,4.69-5.05,9.6-5.25,15.24-.13,4.03-1.05,7.91-2.55,11.67-3.2,8-7.02,15.67-11.5,23.02-4.26,6.97-8.95,13.64-13.94,20.11-4.91,6.37-7.24,13.56-6.99,21.59.04,1.28-.05,2.58.88,3.65.73.84.64,1.8.39,2.84-1.92,7.94-4.08,15.79-7.76,23.12-.84,1.67-1.7,3.3-1.49,5.28.13,1.19-.63,2.17-1.11,3.2-4.18,8.79-8.32,17.59-11.72,26.72-.5,1.33-1.18,2.61-1.93,3.82-3.98,6.46-8.07,12.83-12.43,19.05-4.44,6.32-8.61,12.84-11.9,19.86-.37.77-.76,1.54-1.25,2.24-3.43,4.82-6.32,9.95-8.99,15.19-.64,1.23-.27,2.74.86,3.54l3.56,2.5c.24.06.47.13.71.21.08.03.17.05.25.08.25.09.5.18.74.28.19.07.38.15.56.23.37.15.73.32,1.09.5,2.57,1.26,5.07,2.67,7.58,4.03,2.51,1.37,5.03,2.69,7.69,3.78,2.25.93,3.71-.34,4.02-2.35.38-2.41.63-4.83.98-7.23.08-.56.32-1.22,1-1.21.65,0,.79.7.99,1.19.79,1.93.68,3.92.21,5.9-.22.97-.59,1.91-.93,2.85-.81,2.19-.17,4,1.62,5.31,1.49,1.09,3.08,2.1,4.76,2.87,3.9,1.78,7.86,3.41,11.82,5.06,1.64.68,2.71.45,3.75-1.04,1.55-2.22,2.95-4.57,4.38-6.87,1.35-2.19,2.68-4.4,4.02-6.59.3-.48.6-.99,1.26-1.12.73.55.27,1.21.1,1.81-2.01,6.91-5.24,13.29-8.67,19.57-3.5,6.4-7.27,12.65-11.65,18.5-.51.69-1.03,1.39-1.42,2.14-2.43,4.68-.9,7.29,2.61,9.42.84.52,1.79.89,2.71,1.26,4.93,2,9.52,4.6,14.01,7.42l6.05,2.53c.36-.3.73-.56,1.09-.83,2.83-2.19,5.55-4.5,7.98-7.14,1.66-1.81,3.27-3.73,3.98-6.05.81-2.62,2.13-4.94,3.2-7.41,1.77-4.13,4.56-7.33,8.35-9.82,2.04-1.34,3.94-2.89,5.78-4.5.87-.75,2.14-1.42,2.31-2.67.67-4.79,2.31-9.47,1.73-14.4-.4-.24-.59-.58-.55-1.05-.13-4.43-1.74-8.36-4.18-11.97-.72-1.07-1.44-2.13-2.2-3.17-3.02-4.12-4.85-8.72-5.79-13.72-1.14-5.97-.88-11.95-.35-17.96.47-5.27,1.08-10.56.99-15.83-.13-7.14-.82-14.28-1.86-21.35-1.13-7.67-1.66-15.36-1.46-23.11.1-3.92.89-7.64,2.55-11.2,1.57-3.37,3.2-6.73,4.55-10.18,3.38-8.68,7.28-17.12,11.51-25.4,4.93-9.69,9.91-19.36,14.72-29.11,1.3-2.62,2.79-4.96,5.1-6.77,1.59-1.23,2.95-2.67,3.99-4.44,3.87-6.52,7.82-13,11.73-19.49,1.05-1.73,1.87-3.54,1.93-5.62.07-2.72.22-5.43.68-8.12.32-1.91-.14-2.79-1.87-3.35v.03Z"/><path class="cls-1" d="m30.39,340.41c2.07-1.38,3.31-3.42,4.36-5.59,1.54-3.17,3.02-6.33,4.96-9.32,2.06-3.16,3.53-6.69,5.26-10.06,3.67-4.99,6.2-10.6,8.77-16.18.72-1.55,1.31-3.13,2.61-4.38.8-.77,1.39-1.84,1.82-2.88,2.25-5.45,5.4-10.4,8.38-15.44,4-6.78,7.84-13.63,10.98-20.86,1.34-3.08,3.84-5.29,6.51-7.23,1.21-.88,2.62-1,4.09-.5,4.22,1.44,8.14,3.5,11.99,5.7,1.63.93,2.05,2.22,1.55,4.03-.26.96-.67,1.89-1.14,2.77-1.47,2.78-3.19,5.44-4.47,8.3-2.05,4.58-4.59,8.84-7.46,12.94-1.22,1.75-2.33,3.64-3.12,5.62-2.44,6.15-5.79,11.78-9.36,17.31-.85,1.32-1.67,2.69-2.24,4.15-2.08,5.37-5.24,10.11-8.23,14.98-2.17,3.52-3.83,7.35-5.67,11.06-.31.62-.34,1.37-.5,2.06-3.3,3.62-5.78,7.77-7.74,12.24-.57,1.3-1.28,2.56-2.07,3.74-1.52,2.26-3.48,3.09-5.9,2-4.03-1.8-7.97-3.84-11.84-5.97-1.91-1.05-2.59-3.01-2.3-5.18.15-1.12.5-2.22.76-3.32h0Z"/></g><path d="m115.01,162.13c.11-.63.18-1.28.18-1.95,0-6.21-5.03-11.24-11.24-11.24s-11.24,5.03-11.24,11.24c0,.67.07,1.32.18,1.95.57,4.99,2.83,18.45,11.06,26.69,8.23-8.23,10.49-21.69,11.06-26.69Z"/><circle class="cls-2" cx="103.96" cy="159.7" r="6.63"/></g></svg>