<?xml version="1.0" encoding="UTF-8"?><svg id="Layer_2" xmlns="http://www.w3.org/2000/svg" viewBox="0 0 130.19 184.29"><defs><style>.cls-1{fill:#fff;}.cls-2{fill:#ffab6f;}</style></defs><g id="Layer_2-2"><g id="lower"><path class="cls-2" d="m129,59.98c-.93,6.9-2.14,13.76-4.05,20.48-1.24,4.4-2.92,8.61-4.71,12.8-1.02,2.39-2.72,3.85-5.1,4.82-4.91,2.01-9.98,3.32-15.19,4.15-4.96-.03-9.93-.07-14.89-.08-2.27,0-4.54.04-6.81.08-.87.02-1.69.17-2.35.82-6.34,1.25-11.63,4.59-16.56,8.54-2.23,1.78-4.37,3.68-6.45,5.62-2.93,2.74-5.91,5.36-9.71,6.86-1.22.48-2.05,1.49-2.91,2.47-2.48,2.82-5.67,4.25-9.41,4.24-4.48-.03-7.81-3.31-8.09-7.76-.08-1.27.46-2.55-.08-3.81-.41-.74-1.07-.78-1.79-.64-2.44-.95-2.7-1.21-2.56-3.16.09-1.27.41-2.53.58-3.79.94-6.91,1.84-13.84,2.81-20.74.86-6.06,1.83-12.11,3.17-18.09.99-4.44,2.02-8.88,1.99-13.5,0-.83.16-1.71.43-2.51.61-1.79,1.85-2.86,3.83-2.78,1.28.04,2.56.15,3.82.31.74.1,1.43.17,1.95-.47.44-.53.67-1.45,1.5-1.3.64.13,1.21.71,1.81,1.07.73.44,1.46.88,2.19,1.31,1.25,1.16,2.54,2.28,3.75,3.48,3.86,3.82,7.69,7.66,11.52,11.51,2.5,2.53,5.3,4.81,6.82,8.15.05.13.16.24.26.33.51.45,1.05.37,1.55.03.82-.56.92-1.55.09-2.13-3.66-2.56-6.5-5.98-9.67-9.06-3.47-3.39-6.86-6.87-10.32-10.27-.89-.88-1.59-2.09-3.11-2.02-.36-2.42-1.81-3.86-4.17-4.15-1.47-.18-1.92-1.02-2.13-2.22-.2-1.13-.42-2.25-.54-3.39-.19-1.84-.94-3.27-2.68-4.08-.39-.18-.78-.37-1.13-.62-.82-.59-.9-2.05-.08-2.59.71-.47,1.54-.74,2.28-1.16,2.01-1.12,3.22-2.77,3.37-5.13.11-1.71.25-3.42.41-5.13.11-1.14.1-2.31.41-3.39,1.21-4.17,1.43-8.43,1.34-12.73.11-.52-.13-.8-.62-.9-.23-.16-.46-.34-.7-.49-.37-.24-.72-.56-.81-.89l.58-.96c1.73-1.29,2.67-3.03,3.24-5.06.11-.39.41-.62.85-.79,1.47-.56,1.74-.74,1.06-1.26,1.76,1.23,7.57,5.16,11.81,6.67h.03c-.53-.08-1.07-.1-1.63-.04-.11.95.58,1.06,1.05,1.31,8.18,4.42,16.29,8.97,24.58,13.17,6.09,3.08,7.54,5.52,5.82,12.3-1.19,4.7-2.23,9.47-2.35,14.37-.39.29-.52.69-.49,1.16-.5,1.62-1.07,3.23-1.5,4.88-1.99,7.42-3.94,14.84-5.92,22.26-.29,1.1-.65,2.2-.37,3.35.05.21.39.42.64.49.23.07.67.06.77-.08.39-.57.78-1.18.98-1.84,1.43-4.92,2.98-9.81,4.16-14.78,1.11-4.69,2.47-9.38,2.16-14.29.12-.21.15-.43.11-.67.54-.82,1.23-1.59,1.59-2.48,1.5-3.71,2.53-7.53,2.51-11.58,0-1.42-.1-2.86.12-4.25.29-1.9,2.09-3.02,3.82-2.26,2.71,1.19,5.48,2.42,7.91,4.09,2.83,1.97,5.76,3.64,8.97,4.83,2.15.8,4.19,1.73,5.96,3.23,1.09.92,2.31,1.64,3.74,1.93,1.03,1.06,2.27,1.65,3.75,1.68.35.79.98,1.12,1.81,1.13,1.73.87,3.46,1.73,5.19,2.6.3.46.65.98.95,1.43.18,3.84-.67,7.59-1.17,11.36h0Z"/><path class="cls-2" d="m24.37,156.18c4.28,1.94,7.07,6.41,6.84,10.85-.09,1.69-.86,2.99-2.03,4.12-1.27,1.21-2.79,1.95-4.46,2.46-3.32,1.01-6.27,2.72-9.07,4.75-1.96,1.43-3.99,2.78-6.02,4.11-1.2.79-2.5,1.37-3.92,1.69-3.04.7-5.79-1.54-5.71-4.64.03-1.34.49-2.53,1.22-3.61.96-1.42,1.95-2.82,2.99-4.19,3.19-4.22,6.44-8.4,9.62-12.62.97-1.29,1.98-2.44,3.62-2.85,2.31-.03,4.61-.06,6.92-.08h0Z"/></g><path d="m50.28,104.37c.05-.27.08-.55.08-.84,0-2.67-2.17-4.84-4.84-4.84s-4.84,2.17-4.84,4.84c0,.29.03.57.08.84.25,2.15,1.22,7.95,4.76,11.5,3.55-3.55,4.52-9.34,4.76-11.5Z"/><circle class="cls-1" cx="45.51" cy="103.33" r="2.86"/></g></svg>