<?xml version="1.0" encoding="UTF-8"?><svg id="Layer_2" xmlns="http://www.w3.org/2000/svg" viewBox="0 0 124.29 145.6"><defs><style>.cls-1{fill:#fff;}.cls-2{fill:#c190ff;}</style></defs><g id="Layer_5"><g id="mid"><path class="cls-2" d="m.38,108.11c-.36.25-.43.52-.35.78l.58-.96c-.07.06-.15.12-.23.18ZM42.51,0c-2.44,4.64-4.89,9.28-7.34,13.92-.54,1.02-1.1,1.99-1.04,3.21.23,5.04-1.93,9.14-5.03,12.88-1.73,2.09-3.49,4.17-5.15,6.32-8.56,11.12-14.02,23.9-19.56,36.63-1.45,3.31-1.46,6.72.34,9.94,1.02,1.8.97,3.53.22,5.34-1.36,3.3-.97,6.76-.99,10.18,0,.96.48,1.5,1.28,2.02,0,0,.01.01.01.02.04.03.08.04.11.07.06.04.13.08.2.14.06.04.13.09.2.15,1.77,1.23,7.57,5.16,11.82,6.67h.02c1.4.19,2.73.73,4.02,1.32,1.55.72,3.06,1.55,4.58,2.34,2.47,1.31,5.05,1.98,7.86,1.52,1.45-1.13,1.95-2.81,2.42-4.44.63-2.18,1.8-3.87,3.86-4.88-.26-2.14.87-3.85,1.77-5.61.65-1.28,1.43-2.48,1.66-3.93.15-.95-.1-1.74-.94-2.21-1.86-1.05-3.77-2.04-5.65-3.06-4.41-2.39-4.83-3.77-2.46-8.16,5.1-9.43,10.21-18.87,15.34-28.28.96-1.76,1.97-3.5,3.08-5.16,1.99-2.98,3.79-6.05,4.97-9.45.83-2.37,2.4-4.19,4.36-5.71,1.35-5.59,3.81-10.68,6.99-15.43L42.51,0Zm20.01,15.2c-1.18.84-2.44.72-3.65.16-1.71-.77-3.15-1.89-3.92-3.99,2.55.85,5.11,1.67,7.64,2.55.21.07.46.43.44.63-.03.24-.3.5-.51.65ZM5.76,100.82c-.07-.06-.14-.11-.2-.15-.07-.06-.14-.1-.2-.14-.03-.03-.07-.04-.11-.07,0-.01-.01-.02-.01-.02l-4.63,7.49c1.73-1.29,2.67-3.03,3.25-5.06.1-.4.41-.62.85-.79,1.47-.56,1.74-.74,1.05-1.26Zm92.58-13.26c8.28-12.9,17.03-25.48,25.95-37.93l-4.11-2.49c-.15.15-.38.27-.52.25-.69-.14-1.4-.29-2.02-.6-3.33-1.63-6.64-3.31-9.95-4.98-.52-.26-.96-.65-1.48-.88-2.44-1.09-4.44-.55-5.91,1.76-.76,1.19-1.2,2.58-1.8,3.87-.53,1.17-.99,2.38-1.64,3.47-.56.94-1.63,1.12-2.64.66-1.03-.47-1.45-1.62-.85-2.46.5-.7,1.13-1.29,1.66-1.96.62-.78,1.3-1.54,1.78-2.4,2.1-3.74,1.58-6.11-2.09-8.26-6.53-3.83-13.16-7.5-19.75-11.23-.5-.29-1.01-.57-1.55-.75-3.29-1.09-5.28-.41-6.72,2.62-1.09,2.33-2.18,4.66-4.18,6.39-.95,3.49-2.31,6.75-4.77,9.47-.57.63-1,1.41-1.34,2.19-5,11.28-11.26,21.87-17.74,32.34-.99,1.59-1.9,3.18-2.13,5.09-.31,2.58.65,4.47,2.91,5.7.49.28,1.04.49,1.58.63,2.12.55,3.48,1.81,4.2,3.9.78,2.32.7,4.54-.64,6.57-1.09,1.67-2.42,3.18-3.65,4.76-1.48,3.36-2.92,6.75-5.35,9.59-.02,1.74.74,2.88,2.28,3.78,7.62,4.52,15.17,9.14,22.78,13.67,1.34.8,2.78,1.47,4.22,2.07,3.57,1.49,7.04,3.15,10.07,5.61.92.75,1.96,1.16,3.1,1.36,1.56.3,3.05.74,4.28,1.81,2.29.68,4.28,1.9,6.15,3.34,1.17.36,2.32.71,3.48,1.08.5-.27.78-.41,1.28-.68.37-1.61-.21-3.09-.73-4.59-.4-.22-.62-.53-.59-1.02-.06-.26-.18-.48-.35-.69-.21-.25-.43-.51-.66-.76-.9-1.21-2.02-2.28-2.48-3.8-.52-.34-.78-.81-.66-1.45-1.61-3.81-1.3-7.95-1.92-11.93-.11-.69.16-1.38.71-1.9.03-.66.32-1.12.98-1.31,2.4-1.12,3.31-2.98,2.79-5.56-.03-.14-.03-.28-.04-.43-.41-5.26.82-10.21,3.05-14.93,1.46-3.12,3.14-6.09,5.01-8.99h0Zm-25.94,4.36c-.86,3.06-2.28,5.86-3.88,8.56-1.9,3.19-3.98,6.26-5.96,9.39-.49.76-1.2,1.18-2.01,1.52-1.05.44-2.22.55-3.11,1.38-.41.38-1.03.68-1.4-.01-.17-.32-.08-.85.07-1.23.49-1.32,1.57-2.04,2.86-2.35,2.21-.53,3.26-1.94,3.92-4.04.49-1.61,1.41-3.1,2.26-4.59,2.4-4.22,4.87-8.4,6.43-13.03.08-.23.39-.39,1.04-1,.42,2.08.25,3.73-.22,5.4Zm14.17-25.38c-.27,2.13-.85,4.17-1.9,6.03-.57,1.01-1.39,1.78-2.54,2.13-.95.3-1.27.21-3.47-.94,2.19-1.23,3.93-2.97,5.21-5.24.48-.86.98-1.72,1.51-2.54.14-.21.49-.4.7-.37.52.06.53.54.49.93Zm-15.52,5.91c-1.55,2-2.25,4.31-2.31,7.12,1.86-.9,2.4-2.42,3.13-3.73.78-1.38,2.07-2.2,3.31-3.15-2.14-1.36-3.18-1.46-4.13-.24Z"/></g><path d="m83.7,98.15c.04-.22.06-.44.06-.66,0-2.11-1.71-3.82-3.82-3.82s-3.82,1.71-3.82,3.82c0,.23.02.45.06.66.19,1.7.96,6.27,3.76,9.07,2.8-2.8,3.56-7.37,3.76-9.07Z"/><circle class="cls-1" cx="79.94" cy="97.32" r="2.25"/></g></svg>